<svg xmlns="http://www.w3.org/2000/svg" viewBox="0 0 173.76 127.05"><defs><style>.cls-1{fill:#ee9730;}.cls-2{fill:#edb188;}.cls-3{fill:#efbe97;}.cls-4{fill:#e8a577;}.cls-5{fill:#f5cda9;}.cls-6{fill:#d3573b;}.cls-7{fill:#f46640;}.cls-8{fill:#f9a42d;}.cls-9{fill:#3f1715;}.cls-10{fill:#21120d;}.cls-11{fill:#421819;}.cls-12{fill:#612423;}.cls-13{fill:#fafbed;}</style></defs><title>Asset 28404-image</title><g id="Layer_2" data-name="Layer 2"><g id="Layer_1-2" data-name="Layer 1"><circle class="cls-1" cx="84.44" cy="34.87" r="34.87" transform="translate(0.08 69.92) rotate(-45)"/><path class="cls-2" d="M173.76,92.91l-8,0-11.84,0-24.14-.06h0L154,79.36Z"/><path class="cls-3" d="M173.76,92.91l-8,0c-2.37-4.52-9.29-7.07-11.22-8.33-2.41-1.57-.51-5.2-.51-5.2Z"/><path class="cls-4" d="M153.91,92.87l-24.14-.06h0c.31-.15,6.3-2.81,10.9-1.82C144.76,91.86,151.77,91.27,153.91,92.87Z"/><path class="cls-2" d="M90.05,92.91l-16.4,0L49.4,92.82,0,92.71H0L49.64,65.16Z"/><path class="cls-3" d="M90.05,92.91l-16.4,0c-4.85-9.25-19-14.48-23-17.05-4.93-3.22-1-10.66-1-10.66Z"/><path class="cls-4" d="M49.4,92.82,0,92.71H0C.67,92.41,12.92,87,22.34,89,30.68,90.75,45,89.56,49.4,92.82Z"/><path class="cls-3" d="M152,92.91l-11.41,0-16.87,0-34.37-.08h0l34.52-19.15Z"/><path class="cls-5" d="M152,92.91l-11.41,0c-3.37-6.44-13.24-10.08-16-11.87-3.42-2.24-.71-7.41-.71-7.41Z"/><path class="cls-2" d="M123.74,92.85l-34.37-.08h0c.45-.2,9-4,15.52-2.59C110.72,91.41,120.69,90.58,123.74,92.85Z"/><path class="cls-6" d="M148,64.59A4.41,4.41,0,0,0,143.74,69V93h8.71v-24A4.35,4.35,0,0,0,148,64.59Z"/><path class="cls-7" d="M148.09,64.59c-1.36,0-2.47,1.94-2.47,4.35V93h4.94v-24C150.56,66.53,149.46,64.59,148.09,64.59Z"/><path class="cls-7" d="M148.09,64.59c-.51,0-.92,1.94-.92,4.35V93H149v-24C149,66.53,148.61,64.59,148.09,64.59Z"/><polygon class="cls-8" points="146.32 67.83 145.75 68.33 145.63 67.26 145.63 67.26 145.52 68.33 144.95 67.83 145.48 68.67 145.48 68.67 145.48 68.67 145.63 68.91 145.63 68.91 145.63 68.91 145.78 68.67 145.78 68.67 146.32 67.83"/><polygon class="cls-8" points="151.24 67.83 150.67 68.33 150.56 67.26 150.56 67.26 150.44 68.33 149.87 67.83 150.4 68.67 150.4 68.67 150.4 68.67 150.56 68.91 150.56 68.91 150.56 68.91 150.71 68.67 150.71 68.67 151.24 67.83"/><polygon class="cls-8" points="148.78 69.48 148.21 69.98 148.09 68.91 148.09 68.91 147.98 69.98 147.41 69.48 147.94 70.32 147.94 70.32 147.94 70.32 148.09 70.56 148.09 70.55 148.09 70.56 148.25 70.32 148.25 70.32 148.78 69.48"/><polygon class="cls-8" points="148.78 73.58 148.21 74.08 148.09 73.01 148.09 73.01 147.98 74.08 147.41 73.58 147.94 74.42 147.94 74.42 147.94 74.42 148.09 74.66 148.09 74.66 148.09 74.66 148.25 74.42 148.25 74.42 148.78 73.58"/><polygon class="cls-8" points="148.78 77.68 148.21 78.18 148.09 77.11 148.09 77.11 147.98 78.18 147.41 77.68 147.94 78.52 147.94 78.52 147.94 78.52 148.09 78.76 148.09 78.76 148.09 78.76 148.25 78.52 148.25 78.52 148.78 77.68"/><polygon class="cls-8" points="146.32 71.64 145.75 72.14 145.63 71.07 145.63 71.07 145.52 72.14 144.95 71.64 145.48 72.48 145.48 72.48 145.48 72.48 145.63 72.72 145.63 72.71 145.63 72.72 145.78 72.48 145.78 72.48 146.32 71.64"/><polygon class="cls-8" points="151.24 71.64 150.67 72.14 150.56 71.07 150.56 71.07 150.44 72.14 149.87 71.64 150.4 72.48 150.4 72.48 150.4 72.48 150.56 72.72 150.56 72.71 150.56 72.72 150.71 72.48 150.71 72.48 151.24 71.64"/><polygon class="cls-8" points="146.32 75.45 145.75 75.94 145.63 74.88 145.63 74.88 145.52 75.95 144.95 75.45 145.48 76.28 145.48 76.28 145.48 76.28 145.63 76.52 145.63 76.52 145.63 76.52 145.78 76.28 145.78 76.28 146.32 75.45"/><polygon class="cls-8" points="151.24 75.45 150.67 75.94 150.56 74.88 150.56 74.88 150.44 75.95 149.87 75.45 150.4 76.28 150.4 76.28 150.4 76.28 150.56 76.52 150.56 76.52 150.56 76.52 150.71 76.28 150.71 76.28 151.24 75.45"/><path class="cls-6" d="M140.11,71.12V69.59a1.88,1.88,0,0,0-1.72-1.92,1.81,1.81,0,0,0-1.91,1.81v3.57a3,3,0,0,0,3,3h4.62V72.43h-2.69A1.31,1.31,0,0,1,140.11,71.12Z"/><path class="cls-7" d="M139.49,74.8a1.75,1.75,0,0,1-1.75-1.75V69.48a.55.55,0,0,1,.55-.55.64.64,0,0,1,.56.66v2.77a1.32,1.32,0,0,0,1.33,1.33h3.56V74.8Z"/><polygon class="cls-8" points="140.19 74.26 139.62 74.76 139.51 73.69 139.51 73.69 139.39 74.76 138.82 74.26 139.36 75.1 139.36 75.1 139.36 75.1 139.51 75.34 139.51 75.34 139.51 75.34 139.66 75.1 139.66 75.1 140.19 74.26"/><polygon class="cls-8" points="138.43 71.64 137.86 72.14 137.75 71.07 137.74 71.07 137.63 72.14 137.06 71.64 137.59 72.48 137.59 72.48 137.59 72.48 137.74 72.72 137.74 72.71 137.74 72.72 137.9 72.48 137.9 72.48 138.43 71.64"/><polygon class="cls-8" points="139.51 69.3 138.94 69.8 138.82 68.73 138.82 68.73 138.71 69.8 138.14 69.3 138.67 70.14 138.67 70.14 138.67 70.14 138.82 70.38 138.82 70.38 138.82 70.38 138.98 70.14 138.98 70.14 139.51 69.3"/><polygon class="cls-8" points="142.84 74.26 142.27 74.76 142.16 73.69 142.15 73.69 142.04 74.76 141.47 74.26 142 75.1 142 75.1 142 75.1 142.15 75.34 142.15 75.34 142.15 75.34 142.31 75.1 142.31 75.1 142.84 74.26"/><path class="cls-6" d="M156.45,78.67V77.13a1.89,1.89,0,0,1,1.72-1.92A1.82,1.82,0,0,1,160.08,77V80.6a3,3,0,0,1-3,3h-4.62V80h2.69A1.31,1.31,0,0,0,156.45,78.67Z"/><path class="cls-7" d="M157.07,82.34a1.74,1.74,0,0,0,1.75-1.74V77a.56.56,0,0,0-.56-.55.62.62,0,0,0-.55.65V79.9a1.33,1.33,0,0,1-1.33,1.34h-3.93v1.1Z"/><polygon class="cls-8" points="156.37 81.81 156.94 82.31 157.05 81.24 157.05 81.24 157.17 82.31 157.74 81.81 157.2 82.65 157.2 82.65 157.2 82.65 157.05 82.88 157.05 82.88 157.05 82.88 156.9 82.65 156.9 82.64 156.37 81.81"/><polygon class="cls-8" points="158.13 79.18 158.7 79.68 158.81 78.61 158.82 78.61 158.93 79.68 159.5 79.18 158.97 80.02 158.97 80.02 158.97 80.02 158.82 80.26 158.82 80.26 158.82 80.26 158.66 80.02 158.66 80.02 158.13 79.18"/><polygon class="cls-8" points="157.05 76.85 157.62 77.35 157.74 76.28 157.74 76.28 157.85 77.35 158.42 76.85 157.89 77.69 157.89 77.69 157.89 77.69 157.74 77.93 157.74 77.92 157.74 77.93 157.58 77.69 157.58 77.69 157.05 76.85"/><polygon class="cls-8" points="153.72 81.81 154.29 82.31 154.41 81.24 154.41 81.24 154.52 82.31 155.09 81.81 154.56 82.65 154.56 82.65 154.56 82.65 154.41 82.88 154.41 82.88 154.41 82.88 154.25 82.65 154.25 82.64 153.72 81.81"/><polygon class="cls-8" points="146.32 79.78 145.75 80.28 145.63 79.22 145.63 79.22 145.52 80.28 144.95 79.78 145.48 80.62 145.48 80.62 145.48 80.62 145.63 80.86 145.63 80.86 145.63 80.86 145.78 80.62 145.78 80.62 146.32 79.78"/><polygon class="cls-8" points="151.24 79.78 150.67 80.28 150.56 79.22 150.56 79.22 150.44 80.28 149.87 79.78 150.4 80.62 150.4 80.62 150.4 80.62 150.56 80.86 150.56 80.86 150.56 80.86 150.71 80.62 150.71 80.62 151.24 79.78"/><polygon class="cls-8" points="148.78 81.43 148.21 81.93 148.09 80.86 148.09 80.86 147.98 81.93 147.41 81.43 147.94 82.27 147.94 82.27 147.94 82.27 148.09 82.51 148.09 82.51 148.09 82.51 148.25 82.27 148.25 82.27 148.78 81.43"/><polygon class="cls-8" points="148.78 85.53 148.21 86.03 148.09 84.97 148.09 84.97 147.98 86.03 147.41 85.53 147.94 86.37 147.94 86.37 147.94 86.37 148.09 86.61 148.09 86.61 148.09 86.61 148.25 86.37 148.25 86.37 148.78 85.53"/><polygon class="cls-8" points="148.78 89.64 148.21 90.14 148.09 89.07 148.09 89.07 147.98 90.14 147.41 89.64 147.94 90.48 147.94 90.48 147.94 90.48 148.09 90.71 148.09 90.71 148.09 90.71 148.25 90.48 148.25 90.47 148.78 89.64"/><polygon class="cls-8" points="146.32 83.59 145.75 84.09 145.63 83.02 145.63 83.02 145.52 84.09 144.95 83.59 145.48 84.43 145.48 84.43 145.48 84.43 145.63 84.67 145.63 84.67 145.63 84.67 145.78 84.43 145.78 84.43 146.32 83.59"/><polygon class="cls-8" points="151.24 83.59 150.67 84.09 150.56 83.02 150.56 83.02 150.44 84.09 149.87 83.59 150.4 84.43 150.4 84.43 150.4 84.43 150.56 84.67 150.56 84.67 150.56 84.67 150.71 84.43 150.71 84.43 151.24 83.59"/><polygon class="cls-8" points="146.32 87.4 145.75 87.9 145.63 86.83 145.63 86.83 145.52 87.9 144.95 87.4 145.48 88.24 145.48 88.24 145.48 88.24 145.63 88.48 145.63 88.47 145.63 88.48 145.78 88.24 145.78 88.24 146.32 87.4"/><polygon class="cls-8" points="151.24 87.4 150.67 87.9 150.56 86.83 150.56 86.83 150.44 87.9 149.87 87.4 150.4 88.24 150.4 88.24 150.4 88.24 150.56 88.48 150.56 88.47 150.56 88.48 150.71 88.24 150.71 88.24 151.24 87.4"/><path class="cls-9" d="M148.48,63.11a5.23,5.23,0,0,0-.39-2.28,5.16,5.16,0,0,0-.38,2.28Z"/><path class="cls-10" d="M148.62,62.67c-.12.19-.24.28-.36.28h-.33c-.12,0-.24-.09-.36-.28l-.59-1,.36,1.65c.2.9.47,1.41.75,1.41s.55-.51.75-1.41l.37-1.65Z"/><path class="cls-9" d="M148.9,63a.84.84,0,0,1-.55.24h-.51a.82.82,0,0,1-.55-.24l-.9-.83.56,1.41c.3.77.71,1.2,1.14,1.2s.85-.43,1.15-1.2l.56-1.41Z"/><path class="cls-10" d="M149.27,63.28a1.8,1.8,0,0,1-.81.2h-.73a1.8,1.8,0,0,1-.81-.2l-1.33-.69.82,1.17a1.92,1.92,0,0,0,3.37,0l.81-1.17Z"/><path class="cls-9" d="M138.38,67a3.26,3.26,0,0,0-.24-1.45,3.34,3.34,0,0,0-.25,1.45Z"/><path class="cls-10" d="M138.47,66.7c-.07.12-.15.18-.23.18H138c-.08,0-.16-.06-.23-.18l-.38-.62.23,1.06c.13.57.3.89.48.89s.35-.32.48-.89l.23-1.06Z"/><path class="cls-9" d="M138.65,66.9a.52.52,0,0,1-.35.15H138a.52.52,0,0,1-.35-.15l-.58-.53.36.9c.19.49.46.76.73.76s.54-.27.73-.76l.35-.9Z"/><path class="cls-10" d="M138.89,67.09a1.21,1.21,0,0,1-.52.13h-.46a1.21,1.21,0,0,1-.52-.13l-.84-.44.52.75a1.22,1.22,0,0,0,2.14,0l.52-.75Z"/><path class="cls-9" d="M158.57,74.15a4.28,4.28,0,0,0-.32-1.88,4.28,4.28,0,0,0-.32,1.88Z"/><path class="cls-10" d="M158.68,73.78c-.09.16-.2.24-.3.24h-.27c-.1,0-.2-.08-.29-.24l-.49-.79.3,1.36c.17.74.39,1.16.62,1.16s.45-.42.62-1.16l.3-1.36Z"/><path class="cls-9" d="M158.91,74a.7.7,0,0,1-.45.2H158a.68.68,0,0,1-.45-.2l-.75-.68.46,1.16c.25.63.59,1,.95,1s.69-.36.94-1l.46-1.16Z"/><path class="cls-10" d="M159.22,74.29a1.47,1.47,0,0,1-.67.16H158a1.44,1.44,0,0,1-.67-.16l-1.09-.57.67,1a1.75,1.75,0,0,0,1.39.82,1.72,1.72,0,0,0,1.38-.82l.68-1Z"/><path class="cls-11" d="M99.6,49.24,86.1,45.39l-1.66,9L89.23,57l1.47,7.23,0,11.51L92.43,85l-6.21-1.06L86,86.14,85,94.71l1.26,1.58,12.67-6.07,4.63-15.13L104.46,65Z"/><polygon class="cls-12" points="78.39 64.27 79.84 75.78 81.09 84.31 85.33 86.32 86.9 95.14 75.23 88.65 69.36 75.09 69.31 65.03 73.56 49.98 84.93 46.15 85.99 53.94 83.24 57.1 78.39 64.27"/><path class="cls-11" d="M58.08,76.1l7-.7,1.68,9.41-7.11-1.23,1.4,11.21L50,93.13,49.17,84l-18.32-.6.2-6,6.61-9.88,5.09-11.12L49,46l.28.3,11.41-.44,1.47,15Zm-20.51-.56,11.75-.13L47.41,60.57l1-.56L49,62.48Z"/><polygon class="cls-12" points="65.69 74.61 64.37 82.26 47.93 83.78 30.19 85.19 29.75 77.03 35.81 66.4 41.35 55.53 49.54 45.63 48.53 60.32 39.33 75.5 52.62 77.15 65.69 74.61"/><path class="cls-11" d="M135.32,76.1l7-.7L144,84.81l-7.1-1.23,1.39,11.21-11-1.66L126.41,84l-18.32-.6.2-6,6.61-9.88L120,56.46,126.19,46l.28.3,11.41-.44,1.47,15Zm-20.51-.56,11.74-.13-1.91-14.84,1-.56.57,2.47Z"/><polygon class="cls-12" points="142.93 74.61 141.61 82.26 125.17 83.78 107.43 85.19 106.99 77.03 113.05 66.4 118.58 55.53 126.78 45.63 125.77 60.32 116.57 75.5 129.86 77.15 142.93 74.61"/><path class="cls-6" d="M24.55,46.62a5.47,5.47,0,0,0-5.26,5.52V98.29H30.1V52A5.41,5.41,0,0,0,24.55,46.62Z"/><path class="cls-7" d="M24.69,46.62C23,46.62,21.63,49,21.63,52V98.29h6.13V52C27.76,49,26.39,46.62,24.69,46.62Z"/><path class="cls-7" d="M24.69,46.62c-.63,0-1.15,2.41-1.15,5.4V98.29h2.3V52C25.84,49,25.33,46.62,24.69,46.62Z"/><polygon class="cls-8" points="22.49 50.65 21.78 51.27 21.64 49.94 21.64 49.94 21.49 51.27 20.79 50.65 21.45 51.69 21.45 51.69 21.45 51.69 21.64 51.98 21.64 51.98 21.64 51.98 21.83 51.69 21.83 51.69 22.49 50.65"/><polygon class="cls-8" points="28.6 50.65 27.89 51.27 27.75 49.94 27.75 49.94 27.61 51.27 26.9 50.65 27.56 51.69 27.56 51.69 27.56 51.69 27.75 51.98 27.75 51.98 27.75 51.98 27.94 51.69 27.94 51.69 28.6 50.65"/><polygon class="cls-8" points="25.54 52.69 24.84 53.31 24.7 51.98 24.69 51.98 24.55 53.31 23.84 52.69 24.5 53.73 24.5 53.73 24.5 53.73 24.69 54.03 24.69 54.03 24.69 54.03 24.88 53.73 24.88 53.73 25.54 52.69"/><polygon class="cls-8" points="25.54 57.78 24.84 58.4 24.7 57.08 24.69 57.08 24.55 58.4 23.84 57.78 24.5 58.83 24.5 58.83 24.5 58.83 24.69 59.12 24.69 59.12 24.69 59.12 24.88 58.83 24.88 58.82 25.54 57.78"/><polygon class="cls-8" points="25.54 62.88 24.84 63.5 24.7 62.17 24.69 62.17 24.55 63.5 23.84 62.88 24.5 63.92 24.5 63.92 24.5 63.92 24.69 64.21 24.69 64.21 24.69 64.21 24.88 63.92 24.88 63.92 25.54 62.88"/><polygon class="cls-8" points="22.49 55.37 21.78 55.99 21.64 54.66 21.64 54.66 21.49 55.99 20.79 55.37 21.45 56.41 21.45 56.41 21.45 56.41 21.64 56.71 21.64 56.71 21.64 56.71 21.83 56.41 21.83 56.41 22.49 55.37"/><polygon class="cls-8" points="28.6 55.37 27.89 55.99 27.75 54.66 27.75 54.66 27.61 55.99 26.9 55.37 27.56 56.41 27.56 56.41 27.56 56.41 27.75 56.71 27.75 56.71 27.75 56.71 27.94 56.41 27.94 56.41 28.6 55.37"/><polygon class="cls-8" points="22.49 60.1 21.78 60.72 21.64 59.39 21.64 59.39 21.49 60.72 20.79 60.1 21.45 61.14 21.45 61.14 21.45 61.14 21.64 61.44 21.64 61.43 21.64 61.44 21.83 61.14 21.83 61.14 22.49 60.1"/><polygon class="cls-8" points="28.6 60.1 27.89 60.72 27.75 59.39 27.75 59.39 27.61 60.72 26.9 60.1 27.56 61.14 27.56 61.14 27.56 61.14 27.75 61.44 27.75 61.43 27.75 61.44 27.94 61.14 27.94 61.14 28.6 60.1"/><path class="cls-6" d="M14.78,54.73V52.82a2.34,2.34,0,0,0-2.13-2.38,2.27,2.27,0,0,0-2.38,2.26v4.43A3.73,3.73,0,0,0,14,60.86h5.74V56.35H16.4A1.62,1.62,0,0,1,14.78,54.73Z"/><path class="cls-7" d="M14,59.29a2.17,2.17,0,0,1-2.17-2.16V52.7a.69.69,0,0,1,.69-.69.77.77,0,0,1,.68.81v3.44a1.66,1.66,0,0,0,1.66,1.66h4.42v1.37Z"/><polygon class="cls-8" points="14.88 58.63 14.18 59.25 14.04 57.92 14.03 57.92 13.89 59.25 13.19 58.63 13.85 59.67 13.85 59.67 13.85 59.67 14.03 59.97 14.03 59.96 14.04 59.97 14.22 59.67 14.22 59.67 14.88 58.63"/><polygon class="cls-8" points="12.69 55.37 11.99 55.99 11.85 54.66 11.84 54.66 11.7 55.99 10.99 55.37 11.65 56.41 11.65 56.41 11.65 56.41 11.84 56.71 11.84 56.71 11.84 56.71 12.03 56.41 12.03 56.41 12.69 55.37"/><polygon class="cls-8" points="14.03 52.47 13.33 53.09 13.19 51.77 13.19 51.77 13.04 53.09 12.34 52.47 13 53.52 13 53.52 13 53.52 13.18 53.81 13.18 53.81 13.19 53.81 13.37 53.52 13.37 53.51 14.03 52.47"/><polygon class="cls-8" points="18.17 58.63 17.46 59.25 17.32 57.92 17.32 57.92 17.18 59.25 16.47 58.63 17.13 59.67 17.13 59.67 17.13 59.67 17.32 59.97 17.32 59.96 17.32 59.97 17.51 59.67 17.51 59.67 18.17 58.63"/><path class="cls-6" d="M35.06,80V78.05a2.34,2.34,0,0,1,2.14-2.38,2.26,2.26,0,0,1,2.38,2.25v4.44a3.74,3.74,0,0,1-3.74,3.73H30.1V81.58h3.34A1.62,1.62,0,0,0,35.06,80Z"/><path class="cls-7" d="M35.84,84.52A2.16,2.16,0,0,0,38,82.36V77.92a.68.68,0,0,0-.68-.68.77.77,0,0,0-.68.81v3.44A1.66,1.66,0,0,1,35,83.15H30.1v1.37Z"/><polygon class="cls-8" points="34.97 83.86 35.67 84.47 35.81 83.15 35.81 83.15 35.96 84.47 36.66 83.86 36 84.9 36 84.9 36 84.9 35.81 85.19 35.81 85.19 35.81 85.19 35.63 84.9 35.63 84.89 34.97 83.86"/><polygon class="cls-8" points="37.16 80.6 37.86 81.22 38 79.89 38.01 79.89 38.15 81.22 38.85 80.6 38.19 81.64 38.19 81.64 38.19 81.64 38.01 81.94 38.01 81.93 38 81.94 37.81 81.64 37.81 81.64 37.16 80.6"/><polygon class="cls-8" points="35.81 77.7 36.52 78.32 36.66 76.99 36.66 76.99 36.81 78.32 37.51 77.7 36.85 78.74 36.85 78.74 36.85 78.74 36.66 79.04 36.66 79.03 36.66 79.04 36.47 78.74 36.47 78.74 35.81 77.7"/><polygon class="cls-8" points="31.68 83.86 32.39 84.47 32.53 83.15 32.53 83.15 32.67 84.47 33.38 83.86 32.72 84.9 32.72 84.9 32.72 84.9 32.53 85.19 32.53 85.19 32.53 85.19 32.34 84.9 32.34 84.89 31.68 83.86"/><polygon class="cls-8" points="22.49 65.49 21.78 66.11 21.64 64.78 21.64 64.78 21.49 66.11 20.79 65.49 21.45 66.53 21.45 66.53 21.45 66.53 21.64 66.82 21.64 66.82 21.64 66.82 21.83 66.53 21.83 66.53 22.49 65.49"/><polygon class="cls-8" points="28.6 65.49 27.89 66.11 27.75 64.78 27.75 64.78 27.61 66.11 26.9 65.49 27.56 66.53 27.56 66.53 27.56 66.53 27.75 66.82 27.75 66.82 27.75 66.82 27.94 66.53 27.94 66.53 28.6 65.49"/><polygon class="cls-8" points="25.54 67.53 24.84 68.15 24.7 66.82 24.69 66.82 24.55 68.15 23.84 67.53 24.5 68.57 24.5 68.57 24.5 68.57 24.69 68.87 24.69 68.87 24.69 68.87 24.88 68.57 24.88 68.57 25.54 67.53"/><polygon class="cls-8" points="25.54 72.62 24.84 73.24 24.7 71.92 24.69 71.92 24.55 73.24 23.84 72.62 24.5 73.67 24.5 73.67 24.5 73.67 24.69 73.96 24.69 73.96 24.69 73.96 24.88 73.67 24.88 73.66 25.54 72.62"/><polygon class="cls-8" points="25.54 77.72 24.84 78.34 24.7 77.01 24.69 77.01 24.55 78.34 23.84 77.72 24.5 78.76 24.5 78.76 24.5 78.76 24.69 79.05 24.69 79.05 24.69 79.05 24.88 78.76 24.88 78.76 25.54 77.72"/><polygon class="cls-8" points="22.49 70.21 21.78 70.83 21.64 69.5 21.64 69.5 21.49 70.83 20.79 70.21 21.45 71.25 21.45 71.25 21.45 71.25 21.64 71.55 21.64 71.55 21.64 71.55 21.83 71.25 21.83 71.25 22.49 70.21"/><polygon class="cls-8" points="28.6 70.21 27.89 70.83 27.75 69.5 27.75 69.5 27.61 70.83 26.9 70.21 27.56 71.25 27.56 71.25 27.56 71.25 27.75 71.55 27.75 71.55 27.75 71.55 27.94 71.25 27.94 71.25 28.6 70.21"/><polygon class="cls-8" points="22.49 74.94 21.78 75.56 21.64 74.23 21.64 74.23 21.49 75.56 20.79 74.94 21.45 75.98 21.45 75.98 21.45 75.98 21.64 76.28 21.64 76.27 21.64 76.28 21.83 75.98 21.83 75.98 22.49 74.94"/><polygon class="cls-8" points="28.6 74.94 27.89 75.56 27.75 74.23 27.75 74.23 27.61 75.56 26.9 74.94 27.56 75.98 27.56 75.98 27.56 75.98 27.75 76.28 27.75 76.27 27.75 76.28 27.94 75.98 27.94 75.98 28.6 74.94"/><polygon class="cls-8" points="22.49 80.62 21.78 81.24 21.64 79.91 21.64 79.91 21.49 81.24 20.79 80.62 21.45 81.66 21.45 81.66 21.45 81.66 21.64 81.95 21.64 81.95 21.64 81.95 21.83 81.66 21.83 81.66 22.49 80.62"/><polygon class="cls-8" points="28.6 80.62 27.89 81.24 27.75 79.91 27.75 79.91 27.61 81.24 26.9 80.62 27.56 81.66 27.56 81.66 27.56 81.66 27.75 81.95 27.75 81.95 27.75 81.95 27.94 81.66 27.94 81.66 28.6 80.62"/><polygon class="cls-8" points="25.54 82.66 24.84 83.28 24.7 81.95 24.69 81.95 24.55 83.28 23.84 82.66 24.5 83.7 24.5 83.7 24.5 83.7 24.69 84 24.69 84 24.69 84 24.88 83.7 24.88 83.7 25.54 82.66"/><polygon class="cls-8" points="25.54 87.75 24.84 88.37 24.7 87.05 24.69 87.05 24.55 88.38 23.84 87.75 24.5 88.8 24.5 88.8 24.5 88.8 24.69 89.09 24.69 89.09 24.69 89.09 24.88 88.8 24.88 88.8 25.54 87.75"/><polygon class="cls-8" points="25.54 92.85 24.84 93.47 24.7 92.14 24.69 92.14 24.55 93.47 23.84 92.85 24.5 93.89 24.5 93.89 24.5 93.89 24.69 94.19 24.69 94.18 24.69 94.19 24.88 93.89 24.88 93.89 25.54 92.85"/><polygon class="cls-8" points="22.49 85.34 21.78 85.96 21.64 84.64 21.64 84.64 21.49 85.96 20.79 85.34 21.45 86.39 21.45 86.39 21.45 86.39 21.64 86.68 21.64 86.68 21.64 86.68 21.83 86.39 21.83 86.38 22.49 85.34"/><polygon class="cls-8" points="28.6 85.34 27.89 85.96 27.75 84.64 27.75 84.64 27.61 85.96 26.9 85.34 27.56 86.39 27.56 86.39 27.56 86.39 27.75 86.68 27.75 86.68 27.75 86.68 27.94 86.39 27.94 86.38 28.6 85.34"/><polygon class="cls-8" points="22.49 90.07 21.78 90.69 21.64 89.36 21.64 89.36 21.49 90.69 20.79 90.07 21.45 91.11 21.45 91.11 21.45 91.11 21.64 91.41 21.64 91.41 21.64 91.41 21.83 91.11 21.83 91.11 22.49 90.07"/><polygon class="cls-8" points="28.6 90.07 27.89 90.69 27.75 89.36 27.75 89.36 27.61 90.69 26.9 90.07 27.56 91.11 27.56 91.11 27.56 91.11 27.75 91.41 27.75 91.41 27.75 91.41 27.94 91.11 27.94 91.11 28.6 90.07"/><path class="cls-9" d="M25.17,44.78A6.33,6.33,0,0,0,24.69,42a6.49,6.49,0,0,0-.48,2.82Z"/><path class="cls-10" d="M25.34,44.23c-.14.24-.29.36-.44.36h-.41q-.22,0-.45-.36L23.31,43l.45,2c.25,1.12.58,1.75.93,1.75s.69-.63.93-1.75l.46-2Z"/><path class="cls-9" d="M25.69,44.62a1,1,0,0,1-.68.3h-.63a1,1,0,0,1-.68-.3l-1.13-1,.7,1.74c.38,1,.89,1.49,1.42,1.49s1-.53,1.43-1.49l.69-1.74Z"/><path class="cls-10" d="M26.15,45a2.12,2.12,0,0,1-1,.25h-.91a2.13,2.13,0,0,1-1-.25l-1.64-.85,1,1.45a2.6,2.6,0,0,0,2.09,1.24,2.57,2.57,0,0,0,2.09-1.24l1-1.45Z"/><path class="cls-9" d="M12.64,49.59a4.11,4.11,0,0,0-.3-1.8,4,4,0,0,0-.31,1.8Z"/><path class="cls-10" d="M12.75,49.24c-.09.15-.19.23-.29.23h-.25c-.1,0-.2-.08-.29-.23l-.46-.76.28,1.3c.16.71.37,1.12.6,1.12s.43-.41.59-1.12l.28-1.3Z"/><path class="cls-9" d="M13,49.49a.69.69,0,0,1-.44.19h-.39a.69.69,0,0,1-.44-.19L11,48.84,11.43,50c.24.6.57.95.91.95s.66-.35.9-.95l.44-1.11Z"/><path class="cls-10" d="M13.26,49.72a1.31,1.31,0,0,1-.63.16H12a1.31,1.31,0,0,1-.63-.16l-1.05-.54.65.93a1.66,1.66,0,0,0,1.33.79,1.66,1.66,0,0,0,1.32-.79l.65-.93Z"/><path class="cls-9" d="M37.7,74.35A5.36,5.36,0,0,0,37.3,72a5.29,5.29,0,0,0-.39,2.33Z"/><path class="cls-10" d="M37.84,73.89c-.12.2-.25.3-.37.3h-.34c-.12,0-.25-.1-.37-.3l-.6-1,.37,1.7c.21.92.48,1.44.77,1.44s.56-.52.77-1.44l.37-1.7Z"/><path class="cls-9" d="M38.12,74.21a.81.81,0,0,1-.56.25H37a.81.81,0,0,1-.56-.25l-.92-.84.57,1.44c.31.79.73,1.23,1.17,1.23s.86-.44,1.17-1.23l.58-1.44Z"/><path class="cls-10" d="M38.5,74.52a1.72,1.72,0,0,1-.82.21h-.76a1.72,1.72,0,0,1-.82-.21l-1.36-.7.84,1.2A2,2,0,0,0,39,75l.84-1.2Z"/><path class="cls-1" d="M167.84,92.14c-.31,0-5.6,8.09-6.14,8.87-2.71,3.88-8.11,4.48-12.26,6.77a22.11,22.11,0,0,0-7.6,7.54c-2.59,4-4.7,8.8-9,10.76-3.48,1.58-7.6.88-11.12-.6-5.86-2.48-10.14-5.38-16.6-6.21a35.06,35.06,0,0,0-18.32,2.53c-5.72,2.47-11.63,6.6-17.61,4.82-7.57-2.26-10.65-12.92-18.46-14.13-5.62-.87-10.69,3.75-16.37,4.16-5.52.41-10.56-3.25-14.08-7.52s-6.09-9.3-9.91-13.32a24.83,24.83,0,0,0-4.42-3.67Z"/><path class="cls-8" d="M167.84,92.14c-.31,0-5.6,8.09-6.14,8.87-2.71,3.88-8.11,4.48-12.26,6.77a22,22,0,0,0-7.59,7.54c-2.6,4-4.71,8.8-9,10.77-3.48,1.57-7.6.87-11.12-.61-5.86-2.47-10.14-5.38-16.6-6.21a35.06,35.06,0,0,0-18.32,2.53c-5.72,2.47-11.63,6.6-17.61,4.82-7.57-2.26-10.66-12.92-18.46-14.13-5.62-.87-10.69,3.75-16.37,4.16-5.52.41-10.56-3.25-14.09-7.52s-6.08-9.3-9.9-13.32a24.83,24.83,0,0,0-4.42-3.67H17.54c.86,1.24,1.75,2.46,2.7,3.62,3.53,4.26,8.57,7.93,14.09,7.52,5.68-.41,10.75-5,16.37-4.16,7.8,1.21,10.89,11.87,18.46,14.12,6,1.78,11.89-2.34,17.61-4.82a35.15,35.15,0,0,1,18.32-2.52c6.46.83,10.74,3.73,16.6,6.21,3.52,1.48,7.64,2.18,11.12.6,4.33-2,6.44-6.76,9-10.76a21.94,21.94,0,0,1,7.59-7.55,44.84,44.84,0,0,1,5.36-2.26Z"/><path class="cls-13" d="M89.3,19h33.16a6,6,0,0,0-6-5.75h0a8.53,8.53,0,0,0-16.2,1.91l-.45,0a4.13,4.13,0,0,0-3.3,1.66,3.58,3.58,0,0,0-.8-.1,3.34,3.34,0,0,0-2.46,1.09,3,3,0,0,0-4,1.22Z"/><path class="cls-13" d="M129.66,19.48H85.18a.29.29,0,0,1-.3-.3h0a.29.29,0,0,1,.3-.29h44.48a.29.29,0,0,1,.3.29h0A.29.29,0,0,1,129.66,19.48Z"/><path class="cls-13" d="M96.86,21.15H80.54a.29.29,0,0,1-.29-.29h0a.29.29,0,0,1,.29-.3H96.86a.29.29,0,0,1,.29.3h0A.29.29,0,0,1,96.86,21.15Z"/><path class="cls-13" d="M115.94,21.15h-9a.3.3,0,0,1-.3-.29h0a.3.3,0,0,1,.3-.3h9a.3.3,0,0,1,.3.3h0A.3.3,0,0,1,115.94,21.15Z"/><path class="cls-13" d="M73.29,36H45.36a5,5,0,0,1,5-4.85h0a7.19,7.19,0,0,1,13.65,1.62,2.47,2.47,0,0,1,.39,0,3.45,3.45,0,0,1,2.77,1.4,3,3,0,0,1,.68-.08A2.77,2.77,0,0,1,70,35a2.48,2.48,0,0,1,3.33,1Z"/><path class="cls-13" d="M39.29,36.4H76.77a.25.25,0,0,0,.25-.25h0a.25.25,0,0,0-.25-.25H39.29a.25.25,0,0,0-.25.25h0A.25.25,0,0,0,39.29,36.4Z"/><path class="cls-13" d="M66.93,37.81H80.67a.25.25,0,0,0,.25-.25h0a.25.25,0,0,0-.25-.25H66.93a.25.25,0,0,0-.25.25h0A.25.25,0,0,0,66.93,37.81Z"/><path class="cls-13" d="M50.85,37.81H58.4a.25.25,0,0,0,.25-.25h0a.25.25,0,0,0-.25-.25H50.85a.25.25,0,0,0-.25.25h0A.25.25,0,0,0,50.85,37.81Z"/></g></g></svg>