<svg xmlns="http://www.w3.org/2000/svg" viewBox="0 0 202.06 210.68"><defs><style>.cls-1{fill:#e0e0e0;}.cls-2{fill:#fff;}.cls-3{fill:#ebebeb;}.cls-4{fill:#f5f5f5;}.cls-5{fill:#263238;}.cls-6{fill:#ff725e;}.cls-7{opacity:0.3;}</style></defs><title>Asset 1brain-thought</title><g id="Layer_2" data-name="Layer 2"><g id="Character"><path class="cls-1" d="M1.15,131.17,4,132.53a2.7,2.7,0,0,1,3.66-1.27,2.6,2.6,0,0,1,1.54,2.55A2.84,2.84,0,0,1,7.9,136c-.86.57-2.27.8-4-.46l-2,4.2L4.7,141.1l.73-1.52A6.11,6.11,0,0,0,12,136.06c2-4.18-1.3-6.93-2.91-7.69C7.81,127.78,3.49,126.1,1.15,131.17Z"/><rect class="cls-1" x="0.56" y="141.38" width="3.18" height="2.97" transform="translate(61.45 12.87) rotate(25.38)"/><path class="cls-1" d="M28.92,177.57l3.23.91a2.85,2.85,0,0,1,3.6-2,2.72,2.72,0,0,1,2.06,2.38,3,3,0,0,1-1,2.55c-.8.75-2.24,1.23-4.3.23l-1.35,4.74,3.2.91.49-1.73a6.48,6.48,0,0,0,6.2-4.82c1.34-4.73-2.59-7-4.4-7.54C35.29,172.85,30.47,171.85,28.92,177.57Z"/><rect class="cls-1" x="30.35" y="188.05" width="3.37" height="3.15" transform="translate(52.82 -1.56) rotate(15.79)"/><path class="cls-2" d="M164.38,75.67l3.1,0a11,11,0,1,0-2-3.36h0Z"/><path class="cls-1" d="M164.38,75.67l.06-.21.19-.63q.26-.87.75-2.49a0,0,0,0,1,.06,0l0,0h0l-.09,0A11,11,0,0,1,168,60.43a10.79,10.79,0,0,1,3.71-2.35A11,11,0,0,1,185,62.48a11.07,11.07,0,0,1,1.69,5.1,11.33,11.33,0,0,1-.8,5.07,11.12,11.12,0,0,1-2.78,3.94,11,11,0,0,1-3.83,2.27,11,11,0,0,1-11.87-3.1h0l-2.32-.07-.58,0h2.9a.05.05,0,0,1,0,0,10.87,10.87,0,0,0,4.39,3,11,11,0,0,0,7.34,0,11,11,0,0,0,6.45-6.11,11.14,11.14,0,0,0,.77-5,10.87,10.87,0,1,0-21,4.74.05.05,0,0,1,0,.07,0,0,0,0,1-.06,0h0l.1,0c-.35,1.06-.62,1.87-.8,2.44l-.22.63Z"/><path class="cls-1" d="M172,66.91H174a1.64,1.64,0,0,1,1.69-1.65,1.57,1.57,0,0,1,1.52,1,1.75,1.75,0,0,1-.14,1.57,2.11,2.11,0,0,1-2.36.8v2.85h1.92v-1a3.75,3.75,0,0,0,2.69-3.66,3.49,3.49,0,0,0-3.63-3.5A3.32,3.32,0,0,0,172,66.91Z"/><rect class="cls-1" x="174.68" y="72.22" width="1.95" height="1.82"/><path class="cls-1" d="M43.63,17h9.1s0-7.63,7.93-7.77a7.34,7.34,0,0,1,7.12,4.7,8.13,8.13,0,0,1-.64,7.36c-1.55,2.54-4.93,4.85-11,3.77V38.39h9V33.54s12.61-3.26,12.61-17.16C77.69,3.09,65.76,0,60.66,0,56.76,0,43.46.94,43.63,17Z"/><rect class="cls-1" x="56.06" y="41.85" width="9.12" height="8.52"/><path class="cls-3" d="M35.55,48.65,28.4,46.74s-1.6,6-7.87,4.45A6,6,0,0,1,15.91,46,6.64,6.64,0,0,1,18,40.34c1.74-1.67,4.89-2.78,9.48-.65l2.8-10.49-7.07-1.89-1,3.82S11.56,31,8.64,42c-2.79,10.46,5.94,15.39,10,16.46C21.66,59.25,32.32,61.3,35.55,48.65Z"/><rect class="cls-3" x="24.59" y="18.7" width="7.43" height="6.94" transform="translate(49.93 50.9) rotate(-165.05)"/><path class="cls-3" d="M173.39,129l6,.64a5.07,5.07,0,0,1,5.73-4.52,4.85,4.85,0,0,1,4.33,3.57,5.36,5.36,0,0,1-1,4.77c-1.18,1.55-3.56,2.82-7.49,1.68l-.94,8.73,5.88.63.34-3.17A11.53,11.53,0,0,0,195.69,131c.94-8.69-6.63-11.55-10-11.91C183.17,118.77,174.41,118.45,173.39,129Z"/><rect class="cls-3" x="179.45" y="146.38" width="6" height="5.6" transform="translate(17.04 -18.7) rotate(6.15)"/><path class="cls-4" d="M.13,164.59l6.24-.67s-.56-5.24,4.88-5.93a5.1,5.1,0,0,1,5.24,2.7,5.61,5.61,0,0,1,.1,5.11c-.87,1.86-3,3.7-7.31,3.41l1,9.17,6.18-.67-.36-3.33a12.13,12.13,0,0,0,7.39-12.72c-1-9.13-9.41-10.37-12.91-10C7.89,152-1.18,153.59.13,164.59Z"/><rect class="cls-4" x="10.81" y="180.4" width="6.3" height="5.89" transform="translate(-19.57 2.55) rotate(-6.15)"/><path class="cls-4" d="M87,23.86l5.5-1.6a4.86,4.86,0,0,1,3.42-6.09A4.62,4.62,0,0,1,101,17.75a5.11,5.11,0,0,1,.91,4.56c-.48,1.81-2.12,3.8-6,4.23l2.35,8.06L103.73,33l-.86-2.93a11.06,11.06,0,0,0,4.59-12.59c-2.34-8-10.09-7.8-13.17-6.9C91.93,11.29,84.06,14.2,87,23.86Z"/><rect class="cls-4" x="99.53" y="35.79" width="5.74" height="5.36" transform="matrix(0.96, -0.28, 0.28, 0.96, -6.68, 30.23)"/><path class="cls-4" d="M185.1,103.64l4.44-1.29a3.93,3.93,0,0,1,2.77-4.93,3.72,3.72,0,0,1,4.14,1.28,4.14,4.14,0,0,1,.74,3.69c-.39,1.46-1.71,3.07-4.86,3.41l1.9,6.51,4.39-1.28-.69-2.36a8.93,8.93,0,0,0,3.71-10.17c-1.9-6.49-8.15-6.3-10.64-5.57C189.09,93.48,182.74,95.84,185.1,103.64Z"/><rect class="cls-4" x="195.23" y="113.27" width="4.64" height="4.33" transform="translate(-24.43 59.98) rotate(-16.27)"/><circle class="cls-2" cx="154.48" cy="37.09" r="18.63" transform="translate(93.67 183.86) rotate(-81)"/><path class="cls-5" d="M173.1,37.09s0-.1,0-.3,0-.5-.06-.88l0-.65c0-.24-.08-.5-.12-.78l-.14-.91a9.27,9.27,0,0,0-.25-1,17.51,17.51,0,0,0-2.06-4.94,18.32,18.32,0,0,0-4.72-5.26l-.8-.6-.87-.53c-.3-.17-.58-.38-.9-.53l-1-.46-.48-.23-.52-.19-1-.38c-.36-.11-.73-.19-1.09-.29a10.66,10.66,0,0,0-1.12-.25,16.4,16.4,0,0,0-2.35-.27c-.4,0-.8-.06-1.2-.05l-1.23.06-.62,0-.61.1c-.42.07-.84.12-1.25.2a18.77,18.77,0,0,0-2.47.73,17.65,17.65,0,0,0-2.41,1.06c-.39.21-.77.46-1.16.69-.18.12-.39.22-.57.36l-.54.4a22.09,22.09,0,0,0-2.1,1.79,22.08,22.08,0,0,0-1.82,2.14l-.42.57-.37.61-.38.62a4.77,4.77,0,0,0-.34.63l-.63,1.3-.5,1.37a20,20,0,0,0-1,5.84,19.68,19.68,0,0,0,1,5.84l.5,1.37.63,1.31.16.32.18.31.38.61.37.61.42.57a20.88,20.88,0,0,0,1.82,2.15,20.81,20.81,0,0,0,2.1,1.78l.54.41c.18.14.38.24.57.36.39.23.77.48,1.16.69a20.51,20.51,0,0,0,2.41,1.06,18.72,18.72,0,0,0,2.47.72c.41.09.83.14,1.25.21l.61.09c.21,0,.42,0,.62,0l1.23.07c.4,0,.81,0,1.2,0a16.4,16.4,0,0,0,2.35-.27A8.66,8.66,0,0,0,159,55c.36-.09.74-.17,1.09-.29l1-.38.52-.18.49-.24,1-.46A10,10,0,0,0,164,53l.87-.53.81-.6a18.56,18.56,0,0,0,4.71-5.26,17.87,17.87,0,0,0,2.07-4.94c.08-.36.2-.69.24-1s.1-.62.14-.9.1-.54.12-.78l0-.65.06-.89c0-.19,0-.3,0-.3a2.33,2.33,0,0,1,0,.3l0,.89,0,.66c0,.23-.07.49-.1.78s-.09.58-.14.91a8.64,8.64,0,0,1-.23,1,17.75,17.75,0,0,1-2,5A18.68,18.68,0,0,1,165.8,52l-.81.6c-.28.19-.58.36-.87.55s-.59.38-.91.53l-1,.47-.5.23-.52.19-1.05.39c-.36.12-.73.2-1.1.3a8.58,8.58,0,0,1-1.14.26,18.12,18.12,0,0,1-2.36.28c-.41,0-.81.06-1.22,0l-1.24-.06c-.21,0-.42,0-.63,0l-.62-.09c-.42-.07-.85-.12-1.27-.21a19.65,19.65,0,0,1-2.5-.73,18.07,18.07,0,0,1-2.44-1.07c-.4-.21-.78-.46-1.17-.69-.19-.12-.4-.23-.58-.37l-.55-.41a20.09,20.09,0,0,1-2.13-1.8,20.38,20.38,0,0,1-1.84-2.18L139,47.6l-.38-.62-.38-.62-.19-.31-.16-.33c-.21-.44-.42-.88-.64-1.32L136.69,43a19.88,19.88,0,0,1-1-5.92,19.63,19.63,0,0,1,1-5.92l.5-1.38.64-1.33a5.71,5.71,0,0,1,.35-.64l.38-.62.38-.61.43-.58a21.29,21.29,0,0,1,1.84-2.17A21.45,21.45,0,0,1,143.35,22l.55-.41c.18-.14.39-.24.58-.36.39-.24.77-.48,1.17-.7a19.43,19.43,0,0,1,2.44-1.07,21.43,21.43,0,0,1,2.5-.73c.42-.08.85-.13,1.26-.2l.63-.09c.21,0,.42,0,.63,0l1.24-.06c.41,0,.81,0,1.22,0a16.54,16.54,0,0,1,2.36.29,11,11,0,0,1,1.14.25c.37.11.74.18,1.1.3l1.05.39.52.19.49.24,1,.47c.33.15.61.36.92.53s.59.35.87.54l.81.61a18.42,18.42,0,0,1,4.73,5.33,17.7,17.7,0,0,1,2,5,9.26,9.26,0,0,1,.23,1c0,.32.09.63.14.91s.08.54.1.78l0,.65,0,.89A2.25,2.25,0,0,1,173.1,37.09Z"/><path class="cls-6" d="M147.85,33.9h3.54a3,3,0,0,1,3.09-3,2.86,2.86,0,0,1,2.77,1.82,3.2,3.2,0,0,1-.25,2.87c-.6,1-1.92,1.89-4.3,1.47v5.19h3.5V40.34a6.83,6.83,0,0,0,4.9-6.67c0-5.18-4.64-6.38-6.62-6.38C153,27.29,147.78,27.66,147.85,33.9Z"/><rect class="cls-6" x="152.69" y="43.58" width="3.55" height="3.32"/><circle class="cls-2" cx="145.7" cy="59.03" r="2.91"/><path class="cls-5" d="M148.62,59s0-.26-.14-.7a2.93,2.93,0,0,0-1.06-1.55,2.87,2.87,0,0,0-2.67-.38,2.78,2.78,0,0,0-1.29,4.28,2.73,2.73,0,0,0,1.29,1,2.87,2.87,0,0,0,2.67-.38,2.93,2.93,0,0,0,1.06-1.55c.12-.44.11-.7.14-.7s0,.06,0,.19a2.48,2.48,0,0,1-.06.53,3,3,0,0,1-1.06,1.67A3,3,0,0,1,142.67,59a3,3,0,0,1,2-2.84,3,3,0,0,1,2.85.45,3,3,0,0,1,1.06,1.67,2.48,2.48,0,0,1,.06.53C148.63,59,148.63,59,148.62,59Z"/><path class="cls-5" d="M149.46,123.93a112.26,112.26,0,0,1,3.07,50.74,4,4,0,0,0,2.74,4.83c1.89.52,4.47-.64,4.83-2.74A121.12,121.12,0,0,0,157,121.85c-1.43-4.84-9-2.78-7.58,2.08Z"/><path class="cls-6" d="M170.07,104A23.38,23.38,0,0,0,154.36,88c1.47-5.48-.86-11.81-3.76-16.61a20,20,0,0,0-13.45-9.14c-5.52-.91-8.94-.42-14.29,1.3-3.2-6.12-9.33-9.44-15.89-10.22a15.86,15.86,0,0,0-16.27,9.3c-1-6.73-8.53-10.71-14.78-9.2S64.91,60.52,62,66.57L146,157c7.45,3,16.64-.12,21.11-7.1s3.78-17.17-1.58-23.4A25.2,25.2,0,0,0,170.07,104Z"/><rect class="cls-5" x="92" y="167.18" width="6.16" height="43.13" transform="translate(20.78 -9.1) rotate(6.15)"/><rect class="cls-5" x="107.82" y="167.18" width="6.16" height="43.13" transform="translate(241.39 364.5) rotate(173.85)"/><path class="cls-6" d="M32.72,78c2.51-7,7.1-12.34,14.12-15.24s15.06-3,22.6-1.64c3.09.54,6.27,1.37,8.65,3.42s3.72,5.6,2.35,8.42a21.78,21.78,0,0,1,32.48,18.61c6.81-.55,14,1,19.37,5.14s8.74,11.26,7.52,18c4.45-.39,8.73,2.48,11.1,6.27s3.14,8.36,3.46,12.82a20.36,20.36,0,0,1-.7,8.19,32.24,32.24,0,0,0-1.4,3.77,19.25,19.25,0,0,0-.09,4.86,22.94,22.94,0,0,1-31.13,22.12c-7.8,8.06-21.78,9.06-30.65,2.2-5.77,1.94-11.89,3.33-17.93,2.56a21.69,21.69,0,0,1-8.75-3.08c-2.41-1.53-3.8-4.47-6.07-5.87s-4.94-.17-7.56-.2a19.62,19.62,0,0,1-8.81-2.21,21,21,0,0,1-10.4-13.4,8.75,8.75,0,0,0-1.22-3.3,8.47,8.47,0,0,0-2.59-1.9,23.12,23.12,0,0,1-6-34.94s-4.4-11.29-.26-21.41S32.72,78,32.72,78Z"/><g class="cls-7"><path d="M167.09,141.84A18.17,18.17,0,0,1,151,150a22.86,22.86,0,0,1-30,14.33c-7.8,8.06-21.78,9.06-30.65,2.21-5.77,1.93-11.89,3.33-17.92,2.55a21.73,21.73,0,0,1-8.76-3.08c-2.41-1.53-3.79-4.47-6.06-5.86s-5-.17-7.56-.21a19.55,19.55,0,0,1-8.81-2.21,20.92,20.92,0,0,1-10.41-13.4,8.43,8.43,0,0,0-1.22-3.3,8.64,8.64,0,0,0-2.59-1.9A23.44,23.44,0,0,1,16,123.47a22.7,22.7,0,0,0-.08,8A23.42,23.42,0,0,0,27,147.52a8.47,8.47,0,0,1,2.59,1.9,8.37,8.37,0,0,1,1.22,3.3,21,21,0,0,0,10.41,13.4,19.68,19.68,0,0,0,8.81,2.21c2.61,0,5.24-1.22,7.56.2s3.65,4.34,6.06,5.86a21.6,21.6,0,0,0,8.76,3.09c6,.77,12.15-.62,17.92-2.56,8.87,6.86,22.85,5.85,30.65-2.2a22.86,22.86,0,0,0,30-14.34,18.14,18.14,0,0,0,16.12-8.19,20.25,20.25,0,0,0,2.53-14.72A18.38,18.38,0,0,1,167.09,141.84Z"/></g><path class="cls-5" d="M65.53,128a1.47,1.47,0,0,1-.18-.25c-.13-.17-.27-.43-.51-.74a17.07,17.07,0,0,0-2.18-2.48,16.68,16.68,0,0,0-4-2.78A15.82,15.82,0,0,0,47,120.66a16.9,16.9,0,0,0-4.45,2,16.22,16.22,0,0,0-2.59,2c-.3.26-.49.49-.64.63l-.23.22s.06-.09.19-.25a8.86,8.86,0,0,1,.61-.67,15.26,15.26,0,0,1,2.57-2.11A16.68,16.68,0,0,1,47,120.44a15.77,15.77,0,0,1,11.8,1.1,16.82,16.82,0,0,1,4,2.86A15.64,15.64,0,0,1,64.92,127c.22.32.36.6.47.77A1.37,1.37,0,0,1,65.53,128Z"/><path class="cls-5" d="M72.16,156.2s0-.06,0-.17l0-.5.06-.8c.06-.32.11-.68.18-1.09A19,19,0,0,1,75,147.13,19.88,19.88,0,0,1,82.4,140a18,18,0,0,1,5.81-2,20,20,0,0,1,6.59.1,19.71,19.71,0,0,1,11,6,16.79,16.79,0,0,1,4.36,9.3,13.81,13.81,0,0,1-1,6.89,9.49,9.49,0,0,1-1.27,2.23l.09-.15.25-.42a12.13,12.13,0,0,0,.84-1.7,13.78,13.78,0,0,0,.88-6.83,16.64,16.64,0,0,0-4.35-9.17,19.57,19.57,0,0,0-10.9-5.93,20.08,20.08,0,0,0-6.51-.1,17.75,17.75,0,0,0-5.74,1.92,20,20,0,0,0-7.41,7,20.34,20.34,0,0,0-1.75,3.55,21.15,21.15,0,0,0-.83,2.88l-.19,1.08-.09.8-.06.49C72.17,156.14,72.16,156.2,72.16,156.2Z"/><path class="cls-5" d="M133.88,161.64a.72.72,0,0,1-.21.11,5.46,5.46,0,0,1-.61.28,10.23,10.23,0,0,1-2.42.61,10.74,10.74,0,0,1-3.69-.17,10.23,10.23,0,0,1-7-5.33,10.68,10.68,0,0,1-1.16-3.51,9.38,9.38,0,0,1-.07-2.49,5.16,5.16,0,0,1,.1-.67.65.65,0,0,1,0-.23,13.35,13.35,0,0,0,.09,3.37,11.25,11.25,0,0,0,1.19,3.43,10.18,10.18,0,0,0,6.88,5.21,11,11,0,0,0,3.63.21A13.46,13.46,0,0,0,133.88,161.64Z"/><path class="cls-5" d="M61.59,69.56a2.82,2.82,0,0,1,.07-.62c.06-.39.18-1,.36-1.64a22.26,22.26,0,0,1,.81-2.36,22.7,22.7,0,0,1,1.38-2.74A21.11,21.11,0,0,1,66,59.7a19.46,19.46,0,0,1,1.71-1.82c.52-.48,1-.85,1.28-1.09a3,3,0,0,1,.51-.35S68.81,57,67.81,58a21.54,21.54,0,0,0-1.66,1.84,24.35,24.35,0,0,0-1.73,2.48A23,23,0,0,0,63,65a22.1,22.1,0,0,0-.85,2.32C61.78,68.7,61.64,69.57,61.59,69.56Z"/><path class="cls-5" d="M43,76.85c0,.05-.86-.2-2.26-.34a15.87,15.87,0,0,0-2.46-.07,17.76,17.76,0,0,0-3,.42,17.3,17.3,0,0,0-2.85,1A15.89,15.89,0,0,0,30.28,79c-1.18.75-1.83,1.35-1.86,1.31a3.12,3.12,0,0,1,.44-.43,4.86,4.86,0,0,1,.55-.47c.22-.16.47-.37.77-.56a14.75,14.75,0,0,1,2.18-1.22,16.58,16.58,0,0,1,2.89-1,16.26,16.26,0,0,1,3-.41,15.71,15.71,0,0,1,2.49.12,9.35,9.35,0,0,1,1,.16,5.55,5.55,0,0,1,.7.17A3.24,3.24,0,0,1,43,76.85Z"/><path class="cls-5" d="M43,116.33a.88.88,0,0,1-.19.17,6.71,6.71,0,0,1-.57.45,13,13,0,0,1-2.32,1.33,14.24,14.24,0,0,1-3.8,1.13,14.53,14.53,0,0,1-4.86-.1,14.27,14.27,0,0,1-4.52-1.77,14.08,14.08,0,0,1-3.09-2.49A13.62,13.62,0,0,1,22,112.93c-.17-.26-.27-.49-.36-.63a1.15,1.15,0,0,1-.1-.23s.19.29.54.81a14.84,14.84,0,0,0,1.68,2.05,14.41,14.41,0,0,0,3.08,2.41,14,14,0,0,0,9.22,1.84,14.48,14.48,0,0,0,3.77-1.06,14.16,14.16,0,0,0,2.33-1.25A9.76,9.76,0,0,1,43,116.33Z"/><path class="cls-5" d="M31.32,138.64c.05,0-.33.84-.72,2.25a19.75,19.75,0,0,0-.52,2.5,21.85,21.85,0,0,0-.18,3.12,20.94,20.94,0,0,0,.32,3.11,19.58,19.58,0,0,0,.63,2.47c.45,1.39.86,2.2.82,2.22a2.4,2.4,0,0,1-.31-.56,5.57,5.57,0,0,1-.32-.68c-.11-.27-.24-.57-.36-.92a17.52,17.52,0,0,1-.68-2.49,20,20,0,0,1-.35-3.15,19.52,19.52,0,0,1,.21-3.15,17.65,17.65,0,0,1,.57-2.52c.1-.36.23-.67.32-.94a6.27,6.27,0,0,1,.29-.69A2.23,2.23,0,0,1,31.32,138.64Z"/><path class="cls-5" d="M62.19,172.92s-.08-.08-.21-.25-.31-.41-.54-.75A30.36,30.36,0,0,1,59.66,169a25,25,0,0,1-2-4.64,22.19,22.19,0,0,1-.66-2.91,20.67,20.67,0,0,1-.22-3.19,25.74,25.74,0,0,1,2.49-10.86,24.33,24.33,0,0,1,1.66-3c.22-.34.41-.58.53-.75a1.72,1.72,0,0,1,.2-.26,1.11,1.11,0,0,1-.16.28c-.11.19-.29.44-.49.78a26.85,26.85,0,0,0-1.58,3,26.56,26.56,0,0,0-2.41,10.78,23.05,23.05,0,0,0,.22,3.16,24.33,24.33,0,0,0,.64,2.88,25.49,25.49,0,0,0,1.9,4.62c.66,1.26,1.27,2.25,1.7,2.92l.5.77A3,3,0,0,1,62.19,172.92Z"/><path class="cls-5" d="M57.39,152.78a1.27,1.27,0,0,1-.53.2,3.74,3.74,0,0,1-1.55,0,8.43,8.43,0,0,1-2.13-.84,12.5,12.5,0,0,1-2.3-1.61,12.34,12.34,0,0,1-3-4.08,11.72,11.72,0,0,1-.52-1.45,2,2,0,0,1-.11-.56s.23.77.79,1.93a13.05,13.05,0,0,0,3,4,12.5,12.5,0,0,0,2.24,1.59,8.64,8.64,0,0,0,2.06.87A4.06,4.06,0,0,0,57.39,152.78Z"/><path class="cls-5" d="M91.86,175.71s-.16-.06-.44-.22-.65-.41-1.11-.73A17,17,0,0,1,84.78,168c-.23-.52-.39-.95-.49-1.25a1.6,1.6,0,0,1-.13-.47s.29.64.78,1.64a19.23,19.23,0,0,0,5.47,6.72C91.3,175.3,91.88,175.68,91.86,175.71Z"/><path class="cls-5" d="M123.81,160.88a3,3,0,0,1,0,.5c0,.32,0,.79,0,1.38a20.86,20.86,0,0,1-.46,4.52,13.57,13.57,0,0,1-1.74,4.19,12.82,12.82,0,0,1-.8,1.13,2.25,2.25,0,0,1-.34.37s.4-.6,1-1.59a15.22,15.22,0,0,0,1.65-4.16,25.49,25.49,0,0,0,.53-4.47A15,15,0,0,1,123.81,160.88Z"/><path class="cls-5" d="M144,136.27s.08,0,.23.1.35.19.61.36a11.17,11.17,0,0,1,2,1.65,12.86,12.86,0,0,1,2.22,3.17,16.45,16.45,0,0,1,.88,2.12,21.05,21.05,0,0,1,.64,2.37,36.31,36.31,0,0,1,.58,8.57c0,1.1-.09,2-.13,2.6,0,.28,0,.52,0,.71a.92.92,0,0,1,0,.24,2.28,2.28,0,0,1,0-.25v-.7c0-.65,0-1.53.05-2.6a39.94,39.94,0,0,0-.65-8.52c-.18-.81-.39-1.6-.63-2.35a17.2,17.2,0,0,0-.85-2.09,13.1,13.1,0,0,0-2.15-3.15,12.37,12.37,0,0,0-1.95-1.69C144.23,136.47,143.94,136.28,144,136.27Z"/><path class="cls-5" d="M138.39,141.54a3.05,3.05,0,0,1,.49-.41c.32-.26.79-.64,1.34-1.12a32.21,32.21,0,0,0,4-4.14,31.8,31.8,0,0,0,3.14-4.81c.35-.65.62-1.19.79-1.56a3,3,0,0,1,.3-.57,4.34,4.34,0,0,1-.21.61c-.15.38-.39.93-.72,1.6A27.39,27.39,0,0,1,144.4,136a27.86,27.86,0,0,1-4.06,4.12c-.58.47-1.06.83-1.4,1.06A2.5,2.5,0,0,1,138.39,141.54Z"/><path class="cls-5" d="M135.52,76.54s0,0,.11.18.15.29.25.53a14.06,14.06,0,0,1,.68,2.08,14.64,14.64,0,0,1-3.49,13.44,13.73,13.73,0,0,1-1.61,1.49,5.25,5.25,0,0,1-.48.34c-.11.08-.17.12-.18.11a6.59,6.59,0,0,1,.6-.53,16.2,16.2,0,0,0,1.54-1.52,15,15,0,0,0,3.45-13.29,16.25,16.25,0,0,0-.6-2.08C135.61,76.81,135.51,76.54,135.52,76.54Z"/><path class="cls-5" d="M144,81.23s-.47,0-1.22.14a9.33,9.33,0,0,0-2.78.9A9.06,9.06,0,0,0,137.6,84c-.53.54-.79.93-.83.91a3.92,3.92,0,0,1,.7-1,8,8,0,0,1,5.24-2.69A3.7,3.7,0,0,1,144,81.23Z"/><path class="cls-5" d="M159.31,133a2.75,2.75,0,0,1,.09-.34c.07-.22.19-.53.3-.95a23.26,23.26,0,0,0,.72-3.59,21.71,21.71,0,0,0,0-5.41,21.47,21.47,0,0,0-1.78-6.36,22.71,22.71,0,0,0-1.69-3,24.5,24.5,0,0,0-2-2.49,21.05,21.05,0,0,0-4.18-3.42,19.1,19.1,0,0,0-3.27-1.63c-.4-.18-.73-.26-.94-.35a1.67,1.67,0,0,1-.32-.13,1.74,1.74,0,0,1,.34.08c.21.07.55.15.95.3a18,18,0,0,1,3.33,1.58,20.32,20.32,0,0,1,4.26,3.42,23.9,23.9,0,0,1,2,2.51,20.87,20.87,0,0,1,3.5,9.46,21.89,21.89,0,0,1,0,5.46,21.63,21.63,0,0,1-.81,3.59,9.61,9.61,0,0,1-.34.94A1.58,1.58,0,0,1,159.31,133Z"/><path class="cls-5" d="M159.28,102.56a3.73,3.73,0,0,1-.29,1.18,10.27,10.27,0,0,1-1.36,2.61,10.1,10.1,0,0,1-2,2.11,3.57,3.57,0,0,1-1,.63,15.29,15.29,0,0,0,2.89-2.89A16.56,16.56,0,0,0,159.28,102.56Z"/><path class="cls-5" d="M109.27,63.57a2.69,2.69,0,0,1,.19.49,4.1,4.1,0,0,1,.17.6c.06.23.13.5.18.8A12.8,12.8,0,0,1,110,67.6a13.93,13.93,0,0,1-.89,5.16,12.63,12.63,0,0,1-.93,1.94,8,8,0,0,1-.43.7c-.14.21-.26.37-.37.51a2.13,2.13,0,0,1-.35.4s.43-.63,1-1.69a13.93,13.93,0,0,0,.86-1.94,15.13,15.13,0,0,0,.67-2.5,17.07,17.07,0,0,0,.22-2.58,15.81,15.81,0,0,0-.16-2.11C109.46,64.3,109.22,63.58,109.27,63.57Z"/><g class="cls-7"><path d="M109.88,148.5c.43-1.07.56-2.6-.49-3.05a2.41,2.41,0,0,0-2.18.55c-2.06,1.37-2.67,2.27-4.71,3.6-1.46.94-3.61,2-5.19,1.25-1.76-.8-1.78-3.26-2.81-4.9a1.69,1.69,0,0,0-1.42-.93,1.78,1.78,0,0,0-1.53,1.24,12,12,0,0,0,.11,2.07,26,26,0,0,1-.1,4.59,11.38,11.38,0,0,0-.18,1.25c-1.7-.12-3.44-.14-5-.24a1.27,1.27,0,0,0-1.08.3,1.61,1.61,0,0,0-.3.89c-.08.55-.13,1.11-.17,1.66-7.94,0-15.43-.4-22.45-4.26-7.56-4.15-11.17-10.86-11.17-20.22,0,0,0-2.81-4-2.87-4.44-.06-4.37,4.87-4.37,4.87-.82,10.15,5.88,19.83,14.68,24.95,8.59,5,18.81,6.33,28.76,6.36a2.41,2.41,0,0,0,.75.64,3.53,3.53,0,0,0,2,.25,17.76,17.76,0,0,0,5.28-1.38,4.43,4.43,0,0,0,2.26,1,18.37,18.37,0,0,0,6.14.22c1.38-.2,3.57-1,4-2.36a7.52,7.52,0,0,1,.33-1.26l0,0a5.72,5.72,0,0,0,.45-.53l.27-.24c.94-.93,1.17-3.83.16-4.71a6.74,6.74,0,0,0,.42-.62l-.31.33a3.27,3.27,0,0,0-.56-4.66l.06-.09-.07.07h0C108.66,150.56,109.16,150.3,109.88,148.5Z"/></g><path class="cls-5" d="M51.23,130c0,9.36,3.61,16.07,11.17,20.22s15.66,4.35,24.28,4.25l.36,8.84c-10.18,0-20.69-1.24-29.49-6.36s-15.5-14.8-14.68-25c0,0-.07-4.93,4.37-4.87C51.27,127.17,51.23,130,51.23,130Z"/><path class="cls-2" d="M109.39,143.13a2.41,2.41,0,0,0-2.18.55c-2.06,1.37-2.67,2.27-4.71,3.6-1.46.94-3.61,2-5.19,1.25-1.76-.8-1.78-3.26-2.81-4.9a1.69,1.69,0,0,0-1.42-.93A1.79,1.79,0,0,0,91.55,144a11.91,11.91,0,0,0,.11,2.06,26,26,0,0,1-.1,4.59c-.17,1.55-.51,4.41.37,5.71a22,22,0,0,0,1.91,5.51c.25.52-.53.12-.07.47a4.87,4.87,0,0,0,2.84,1.49,18.37,18.37,0,0,0,6.14.22c1.38-.2,3.57-1,4-2.36a7.17,7.17,0,0,1,.33-1.25,3.75,3.75,0,0,1,.74-.8c1-1,1.18-4,.1-4.76a3.32,3.32,0,0,0-.41-4.92c1.17-1.67,1.67-1.93,2.39-3.73C110.31,145.11,110.44,143.58,109.39,143.13Z"/><path class="cls-2" d="M95.75,153.19c-.34.3-.58-.81-1-.91a58.62,58.62,0,0,0-8.35-.67,1.27,1.27,0,0,0-1.08.3,1.63,1.63,0,0,0-.3.89,23.46,23.46,0,0,0,.24,7.84c.26,1.3.73,2.72,1.8,3.29a3.53,3.53,0,0,0,2,.25,18.41,18.41,0,0,0,10.48-4.74Z"/><path class="cls-5" d="M93.79,162.51s-.12-.13-.31-.38-.19-.3-.3-.49a6.07,6.07,0,0,1-.35-.68,16.62,16.62,0,0,1-1.31-4.19,17.93,17.93,0,0,1-.26-4.38,5.55,5.55,0,0,1,.08-.76,5.07,5.07,0,0,1,.09-.56,2.18,2.18,0,0,1,.13-.47s-.09.69-.13,1.8a21.19,21.19,0,0,0,.34,4.33A19,19,0,0,0,93,160.89C93.43,161.91,93.82,162.48,93.79,162.51Z"/><path class="cls-5" d="M106.05,156.69c0-.06.58-.5,1.21-1.17s1.06-1.29,1.12-1.26a3.32,3.32,0,0,1-.94,1.43A3.42,3.42,0,0,1,106.05,156.69Z"/><path class="cls-5" d="M105.68,161.56c0-.07.57-.5,1.21-1.17s1.06-1.3,1.12-1.26a3.32,3.32,0,0,1-.94,1.43A3.54,3.54,0,0,1,105.68,161.56Z"/><path class="cls-5" d="M105.24,152.26c0-.06.58-.5,1.21-1.16s1.06-1.3,1.12-1.26a4.64,4.64,0,0,1-2.33,2.42Z"/><path class="cls-5" d="M85.36,105.44c-.15,1.1-4,1.44-8.28,2.93s-7.57,3.47-8.35,2.68c-.36-.38,0-1.47,1.27-2.77A15.27,15.27,0,0,1,82.67,104C84.42,104.3,85.41,104.92,85.36,105.44Z"/><path class="cls-5" d="M126.5,87.7c-.83.86-4-.11-7.84-.24s-7.09.44-7.82-.49c-.32-.45.21-1.31,1.65-2.1a13.29,13.29,0,0,1,12.62.59C126.44,86.38,126.87,87.29,126.5,87.7Z"/><path class="cls-2" d="M127.4,104.27c6.25,2.44,9.22,9.78,6.63,16.4s-9.74,10-16,7.55-9.22-9.78-6.63-16.39S121.15,101.83,127.4,104.27Z"/><path class="cls-5" d="M127.62,103.7c6.25,2.44,9.51,9,7.28,14.75s-9.1,8.34-15.35,5.9-9.5-9-7.27-14.74S121.38,101.26,127.62,103.7Z"/><path class="cls-2" d="M89.7,112.74c5.08,4.38,5.43,12.29.8,17.66S78,136.59,72.91,132.21s-5.44-12.29-.81-17.67S84.62,108.36,89.7,112.74Z"/><path class="cls-5" d="M90.1,112.27c5.08,4.38,6,11.69,2,16.33s-11.36,4.84-16.44.46-6-11.69-2-16.32S85,107.89,90.1,112.27Z"/><g class="cls-7"><path d="M102.46,131.6c-1.37,1-1.25,2.28-1.23,3.94a3.17,3.17,0,0,0,.71,2,2.47,2.47,0,0,0,2,1,4,4,0,0,0,3.06-2.38,15.21,15.21,0,0,0,1.21-5.71A9.9,9.9,0,0,0,102.46,131.6Z"/></g><path class="cls-5" d="M107,136.19s0,.06-.08.17a4.22,4.22,0,0,1-.3.46,7.17,7.17,0,0,1-1.47,1.42,3,3,0,0,1-1.34.49,2.16,2.16,0,0,1-1.58-.47,2.82,2.82,0,0,1-1-1.53,6.21,6.21,0,0,1-.14-1.93,5.52,5.52,0,0,1,.35-1.9,3.45,3.45,0,0,1,1.12-1.42,5.9,5.9,0,0,1,2.82-1.07,14.22,14.22,0,0,1,2-.08,3.33,3.33,0,0,1,.74,0,5.41,5.41,0,0,1-.74,0,16.51,16.51,0,0,0-2,.17,5.77,5.77,0,0,0-2.71,1.07,3.28,3.28,0,0,0-1,1.33,5.41,5.41,0,0,0-.32,1.83,6.28,6.28,0,0,0,.12,1.85,2.59,2.59,0,0,0,.88,1.41,1.88,1.88,0,0,0,1.41.44,2.74,2.74,0,0,0,1.27-.43,7.87,7.87,0,0,0,1.48-1.33C106.86,136.4,107,136.18,107,136.19Z"/><path class="cls-5" d="M85.86,203.35a30.89,30.89,0,0,0-12.23.18,15.53,15.53,0,0,0-5.83,2.4c-1.7,1.28-3.07,2.6-2.91,4.71l31,0C95.87,206.91,89.87,204.05,85.86,203.35Z"/><path class="cls-5" d="M120.07,203.22a30.52,30.52,0,0,1,12.23.18,15.37,15.37,0,0,1,5.83,2.4c1.69,1.28,3,2.73,2.79,4.84l-30.86-.1C110.06,206.78,116.06,203.91,120.07,203.22Z"/><path class="cls-5" d="M74.36,69.94s-.37-.16-1-.42a14.83,14.83,0,0,0-2.92-.79A14.58,14.58,0,0,0,66,68.67a14.31,14.31,0,0,0-5.16,1.73A14.56,14.56,0,0,0,56.7,74a14.72,14.72,0,0,0-3,6.81c-.11.71-.14,1.1-.16,1.1a1.07,1.07,0,0,1,0-.29,7.82,7.82,0,0,1,.06-.82,13.64,13.64,0,0,1,.71-3,14.6,14.6,0,0,1,2.17-4,13.86,13.86,0,0,1,9.4-5.42,14.48,14.48,0,0,1,4.52.12,13.7,13.7,0,0,1,2.92.87c.34.14.58.28.75.36A1.16,1.16,0,0,1,74.36,69.94Z"/><g class="cls-7"><path d="M103.82,84.92A11.26,11.26,0,0,0,91.2,72.21q0-5,0-10s2.58.52,2.62,7.77a10.34,10.34,0,0,1,9.47,5.23C106.65,81,103.82,84.92,103.82,84.92Z"/></g><path class="cls-5" d="M95.16,99.38a2.53,2.53,0,0,1,0-.41l0-.49a4.58,4.58,0,0,0,0-.67,13.44,13.44,0,0,0-.57-4.24c-.1-.44-.3-.87-.46-1.34s-.42-.91-.65-1.39a14,14,0,0,0-.86-1.41c-.16-.23-.32-.47-.49-.7L91.67,88a14.25,14.25,0,0,0-2.79-2.48,13.07,13.07,0,0,0-3.61-1.72,13.68,13.68,0,0,0-4-.48,14,14,0,0,0-3.68.62l-.84.28c-.27.1-.53.22-.8.33a14.37,14.37,0,0,0-1.47.73c-.45.28-.9.54-1.29.84A11.31,11.31,0,0,0,72.1,87a13.63,13.63,0,0,0-2.74,3.28,3.27,3.27,0,0,0-.33.59l-.23.44a2.14,2.14,0,0,1-.2.36,2.07,2.07,0,0,1,.16-.38l.2-.46a5.81,5.81,0,0,1,.31-.6A13.45,13.45,0,0,1,72,86.91c.33-.32.73-.59,1.11-.91s.85-.57,1.31-.86.95-.54,1.49-.75c.26-.11.52-.24.8-.34l.85-.29a14.08,14.08,0,0,1,3.75-.64,13.52,13.52,0,0,1,4,.48A13.87,13.87,0,0,1,89,85.35a14.44,14.44,0,0,1,2.82,2.54l.57.7.5.72a15.34,15.34,0,0,1,.85,1.43c.23.49.47,1,.64,1.42s.36.92.46,1.37a13,13,0,0,1,.5,4.28,4.41,4.41,0,0,1-.06.68c0,.19,0,.35-.07.49A2.15,2.15,0,0,1,95.16,99.38Z"/><path class="cls-5" d="M50.63,114a.74.74,0,0,1-.26,0c-.16-.05-.41-.09-.72-.2a10.8,10.8,0,0,1-2.49-1.14,12.21,12.21,0,0,1-3.07-2.66,11.54,11.54,0,0,1-2.59-9.37,12.5,12.5,0,0,1,1.27-3.86,11.15,11.15,0,0,1,1.56-2.26,5.63,5.63,0,0,1,.52-.54,1.73,1.73,0,0,1,.19-.17,8.54,8.54,0,0,1-.64.77,12,12,0,0,0-1.47,2.28,12.47,12.47,0,0,0-1.2,3.81,12,12,0,0,0,.27,4.87,12.16,12.16,0,0,0,2.26,4.32,12.58,12.58,0,0,0,3,2.66,12.36,12.36,0,0,0,2.43,1.2C50.29,113.86,50.63,114,50.63,114Z"/><path class="cls-5" d="M33.15,96.47a5,5,0,0,1,1.36.15,13.08,13.08,0,0,1,5.89,2.89,5,5,0,0,1,1,1,12.68,12.68,0,0,1-1.06-.84,15.89,15.89,0,0,0-2.76-1.73,16.71,16.71,0,0,0-3.06-1.13C33.66,96.59,33.15,96.51,33.15,96.47Z"/><path class="cls-5" d="M102.63,89.3s-.53-.12-1.38-.27a11.5,11.5,0,0,0-3.34-.09,11,11,0,0,0-3.22.92c-.78.36-1.23.66-1.25.62s.09-.1.29-.24a7.5,7.5,0,0,1,.89-.54,9.52,9.52,0,0,1,3.26-1,10.07,10.07,0,0,1,3.4.16,7.69,7.69,0,0,1,1,.29A1.44,1.44,0,0,1,102.63,89.3Z"/><g class="cls-7"><path d="M98.84,86.8a8.11,8.11,0,0,0-5.35.91A14.1,14.1,0,0,0,80.12,81c-5.25.57-9.37,4.61-11,9.63,2.69-5,7.33-7,12.23-7.13a13.21,13.21,0,0,1,12.06,7,12.45,12.45,0,0,1,10.14-.93A8.2,8.2,0,0,0,98.84,86.8Z"/></g><g class="cls-7"><path d="M46.46,92.65a9.07,9.07,0,0,0-7,4.25,8.92,8.92,0,0,0-6.19-.43,12.78,12.78,0,0,1,8.39,4.35A8.79,8.79,0,0,1,46.46,92.65Z"/></g><g class="cls-7"><path d="M161,113.46c-2.75-4.64-8.74-8.11-14.13-7.93h-.13a21.48,21.48,0,0,1,11.66,10.23,23.49,23.49,0,0,1,2,13.88C163.15,125,163.73,118.1,161,113.46Z"/></g><path class="cls-2" d="M162.52,182.74a9.26,9.26,0,0,0,.11-1.17,12.09,12.09,0,0,0-.19-3.41,6.26,6.26,0,0,0-1-2.19,15.72,15.72,0,0,0,1.3-4.72,3.11,3.11,0,0,0-.2-1.81,4.12,4.12,0,0,0-2.93-1.66,21.34,21.34,0,0,0-7-.3,1.44,1.44,0,0,0-.8.26,1.12,1.12,0,0,0-.27,1,44.88,44.88,0,0,1,.09,5.13,8.79,8.79,0,0,0-3.21,2.06l0,0a32.53,32.53,0,0,1-3.52,2.74,2.25,2.25,0,0,0-1.19,1.54,1.39,1.39,0,0,0,.67,1.29c1.46.94,4.72-1.42,4.72-1.42a14.46,14.46,0,0,1-1.43,3.07c-1.47,2.19-.32.36-2.55,3.69a2.63,2.63,0,0,0-.66,2.16c.3,1,1,1.09,2,.72,1.61-.62,3.73-2.87,5.14-4-.39.48-2.29,3.21-2.6,3.71-.44.7-.89,1.28-.68,1.86s1.05.79,1.67.74a2.3,2.3,0,0,0,1.29-.72,43.26,43.26,0,0,0,3.38-3.77,38.91,38.91,0,0,0-1.73,3.92c-.1.38-.39,1.21-.21,1.56.29.6,1.15.64,1.77.39a7.1,7.1,0,0,0,2.37-2.32,12.24,12.24,0,0,0,1.11-2.34,5.84,5.84,0,0,1-.27.93,6.46,6.46,0,0,0-.56,1.69c0,.37-.43,1.76.16,2.14.8.51,1.47-.33,1.68-.59a19.45,19.45,0,0,0,2.73-5.73A22.56,22.56,0,0,0,162.52,182.74Z"/><path class="cls-5" d="M162.52,182.74a2.49,2.49,0,0,1,0,.31l-.11.92a17.84,17.84,0,0,1-.79,3.47c-.25.73-.53,1.54-.9,2.41a13.83,13.83,0,0,1-1.45,2.71A2.61,2.61,0,0,1,158,193.7a1,1,0,0,1-.9-.23,1.31,1.31,0,0,1-.24-.93,7.47,7.47,0,0,1,.12-.95,2,2,0,0,0,0-.23,1.87,1.87,0,0,1,0-.25c0-.17.09-.33.14-.48.1-.32.23-.63.36-.94a4.44,4.44,0,0,0,.29-1l.17.05a10.66,10.66,0,0,1-1.43,2.81,10.81,10.81,0,0,1-1.12,1.24,4.45,4.45,0,0,1-.69.52,1.86,1.86,0,0,1-.85.28,1.53,1.53,0,0,1-.91-.14,1,1,0,0,1-.36-.33.76.76,0,0,1-.13-.48,3.77,3.77,0,0,1,.17-.9c.08-.29.16-.59.27-.88.44-1.15,1-2.25,1.55-3.41l.19.11c-.74.89-1.49,1.81-2.32,2.71a14.75,14.75,0,0,1-1.32,1.3,2.25,2.25,0,0,1-.84.48,2.21,2.21,0,0,1-1,0,1.54,1.54,0,0,1-.89-.48,1,1,0,0,1-.17-1,4.07,4.07,0,0,1,.46-.88c.17-.28.36-.54.55-.81l2.28-3.26.17.17c-1.28,1.05-2.47,2.3-3.9,3.31a5.52,5.52,0,0,1-1.16.66,2.13,2.13,0,0,1-1.35.21,1,1,0,0,1-.6-.41,1.61,1.61,0,0,1-.29-.64,2,2,0,0,1,.2-1.37c1.53-2.61,3.68-4.75,4.46-7.53l.19.14a12.23,12.23,0,0,1-2,1.14,4.55,4.55,0,0,1-2.21.51,1.65,1.65,0,0,1-1-.54,1.48,1.48,0,0,1-.35-1.1,1.69,1.69,0,0,1,.51-1,4.53,4.53,0,0,1,.85-.68,31.56,31.56,0,0,0,3.29-2.55,9.18,9.18,0,0,1,3.37-2.21l-.07.1a30.21,30.21,0,0,0,0-3.81l-.05-.93a4.24,4.24,0,0,1,0-.94.94.94,0,0,1,.23-.44,1,1,0,0,1,.44-.25,7.08,7.08,0,0,1,.89-.13,21.33,21.33,0,0,1,6.61.36,5.16,5.16,0,0,1,2.7,1.25,2.13,2.13,0,0,1,.56,1.29,6.54,6.54,0,0,1-.07,1.34,15.76,15.76,0,0,1-1.29,4.43v-.06a5.37,5.37,0,0,1,.75,1.44,6.85,6.85,0,0,1,.34,1.37,10.72,10.72,0,0,1,.08,2.2c0,.59-.07,1-.1,1.33s-.06.46-.06.46l0-.46c0-.3.06-.74.06-1.34a11.47,11.47,0,0,0-.1-2.18,6.91,6.91,0,0,0-.35-1.35,5.57,5.57,0,0,0-.74-1.4.06.06,0,0,1,0-.06,16,16,0,0,0,1.24-4.4,6.26,6.26,0,0,0,.06-1.3,2,2,0,0,0-.52-1.2,5.08,5.08,0,0,0-2.61-1.19,21.7,21.7,0,0,0-6.56-.33,5.93,5.93,0,0,0-.86.13.69.69,0,0,0-.52.54,4.31,4.31,0,0,0,0,.88l0,.93a30.48,30.48,0,0,1,0,3.83.12.12,0,0,1-.08.1,9,9,0,0,0-3.28,2.16,29.38,29.38,0,0,1-3.32,2.58,4.33,4.33,0,0,0-.81.66,1.45,1.45,0,0,0-.45.87,1.21,1.21,0,0,0,.31.92,1.34,1.34,0,0,0,.87.46,4.33,4.33,0,0,0,2.08-.49A12.42,12.42,0,0,0,149,180h0a.12.12,0,0,1,.17,0,.11.11,0,0,1,0,.11,17.3,17.3,0,0,1-.82,2,14,14,0,0,1-1.16,1.88c-.2.31-.43.6-.64.9l-.63.91-.63.92c-.2.32-.43.61-.59.93a1.84,1.84,0,0,0-.18,1.21,1.06,1.06,0,0,0,.71.87,2,2,0,0,0,1.2-.19,6.15,6.15,0,0,0,1.11-.64c1.4-1,2.59-2.23,3.89-3.3a.12.12,0,0,1,.17,0,.12.12,0,0,1,0,.15h0L149.33,189c-.19.26-.38.53-.55.81a3.8,3.8,0,0,0-.43.82.84.84,0,0,0,.12.8,1.44,1.44,0,0,0,.76.4,2,2,0,0,0,.87,0,2.29,2.29,0,0,0,.77-.44,14.27,14.27,0,0,0,1.3-1.28c.81-.89,1.57-1.8,2.31-2.69a.12.12,0,0,1,.16,0,.11.11,0,0,1,0,.13c-.53,1.17-1.13,2.27-1.56,3.4a8.39,8.39,0,0,0-.27.85,3.82,3.82,0,0,0-.16.86.64.64,0,0,0,.38.62,1.41,1.41,0,0,0,.79.12,2.41,2.41,0,0,0,1.42-.75,9,9,0,0,0,1.11-1.21,10.63,10.63,0,0,0,1.42-2.76.08.08,0,0,1,.11-.05.09.09,0,0,1,.06.1,5,5,0,0,1-.31,1c-.13.3-.25.61-.36.92a4,4,0,0,0-.13.46,2.07,2.07,0,0,0,0,.22,1,1,0,0,1,0,.25c0,.32-.1.63-.12.93a1.23,1.23,0,0,0,.19.82.84.84,0,0,0,.75.2,2.49,2.49,0,0,0,1.2-1.09,13.54,13.54,0,0,0,1.46-2.66c.37-.87.66-1.68.91-2.4a19.3,19.3,0,0,0,.84-3.45c.06-.39.11-.7.14-.91S162.52,182.74,162.52,182.74Z"/><path class="cls-5" d="M161.52,176s-.48-.37-1.29-.91a9.85,9.85,0,0,0-3.48-1.44,11.32,11.32,0,0,0-3.77,0c-1,.16-1.55.31-1.56.27a1.4,1.4,0,0,1,.4-.15,9.36,9.36,0,0,1,1.13-.29,10.31,10.31,0,0,1,3.85-.06,9.07,9.07,0,0,1,3.53,1.55,10.24,10.24,0,0,1,.9.74A1.52,1.52,0,0,1,161.52,176Z"/></g></g></svg>