<svg xmlns="http://www.w3.org/2000/svg" viewBox="0 0 289.08 45.01"><defs><style>.cls-1{fill:#fff;}</style></defs><title>Asset 4code-bee-white</title><g id="Layer_2" data-name="Layer 2"><g id="Layer_1-2" data-name="Layer 1"><circle class="cls-1" cx="48.67" cy="10.31" r="10.31"/><circle class="cls-1" cx="10.31" cy="34.15" r="10.31"/><path class="cls-1" d="M52.15,21.94A12,12,0,0,1,38.46,2.53,22.06,22.06,0,0,0,8.18,20.81a12.93,12.93,0,0,1,2.26-.19A13.63,13.63,0,0,1,20.9,43,22.06,22.06,0,0,0,52.18,23C52.18,22.61,52.17,22.27,52.15,21.94Z"/><path class="cls-1" d="M103.91,30a9.42,9.42,0,0,1-.83,3.67,13.28,13.28,0,0,1-2.62,3.86,13.44,13.44,0,0,1-4.57,3.09,16.47,16.47,0,0,1-6.48,1.18,22.89,22.89,0,0,1-5.1-.53,14.49,14.49,0,0,1-4.17-1.66,14,14,0,0,1-3.45-3,17.86,17.86,0,0,1-2.39-3.73,19.49,19.49,0,0,1-1.49-4.42,24,24,0,0,1-.49-5,22.1,22.1,0,0,1,1.24-7.66A16.25,16.25,0,0,1,77.13,10a15.55,15.55,0,0,1,5.44-3.66A17.55,17.55,0,0,1,89.21,5.1a16.56,16.56,0,0,1,7.67,1.72A13.93,13.93,0,0,1,102,11.06a8.4,8.4,0,0,1,1.79,4.77A3.11,3.11,0,0,1,103,18a2.77,2.77,0,0,1-2.11.94,2.86,2.86,0,0,1-2.06-.65,8.71,8.71,0,0,1-1.54-2.25,10.77,10.77,0,0,0-3.3-3.94,8,8,0,0,0-4.68-1.3,8.45,8.45,0,0,0-7,3.36q-2.62,3.36-2.63,9.55a17.78,17.78,0,0,0,1.16,6.87A8.7,8.7,0,0,0,84,34.69a9.11,9.11,0,0,0,5,1.36,8.8,8.8,0,0,0,5.24-1.54A9.27,9.27,0,0,0,97.48,30a7.82,7.82,0,0,1,1.14-2.28,2.57,2.57,0,0,1,2.17-.89,3,3,0,0,1,2.2.9A3,3,0,0,1,103.91,30Z"/><path class="cls-1" d="M134.62,28.33a15.65,15.65,0,0,1-.92,5.44,11.73,11.73,0,0,1-6.82,7,14.81,14.81,0,0,1-5.44,1,14.18,14.18,0,0,1-5.39-1A11.89,11.89,0,0,1,111.9,38a12.15,12.15,0,0,1-2.66-4.26,15.66,15.66,0,0,1-.9-5.43,15.56,15.56,0,0,1,.92-5.48,12,12,0,0,1,2.63-4.26,11.65,11.65,0,0,1,4.16-2.72,15.83,15.83,0,0,1,10.83,0,11.75,11.75,0,0,1,6.83,7A15.56,15.56,0,0,1,134.62,28.33Zm-6.63,0a9.92,9.92,0,0,0-1.77-6.28,5.78,5.78,0,0,0-4.78-2.25,5.92,5.92,0,0,0-3.41,1,6.39,6.39,0,0,0-2.27,3,12.11,12.11,0,0,0-.8,4.57,11.82,11.82,0,0,0,.79,4.52,6.48,6.48,0,0,0,2.25,3,5.85,5.85,0,0,0,3.44,1,5.77,5.77,0,0,0,4.78-2.26A9.89,9.89,0,0,0,128,28.33Z"/><path class="cls-1" d="M157.9,38v-.65a16.88,16.88,0,0,1-2.62,2.47,10.17,10.17,0,0,1-2.81,1.46,10.57,10.57,0,0,1-3.3.49,9.72,9.72,0,0,1-4.39-1,10.3,10.3,0,0,1-3.49-2.87,13.19,13.19,0,0,1-2.24-4.37,19,19,0,0,1-.76-5.44q0-6.19,3-9.65a10.09,10.09,0,0,1,8-3.46,10.74,10.74,0,0,1,4.81,1,13.68,13.68,0,0,1,3.82,3V9.21a4.93,4.93,0,0,1,.81-3.07,2.76,2.76,0,0,1,2.31-1,2.85,2.85,0,0,1,2.31,1,4.22,4.22,0,0,1,.81,2.81V38a4,4,0,0,1-.87,2.83,3.11,3.11,0,0,1-4.49,0A4,4,0,0,1,157.9,38Zm-13-9.7a11.18,11.18,0,0,0,.83,4.57A6.38,6.38,0,0,0,148,35.69a5.65,5.65,0,0,0,3.17,1,5.81,5.81,0,0,0,3.18-.91,6.19,6.19,0,0,0,2.3-2.78,11.28,11.28,0,0,0,.86-4.68,11,11,0,0,0-.86-4.53,6.87,6.87,0,0,0-2.32-2.9,5.57,5.57,0,0,0-3.21-1,5.43,5.43,0,0,0-3.24,1,6.68,6.68,0,0,0-2.21,2.95A11.84,11.84,0,0,0,144.92,28.28Z"/><path class="cls-1" d="M189.18,30H176.27a8.83,8.83,0,0,0,.91,4,6.09,6.09,0,0,0,5.57,3.46,8.2,8.2,0,0,0,2.17-.28,7.31,7.31,0,0,0,1.89-.87,15,15,0,0,0,1.7-1.27c.51-.45,1.18-1.07,2-1.84a2.17,2.17,0,0,1,1.45-.44,2.41,2.41,0,0,1,1.65.56,2,2,0,0,1,.63,1.57,4.25,4.25,0,0,1-.71,2.09,8.14,8.14,0,0,1-2.11,2.3A12.31,12.31,0,0,1,187.87,41a15.44,15.44,0,0,1-4.92.72q-6.36,0-9.89-3.63t-3.53-9.84a16.43,16.43,0,0,1,.87-5.42,11.81,11.81,0,0,1,2.54-4.29,10.94,10.94,0,0,1,4.11-2.75,14.84,14.84,0,0,1,5.41-1,12.84,12.84,0,0,1,6.64,1.63,10.68,10.68,0,0,1,4.14,4.22A11.06,11.06,0,0,1,194.62,26c0,1.66-.47,2.73-1.42,3.23A9,9,0,0,1,189.18,30Zm-12.91-3.74h12a8,8,0,0,0-1.83-5.07,5.45,5.45,0,0,0-4.17-1.68,5.31,5.31,0,0,0-4.05,1.7A8.57,8.57,0,0,0,176.27,26.21Z"/><path class="cls-1" d="M215.78,41.15H205a4.43,4.43,0,0,1-3.35-1.06,4.7,4.7,0,0,1-1-3.34V10.1a4.67,4.67,0,0,1,1-3.37,4.59,4.59,0,0,1,3.33-1h11.48a26.7,26.7,0,0,1,4.4.32,9.39,9.39,0,0,1,3.34,1.21,8.89,8.89,0,0,1,2.22,1.9,8.26,8.26,0,0,1,1.47,2.53,8.49,8.49,0,0,1,.51,2.94q0,5.32-5.32,7.79,7,2.22,7,8.65a9.8,9.8,0,0,1-1.52,5.36,9.17,9.17,0,0,1-4.11,3.51,14.83,14.83,0,0,1-3.73,1A38.73,38.73,0,0,1,215.78,41.15Zm-8-30v9.16h6.58a13.19,13.19,0,0,0,4.15-.51,4,4,0,0,0,2.23-1.93,4.42,4.42,0,0,0,.61-2.28c0-1.79-.64-3-1.91-3.56a14.61,14.61,0,0,0-5.83-.88Zm7.47,14.31h-7.47V35.76h7.72q7.27,0,7.27-5.25a4.28,4.28,0,0,0-1.88-3.89A10.55,10.55,0,0,0,215.24,25.41Z"/><path class="cls-1" d="M254.22,30H241.31a8.7,8.7,0,0,0,.9,4,6.12,6.12,0,0,0,5.58,3.46A8.13,8.13,0,0,0,250,37.1a7.52,7.52,0,0,0,1.9-.87A15.85,15.85,0,0,0,253.54,35c.51-.45,1.18-1.07,2-1.84a2.15,2.15,0,0,1,1.45-.44,2.4,2.4,0,0,1,1.64.56,2,2,0,0,1,.63,1.57,4.33,4.33,0,0,1-.7,2.09,8.34,8.34,0,0,1-2.12,2.3A12.31,12.31,0,0,1,252.9,41a15.44,15.44,0,0,1-4.92.72q-6.36,0-9.89-3.63t-3.53-9.84a16.43,16.43,0,0,1,.87-5.42A12,12,0,0,1,238,18.57a10.94,10.94,0,0,1,4.11-2.75,14.9,14.9,0,0,1,5.42-1,12.81,12.81,0,0,1,6.63,1.63,10.7,10.7,0,0,1,4.15,4.22A11.06,11.06,0,0,1,259.66,26c0,1.66-.48,2.73-1.43,3.23A8.92,8.92,0,0,1,254.22,30Zm-12.91-3.74h12a8.05,8.05,0,0,0-1.82-5.07,5.48,5.48,0,0,0-4.17-1.68,5.28,5.28,0,0,0-4.05,1.7A8.44,8.44,0,0,0,241.31,26.21Z"/><path class="cls-1" d="M283.64,30H270.73a8.83,8.83,0,0,0,.9,4,6.12,6.12,0,0,0,5.58,3.46,8.07,8.07,0,0,0,2.16-.28,7.37,7.37,0,0,0,1.9-.87A15.85,15.85,0,0,0,283,35c.52-.45,1.19-1.07,2-1.84a2.17,2.17,0,0,1,1.45-.44,2.38,2.38,0,0,1,1.64.56,2,2,0,0,1,.63,1.57,4.22,4.22,0,0,1-.7,2.09,8.19,8.19,0,0,1-2.12,2.3A12.18,12.18,0,0,1,282.32,41a15.44,15.44,0,0,1-4.92.72q-6.36,0-9.89-3.63T264,28.28a16.43,16.43,0,0,1,.87-5.42,12,12,0,0,1,2.54-4.29,10.94,10.94,0,0,1,4.11-2.75,14.9,14.9,0,0,1,5.42-1,12.81,12.81,0,0,1,6.63,1.63,10.7,10.7,0,0,1,4.15,4.22A11.06,11.06,0,0,1,289.08,26c0,1.66-.48,2.73-1.43,3.23A8.92,8.92,0,0,1,283.64,30Zm-12.91-3.74h12a8,8,0,0,0-1.82-5.07,5.48,5.48,0,0,0-4.17-1.68,5.31,5.31,0,0,0-4.05,1.7A8.44,8.44,0,0,0,270.73,26.21Z"/></g></g></svg>