<svg xmlns="http://www.w3.org/2000/svg" viewBox="0 0 76.57 106.5"><defs><style>.cls-1{fill:#0dc58a;}.cls-2{fill:#2fa367;}.cls-3{fill:#fafdf9;}</style></defs><title>Asset 27document-ills</title><g id="Layer_2" data-name="Layer 2"><g id="Layer_1-2" data-name="Layer 1"><polygon class="cls-1" points="47.37 0 0 0 0 106.5 76.57 106.5 76.57 29.19 47.37 0"/><path class="cls-2" d="M0,43.09V73.77H70.71V43.09H0Z"/><path class="cls-2" d="M47.37,0l29.2,29.19h-23A6.22,6.22,0,0,1,47.37,23Z"/><path class="cls-3" d="M8.33,50.9A.94.94,0,0,1,9.25,50h4.8c5.19,0,8.77,3.56,8.77,8.2v.05c0,4.64-3.58,8.24-8.77,8.24H9.25a.93.93,0,0,1-.92-.94Zm5.72,13.83c4.17,0,6.84-2.82,6.84-6.48v0c0-3.65-2.67-6.53-6.84-6.53H10.19V64.73Z"/><path class="cls-3" d="M26,58.25v0a8.36,8.36,0,0,1,8.44-8.53,8.28,8.28,0,0,1,8.39,8.48v.05a8.42,8.42,0,1,1-16.83,0Zm14.89,0v0a6.55,6.55,0,0,0-6.5-6.81A6.48,6.48,0,0,0,28,58.16v.05A6.57,6.57,0,0,0,34.46,65,6.48,6.48,0,0,0,40.91,58.25Z"/><path class="cls-3" d="M46.05,58.25v0a8.31,8.31,0,0,1,8.34-8.53,8.54,8.54,0,0,1,5.89,2.14,1,1,0,0,1,.38.76,1,1,0,0,1-.94.92,1.12,1.12,0,0,1-.62-.22,6.75,6.75,0,0,0-4.73-1.88A6.47,6.47,0,0,0,48,58.16v.05A6.52,6.52,0,0,0,54.37,65a6.74,6.74,0,0,0,4.9-2,.85.85,0,0,1,.59-.25.92.92,0,0,1,.89.89.9.9,0,0,1-.3.66,8.48,8.48,0,0,1-6.13,2.43A8.23,8.23,0,0,1,46.05,58.25Z"/></g></g></svg>