<svg xmlns="http://www.w3.org/2000/svg" viewBox="0 0 162.71 121.26"><defs><style>.cls-1{fill:#e0e0e0;}.cls-2{fill:#f0f0f0;}.cls-3{fill:#f5f5f5;}.cls-4{fill:#407bff;}.cls-16,.cls-5,.cls-9{fill:#fff;}.cls-13,.cls-5{opacity:0.6;}.cls-6{opacity:0.2;}.cls-16,.cls-7{opacity:0.4;}.cls-8{opacity:0.3;}.cls-9{opacity:0.5;}.cls-10{fill:#e4897b;}.cls-11{fill:#263238;}.cls-12{fill:#de5753;}.cls-14{fill:#ce6f64;}.cls-15{opacity:0.1;}</style></defs><title>Asset 1email-sent</title><g id="Layer_2" data-name="Layer 2"><g id="Character"><rect class="cls-1" y="106.56" width="162.71" height="0.08"/><rect class="cls-1" x="111.71" y="110.01" width="11.2" height="0.08"/><rect class="cls-1" x="29.84" y="110.05" width="6.3" height="0.08"/><rect class="cls-1" x="68.91" y="109.86" width="12.77" height="0.08"/><rect class="cls-1" x="62.88" y="108.7" width="5.71" height="0.08"/><rect class="cls-1" x="120.92" y="108.74" width="17.24" height="0.08"/><path class="cls-1" d="M77.13,92.05H14.29a1.87,1.87,0,0,1-1.86-1.86V1.86A1.86,1.86,0,0,1,14.29,0H77.13A1.86,1.86,0,0,1,79,1.86V90.19A1.87,1.87,0,0,1,77.13,92.05ZM14.29.08a1.78,1.78,0,0,0-1.78,1.78V90.19A1.78,1.78,0,0,0,14.29,92H77.13a1.78,1.78,0,0,0,1.78-1.77V1.86A1.78,1.78,0,0,0,77.13.08Z"/><path class="cls-1" d="M147.52,92.05H84.68a1.87,1.87,0,0,1-1.86-1.86V1.86A1.86,1.86,0,0,1,84.68,0h62.84a1.86,1.86,0,0,1,1.86,1.86V90.19A1.87,1.87,0,0,1,147.52,92.05ZM84.68.08A1.78,1.78,0,0,0,82.9,1.86V90.19A1.78,1.78,0,0,0,84.68,92h62.84a1.77,1.77,0,0,0,1.77-1.77V1.86A1.78,1.78,0,0,0,147.52.08Z"/><path class="cls-1" d="M143,65.83c-4-6.1-.35-12.65-1-19.43s-7.06-8.26-5.84-14c1.42-6.66-2.35-13.06-6.61-13.06s-8,6.4-6.62,13.06c1.22,5.75-5.22,7.23-5.83,14s3,13.33-1,19.43-3,14.16-.7,18.17a15.9,15.9,0,0,0,2.15,2.94,16.33,16.33,0,0,0,23.91,0A15.46,15.46,0,0,0,143.66,84C145.92,80,147,71.92,143,65.83Z"/><path class="cls-2" d="M129.56,70.45h0a2,2,0,0,1,2,2v34.08a0,0,0,0,1,0,0h-4a0,0,0,0,1,0,0V72.48A2,2,0,0,1,129.56,70.45Z"/><path class="cls-1" d="M104.11,106.56H98.59V72.48a2.77,2.77,0,0,1,2.76-2.76h0a2.77,2.77,0,0,1,2.76,2.76Z"/><circle class="cls-2" cx="101.35" cy="80.39" r="16.98"/><circle class="cls-2" cx="114.81" cy="73.68" r="6.69" transform="translate(15.62 167.34) rotate(-76.05)"/><circle class="cls-2" cx="87.62" cy="69.72" r="3.96" transform="translate(4.72 144.99) rotate(-80.75)"/><circle class="cls-2" cx="91.93" cy="67.67" r="2.78"/><path class="cls-1" d="M66.38,86.22A18.38,18.38,0,0,0,59,89a13.56,13.56,0,0,0-1.7-7,23.62,23.62,0,0,0-4.54,6.62c-.45-4.7-1.68-9.25-4.41-12.13-4.1,2.58-6.2,6.87-7.21,11.41a20.67,20.67,0,0,0-7-7.55c-2.51,2.63-3.3,6.28-3.24,10-2.84-3.31-6-5.89-9.08-6.2-.76,5.25.86,10.19,2.91,14.09a15.58,15.58,0,0,0,13.82,8.27H51.92a15.5,15.5,0,0,0,13.72-8.07A14.77,14.77,0,0,0,66.38,86.22Z"/><path class="cls-2" d="M62.56,18.61c1.66-4.84.35-8.29-3.69-8.29-2.54,0-5.68,1.36-8.74,3.57a2.69,2.69,0,0,0-2.88-2c-2.75,0-6.55,2.33-9.53,5.62a4.53,4.53,0,0,0-3.11-1.26c-2.63-.15-5.83,1.19-8.6,3.37A1.53,1.53,0,0,0,24.79,19c-1.52-.08-3.58,1.27-4.6,3-.07.11-.12.22-.18.32H63.37A5.41,5.41,0,0,0,62.56,18.61Z"/><path class="cls-2" d="M62.7,48c.81-2.36.17-4-1.81-4a7.91,7.91,0,0,0-4.26,1.74,1.32,1.32,0,0,0-1.41-1c-1.35,0-3.2,1.14-4.66,2.75a2.18,2.18,0,0,0-1.51-.61,6.72,6.72,0,0,0-4.21,1.64.71.71,0,0,0-.6-.3A2.83,2.83,0,0,0,42,49.65l-.09.16H63.09A2.72,2.72,0,0,0,62.7,48Z"/><path class="cls-2" d="M111.54,30.12a2.74,2.74,0,0,0-.5,0c.16-2.36-.74-3.87-2.67-3.87a8.72,8.72,0,0,0-4.84,2.12c.5-4.58-1.1-7.56-4.71-7.56-2.91,0-6.6,1.93-10.24,5.09A3.08,3.08,0,0,0,85.39,23c-3.17,0-7.67,3.33-11.28,8h0a4.53,4.53,0,0,0-3.49-1.8c-3-.21-6.76,1.7-10.08,4.82a1.53,1.53,0,0,0-1.37-.9c-1.65-.11-3.92,1.61-5.24,3.91H114.2C115.61,33.56,114.49,30.51,111.54,30.12Z"/><ellipse class="cls-3" cx="81.36" cy="117.57" rx="63.1" ry="3.68"/><polygon class="cls-4" points="15.9 31.11 90.09 41.79 100.04 51.84 15.9 31.11"/><polygon class="cls-5" points="15.9 31.11 90.09 41.79 100.04 51.84 15.9 31.11"/><polygon class="cls-4" points="15.9 31.11 90.09 41.79 86.64 56.32 15.9 31.11"/><polygon class="cls-6" points="15.9 31.11 90.09 41.79 86.64 56.32 15.9 31.11"/><path class="cls-4" d="M85.12,14.29l4.31,20.19a2,2,0,0,1-1.57,2.41l-38.42,8.2A2,2,0,0,1,47,43.53L42.72,23.34a2,2,0,0,1,1.56-2.41l38.43-8.2a2,2,0,0,1,2.41,1.56Z"/><path class="cls-7" d="M85.12,14.29l4.31,20.19a2,2,0,0,1-1.57,2.41l-38.42,8.2A2,2,0,0,1,47,43.53L42.72,23.34a2,2,0,0,1,1.56-2.41l38.43-8.2a2,2,0,0,1,2.41,1.56Z"/><path class="cls-4" d="M84.18,13,71.34,28.74A8.28,8.28,0,0,1,61.2,30.9L43,21.75a2.07,2.07,0,0,1,1.24-.82l38.43-8.2A2.07,2.07,0,0,1,84.18,13Z"/><polygon class="cls-4" points="15.9 31.11 77.09 45.66 86.64 56.32 15.9 31.11"/><polygon class="cls-5" points="15.9 31.11 77.09 45.66 86.64 56.32 15.9 31.11"/><rect class="cls-4" x="41.38" y="43.32" width="0.33" height="7.89" transform="translate(-20.24 59.22) rotate(-59.64)"/><rect class="cls-4" x="49.02" y="50.32" width="0.33" height="2.84" transform="translate(-20.32 68.02) rotate(-59.64)"/><polygon class="cls-4" points="15.9 31.11 77.09 45.66 65.19 59.99 15.9 31.11"/><path class="cls-4" d="M97.74,65.19a.69.69,0,0,1-.24,0l-10-4a.65.65,0,0,1-.37-.84A.65.65,0,0,1,88,60l10,4a.65.65,0,0,1,.37.84A.66.66,0,0,1,97.74,65.19Z"/><path class="cls-8" d="M97.74,65.19a.69.69,0,0,1-.24,0l-10-4a.65.65,0,0,1-.37-.84A.65.65,0,0,1,88,60l10,4a.65.65,0,0,1,.37.84A.66.66,0,0,1,97.74,65.19Z"/><path class="cls-4" d="M97.16,59.47a.69.69,0,0,1-.24,0L91.56,57.3A.65.65,0,0,1,92,56.09l5.36,2.12a.66.66,0,0,1,.36.85A.65.65,0,0,1,97.16,59.47Z"/><path class="cls-9" d="M97.16,59.47a.69.69,0,0,1-.24,0L91.56,57.3A.65.65,0,0,1,92,56.09l5.36,2.12a.66.66,0,0,1,.36.85A.65.65,0,0,1,97.16,59.47Z"/><path class="cls-4" d="M86,65.09a.64.64,0,0,1-.23,0L76,61.19A.65.65,0,1,1,76.48,60l9.72,3.85a.65.65,0,0,1,.37.85A.66.66,0,0,1,86,65.09Z"/><path class="cls-8" d="M86,65.09a.64.64,0,0,1-.23,0L76,61.19A.65.65,0,1,1,76.48,60l9.72,3.85a.65.65,0,0,1,.37.85A.66.66,0,0,1,86,65.09Z"/><path class="cls-10" d="M121.16,35.75c.86,1.69,1.65,3.37,2.4,5.1s1.45,3.47,2.06,5.3l.23.69c0,.13.09.33.12.47s.06.31.08.45a11.06,11.06,0,0,1,.11,1.58,27.71,27.71,0,0,1-.13,2.91,48.15,48.15,0,0,1-.89,5.61l-1.78-.2c0-1.83,0-3.69-.11-5.49,0-.9-.08-1.8-.17-2.65a11.56,11.56,0,0,0-.2-1.18,1.28,1.28,0,0,0-.06-.23c0-.09,0-.1-.07-.2l-.25-.62c-.68-1.64-1.44-3.3-2.22-5l-2.36-4.95Z"/><path class="cls-10" d="M123.38,57.1l-.83,1.56,2.66.74a2.75,2.75,0,0,0-.1-2.24Z"/><polygon class="cls-10" points="121.53 60.91 123.98 61.1 125.21 59.4 122.55 58.66 121.53 60.91"/><path class="cls-11" d="M110,24.51c0,.19-.17.32-.29.3s-.19-.2-.16-.39.17-.32.3-.3S110,24.32,110,24.51Z"/><path class="cls-12" d="M109.8,24.83a6.85,6.85,0,0,1-1.23,1.44,1.11,1.11,0,0,0,.87.35Z"/><path class="cls-11" d="M110.86,23.6a.12.12,0,0,1-.09,0,.91.91,0,0,0-.76-.3.11.11,0,0,1-.13-.1A.13.13,0,0,1,110,23a1.15,1.15,0,0,1,1,.38.11.11,0,0,1,0,.16A.11.11,0,0,1,110.86,23.6Z"/><path class="cls-10" d="M115.34,27.17c-.35,1.75-.69,4.95.53,6.12,0,0-.47,1.77-3.72,1.77-3.58,0-1.71-1.77-1.71-1.77,2-.47,1.9-1.92,1.56-3.27Z"/><path class="cls-11" d="M116.36,34.39c.26-.86.55-1.84,0-2.14s-4.19-.69-5.41,0-.87,2.37-.87,2.37Z"/><path class="cls-4" d="M123.87,115.55a.76.76,0,0,1-.57-.16.23.23,0,0,1,0-.27.27.27,0,0,1,.18-.13c.35-.08,1,.37,1,.39a.06.06,0,0,1,0,.06.07.07,0,0,1-.05,0A2.86,2.86,0,0,1,123.87,115.55Zm-.3-.46h-.07a.14.14,0,0,0-.1.08c-.05.09,0,.13,0,.14s.59.14.94.08A1.78,1.78,0,0,0,123.57,115.09Z"/><path class="cls-4" d="M124.48,115.48h0c-.24-.13-.72-.65-.67-.92a.18.18,0,0,1,.18-.15.36.36,0,0,1,.24.07c.28.23.34.92.34,1a.05.05,0,0,1,0,0Zm-.48-1h0c-.07,0-.08,0-.08.06,0,.16.27.56.52.74a1.38,1.38,0,0,0-.28-.75A.21.21,0,0,0,124,114.51Z"/><path class="cls-4" d="M109.51,115.55c-.3,0-.6,0-.7-.18a.22.22,0,0,1,0-.25A.25.25,0,0,1,109,115c.39-.11,1.23.37,1.27.39a0,0,0,0,1,0,.05,0,0,0,0,1,0,0A4.21,4.21,0,0,1,109.51,115.55Zm-.37-.47-.11,0a.14.14,0,0,0-.11.08c0,.07,0,.1,0,.12s.72.16,1.16.1A2.4,2.4,0,0,0,109.14,115.08Z"/><path class="cls-4" d="M110.24,115.48h0c-.28-.13-.86-.65-.81-.92,0-.06,0-.14.21-.16a.4.4,0,0,1,.31.1,1.54,1.54,0,0,1,.37.92,0,0,0,0,1,0,0Zm-.59-1h0c-.1,0-.11,0-.11.07s.36.57.66.74a1.32,1.32,0,0,0-.32-.73A.3.3,0,0,0,109.65,114.51Z"/><polygon class="cls-10" points="112.87 115.42 110.47 115.42 110.24 109.89 112.63 109.89 112.87 115.42"/><polygon class="cls-10" points="127.22 115.42 124.83 115.42 123.63 109.89 126.02 109.89 127.22 115.42"/><path class="cls-11" d="M124.66,115.15h2.69a.21.21,0,0,1,.2.16l.47,2.13a.34.34,0,0,1-.35.42c-.94,0-1.39-.07-2.57-.07-.73,0-2.23.08-3.23.08s-1.14-1-.72-1.09a5.89,5.89,0,0,0,3.12-1.48A.58.58,0,0,1,124.66,115.15Z"/><path class="cls-11" d="M110.49,115.15h2.61a.23.23,0,0,1,.21.16l.47,2.13a.34.34,0,0,1-.35.42c-.94,0-2.3-.07-3.48-.07-1.39,0-2.58.08-4.21.08-1,0-1.25-1-.84-1.09,1.87-.4,3.4-.45,5-1.45A1.13,1.13,0,0,1,110.49,115.15Z"/><path class="cls-10" d="M109.34,37.49a53.69,53.69,0,0,1-6-.8c-1-.19-2-.4-3-.66a24.31,24.31,0,0,1-3-1c-.25-.1-.5-.22-.75-.34a5.42,5.42,0,0,1-.81-.47c-.47-.31-.88-.63-1.28-.95-.79-.64-1.53-1.3-2.26-2-1.46-1.34-2.84-2.74-4.17-4.2l1.2-1.34,4.72,3.39c.78.56,1.57,1.11,2.34,1.63.38.26.78.5,1.14.7a2.84,2.84,0,0,0,.47.23l.59.22A35,35,0,0,0,104,33.15c1.86.29,3.78.53,5.63.72Z"/><path class="cls-4" d="M120.15,33.83c2.24.51,4.51,7.06,4.51,7.06l-4.61,3.31s-1.29-3.05-2.56-5.72S117.86,33.3,120.15,33.83Z"/><path class="cls-7" d="M120.15,33.83c2.24.51,4.51,7.06,4.51,7.06l-4.61,3.31s-1.29-3.05-2.56-5.72S117.86,33.3,120.15,33.83Z"/><path class="cls-4" d="M118.86,37.41l-.91,2c.94,2,1.81,4.07,2,4.61A18.83,18.83,0,0,0,118.86,37.41Z"/><path class="cls-13" d="M118.86,37.41l-.91,2c.94,2,1.81,4.07,2,4.61A18.83,18.83,0,0,0,118.86,37.41Z"/><path class="cls-4" d="M106.76,34s-2.54,2.87-.14,20.66h12.79c.08-2-1.15-11.53.74-20.78a33.21,33.21,0,0,0-4.28-.54,46.81,46.81,0,0,0-5.43,0A23.74,23.74,0,0,0,106.76,34Z"/><path class="cls-7" d="M106.76,34s-2.54,2.87-.14,20.66h12.79c.08-2-1.15-11.53.74-20.78a33.21,33.21,0,0,0-4.28-.54,46.81,46.81,0,0,0-5.43,0A23.74,23.74,0,0,0,106.76,34Z"/><path class="cls-4" d="M105.82,37.41c-.09.67-.15,1.47-.2,2.41a13.46,13.46,0,0,0,3.56-1.67Z"/><path class="cls-13" d="M105.82,37.41c-.09.67-.15,1.47-.2,2.41a13.46,13.46,0,0,0,3.56-1.67Z"/><path class="cls-4" d="M111.28,37.76c-1.71,1.51-8.24,1.36-8.24,1.36l-.22-6.32a48.77,48.77,0,0,0,6.66.48C113.14,33.21,113.16,36.09,111.28,37.76Z"/><path class="cls-7" d="M111.28,37.76c-1.71,1.51-8.24,1.36-8.24,1.36l-.22-6.32a48.77,48.77,0,0,0,6.66.48C113.14,33.21,113.16,36.09,111.28,37.76Z"/><path class="cls-10" d="M89.42,25.8l-1.64-1.91L86,25.83s1.08,1.81,2.8,1.52Z"/><polygon class="cls-10" points="85.46 21.65 84.83 24.15 86.02 25.83 87.78 23.89 85.46 21.65"/><polygon class="cls-14" points="110.24 109.89 110.36 112.74 112.75 112.74 112.63 109.89 110.24 109.89"/><polygon class="cls-14" points="126.02 109.89 123.63 109.89 124.25 112.74 126.64 112.74 126.02 109.89"/><path class="cls-11" d="M111.68,22.13c-2.15-1-2.83-5.31,3.34-4.24,0,0-.93,1,1,1.68S116.29,24.26,111.68,22.13Z"/><path class="cls-10" d="M116.34,25.39c-.62,2.29-.86,3.66-2.28,4.62a3.15,3.15,0,0,1-4.85-2.64c-.08-2.19.94-5.57,3.4-6A3.24,3.24,0,0,1,116.34,25.39Z"/><path class="cls-11" d="M114.94,19.05c1.46.82,3.44,1.3,3.24,2.46-.24,1.42,1.2.53.86,2.64-.22,1.38-2.76,5.55-4.54,5.34-2.69-.3-2.35-4.41-2.36-6.56C112.14,21.66,112.08,17.45,114.94,19.05Z"/><path class="cls-11" d="M111.82,20.88c-.65.15-1.51,3.9,1,4.25C115.73,25.52,111.82,20.88,111.82,20.88Z"/><path class="cls-11" d="M111.88,22.21c-.79.07-2.59-.89-2.38-2.33A8.44,8.44,0,0,0,111.88,22.21Z"/><path class="cls-10" d="M113.07,25.43a2.66,2.66,0,0,1-1.18,1.25c-.69.36-1.08-.16-.92-.85s.67-1.55,1.37-1.63S113.35,24.78,113.07,25.43Z"/><path class="cls-11" d="M116.65,22.78a3.21,3.21,0,0,0,1.88-2.39S119.6,23.39,116.65,22.78Z"/><path class="cls-11" d="M119.36,22.75a1.63,1.63,0,0,0-1.55-.16S118.81,21.29,119.36,22.75Z"/><path class="cls-4" d="M111.16,54.61s2.71,18.27,4.2,25.12c1.63,7.49,7.77,32.46,7.77,32.46h4.38s-4.05-24.36-5-31.78c-1-8.06-3.12-25.8-3.12-25.8Z"/><path class="cls-9" d="M111.16,54.61s2.71,18.27,4.2,25.12c1.63,7.49,7.77,32.46,7.77,32.46h4.38s-4.05-24.36-5-31.78c-1-8.06-3.12-25.8-3.12-25.8Z"/><path class="cls-4" d="M122.43,110.58s.46,1.68.46,1.68h4.92l-.09-1.5Z"/><path class="cls-15" d="M122.43,110.58s.46,1.68.46,1.68h4.92l-.09-1.5Z"/><path class="cls-4" d="M112.87,61.12c3.14.62,2.81,12.32,2.43,18.33-.91-4.25-2.23-12.43-3.14-18.24A1.06,1.06,0,0,1,112.87,61.12Z"/><path class="cls-16" d="M112.87,61.12c3.14.62,2.81,12.32,2.43,18.33-.91-4.25-2.23-12.43-3.14-18.24A1.06,1.06,0,0,1,112.87,61.12Z"/><path class="cls-4" d="M106.62,54.61s-.33,17.88-.07,25.17c.27,7.58,2.92,32.41,2.92,32.41h4s.15-24.38.33-31.83C114,72.24,115,54.61,115,54.61Z"/><path class="cls-9" d="M106.62,54.61s-.33,17.88-.07,25.17c.27,7.58,2.92,32.41,2.92,32.41h4s.15-24.38.33-31.83C114,72.24,115,54.61,115,54.61Z"/><path class="cls-4" d="M110.31,109.28s0,0,0,0c-.71-6.88-2.39-23.5-2.61-29.47s0-19.75,0-23.79a0,0,0,0,1,0,0h0a0,0,0,0,1,0,0c-.07,4-.26,17.7-.05,23.79s1.9,22.59,2.61,29.46c0,0,0,0,0,0Z"/><path class="cls-16" d="M110.31,109.28s0,0,0,0c-.71-6.88-2.39-23.5-2.61-29.47s0-19.75,0-23.79a0,0,0,0,1,0,0h0a0,0,0,0,1,0,0c-.07,4-.26,17.7-.05,23.79s1.9,22.59,2.61,29.46c0,0,0,0,0,0Z"/><path class="cls-4" d="M108.69,110.58s.23,1.68.23,1.68h4.92l.14-1.5Z"/><path class="cls-15" d="M108.69,110.58s.23,1.68.23,1.68h4.92l.14-1.5Z"/></g></g></svg>