<svg xmlns="http://www.w3.org/2000/svg" viewBox="0 0 64.21 67.18"><defs><style>.cls-1{fill:#0dc58a;}.cls-2{opacity:0.3;}.cls-3{opacity:0.5;}.cls-4{fill:#ebebeb;}</style></defs><title>Asset 1email-verf</title><g id="Layer_2" data-name="Layer 2"><g id="Envelope"><polygon class="cls-1" points="0.47 25.47 62.48 25.02 64.21 67.18 0 66.59 0.47 25.47"/><polyline class="cls-1" points="0.47 25.47 31.95 0 62.48 25.02"/><g class="cls-2"><polyline class="cls-1" points="0.47 25.47 31.95 0 62.48 25.02"/></g><path class="cls-1" d="M0,66.59c-.08-.07,4.89-5.49,11.09-12.11S22.38,42.57,22.46,42.64s-4.89,5.49-11.09,12.11S.08,66.66,0,66.59Z"/><path class="cls-1" d="M64.21,67.18c-.08.07-4.91-5.24-10.8-11.86s-10.59-12-10.51-12.11,4.92,5.24,10.8,11.86S64.29,67.11,64.21,67.18Z"/><g class="cls-3"><polyline class="cls-1" points="62.48 25.02 31.34 49.9 0.47 25.47"/></g><polygon class="cls-4" points="3.59 27.78 3.5 9.74 57.82 8.41 58.41 28.15 31.34 49.57 3.59 27.78"/><path class="cls-1" d="M32.1,43.09c-.51,0-1,0-1.55-.08a13.51,13.51,0,1,1,15-11.91h0a13.51,13.51,0,0,1-13.4,12Zm0-26.56a13,13,0,0,0-1.46,26A13,13,0,0,0,45,31.05h0A13,13,0,0,0,33.54,16.62,12.25,12.25,0,0,0,32.06,16.53Z"/><polygon class="cls-1" points="22.89 31.46 25.15 28.69 30.43 32.51 39.01 22.39 41.6 24.66 30.56 37.39 22.89 31.46"/></g></g></svg>