<svg xmlns="http://www.w3.org/2000/svg" viewBox="0 0 142.25 17.04"><defs><style>.cls-1{fill:#fff;}</style></defs><title>Asset 2designed by freepick</title><g id="Layer_2" data-name="Layer 2"><g id="DESIGNED_BY_FREEPIK" data-name="DESIGNED BY FREEPIK"><path class="cls-1" d="M81.23,4.19a7.75,7.75,0,0,0-1.11,1.45l-.47-.24a.6.6,0,1,0-.51.73.41.41,0,0,0,.18,0l.45.24a7.33,7.33,0,0,0-.54,1.74l.75.13a6.57,6.57,0,0,1,1.79-3.47Z"/><path class="cls-1" d="M86.72,1.89h-.51l-.08-.62A.72.72,0,0,0,86.4.63.73.73,0,0,0,85.6,0,.72.72,0,0,0,85,.8a.7.7,0,0,0,.4.56l.07.63a7.57,7.57,0,0,0-2.06.64l.33.69a6.83,6.83,0,0,1,3-.68,7.27,7.27,0,0,1,1.47.16l.16-.74A8.05,8.05,0,0,0,86.72,1.89Z"/><path class="cls-1" d="M93.32,4.43a.6.6,0,1,0-.68-.59l-.41.37a7.82,7.82,0,0,0-1.41-1.14l-.41.64A6.75,6.75,0,0,1,93,6.64l.69-.32a7.56,7.56,0,0,0-.94-1.54l.4-.35A.6.6,0,0,0,93.32,4.43Z"/><path class="cls-1" d="M86.17,12.1l-1.16,0A16,16,0,0,1,82.53,12a8.19,8.19,0,0,1-1.27-.29A6.2,6.2,0,0,0,92.6,10.28a9.33,9.33,0,0,1-2.46,1.12A17.1,17.1,0,0,1,86.17,12.1Z"/><path class="cls-1" d="M86.72,3.4a6,6,0,0,0-6.08,5.95,5.92,5.92,0,0,0,.13,1.26c.68.48,2.71.89,5.35.73a11.45,11.45,0,0,0,6.67-2.16,5.65,5.65,0,0,0,0-.58A6,6,0,0,0,86.72,3.4ZM84.56,9.92a1.85,1.85,0,1,1,1.85-1.85A1.85,1.85,0,0,1,84.56,9.92ZM89.29,9a1.36,1.36,0,1,1,1.36-1.36A1.36,1.36,0,0,1,89.29,9Z"/><path class="cls-1" d="M102.72,5.27A2.8,2.8,0,0,0,101.34,5a.87.87,0,0,0-.85,1v.87h2.23V8.62h-2.23v5.46H98.56V8.62H97.22V6.91h1.34V6a2.47,2.47,0,0,1,2.57-2.79,4,4,0,0,1,1.59.31Z"/><path class="cls-1" d="M107.42,8.6a3.12,3.12,0,0,0-.52,0,1.43,1.43,0,0,0-1.51,1.61v3.91h-1.94V6.91h1.88v.78a2.27,2.27,0,0,1,2-1,1.77,1.77,0,0,1,1.09.34Z"/><path class="cls-1" d="M115.09,10.48a6,6,0,0,1,0,.65H110a1.72,1.72,0,0,0,1.84,1.49,2.86,2.86,0,0,0,1.81-.69l1.14,1.24a4.35,4.35,0,0,1-3.06,1.09A3.54,3.54,0,0,1,108,10.51a3.54,3.54,0,0,1,3.62-3.8A3.47,3.47,0,0,1,115.09,10.48ZM110,9.81h3.17a1.59,1.59,0,0,0-3.17,0Z"/><path class="cls-1" d="M122.74,10.48a6.18,6.18,0,0,1,0,.65h-5.09a1.73,1.73,0,0,0,1.84,1.49,2.89,2.89,0,0,0,1.82-.69l1.13,1.24a4.34,4.34,0,0,1-3.06,1.09,3.54,3.54,0,0,1-3.72-3.75,3.54,3.54,0,0,1,3.63-3.8A3.46,3.46,0,0,1,122.74,10.48Zm-5.11-.67h3.17a1.54,1.54,0,0,0-1.56-1.43A1.56,1.56,0,0,0,117.63,9.81Z"/><path class="cls-1" d="M131.09,10.49a3.55,3.55,0,0,1-3.47,3.77,2.62,2.62,0,0,1-2.11-.93V17h-1.93V6.91h1.89V7.7a2.6,2.6,0,0,1,2.14-1A3.56,3.56,0,0,1,131.09,10.49Zm-5.68,0a1.85,1.85,0,1,0,3.69,0,1.85,1.85,0,1,0-3.69,0Z"/><path class="cls-1" d="M134.19,4.56A1.23,1.23,0,1,1,133,3.32,1.22,1.22,0,0,1,134.19,4.56Zm-.26,9.52H132V6.91h1.93Z"/><path class="cls-1" d="M137.16,9.46l2.7-2.55h2.37l-3.48,3.37,3.5,3.8h-2.38l-2.71-2.9v2.9h-1.94V3.42h1.94Z"/><path class="cls-1" d="M5.54,14V13a3,3,0,0,1-2.39,1.23C1.3,14.19,0,12.78,0,10.48S1.29,6.76,3.15,6.76A3,3,0,0,1,5.54,8V4.24h1.1V14Zm0-1.92V8.89A2.67,2.67,0,0,0,3.41,7.74C2,7.74,1.14,8.91,1.14,10.48S2,13.21,3.41,13.21A2.64,2.64,0,0,0,5.54,12.09Z"/><path class="cls-1" d="M8.06,10.47a3.54,3.54,0,0,1,3.48-3.71c2.14,0,3.4,1.67,3.4,3.8v.27H9.21a2.5,2.5,0,0,0,2.55,2.45,3.07,3.07,0,0,0,2.18-.89l.53.71a3.8,3.8,0,0,1-2.81,1.09A3.5,3.5,0,0,1,8.06,10.47Zm3.47-2.8A2.36,2.36,0,0,0,9.21,10h4.65A2.3,2.3,0,0,0,11.53,7.67Z"/><path class="cls-1" d="M15.73,13.07l.57-.79a3.17,3.17,0,0,0,2.33,1c1.09,0,1.67-.51,1.67-1.21,0-1.71-4.38-.66-4.38-3.28,0-1.1,1-2,2.64-2a3.58,3.58,0,0,1,2.62,1l-.51.76a2.77,2.77,0,0,0-2.11-.89c-1,0-1.57.48-1.57,1.11,0,1.55,4.38.53,4.38,3.28,0,1.19-.95,2.14-2.78,2.14A3.75,3.75,0,0,1,15.73,13.07Z"/><path class="cls-1" d="M22.6,5.19a.74.74,0,1,1,.73.74A.74.74,0,0,1,22.6,5.19ZM22.79,14V6.94h1.1V14Z"/><path class="cls-1" d="M25.71,15.83l.55-.82a2.72,2.72,0,0,0,2.3,1,2,2,0,0,0,2.27-2.13v-1a2.93,2.93,0,0,1-2.37,1.26c-1.85,0-3.15-1.38-3.15-3.66s1.29-3.68,3.15-3.68A2.92,2.92,0,0,1,30.83,8V6.94h1.1v6.87c0,2.34-1.64,3.07-3.37,3.07A3.59,3.59,0,0,1,25.71,15.83ZM30.83,12V8.89a2.6,2.6,0,0,0-2.11-1.15c-1.42,0-2.27,1.13-2.27,2.7s.85,2.69,2.27,2.69A2.62,2.62,0,0,0,30.83,12Z"/><path class="cls-1" d="M38.54,14V9.38c0-1.24-.63-1.64-1.58-1.64a2.74,2.74,0,0,0-2.1,1.1V14h-1.1V6.94h1.1V8a3.54,3.54,0,0,1,2.52-1.2,2,2,0,0,1,2.26,2.29v5Z"/><path class="cls-1" d="M41.06,10.47a3.54,3.54,0,0,1,3.48-3.71c2.14,0,3.4,1.67,3.4,3.8v.27H42.21a2.5,2.5,0,0,0,2.55,2.45A3.11,3.11,0,0,0,47,12.39l.52.71a3.8,3.8,0,0,1-2.81,1.09A3.51,3.51,0,0,1,41.06,10.47Zm3.47-2.8A2.36,2.36,0,0,0,42.21,10h4.65A2.3,2.3,0,0,0,44.53,7.67Z"/><path class="cls-1" d="M54.47,14V13a3,3,0,0,1-2.38,1.23c-1.85,0-3.15-1.41-3.15-3.71s1.29-3.72,3.15-3.72A2.94,2.94,0,0,1,54.47,8V4.24h1.1V14Zm0-1.92V8.89a2.63,2.63,0,0,0-2.12-1.15c-1.42,0-2.27,1.17-2.27,2.74s.85,2.73,2.27,2.73A2.61,2.61,0,0,0,54.47,12.09Z"/><path class="cls-1" d="M60.82,14V4.24h1.09V8A3,3,0,0,1,64.3,6.76c1.85,0,3.15,1.47,3.15,3.72s-1.3,3.71-3.15,3.71A3,3,0,0,1,61.91,13v1Zm3.2-.8c1.44,0,2.29-1.16,2.29-2.73S65.46,7.74,64,7.74a2.64,2.64,0,0,0-2.11,1.15v3.2A2.62,2.62,0,0,0,64,13.21Z"/><path class="cls-1" d="M68.65,15.78a1.57,1.57,0,0,0,.6.12,1,1,0,0,0,1.06-.75l.47-1.06-3-7.15H69l2.36,5.8,2.35-5.8h1.2l-3.55,8.51a2.09,2.09,0,0,1-2.08,1.43,3.44,3.44,0,0,1-.8-.1Z"/></g></g></svg>