<svg xmlns="http://www.w3.org/2000/svg" viewBox="0 0 63.79 17.04"><defs><style>.cls-1{fill:#fff;}</style></defs><title>Asset 3free-icon</title><g id="Layer_2" data-name="Layer 2"><g id="DESIGNED_BY_FREEPIK" data-name="DESIGNED BY FREEPIK"><path class="cls-1" d="M2.77,4.19A7,7,0,0,0,1.66,5.64L1.19,5.4a.61.61,0,0,0-.66-.47A.61.61,0,0,0,0,5.6a.6.6,0,0,0,.67.53.41.41,0,0,0,.19,0l.45.24A7.33,7.33,0,0,0,.77,8.06l.75.13A6.57,6.57,0,0,1,3.31,4.72Z"/><path class="cls-1" d="M8.25,1.89H7.74l-.07-.62A.72.72,0,0,0,7.94.63.72.72,0,0,0,6.51.8a.71.71,0,0,0,.41.56L7,2a7.57,7.57,0,0,0-2.06.64l.33.69a6.82,6.82,0,0,1,3-.68,7.29,7.29,0,0,1,1.48.16l.16-.74A8.23,8.23,0,0,0,8.25,1.89Z"/><path class="cls-1" d="M14.86,4.43a.6.6,0,0,0-.15-1.19.59.59,0,0,0-.53.6l-.42.37a8.11,8.11,0,0,0-1.4-1.14L12,3.71a6.66,6.66,0,0,1,2.56,2.93l.69-.32a7.14,7.14,0,0,0-.94-1.54l.4-.35A.67.67,0,0,0,14.86,4.43Z"/><path class="cls-1" d="M7.71,12.1l-1.16,0A16,16,0,0,1,4.07,12a7.94,7.94,0,0,1-1.27-.29,6.2,6.2,0,0,0,11.34-1.38,9.48,9.48,0,0,1-2.46,1.12A17.2,17.2,0,0,1,7.71,12.1Z"/><path class="cls-1" d="M8.25,3.4A6,6,0,0,0,2.17,9.35a5.93,5.93,0,0,0,.14,1.26c.67.48,2.71.89,5.35.73a11.48,11.48,0,0,0,6.67-2.16c0-.19,0-.39,0-.58A6.06,6.06,0,0,0,8.25,3.4ZM6.09,9.92A1.85,1.85,0,1,1,7.94,8.07,1.85,1.85,0,0,1,6.09,9.92ZM10.83,9a1.36,1.36,0,1,1,1.36-1.36A1.36,1.36,0,0,1,10.83,9Z"/><path class="cls-1" d="M24.26,5.27A2.82,2.82,0,0,0,22.87,5c-.55.07-.84.34-.84,1v.87h2.23V8.62H22v5.46H20.1V8.62H18.76V6.91H20.1V6c0-1.68.89-2.79,2.57-2.79a4.09,4.09,0,0,1,1.59.31Z"/><path class="cls-1" d="M29,8.6a3.23,3.23,0,0,0-.53,0,1.43,1.43,0,0,0-1.51,1.61v3.91H25V6.91h1.87v.78a2.28,2.28,0,0,1,2-1,1.8,1.8,0,0,1,1.1.34Z"/><path class="cls-1" d="M36.63,10.48a6,6,0,0,1,0,.65H31.5a1.74,1.74,0,0,0,1.85,1.49,2.88,2.88,0,0,0,1.81-.69l1.13,1.24a4.33,4.33,0,0,1-3,1.09,3.55,3.55,0,0,1-3.73-3.75,3.54,3.54,0,0,1,3.63-3.8A3.47,3.47,0,0,1,36.63,10.48Zm-5.12-.67h3.18a1.6,1.6,0,0,0-3.18,0Z"/><path class="cls-1" d="M44.28,10.48a6,6,0,0,1,0,.65H39.16A1.73,1.73,0,0,0,41,12.62a2.86,2.86,0,0,0,1.81-.69L44,13.17a4.35,4.35,0,0,1-3.06,1.09,3.54,3.54,0,0,1-3.72-3.75,3.54,3.54,0,0,1,3.62-3.8A3.47,3.47,0,0,1,44.28,10.48Zm-5.11-.67h3.17a1.59,1.59,0,0,0-3.17,0Z"/><path class="cls-1" d="M52.63,10.49a3.56,3.56,0,0,1-3.48,3.77A2.65,2.65,0,0,1,47,13.33V17H45.12V6.91H47V7.7a2.58,2.58,0,0,1,2.14-1A3.56,3.56,0,0,1,52.63,10.49Zm-5.68,0a1.85,1.85,0,1,0,3.69,0,1.85,1.85,0,1,0-3.69,0Z"/><path class="cls-1" d="M55.73,4.56a1.24,1.24,0,1,1-1.24-1.24A1.22,1.22,0,0,1,55.73,4.56Zm-.26,9.52H53.54V6.91h1.93Z"/><path class="cls-1" d="M58.69,9.46l2.7-2.55h2.37l-3.48,3.37,3.51,3.8H61.41l-2.72-2.9v2.9H56.76V3.42h1.93Z"/></g></g></svg>