<svg xmlns="http://www.w3.org/2000/svg" viewBox="0 0 725.98 483"><defs><style>.cls-1{fill:none;stroke:#c1bdbd;stroke-miterlimit:10;stroke-width:0.2px;}</style></defs><title>Asset 1grid-image</title><g id="Layer_2" data-name="Layer 2"><g id="grid"><line class="cls-1" x1="53.78" x2="53.77" y2="483"/><line class="cls-1" x1="107.56" x2="107.55" y2="483"/><line class="cls-1" x1="161.33" x2="161.33" y2="483"/><line class="cls-1" x1="215.11" x2="215.1" y2="483"/><line class="cls-1" x1="268.88" x2="268.88" y2="483"/><line class="cls-1" x1="322.66" x2="322.66" y2="483"/><line class="cls-1" x1="376.44" x2="376.43" y2="483"/><line class="cls-1" x1="430.21" x2="430.21" y2="483"/><line class="cls-1" x1="483.99" x2="483.99" y2="483"/><line class="cls-1" x1="537.77" x2="537.76" y2="483"/><line class="cls-1" x1="591.54" x2="591.54" y2="483"/><line class="cls-1" x1="645.32" x2="645.32" y2="483"/><line class="cls-1" x1="699.1" x2="699.09" y2="483"/><line class="cls-1" x1="26.89" x2="26.89" y2="483"/><line class="cls-1" x1="80.67" x2="80.66" y2="483"/><line class="cls-1" x1="134.44" x2="134.44" y2="483"/><line class="cls-1" x1="188.22" x2="188.22" y2="483"/><line class="cls-1" x1="242" x2="241.99" y2="483"/><line class="cls-1" x1="295.77" x2="295.77" y2="483"/><line class="cls-1" x1="349.55" x2="349.55" y2="483"/><line class="cls-1" x1="403.33" x2="403.32" y2="483"/><line class="cls-1" x1="457.1" x2="457.1" y2="483"/><line class="cls-1" x1="510.88" x2="510.88" y2="483"/><line class="cls-1" x1="564.66" x2="564.65" y2="483"/><line class="cls-1" x1="618.43" x2="618.43" y2="483"/><line class="cls-1" x1="672.21" x2="672.21" y2="483"/><line class="cls-1" y1="430.21" x2="725.98" y2="430.21"/><line class="cls-1" y1="376.43" x2="725.98" y2="376.44"/><line class="cls-1" y1="322.66" x2="725.98" y2="322.66"/><line class="cls-1" y1="268.88" x2="725.98" y2="268.89"/><line class="cls-1" y1="215.1" x2="725.98" y2="215.11"/><line class="cls-1" y1="161.33" x2="725.98" y2="161.33"/><line class="cls-1" y1="107.55" x2="725.98" y2="107.56"/><line class="cls-1" y1="53.77" x2="725.98" y2="53.78"/><line class="cls-1" y1="457.1" x2="725.98" y2="457.1"/><line class="cls-1" y1="403.32" x2="725.98" y2="403.33"/><line class="cls-1" y1="349.55" x2="725.98" y2="349.55"/><line class="cls-1" y1="295.77" x2="725.98" y2="295.77"/><line class="cls-1" y1="241.99" x2="725.98" y2="242"/><line class="cls-1" y1="188.22" x2="725.98" y2="188.22"/><line class="cls-1" y1="134.44" x2="725.98" y2="134.44"/><line class="cls-1" y1="80.66" x2="725.98" y2="80.67"/><line class="cls-1" y1="26.89" x2="725.98" y2="26.89"/></g></g></svg>