<svg xmlns="http://www.w3.org/2000/svg" xmlns:xlink="http://www.w3.org/1999/xlink" viewBox="0 0 146.18 126.82"><defs><style>.cls-1{fill:#edb08e;}.cls-2{isolation:isolate;}.cls-15,.cls-16,.cls-21,.cls-3{opacity:0.1;}.cls-3{mix-blend-mode:multiply;}.cls-4{fill:#d89371;}.cls-5{fill:#00a8a8;}.cls-21,.cls-6{fill:#fff;}.cls-7{fill:#b3b3b3;}.cls-8{fill:#d6d6d6;}.cls-9{fill:#ccc;}.cls-10{fill:none;stroke:#39b54a;stroke-linecap:round;stroke-linejoin:round;stroke-width:2px;}.cls-11{font-size:4.04px;fill:gray;font-family:Montserrat-Bold, Montserrat Bold;font-weight:700;}.cls-12{letter-spacing:0.01em;}.cls-13{letter-spacing:-0.08em;}.cls-14{clip-path:url(#clip-path);}.cls-17{fill:#7f7f7f;}.cls-18{fill:#666;}.cls-19{fill:#fbb03b;}.cls-20{clip-path:url(#clip-path-2);}</style><clipPath id="clip-path"><path class="cls-1" d="M79,70.1s3.65-3.12,4.39-4.46,4.39-9,6.1-9.38,7.08,3.87,9.31,5.14,8.56-.22,10.2,1.79,4.54,7.07,7.22,12.58S120.5,87.23,122.07,90s3.57,5.81,8.19,12.36,15.92,23.82,15.92,23.82H119.91s-6.63-19.88-10.27-25.16-6.11-5.21-9.16-6.18S90.09,91,86.17,86.59s-5.37-1.74-7.32-5.91c-1-2.11,1.79-2.45.9-5.45s4.27-3.12,5.74-1.62c.68.69,1.76,1.7,1.08,4.44,0,0,2.66-.13,3.86,1.14a5.76,5.76,0,0,1,2.83.33s3.8-3.16,3.72-6.58-1-5.06-6.55-7.67c0,0-2,2.61-3.49,2.75a27.26,27.26,0,0,1-3,2.86C83,71.56,79.86,72.63,79,70.1Z"/></clipPath><clipPath id="clip-path-2"><path class="cls-1" d="M53.36,51.59A13.46,13.46,0,0,0,46,55.94l-.18.23-.18.25s-2.63.43-3.53,1.92a5.84,5.84,0,0,0-2.7.92,14,14,0,0,1-2.94-2.17,20.26,20.26,0,0,0-2.15,19.34l1.27-.68c2.78-1.59,9.35-5.92,12.25-11.07,2.36-4.21,4.12-3.45,5.24-5.46h0c1.25-1.31,1.53-2.47,4.3-4.11C58.82,54.23,57.06,50.75,53.36,51.59Z"/></clipPath></defs><title>Asset 1hands</title><g class="cls-2"><g id="Layer_2" data-name="Layer 2"><g id="OBJECTS"><path class="cls-3" d="M55.09,54.76a14.17,14.17,0,0,0-3,1A12.71,12.71,0,0,1,49,53.89a7.47,7.47,0,0,0,2.73-2.12,2.23,2.23,0,0,0,1.9-2s-4.23-2.21-5.24-3.32-6.78-7-8.54-7c-5.41,0-16.42,8.3-17.59,10.52s-2.95,7.61-4.4,13.36S16.1,75,15.16,78s-2.27,6.21-5.39,13.34C8,95.24,4.52,104.52,1.73,112v14.81H22.84c1.19-9.28,4.77-36.27,6.8-41s4.11-5.9,6.37-7l1.27-.66.26-.15.15-.08.14-.09.23-.13.06,0,.28-.16,0,0,.32-.19h0a45.71,45.71,0,0,0,4.35-3h0a25.75,25.75,0,0,0,6.41-6.82c2.36-4.06,4.12-3.33,5.24-5.27h0c1.25-1.27,1.53-2.39,4.29-4C60.55,57.32,58.79,54,55.09,54.76ZM43.8,61.29a5.89,5.89,0,0,0-2.7.89,13.88,13.88,0,0,1-2.94-2.1,3.37,3.37,0,0,0-.39-.33c1.73-1.4,3.39-3.12,4.32-3.92,1.85-1.6,3,2.38,5.31,3.5a.59.59,0,0,0-.07.1S44.7,59.85,43.8,61.29Z"/><path class="cls-4" d="M50.82,52.69c-.68,0-2-.86-3.51-2,2.09-.9,4.08-3.56,2.92-3.56-1.55,0-6.63-4.48-8.41-6.56S32.4,42.94,30.49,45.7c0,0-2.36,5.93,0,7.4h0c-.5,1.87-.92,4.63.59,5.58,2.36,1.47,7.36-4.27,9.28-6s3.09,2.75,5.54,3.73S52.36,52.69,50.82,52.69Z"/><path class="cls-1" d="M46.7,43c-1-1.15-6.78-7.29-8.54-7.29-5.41,0-16.42,8.59-17.59,10.89s-2.95,7.87-4.4,13.82-1.8,12.12-2.74,15.14S11.16,82,8,89.39c-1.74,4.09-5.25,13.69-8,21.45v15.32H21.11c1.19-9.6,4.78-37.54,6.8-42.44s4.11-6.11,6.37-7.29c1.66-6.46,1.66-9.63,2.15-19.34-1-.93-3.42-2.33-3.68-3.69-.65-3.37-2.26-6.28,4.51-10.27,0,0,5,3.15,6.44,3a28.07,28.07,0,0,0,3.53,2.17c1.12.45,4.37.83,4.71-1.82C51.94,46.45,47.71,44.17,46.7,43Z"/><rect class="cls-3" x="41.82" y="8.8" width="63.65" height="90.4" rx="3.99"/><rect class="cls-5" x="41.82" y="7.06" width="63.65" height="90.4" rx="3.99"/><rect class="cls-6" x="45.51" y="10.32" width="56.28" height="83.87"/><rect class="cls-7" x="62.01" y="25.41" width="34.17" height="2.83"/><rect class="cls-8" x="62.01" y="30.55" width="34.17" height="2.83"/><rect class="cls-8" x="50.82" y="35.69" width="45.37" height="2.83"/><path class="cls-8" d="M62,10.32a1.45,1.45,0,0,0,1.45,1.43H83.8a1.46,1.46,0,0,0,1.46-1.43Z"/><path class="cls-8" d="M83.8,3.14h-7a3.14,3.14,0,1,0-6.28,0h-7A1.46,1.46,0,0,0,62,4.6V9.52A1.45,1.45,0,0,0,63.49,11H83.8a1.45,1.45,0,0,0,1.46-1.45V4.6A1.46,1.46,0,0,0,83.8,3.14ZM73.65,4.37a1.23,1.23,0,1,1,1.23-1.23A1.23,1.23,0,0,1,73.65,4.37Z"/><path class="cls-9" d="M62,8.22v1.3A1.45,1.45,0,0,0,63.49,11H83.8a1.45,1.45,0,0,0,1.46-1.45V8.22Z"/><polygon class="cls-8" points="59.46 25.41 50.82 25.41 50.82 33.38 59.46 33.38 59.46 25.41 59.46 25.41"/><rect class="cls-7" x="62.01" y="43.27" width="34.17" height="2.83"/><rect class="cls-8" x="62.01" y="48.41" width="34.17" height="2.83"/><rect class="cls-8" x="50.82" y="53.56" width="45.37" height="2.83"/><rect class="cls-8" x="50.82" y="75.87" width="20.18" height="2.83"/><rect class="cls-8" x="50.82" y="80.83" width="11.05" height="2.83"/><rect class="cls-8" x="76.09" y="75.87" width="20.18" height="2.83"/><rect class="cls-8" x="76.09" y="80.83" width="11.05" height="2.83"/><polygon class="cls-8" points="59.46 43.27 50.82 43.27 50.82 51.24 59.46 51.24 59.46 43.27 59.46 43.27"/><rect class="cls-7" x="50.82" y="61.14" width="45.37" height="2.78"/><polygon class="cls-8" points="71.06 65.89 50.82 65.89 50.82 73.86 71.06 73.86 71.06 65.89 71.06 65.89"/><polygon class="cls-8" points="96.18 65.89 75.94 65.89 75.94 73.86 96.18 73.86 96.18 65.89 96.18 65.89"/><polyline class="cls-10" points="60.22 25.69 55.12 30.79 52.46 28.13"/><polyline class="cls-10" points="60.22 43.27 55.12 48.37 52.46 45.71"/><text class="cls-11" transform="translate(50.66 20.27)">REGIST<tspan class="cls-12" x="11.74" y="0">R</tspan><tspan class="cls-13" x="13.94" y="0">A</tspan><tspan x="16.1" y="0">TION FORM</tspan></text><path class="cls-3" d="M55.09,54.76a14.17,14.17,0,0,0-3,1,7.57,7.57,0,0,1-1.66-.88c-.5.43-1,.85-1.54,1.25A13.52,13.52,0,0,1,45.79,58a5.57,5.57,0,0,0,1.61,1.32.59.59,0,0,0-.07.1s-2.63.42-3.53,1.86a6.47,6.47,0,0,0-2.07.52v7.57h.1V75.2c.43-.31.86-.63,1.29-1h0a25.75,25.75,0,0,0,6.41-6.82c2.36-4.06,4.12-3.33,5.24-5.27h0c1.25-1.27,1.53-2.39,4.29-4C60.55,57.32,58.79,54,55.09,54.76Z"/><path class="cls-3" d="M88.22,95h0l0,0,.39.3.15.12.28.21.18.13.27.2.18.12.29.2.17.11.34.23.12.07.45.29.15.09.32.19.19.11.29.17.19.1.29.17.19.1.32.17.15.08.47.24.1,0,.37.19.17.08.3.15.19.09.28.13.18.08.3.14.16.07.37.17.07,0,.44.18.14.06.29.12.16.07.27.11.16.06.25.1.15.06.29.11.1,0,.37.14.08,0,.28.1.13,0,.22.08.13,0,.2.07.12,0,.2.07.09,0,.28.09c3,1,5.51.89,9.16,6.15,2.31,3.33,5.83,12.52,8.08,18.79h24.33c-3.71-5.59-9-13.5-11.79-17.46-4.62-6.52-6.63-9.56-8.19-12.3a70.35,70.35,0,0,1-3.18-7.77.78.78,0,0,0,0-.14,1.49,1.49,0,0,0-.82-1.85c-.58-1.45-1.22-2.93-1.93-4.39-2.68-5.48-5.59-10.52-7.22-12.52-1-1.24-3.85-1.14-6.38-1.19h0l-.67,0h-.44l-.3,0h-.06l-.27,0h-.07l-.23,0h-.1l-.23,0-.09,0-.2,0-.1,0-.19,0-.09,0-.17,0-.1,0-.13-.06-.11,0L98.77,68l-.22-.12-.1-.06-.13-.09-.13-.07-.12-.08-.15-.1-.11-.07-.17-.11-.11-.07-.19-.13L97.25,67,97,66.84l-.07,0-.3-.19c-2.53-1.71-5.89-4-7.19-3.76-1.71.37-5.36,8-6.1,9.33a23.29,23.29,0,0,1-3.62,3.77.53.53,0,0,0-.14.12l-.48.42-2.41-.27a1.82,1.82,0,0,0-.64-.06.82.82,0,0,0-.35.13.86.86,0,0,0-.14.13l0,0-.78-.09c-.2,0-.37,0-.44.2s.08.34.28.39l.72.32c0,.42.41.64.88.77l2.53,1.11-.09.32a.36.36,0,0,0,.21.46l.76.2a.34.34,0,0,0,.37-.19l.1,0a1.66,1.66,0,0,0-.35,1.76c.89,3-1.88,3.33-.9,5.42,2,4.15,3.39,1.48,7.32,5.88a17.3,17.3,0,0,0,2,2ZM84.15,77.25a6.11,6.11,0,0,0,.52-.44,2.31,2.31,0,0,0,.41.67Zm9.91,1a18.66,18.66,0,0,0,2.25-2.06,3.36,3.36,0,0,1,.2.43c-1.06,1.27-2.32,2.54-2.32,2.54a3.36,3.36,0,0,0,.28.66l-3-.76A5.31,5.31,0,0,0,94.06,78.24Zm-4.91-.58a2.27,2.27,0,0,0,.88,1l-2.28-.57A5.47,5.47,0,0,0,89.15,77.66Zm-2.58,6.87a5,5,0,0,0,.07-2.68L95,84.24a14.16,14.16,0,0,1-1.62,1.68h0l0,0h0l-.24-.1-.09,0-.16-.06-.1,0-.16,0-.1,0-.16,0-.09,0-.17,0h-.73a6.24,6.24,0,0,0-.82,0C89.23,84.4,86.57,84.53,86.57,84.53Z"/><path class="cls-4" d="M96,65.44V63.53H90.21c-.66,1.07-1,1.8-1.22,2.14-.74,1.34-4.39,4.46-4.39,4.46.89,2.52,4,1.46,5,.78a27.64,27.64,0,0,0,3-2.86C92.67,68,97.15,65,96,65.44Z"/><path class="cls-4" d="M100.52,66.27V63.53H95.21c-1,1.51-1.51,2.55-1.74,3C92.72,67.84,89.08,71,89.08,71c.89,2.53,4,1.46,5,.78a27.26,27.26,0,0,0,3-2.86C97.15,68.87,101.62,65.79,100.52,66.27Z"/><path class="cls-4" d="M103.78,68V63.53h-3.46a36.58,36.58,0,0,0-2.45,4.66c-.62,1.34-3.68,4.46-3.68,4.46.75,2.53,3.34,1.46,4.18.78a26,26,0,0,0,2.5-2.86C101,70.57,104.7,67.48,103.78,68Z"/><path class="cls-1" d="M79,70.1s3.65-3.12,4.39-4.46,4.39-9,6.1-9.38,7.08,3.87,9.31,5.14,8.56-.22,10.2,1.79,4.54,7.07,7.22,12.58S120.5,87.23,122.07,90s3.57,5.81,8.19,12.36,15.92,23.82,15.92,23.82H119.91s-6.63-19.88-10.27-25.16-6.11-5.21-9.16-6.18S90.09,91,86.17,86.59s-5.37-1.74-7.32-5.91c-1-2.11,1.79-2.45.9-5.45s4.27-3.12,5.74-1.62c.68.69,1.76,1.7,1.08,4.44,0,0,2.66-.13,3.86,1.14a5.76,5.76,0,0,1,2.83.33s3.8-3.16,3.72-6.58-1-5.06-6.55-7.67c0,0-2,2.61-3.49,2.75a27.26,27.26,0,0,1-3,2.86C83,71.56,79.86,72.63,79,70.1Z"/><g class="cls-14"><path class="cls-15" d="M117,83.09l-2.31-.73,0-.1,0-.08c0-.05,0-.09-.05-.13l0-.09-.06-.11c0-.07-.07-.13-.1-.19l-.06-.07-.07-.11-.07-.07-.08-.1-.07-.06-.1-.09-.07,0-.11-.08-.07,0-.14-.07-.06,0-.21-.08L96.61,75.51a.41.41,0,0,0-.25-.44l-1-.34a.39.39,0,0,0-.48.22L76.4,69.08a.37.37,0,0,0-.23-.4l-.83-.28a.4.4,0,0,0-.48.29l-.12.36-3-.54a1.35,1.35,0,0,0-1.1,0,1,1,0,0,0-.19.16l-.87-.15c-.21-.07-.41-.06-.5.19s.07.38.28.46l.78.41c0,.47.42.74.93.92l2.73,1.42-.12.36a.4.4,0,0,0,.21.52l.83.28a.38.38,0,0,0,.42-.18l18.21,6.55a.45.45,0,0,0,.26.48l1,.34a.41.41,0,0,0,.47-.19L111.49,86a2.22,2.22,0,0,0,2.08-.38l.65.24h0l1.63.59A1.8,1.8,0,0,0,117,83.09Z"/></g><g class="cls-16"><path d="M101.68,93.16c-1.79-.61-7.7-2.69-13.46-4.62a40.6,40.6,0,0,0,12.26,6.28c3,1,5.51.89,9.16,6.18s10.27,25.16,10.27,25.16h1.93s-7.36-20.64-11-26.34S104.73,94.2,101.68,93.16Z"/></g><path class="cls-17" d="M116.08,83l3.52,1a1.8,1.8,0,0,0,.92-3.43L117,79.74Z"/><path class="cls-17" d="M116.08,83l3.52,1a1.8,1.8,0,0,0,.92-3.43L117,79.74Z"/><path class="cls-17" d="M116.08,83l3.52,1a1.8,1.8,0,0,0,.92-3.43L117,79.74Z"/><path class="cls-18" d="M118.89,82a3,3,0,0,0,0-1.82L117,79.74,116.08,83l1.85.54A3.06,3.06,0,0,0,118.89,82Z"/><path class="cls-17" d="M72.06,69.78l1,.46.26-1-1.11-.13c-.22-.05-.42,0-.49.23S71.84,69.72,72.06,69.78Z"/><path class="cls-17" d="M73.84,71,77,72.39l.82-3L74.39,69c-.68-.17-1.27-.1-1.49.7S73.17,70.81,73.84,71Z"/><path class="cls-18" d="M77.37,71.06l.46-1.71L74.39,69c-.68-.17-1.27-.1-1.49.7a1.48,1.48,0,0,0,0,.19Z"/><path class="cls-17" d="M77.57,73l37.65,10.89a2.78,2.78,0,0,0,1.43-5.31l-38-9.46Z"/><path class="cls-18" d="M118.31,81.25a2.44,2.44,0,0,0-1.66-2.68l-38-9.46-.37,1.37Z"/><path class="cls-19" d="M102.75,77.68a.7.7,0,0,0,.48.86l12.26,3.55a1,1,0,0,0,.49-1.83L103.6,77.18a.7.7,0,0,0-.85.5Z"/><path class="cls-19" d="M98.37,73.66l1,.28a.44.44,0,0,1,.26.56L98.5,78.9a.44.44,0,0,1-.51.35l-1-.28a.45.45,0,0,1-.26-.57L97.86,74A.44.44,0,0,1,98.37,73.66Z"/><path class="cls-19" d="M78,68.62l.84.23a.4.4,0,0,1,.24.5l-1,3.68a.39.39,0,0,1-.46.31l-.84-.22a.4.4,0,0,1-.24-.51l1-3.67A.4.4,0,0,1,78,68.62Z"/><path class="cls-1" d="M87.24,78.07a6.63,6.63,0,0,0-.67,0c.68-2.74-.4-3.75-1.08-4.44-1.47-1.5-6.64-1.38-5.74,1.62s-1.88,3.34-.9,5.45c2,4.17,3.39,1.49,7.32,5.91a13.73,13.73,0,0,0,1.07,1.09Z"/><path class="cls-1" d="M87.24,58.64c-1.63,2.48-3.39,6.12-3.88,7C82.62,67,79,70.1,79,70.1c.89,2.53,4,1.46,5,.78a27.26,27.26,0,0,0,3-2.86,1.59,1.59,0,0,0,.3-.06Z"/><path class="cls-15" d="M96.65,60h0a32,32,0,0,0,7.84,4.34c5.44,2.27-.41-2.36-.41-2.36h0c-2.06,0-4.2,0-5.31-.62C98.22,61.09,97.48,60.6,96.65,60Z"/><path class="cls-15" d="M90.43,65.27a3.4,3.4,0,0,1-.94-1.56s-.17,1.64.35,2.26Z"/><path class="cls-15" d="M78.85,80.68s.82-2.15,2.75-2.11c0,0-2.35,1.21-2.55,2.52Z"/><path class="cls-1" d="M53.36,51.59A13.46,13.46,0,0,0,46,55.94l-.18.23-.18.25s-2.63.43-3.53,1.92a5.84,5.84,0,0,0-2.7.92,14,14,0,0,1-2.94-2.17,20.26,20.26,0,0,0-2.15,19.34l1.27-.68c2.78-1.59,9.35-5.92,12.25-11.07,2.36-4.21,4.12-3.45,5.24-5.46h0c1.25-1.31,1.53-2.47,4.3-4.11C58.82,54.23,57.06,50.75,53.36,51.59Z"/><g class="cls-20"><path class="cls-21" d="M55.41,53.07c-1.88.55-3.87,2.1-3.47,2.55s2.27,2.17,2.76,1.66,3.11-1.59,2.43-2.78S56,52.91,55.41,53.07Z"/><g class="cls-16"><path d="M50,58.4a2.19,2.19,0,0,1,2.27.12,2.23,2.23,0,0,1,.72.8,2.17,2.17,0,0,1,.25,1.25,3.24,3.24,0,0,1-1.23,0,2.37,2.37,0,0,1-.86-.36,2.55,2.55,0,0,1-.65-.66A3.36,3.36,0,0,1,50,58.4Z"/></g></g><path class="cls-15" d="M22.19,97.46c-1.26,9.26-3.65,23.05-4.61,28.7h3.53c1.19-9.6,4.78-37.54,6.8-42.44s4.11-6.11,6.37-7.29l1.27-.68a47.21,47.21,0,0,0,5.84-4c-6.75,2.55-11.39,4.55-13.7,6.83C26.34,79.91,23.76,86,22.19,97.46Z"/></g></g></g></svg>