<svg xmlns="http://www.w3.org/2000/svg" viewBox="0 0 433.17 298.7"><defs><style>.cls-1{fill:#fea77c;}.cls-2{fill:#f57d77;}.cls-3{fill:#bf453f;}.cls-4{fill:#323b6e;}.cls-5{fill:#ff5c6c;}.cls-6{fill:#20140f;}.cls-7{fill:#fff;}.cls-8{fill:#cc2c3d;}.cls-9{fill:#ccc;}</style></defs><title>Asset 1happynam</title><g id="Layer_2" data-name="Layer 2"><g id="Layer_2-2" data-name="Layer 2"><path class="cls-1" d="M196,12.37A9,9,0,0,1,193.81,20a5.83,5.83,0,0,1-2.16,1.33,5.33,5.33,0,0,1-5.31-.77v0a7.4,7.4,0,0,0,2.8-2.43c1.75-2.6,1.93-6,1.4-9a15.19,15.19,0,0,0-.74-2.74,4.86,4.86,0,0,1,4.33,1.63A8.24,8.24,0,0,1,196,12.37Z"/><path class="cls-1" d="M174.28,19.46a17.52,17.52,0,0,0,3.16-1.06l0,.07a4.65,4.65,0,0,1-1.07,2.7,4.43,4.43,0,0,1-1.46,1.19h0A10.34,10.34,0,0,0,174.28,19.46Z"/><path class="cls-1" d="M183.76,12.17a10.81,10.81,0,0,1-1.3,6.89,5.68,5.68,0,0,1-1.55,1.54,4.58,4.58,0,0,1-4.51.57,4.65,4.65,0,0,0,1.07-2.7l0-.07a8.07,8.07,0,0,0,2.17-1.47c1.42-1.4,2.12-3.71,1.12-5.43a2.26,2.26,0,0,0-1.46-1.16,3.36,3.36,0,0,0-1.68.23l-2,.63a18.77,18.77,0,0,0-2.22-5.57,7.8,7.8,0,0,0-3.09-2.78h0l0-.06c2-1.69,4.5-3.23,7-2.66a6.26,6.26,0,0,1,3.84,3.07,13.42,13.42,0,0,1,1.39,3.13A27.14,27.14,0,0,1,183.76,12.17Z"/><path class="cls-1" d="M189.79,6.29A15.19,15.19,0,0,1,190.53,9c.53,3.08.35,6.45-1.4,9a7.4,7.4,0,0,1-2.8,2.43,5.9,5.9,0,0,1-5.36.17l-.06-.08a5.68,5.68,0,0,0,1.55-1.54,10.81,10.81,0,0,0,1.3-6.89,27.14,27.14,0,0,0-1.13-5.85,13.42,13.42,0,0,0-1.39-3.13l.31-.19c1.56-1.6,4.38-1.31,6.09.13A7.62,7.62,0,0,1,189.79,6.29Z"/><path class="cls-1" d="M28,21a13.43,13.43,0,0,0-1.22,3.33A4.22,4.22,0,0,1,23.84,23l-.06,0a9.7,9.7,0,0,0,.54-1.18A22.71,22.71,0,0,0,28,21Z"/><path class="cls-1" d="M11.23,9.14a4.25,4.25,0,0,1,.88.5A7.32,7.32,0,0,1,14,12.2a39.69,39.69,0,0,1,2.86,7.44c.52,1.9.84,4.12-.37,5.68l0,.05c-1.22,1.51-3.41,1.74-5.37,1.77a2.86,2.86,0,0,0,.21-.43,5,5,0,0,0,.12-2.33,19.88,19.88,0,0,0-4-9.59,5.14,5.14,0,0,0-1.74-1.55l.07-.16A4.47,4.47,0,0,1,8,9.2,4.05,4.05,0,0,1,11.23,9.14Z"/><path class="cls-1" d="M27.07,6.33a18.32,18.32,0,0,1,5.07,7.91h0a14.19,14.19,0,0,0-1.72.11L23.94,15l-.86.1A18.39,18.39,0,0,0,20.64,9.7a12.09,12.09,0,0,0-1.3-1.65l.14-.14A6.51,6.51,0,0,1,23.86,5.2a3.67,3.67,0,0,1,1.71.11A4.44,4.44,0,0,1,27.07,6.33Z"/><path class="cls-1" d="M22.16,21.62a6.3,6.3,0,0,0,2.16.15A9.7,9.7,0,0,1,23.78,23a6.54,6.54,0,0,1-2.86,2.84,4.37,4.37,0,0,1-4.42-.36l-.08-.06,0-.05c1.21-1.56.89-3.78.37-5.68A39.69,39.69,0,0,0,14,12.2a7.32,7.32,0,0,0-1.86-2.56,4.25,4.25,0,0,0-.88-.5,6.69,6.69,0,0,1,2.6-2.67,4.42,4.42,0,0,1,4,.33,7.26,7.26,0,0,1,1.56,1.25,12.09,12.09,0,0,1,1.3,1.65,18.39,18.39,0,0,1,2.44,5.42c-1.45.22-2.93.68-3.57,1.94C18.6,18.86,20.21,21.1,22.16,21.62Z"/><path class="cls-2" d="M16,26.47h.65c0,.29.23.18.38.22a3.31,3.31,0,0,1,.47.19v-1a3.26,3.26,0,0,1,.55.17c.2.09,0,.51.46.45.16,0,.36.15.56.25l-.5.53.2.82-1.11-.65-1.16.16c-.5.31-.26.69-.05,1.09l-.74.53.23.35-.51,1.26L15,30.57c.2-.41.39-.79.59-1.17l-.46-.49.54-.41-.23-.39.31-.85-.15-.58C15.74,26.65,16,26.79,16,26.47Z"/><path class="cls-2" d="M185.91,23l-.22.67-1.12-.87.29-.47A4.42,4.42,0,0,1,184,21l.62-.16a1.56,1.56,0,0,0,0,.35c.13.39.35.58.69.44s.39,0,.59,0a1.88,1.88,0,0,0,.67-.19l.14.3-.18.71.91.29.19.34-.23.27h1.16c.33.25.52.48.31.93l-1-.23-.09.62h-.36v-.82l-.9-.89h-.65l-.2-.21c0-.22,0-.42,0-.61l.62-.21-.76-.08-.55.57.67.33Z"/><path class="cls-2" d="M188.76,22.44l.91-.33.45.71.22-.47.38,0-.2.53.42.28c-.18.37-.65.29-1.48-.16l-.37.37-.6-.29Z"/><path class="cls-2" d="M180.57,22.75h-.7c-.13-.46.32-.52.45-.78l.87.27-.29.58.24.34-.66.41.31.82-.95-.37v-.66a5,5,0,0,0,.73-.6c-.1,0-.08,0-.07.05l.18-.15-.07-.07C180.56,22.64,180.51,22.7,180.57,22.75Z"/><path class="cls-2" d="M23.86,24.08h.79a4,4,0,0,1-.27,2.41c-.36-.4.1-.67.11-1l-.63-.11Z"/><path class="cls-2" d="M15.57,26.68h-.36l-.12.62h-.83l.21-.3-.22-.23.65-.43-.21-.22A1.28,1.28,0,0,0,15,26a2.52,2.52,0,0,0,.3-.27l.37.25.31-.25v.71C15.84,26.5,15.59,26.36,15.57,26.68Z"/><path class="cls-2" d="M17.07,29.59l-.18-.2.16-.19c-.08-.42-.14-.78-.23-1.24l.95.8-.45.16.24.33-.22.4.44.17-.27.5h-1Z"/><path class="cls-2" d="M190.61,24.12l.17-.51c.12.05.25.06.3.12.17.22.31.45.54.8l-.88-.26-1.05.54.66.41-.45.33c-.67-.25,0-1-.63-1.43Z"/><path class="cls-2" d="M182.22,21.69c.18-.73.35-.8,1.08-.43l-.43.34.87.4,0,.64-.61-.3C183,21.89,182.5,21.92,182.22,21.69Z"/><path class="cls-2" d="M22.54,26.25h1l.71.74-.28.38-1.18-.65Z"/><path class="cls-2" d="M21.74,26.54l.14.57c-.15.11.27.31.21.52l-.83.55L21,27.86l.16-.17L21,27.32Z"/><path class="cls-2" d="M185.93,24.47l-1.27.42-.24-.24v-.59l.8.14.59-.47Z"/><path class="cls-2" d="M187.18,21.57l.59-.42c.14.57.25,1.05.39,1.63a3.93,3.93,0,0,1-.52,0c-.07,0-.19-.05-.21-.1C187.34,22.34,187.28,22,187.18,21.57Z"/><path class="cls-2" d="M20.35,25.82l.14.53-1.15.9-.08-.78.22-.22.34-.43Z"/><path class="cls-2" d="M183,22.34l.57.93c-.06.13-.13.28-.19.43a3.56,3.56,0,0,0-.13.39l-.4-.06.28-.71-.44-.19v-.76Z"/><path class="cls-2" d="M13.71,28.81c-.56.22-1-.53-1.52.05l-.4-.54a1,1,0,0,1,1.08.06l.4-.26Z"/><path class="cls-2" d="M189.13,26.06l-.73.25-.28-.92.71-.32Z"/><path class="cls-2" d="M18.66,28.77c.54.26.91.51.8,1.14H19l-.63-.58Z"/><path class="cls-2" d="M191.68,22.35c-.64,0-.52-.64-.85-.89l.33-.36C191.42,21,191.73,21.72,191.68,22.35Z"/><path class="cls-2" d="M19.55,27.25l.49.28.45-.45.27.52-.27.39-1-.3Z"/><path class="cls-2" d="M13.22,27.28l-.74-.49L14,26.48c0,.14,0,.34-.08.41A4.17,4.17,0,0,1,13.22,27.28Z"/><path class="cls-2" d="M187.24,26.09l-.52-.4.33-.94c.63.3.26.82.41,1.21Z"/><path class="cls-2" d="M186.59,21.48l-.45-.8c.45-.25.72.16,1.1.26C187.13,21.31,187,21.53,186.59,21.48Z"/><path class="cls-2" d="M182.22,21.69l-.22.65c-.58-.15-.58-.15-.61-.79C181.71,21.31,182,21.59,182.22,21.69Z"/><path class="cls-2" d="M191.77,23.41h-.61c-.12-.43,0-.73.55-.89Z"/><path class="cls-2" d="M19.48,28.53v-.32l.59.15.44-.26.06.66c-.1,0-.17.1-.22.09C20.05,28.75,19.76,28.64,19.48,28.53Z"/><path class="cls-2" d="M183.52,25l-.92-.28c.58-.56.58-.57,1.13-.11l-.21.22A.87.87,0,0,0,183.52,25Z"/><path class="cls-2" d="M13.62,28.85H14v1.48l-.24.05c-.43-.2.31-.55-.12-.75C14,29.36,13.75,29.11,13.62,28.85Z"/><path class="cls-2" d="M183.47,24.74l.82.61-.68.64Z"/><path class="cls-2" d="M187.27,24.44c-.53.17-.81,0-1-.41C186.86,23.84,186.86,23.84,187.27,24.44Z"/><path class="cls-2" d="M9.69,28.19l.8.65-.7.62C9.75,29,9.73,28.75,9.69,28.19Z"/><path class="cls-2" d="M23.52,25.57l-.76-.44.33-.69.56,1Z"/><path class="cls-2" d="M186,26.65l.41-1.07.41,1.07Z"/><path class="cls-2" d="M182,22.42l.52.29a3.27,3.27,0,0,1-.41.45c-.06.05-.18,0-.28.05A.52.52,0,0,1,182,22.42Z"/><path class="cls-2" d="M21.6,25.51l.3.61c-.38.28-.63.14-.89-.22Z"/><path class="cls-2" d="M182.58,26l-.74.55-.06-.66.29-.29Z"/><path class="cls-2" d="M190.32,26.24l.74-.55.06.66-.28.29Z"/><path class="cls-2" d="M182.45,27.93l.82-.67v.67Z"/><path class="cls-2" d="M190.71,21.4l-.38.14.09.12H189.2v-.1l1.43-.32Z"/><path class="cls-2" d="M22.08,24.73c0,.37.05.75-.43.87l-.23-.42A.55.55,0,0,1,22.08,24.73Z"/><path class="cls-2" d="M185.91,20.67v.55l-.62.05v-.6Z"/><path class="cls-2" d="M4.62,28.14l.54-.35.29.79C5,28.54,5,28.54,4.62,28.14Z"/><path class="cls-2" d="M187.81,27.47v.82L187.3,28Z"/><path class="cls-2" d="M23.82,24.08h-.65v-.43l.59-.3Z"/><path class="cls-2" d="M16.66,26.48c0-.19,0-.37,0-.55s-.28-.12-.12-.33c.53,0,.59.37.54.84Z"/><path class="cls-2" d="M182.3,24.48h-.8l.39-.72Z"/><path class="cls-2" d="M13.78,28.12l.62-.49c0,.33.07.53.12.9Z"/><path class="cls-2" d="M179.38,21.51v.36h-.61v-.36Z"/><path class="cls-2" d="M180,26l.32.57c-.41.26-.5-.06-.67-.22Z"/><path class="cls-2" d="M185.91,24.51h.33l.33.67C186.08,25.14,185.89,24.93,185.91,24.51Z"/><path class="cls-2" d="M7.31,30v.36H6.68C6.66,29.73,7,30,7.31,30Z"/><path class="cls-2" d="M179.36,26.45H179v-.62h.36Z"/><path class="cls-2" d="M24.22,19.76l-.46-.38.84-.44Z"/><path class="cls-2" d="M23.62,27.8l-.09.51-.69-.51Z"/><path class="cls-2" d="M185.1,25.88l-.49-.68.68-.05Z"/><path class="cls-2" d="M177.12,22.12l.3.33-.29.33-.33-.32Z"/><path class="cls-2" d="M21.14,29.66l.65-.48C21.63,29.63,21.63,29.63,21.14,29.66Z"/><path class="cls-2" d="M18.62,28.86l-.41,0,0-.37.41,0Z"/><path class="cls-2" d="M185.22,27.13l-.71-.05.47-.4Z"/><path class="cls-2" d="M191.66,25l-.48.66C191.2,25.19,191.2,25.19,191.66,25Z"/><path class="cls-2" d="M22.08,24.63l.6-.31.09.35-.68.09Z"/><path class="cls-2" d="M24.65,28.49l-.39-.39.39-.49Z"/><path class="cls-2" d="M19.26,26.47c-.3-.06-.29-.26-.11-.41s.32-.06.33.19Z"/><path class="cls-2" d="M180.61,21.59l-.23-.47C180.66,21.06,180.66,21.06,180.61,21.59Z"/><path class="cls-2" d="M189.18,28.45v-.36l.42.28Z"/><path class="cls-2" d="M178.66,23.37l-.46-.29C178.73,23,178.73,23,178.66,23.37Z"/><path class="cls-2" d="M10.92,27.05l.29.47C10.93,27.56,10.67,27.63,10.92,27.05Z"/><path class="cls-2" d="M189.89,23.55l-.48.24C189.38,23.58,189.27,23.3,189.89,23.55Z"/><path class="cls-2" d="M188.47,24.69h-.36v-.1l.36-.08Z"/><path class="cls-2" d="M8.38,28.45v.36l-.11,0-.08-.35Z"/><path class="cls-2" d="M178.26,23.65v.43h-.11v-.43Z"/><path class="cls-2" d="M24.86,28.41l0,.42-.14,0-.08-.43Z"/><path class="cls-2" d="M19.88,29.38l.15-.53a1.58,1.58,0,0,1,.09.31S20.05,29.23,19.88,29.38Z"/><path class="cls-2" d="M3.6,26.07v.36l-.1,0-.08-.37Z"/><path class="cls-2" d="M183.3,21.26c0-.33.27-.18.44-.22C183.72,21.37,183.47,21.23,183.3,21.26Z"/><path class="cls-2" d="M176.14,21.1h.44v.11h-.44Z"/><path class="cls-2" d="M184,22.74v-.36h.11l.08.35Z"/><path class="cls-2" d="M15.18,31.42v-.36h.1l.08.35Z"/><path class="cls-2" d="M17.28,31h-.36l0-.11.35-.08Z"/><path class="cls-2" d="M183.74,21l.14-.18L184,21Z"/><path class="cls-2" d="M23,23.65l.15-.18.07.18Z"/><path class="cls-2" d="M23,23.67l-.15.17-.07-.07.18-.15Z"/><path class="cls-2" d="M8,31.17H7.76V31.1H8Z"/><ellipse class="cls-2" cx="22.84" cy="29.61" rx="0.15" ry="0.05"/><path class="cls-2" d="M180,27.55v.22h-.08v-.22Z"/><path class="cls-2" d="M20.33,25.8l.15-.18.06.07-.17.15Z"/><path class="cls-2" d="M15.94,25.38v.22h-.08v-.22Z"/><path class="cls-2" d="M180.19,25.17v.21h-.07v-.21Z"/><path class="cls-3" d="M175.62,11.55a.36.36,0,0,1-.34-.26,18.56,18.56,0,0,0-2.17-5.46,7.54,7.54,0,0,0-3-2.66.36.36,0,0,1,.31-.64,8.28,8.28,0,0,1,3.23,2.91A19.14,19.14,0,0,1,176,11.11a.35.35,0,0,1-.25.43Z"/><path class="cls-3" d="M173,29.73a.37.37,0,0,1-.21-.06.34.34,0,0,1-.08-.49,10.41,10.41,0,0,0,1.21-9.59.37.37,0,0,1,0-.29.38.38,0,0,1,.23-.18,11.14,11.14,0,0,0,5.17-2.44c1.22-1.2,2-3.36,1.06-5a1.93,1.93,0,0,0-1.22-1,3.17,3.17,0,0,0-1.51.22l-7.62,2.44a16.45,16.45,0,0,0-4.16,1.77,5.25,5.25,0,0,0-2.43,3.43.35.35,0,0,1-.41.3.35.35,0,0,1-.29-.4,6,6,0,0,1,2.74-3.92,16.9,16.9,0,0,1,4.34-1.85l7.61-2.44a3.83,3.83,0,0,1,1.87-.25A2.66,2.66,0,0,1,181,11.32c1.15,2,.27,4.45-1.18,5.87a11.18,11.18,0,0,1-5.11,2.52,11.16,11.16,0,0,1-1.44,9.88A.35.35,0,0,1,173,29.73Z"/><path class="cls-3" d="M167.54,14.22a.35.35,0,0,1-.34-.24,10.43,10.43,0,0,0-1.85-3.34.35.35,0,0,1,0-.5.36.36,0,0,1,.5,0,10.94,10.94,0,0,1,2,3.56.36.36,0,0,1-.22.45Z"/><path class="cls-3" d="M174.93,22.72a.37.37,0,0,1-.32-.19.36.36,0,0,1,.16-.48,4.34,4.34,0,0,0,2.33-3.59.36.36,0,1,1,.71,0,5.07,5.07,0,0,1-2.72,4.19A.32.32,0,0,1,174.93,22.72Z"/><path class="cls-3" d="M178.05,21.88a4.26,4.26,0,0,1-1.74-.35.36.36,0,0,1-.18-.47.35.35,0,0,1,.47-.17c2,.9,4.44-.35,5.55-2s1.47-3.78,1.24-6.66a26.48,26.48,0,0,0-1.11-5.78,13.7,13.7,0,0,0-1.35-3.06.34.34,0,0,1,.11-.48.36.36,0,0,1,.49.11A14.47,14.47,0,0,1,183,6.22a27.28,27.28,0,0,1,1.15,5.93c.24,3-.2,5.37-1.36,7.11A5.7,5.7,0,0,1,178.05,21.88Z"/><path class="cls-3" d="M183.35,21.62a5.46,5.46,0,0,1-2.56-.62.35.35,0,0,1-.15-.47.35.35,0,0,1,.48-.16c2.15,1.12,5.7.48,7.7-2.49,1.88-2.79,1.77-6.32,1.34-8.78a13.29,13.29,0,0,0-.92-3.16.35.35,0,0,1,.18-.46.36.36,0,0,1,.47.17,13.84,13.84,0,0,1,1,3.32c.45,2.6.56,6.32-1.45,9.31A7.68,7.68,0,0,1,183.35,21.62Z"/><path class="cls-3" d="M189.56,22a5.19,5.19,0,0,1-3.46-1.23.35.35,0,0,1,0-.5.36.36,0,0,1,.5,0,5,5,0,0,0,4.95.71.36.36,0,0,1,.24.67A6.53,6.53,0,0,1,189.56,22Z"/><path class="cls-3" d="M27.22,32.35a.34.34,0,0,1-.33-.23,14.14,14.14,0,0,1,.41-10.56,10.34,10.34,0,0,1-5.25.42,4.51,4.51,0,0,1-2.86-2.44,3,3,0,0,1,0-2.61c.82-1.64,2.84-2,4.71-2.24L30.37,14c.54-.06,1.16-.11,1.76-.12a.35.35,0,0,1,.35.36.35.35,0,0,1-.35.35h0c-.56,0-1.15.06-1.66.11L24,15.39c-1.68.17-3.48.53-4.15,1.86a2.31,2.31,0,0,0,0,2,3.82,3.82,0,0,0,2.41,2.05,10,10,0,0,0,5-.45l.64-.17a.36.36,0,0,1,.36.13.35.35,0,0,1,0,.38,13.41,13.41,0,0,0-.72,10.69.35.35,0,0,1-.21.45A.25.25,0,0,1,27.22,32.35Z"/><path class="cls-3" d="M23.07,15.5a.34.34,0,0,1-.34-.26,18.1,18.1,0,0,0-2.4-5.32,10.89,10.89,0,0,0-1.25-1.58.36.36,0,0,1,0-.5.35.35,0,0,1,.5,0,13,13,0,0,1,1.32,1.68,18.5,18.5,0,0,1,2.49,5.53.35.35,0,0,1-.25.43Z"/><path class="cls-3" d="M19,26.6a4.41,4.41,0,0,1-2.69-.86.35.35,0,0,1-.07-.5.36.36,0,0,1,.5-.06,4.07,4.07,0,0,0,4.05.32,6.65,6.65,0,0,0,3.18-3.73.36.36,0,0,1,.46-.2.35.35,0,0,1,.2.46,7.35,7.35,0,0,1-3.54,4.11A4.93,4.93,0,0,1,19,26.6Z"/><path class="cls-3" d="M10.9,27.52a.35.35,0,0,1-.35-.35.35.35,0,0,1,.35-.36c2,0,4.14-.23,5.27-1.69s.74-3.79.3-5.37a39.11,39.11,0,0,0-2.83-7.36A7,7,0,0,0,11.88,10,3.39,3.39,0,0,0,11,9.47.35.35,0,0,1,10.82,9a.36.36,0,0,1,.46-.2,4.15,4.15,0,0,1,1,.58,7.51,7.51,0,0,1,2,2.68,40.36,40.36,0,0,1,2.89,7.5c.47,1.72.94,4.22-.43,6s-3.68,1.94-5.82,2Z"/><path class="cls-3" d="M8.05,29a4.32,4.32,0,0,1-1.86-.41,7.3,7.3,0,0,1-3.47-4.78A.35.35,0,0,1,3,23.39a.36.36,0,0,1,.44.25C3.74,24.86,4.6,27,6.5,28a3.68,3.68,0,0,0,2.91.09,2.53,2.53,0,0,0,1.5-1.45,4.49,4.49,0,0,0,.1-2.16,19.33,19.33,0,0,0-4-9.42A4.86,4.86,0,0,0,5.47,13.6a.35.35,0,0,1-.16-.47A.35.35,0,0,1,5.78,13a5.61,5.61,0,0,1,1.83,1.63,20,20,0,0,1,4.1,9.77,5.07,5.07,0,0,1-.14,2.5,3.23,3.23,0,0,1-1.9,1.86A4.44,4.44,0,0,1,8.05,29Z"/><path class="cls-3" d="M26.65,24.71h0a4.55,4.55,0,0,1-3.07-1.47.35.35,0,1,1,.53-.47A3.83,3.83,0,0,0,26.67,24a.34.34,0,0,1,.33.38A.35.35,0,0,1,26.65,24.71Z"/><path class="cls-4" d="M383.29,284.8l-.9-32.21a2.36,2.36,0,0,1-1.28-2.06,2.4,2.4,0,0,1,2.39-2.42,2.66,2.66,0,0,1,.63.09l44.43-45.43a2.47,2.47,0,0,1-.23-1,2.39,2.39,0,0,1,.44-1.39l-64.68-85,2-1,64.71,85.07a2.39,2.39,0,1,1,0,4.77,2.71,2.71,0,0,1-.4,0l-44.58,45.58a2.3,2.3,0,0,1,.15.78,2.35,2.35,0,0,1-1.32,2.14l.91,32.16.05,2.06.07,2.23a1.12,1.12,0,0,1-1.09,1.15h0a1.13,1.13,0,0,1-1.13-1.08l-.06-2.28Z"/><path class="cls-4" d="M385.58,286.83c10.68,0,19.13,1.42,19.15,3.27s-9.13,3.6-20.44,3.73-20.49-1.34-20.52-3.27,8.67-3.52,19.58-3.71l.06,2.28a1.13,1.13,0,0,0,1.13,1.08h0a1.12,1.12,0,0,0,1.09-1.15Z"/><path class="cls-5" d="M339.9,113.66c5.46,8.46,6.64,17.43,2.63,20s-11.7-2.17-17.17-10.63-6.64-17.43-2.63-20S334.43,105.2,339.9,113.66Z"/><path class="cls-4" d="M307.27,284.56l-2.11,10.33a3.12,3.12,0,0,1-3,2.48L156.81,298.7a1.73,1.73,0,0,1-1.69-2.25,3.22,3.22,0,0,1,3-2.26l51.64-.57,16.81-79.27a6.3,6.3,0,0,1,6-5l85.94-1.93a3.62,3.62,0,0,1,3.63,4.36Z"/><path class="cls-1" d="M175.64,11.2l2-.63a3.36,3.36,0,0,1,1.68-.23,2.26,2.26,0,0,1,1.46,1.16c1,1.72.3,4-1.12,5.43a8.07,8.07,0,0,1-2.17,1.47,17.52,17.52,0,0,1-3.16,1.06,10.34,10.34,0,0,1,.65,2.9h0a4.43,4.43,0,0,0,1.46-1.19,4.58,4.58,0,0,0,4.51-.57l.06.08a5.9,5.9,0,0,0,5.36-.17v0a5.33,5.33,0,0,0,5.31.77l0,.07a10.18,10.18,0,0,1-.36,5c-.76,2.24-2.28,4.17-2.93,6.44a10.09,10.09,0,0,0-.1,4.84,65.52,65.52,0,0,1-22.92-1.57v0c-.78-4.11-2.88-7.83-4.6-11.65s-3.1-8-2.31-12.14a13.87,13.87,0,0,1,4.43-7.62,7.82,7.82,0,0,1,5.23-2.34,5.46,5.46,0,0,1,2.21.55h0a7.8,7.8,0,0,1,3.09,2.78A18.77,18.77,0,0,1,175.64,11.2Z"/><path class="cls-6" d="M149.2,123.75a1.91,1.91,0,1,1-1.89,1.94A1.92,1.92,0,0,1,149.2,123.75Z"/><path class="cls-4" d="M126.82,111.18a1.46,1.46,0,0,1,.55,1.66,1.51,1.51,0,0,1-1,.75,7,7,0,0,1-1.29.11,6.37,6.37,0,0,0-3.33,1c-.5.35-.94.8-1.47,1.1a1.67,1.67,0,0,1-1.75,0,1.48,1.48,0,0,1-.45-1.6,3.23,3.23,0,0,1,1-1.43,8.39,8.39,0,0,1,6.58-2C125.69,110.67,126.32,110.8,126.82,111.18Z"/><path class="cls-1" d="M11.05,27.14c2,0,4.15-.26,5.37-1.77l.08.06a4.37,4.37,0,0,0,4.42.36A6.54,6.54,0,0,0,23.78,23l.06,0a4.22,4.22,0,0,0,2.91,1.36A13.43,13.43,0,0,1,28,21a22.71,22.71,0,0,1-3.65.76,6.3,6.3,0,0,1-2.16-.15c-1.95-.52-3.56-2.76-2.65-4.56.64-1.26,2.12-1.72,3.57-1.94l.86-.1,6.48-.66a14.19,14.19,0,0,1,1.72-.11,5.32,5.32,0,0,1,1.69.24c2.2.72,3.41,3.18,3.51,5.49s-.61,4.57-1.08,6.83A30.28,30.28,0,0,0,37.31,42.6c-8.66,2.55-16.55,4.48-25.49,4.45-.05-.26-.11-.52-.17-.78h0A18,18,0,0,0,8.77,40C7.52,38.29,6,36.8,4.65,35.12A22.49,22.49,0,0,1,.51,16.71a4.86,4.86,0,0,1,2-3,3.32,3.32,0,0,1,2.56-.67,2.55,2.55,0,0,1,.53.18,5.14,5.14,0,0,1,1.74,1.55,19.88,19.88,0,0,1,4,9.59,5,5,0,0,1-.12,2.33A2.86,2.86,0,0,1,11.05,27.14Z"/><path class="cls-7" d="M146.18,139.59a5.84,5.84,0,0,1-2,4.08,11.17,11.17,0,0,1-6.73,3.06,11.92,11.92,0,0,1-7.2-1.72,7,7,0,0,1-2.42-2.3,3.79,3.79,0,0,1-.37-3.24c.73-1.83,3-2.5,5-2.43s3.94.64,5.88.27,3.63-1.5,5.36-.87A3.67,3.67,0,0,1,146.18,139.59Z"/><path class="cls-4" d="M84,252c-6-18.4-16.8-34.46-27.81-50.5l-.07.05a17.9,17.9,0,0,0-4.75,7.59c-2.31,6.35-2.12,13.35-1.19,20,1.89,13.6,6.66,26.61,11.4,39.49q2.87,7.8,5.74,15.6l20,0H94Z"/><path class="cls-6" d="M124.77,124a1.92,1.92,0,1,1-1.89,1.94A1.92,1.92,0,0,1,124.77,124Z"/><path class="cls-4" d="M153.75,113.82a1.49,1.49,0,0,1-.41,1.62,1.69,1.69,0,0,1-1.75,0c-.54-.28-1-.72-1.5-1.06a6.28,6.28,0,0,0-3.34-.9,6.13,6.13,0,0,1-1.29-.09A1.29,1.29,0,0,1,145,111c.49-.39,1.12-.53,1.12-.43a8.43,8.43,0,0,1,6.63,1.87A3.21,3.21,0,0,1,153.75,113.82Z"/><path class="cls-4" d="M152.68,93.4c-4.48,2.77-10.26,3.85-15.87,4.06-3.48.12-7-.06-10.44-.22a42,42,0,0,0-4.88-.2,23.71,23.71,0,0,0-16.53,11c-.2.32-.42.63-.62,1C100.53,115.2,98.9,123,100.82,130a.92.92,0,0,1-.25.84,1.86,1.86,0,0,1-.78.46,2.79,2.79,0,0,1-1.78.08,1.77,1.77,0,0,1-1.21-1.26,7,7,0,0,0-4.63-3.17,6.08,6.08,0,0,0-2,0c-.19-.4-.39-.8-.58-1.21-3.84-9.3-5.65-20-1-28.56,3.62-6.71,10.6-11,17.73-13.69S121,79.28,128,76.38c4.48-2.95,9.61-5.62,15.16-6a19.77,19.77,0,0,1,10.08,2.06A12.11,12.11,0,0,1,157,75.24a10.51,10.51,0,0,1,2.15,8.91,15.4,15.4,0,0,1-4.75,8A17.42,17.42,0,0,1,152.68,93.4Z"/><path class="cls-1" d="M96.07,141.36a8.05,8.05,0,0,1-10.71-10.43,7,7,0,0,1,1.58-2.38,6.25,6.25,0,0,1,3.19-1.62,6.08,6.08,0,0,1,2,0,7,7,0,0,1,4.63,3.17A1.77,1.77,0,0,0,98,131.34a2.79,2.79,0,0,0,1.78-.08,1.86,1.86,0,0,0,.78-.46.92.92,0,0,0,.25-.84c-1.92-7-.29-14.76,3.52-20.93.2-.32.42-.63.62-1a23.71,23.71,0,0,1,16.53-11,42,42,0,0,1,4.88.2c3.48.16,7,.34,10.44.22,5.61-.21,11.39-1.29,15.87-4.06q1.88,6.85,3.76,13.71c4.81,17.55,5.81,31.2,2.86,40.55-1.71,5.39-4.73,9.36-9.1,11.84a38.12,38.12,0,0,1-15.82,4.74,37.28,37.28,0,0,0,1.16,4,9.7,9.7,0,0,0,2.12,3.77c.11.11.23.21.35.31-3.56,4.47-9.73,6.41-15.4,5.7s-11-3.84-15.15-7.86l-.35-.08a7.94,7.94,0,0,0-.48-3.56c-2.65-8.65-6.44-16.89-10.22-25.11Zm57.27-25.92a1.49,1.49,0,0,0,.41-1.62,3.21,3.21,0,0,0-1.05-1.4,8.43,8.43,0,0,0-6.63-1.87c0-.1-.63,0-1.12.43a1.29,1.29,0,0,0,.51,2.39,6.13,6.13,0,0,0,1.29.09,6.28,6.28,0,0,1,3.34.9c.52.34,1,.78,1.5,1.06A1.69,1.69,0,0,0,153.34,115.44Zm-2.21,10.2a1.91,1.91,0,1,0-1.89,1.93A1.92,1.92,0,0,0,151.13,125.64Zm-6.95,18a5.84,5.84,0,0,0,2-4.08,3.67,3.67,0,0,0-2.5-3.15c-1.73-.63-3.55.52-5.36.87s-3.91-.19-5.88-.27-4.25.6-5,2.43a3.79,3.79,0,0,0,.37,3.24,7,7,0,0,0,2.42,2.3,11.92,11.92,0,0,0,7.2,1.72A11.17,11.17,0,0,0,144.18,143.67Zm-16.81-30.83a1.46,1.46,0,0,0-.55-1.66c-.5-.38-1.13-.51-1.13-.4a8.39,8.39,0,0,0-6.58,2,3.23,3.23,0,0,0-1,1.43,1.48,1.48,0,0,0,.45,1.6,1.67,1.67,0,0,0,1.75,0c.53-.3,1-.75,1.47-1.1a6.37,6.37,0,0,1,3.33-1,7,7,0,0,0,1.29-.11A1.51,1.51,0,0,0,127.37,112.84Zm-.67,13.08a1.91,1.91,0,1,0-1.89,1.93A1.92,1.92,0,0,0,126.7,125.92Z"/><circle class="cls-7" cx="340.87" cy="114.29" r="8.24" transform="translate(-13.91 56.08) rotate(-9.22)"/><path class="cls-4" d="M364.09,115.36c-2.86,1.45-5.71,2.86-8.79,4.64a22.38,22.38,0,0,0-4.88,3.44c-3.06,3.08-4.29,7.83-7.88,10.26v0c4-2.59,2.83-11.56-2.63-20S326.74,100.44,322.73,103c2.51-2.31,6.11-2.38,9.48-2.89,8.47-1.29,15.72-6.52,23-11C357,88,359,86.94,361.06,87s4.23,1.44,5.88,3c3.24,3,7.78,9.62,7.86,17.07-.16,1.81-1.16,2.84-3,4s-3.84,2.3-5.71,3.28ZM359.92,114a1.3,1.3,0,1,0-1.18-2.32L354.09,114a1.3,1.3,0,0,0,1.18,2.32Zm-2.31-5.64a1.3,1.3,0,1,0-1.18-2.32l-4.65,2.36a1.3,1.3,0,0,0,1.18,2.32Zm-3.32-5A1.3,1.3,0,1,0,353.1,101l-4.65,2.36a1.3,1.3,0,1,0,1.19,2.32Zm-3.7-4.61a1.31,1.31,0,0,0-1.18-2.33l-4.65,2.36a1.32,1.32,0,0,0-.57,1.75,1.3,1.3,0,0,0,1.75.58Z"/><path class="cls-8" d="M360.49,112.2a1.3,1.3,0,0,1-.57,1.75l-4.65,2.36a1.3,1.3,0,0,1-1.18-2.32l4.65-2.36A1.3,1.3,0,0,1,360.49,112.2Z"/><path class="cls-8" d="M358.18,106.56a1.3,1.3,0,0,1-.57,1.75L353,110.67a1.3,1.3,0,0,1-1.18-2.32l4.65-2.36A1.31,1.31,0,0,1,358.18,106.56Z"/><path class="cls-8" d="M354.86,101.56a1.31,1.31,0,0,1-.57,1.75l-4.65,2.36a1.3,1.3,0,1,1-1.19-2.32L353.1,101A1.31,1.31,0,0,1,354.86,101.56Z"/><path class="cls-8" d="M351.16,96.94a1.3,1.3,0,0,1-.57,1.76l-4.65,2.36a1.3,1.3,0,0,1-1.75-.58,1.32,1.32,0,0,1,.57-1.75l4.65-2.36A1.31,1.31,0,0,1,351.16,96.94Z"/><path class="cls-5" d="M187.6,230l-1.44-6c1.61-28.78,16.13-76,15.78-105.37s-5-51.25-13.28-79.48c-.16-.51-.28-1-.38-1.49a65.52,65.52,0,0,1-22.92-1.57l-.16,0c3,24.49,2.75,49.17.81,73.63-1,12.85-2.56,25.85-6.47,38.07a89.28,89.28,0,0,1-3.75,9.79c-3,6.56-7.36,13.15-14.14,15.55a3.81,3.81,0,0,1-3.64-.76c-3.56,4.47-9.73,6.41-15.4,5.7s-11-3.84-15.15-7.86l-.35-.08a2,2,0,0,1,0,.26,2.65,2.65,0,0,1-2.8,2.15l-.14,0c-15.56-8.84-21.89-18.74-29.34-31S62,115.78,57,102.3Q46.14,72.81,37.41,42.57l-.1,0c-8.66,2.55-16.55,4.48-25.49,4.45-.05-.26-.11-.52-.17-.78.19,1.74,3.91,84.24,22.8,120.63,6.26,12,14.06,23.3,21.78,34.55,11,16,21.85,32.1,27.81,50.5v0h0L94,284.25l19.38,0,87.31.12v-.12Z"/><ellipse class="cls-7" cx="270.85" cy="249.68" rx="8.73" ry="7.84" transform="translate(-97.49 254.8) rotate(-43.47)"/><path class="cls-2" d="M134.25,173.14c-.32,0-.7.15-1-.2-.24.34-.58.18-.9.2l-.28-.42.21-.22a1.27,1.27,0,0,1,.48.12c.12,0,.07-.12,0-.11a1.71,1.71,0,0,0-.3.09c.13,0,.26.07.26,0-.28-.18-.31-.24-.33-.3l-.15.18-.21.22h-.51a5.75,5.75,0,0,0-.43-.82.54.54,0,0,1,.06-.82l-.57-.75-.11,1.08h-.61a2.31,2.31,0,0,0-.24-.2c.05-.23.11-.43.17-.65h-1.15l-.3.33.11.12.6-.27a5.64,5.64,0,0,0,.57.47,2.31,2.31,0,0,1,.24.2c.14.48.57,0,.81.3l.17.6-.26.57-.6-.82-.27.24-.64-.86c-.18.27,0,.86-.68.84l-.08-.55-.84-.32.21-.76c-.46-.37-.85.18-1.27.1a7.88,7.88,0,0,1-1.11-.42v-.71l-.3.24-.79-.4v-.25c.42-.1.85-.18,1.27-.26l-.6-.45.33-.46-1,.42v.75a.41.41,0,0,1-.18.1l.18.15-.21.77.12-.13.2.57.22-.64.76.3-.6.49.16.59c-.2,0-.45,0-.6-.08a.87.87,0,0,0-1.06,0c-.27-.18-.29-.66-.73-.73l.23-1.19c.07-.07.14-.14.14-.22l.84-.23s0-.09.06-.13l-.56-.27a4.18,4.18,0,0,0-.34.63c0,.08-.07.15-.14.22h-.44v-.59h-1.39l-.7-.89-.23.22-1.09-.72.75-.27a1.77,1.77,0,0,1-.15-.36,2.24,2.24,0,0,0-.15-.63s.14.1.3.27l0-.5c-.18,0-.27,0-.35.23s-.09.34-.28.45c-.59-.65-1.49-.61-2.33-.83l-.17.37h-.3l0-.51,1-.5.16.13.16-.3c-.46-.19-.85-.65-1.39,0l-.47-.62c.36-.24,1,0,.92-.75-.38-.21-.83.6-1.2-.08l-.12.41-.64.13.11.12-.55.55.14.13h-1l.17-.64-.56.16-.41-.72.81.34.53-.27.2.48.39-.92.29.27.31-.32-1.15-.42.35-.55c.3.14.41.55.83.44.26.21.26.21.62,0h-.62l-.87-1-.49.75h-.78l-.1-.61-.3.17c-.44-.25-.27-.68-.3-1.05l1-.18.24.15c0-.06.09-.13.07-.18a2.91,2.91,0,0,0-.18-.35s.11-.1.15-.09l2.79,1.12c.44.17.89.3,1.33.46a8.64,8.64,0,0,0,1.25.39,22.9,22.9,0,0,1,2.42.68,5.77,5.77,0,0,0,1.69.39c.63,0,1.2.36,1.85.33.13,0,.26.09.39.09a4.81,4.81,0,0,1,1.44.2c.43.15.94,0,1.43.21a3.71,3.71,0,0,0,1.35,0l-.29.36.37.1.15-.44h2.56l-.23.32.57.2s0-.16.08-.3l-.22-.11c.12-.18.54-.18,1.51,0l-.43.24s0,.07,0,.2l.6.16.14.39c.09-.09.17-.15.25-.22,1,3.42,1.64,5,2.93,6.49l-.23.44-.57-.27c0,.16-.09.27-.07.35s.13.16.2.25a1.47,1.47,0,0,1-.21.22c-.23.13-.48.24-.73.37-.24-.48-.46-.92-.71-1.4l-.41.23.61.66-.26.37.21.21-.64.44-.05.5h-.54c0-.05-.09-.12-.08-.17.06-.23.14-.45.2-.68l0,0,.18-.15-.07-.07A1.33,1.33,0,0,0,134.25,173.14Zm-.83-2.18,0,0,.16.18.06-.07a.33.33,0,0,0-.21-.11l0,0-.15-.18-.07.07A.38.38,0,0,0,133.42,171Zm-10.53-.88c.15.16.19.25.22.24a1.81,1.81,0,0,0,.31-.09c-.13,0-.27-.08.16.09h-.18l.08.43.14,0C123.61,170.6,123.6,170.46,122.89,170.08Zm9.48,1.78c.33,0,.51-.18.6-.48s-.56-.08-.46-.49l-.44-.13a6.28,6.28,0,0,0,.45,1.24l-.86-.35.05.43A1.09,1.09,0,0,0,132.37,171.86ZM119.77,166c.8.43,1,.65.78,1l-.37.13c0,.23-.17.53.22.6.57-.5.37-1.13.42-1.73Zm6.52,3.94.51.38.27-.59-.3-.27Zm8.19,2.06v-.11h-.43V172ZM122.3,167.9l0-.18-.35.08,0,.1Zm-.67-1.48h-.11v.44h.11Zm6.78-1.9v.11h.43v-.11ZM124,168.38h-.07v.21H124Zm-.57,1.15v.07h.21v-.07Zm4.77,0v.07h.22v-.07Zm-.87.22v.07h.22v-.07Zm4.2,1.45h.07V171h-.07Zm4.19,0h-.07v.21h.07Zm-21.19-10.06v-.07h-.22v.07Zm2.1,1.38h-.08v.21h.08Zm1.52,1.08h-.08v.22h.08Zm-.73.87h.08v-.22h-.08Zm13.82.29v.07h.21v-.07Zm-2.9.14h-.07v.22h.07Zm-10.48.65h.07v-.21h-.07Zm11.21-.14v.07h.21v-.07Zm5.57.58h-.08v.22h.08Zm-.8.58v-.08h-.22v.08Z"/><path class="cls-2" d="M122.39,169.73l-1.22.6-.3-.26c-.07-.19.19-.33.75-.4l.12-.67C122.27,169.06,122.13,169.54,122.39,169.73Z"/><path class="cls-2" d="M127.66,171.41c-.14.25-.21.36-.26.47a1.69,1.69,0,0,0-.11.32l-.68.33-.26-.24.87-.88Z"/><path class="cls-2" d="M116.9,167l0-.81c.56.08.67.6,1.07.76l-.38.39Z"/><path class="cls-2" d="M115.35,164.51v.73c-.32,0-.6.53-1.15.16Z"/><path class="cls-2" d="M112.69,162.77h.64c-.12.39.78.29.46.84A1.65,1.65,0,0,1,112.69,162.77Z"/><path class="cls-2" d="M120.37,169.39l-1.07-.23,0-.39.47.17.89-.19Z"/><path class="cls-2" d="M112.22,161l-.4-.51,1.08-.36.12.24Z"/><path class="cls-2" d="M118.58,168.74l-.72.08a4.15,4.15,0,0,0-.16-.4.7.7,0,0,0-.14-.16l.33-.33Z"/><path class="cls-2" d="M121.65,171v.61H121C121.05,171.12,121.28,171,121.65,171Z"/><path class="cls-2" d="M111.67,163.26V164l-.6.05C111,163.6,111.26,163.49,111.67,163.26Z"/><path class="cls-2" d="M125,171.3l.67.43-.67.42Z"/><path class="cls-2" d="M129.39,173.74l.69-.51c0,.34,0,.56,0,.88Z"/><path class="cls-2" d="M129.6,173.86l-.69.51-.06-.88Z"/><path class="cls-2" d="M111.1,162.42l.64.4-.64.46Z"/><path class="cls-2" d="M119.75,171.57v-.76l.66.26Z"/><path class="cls-2" d="M121.74,171l-.27-.34.32-.33.46.55Z"/><path class="cls-2" d="M120.12,170.31h-.36v-.63C120.37,169.66,120.1,170,120.12,170.31Z"/><path class="cls-2" d="M109.29,160.53v.64l-.37.07,0-.63Z"/><path class="cls-2" d="M113,165.81l-.4.44-.45-.82Z"/><path class="cls-2" d="M131.41,173.76l.39-.44.45.82Z"/><path class="cls-2" d="M110,159.46l.45.38-.83.44Z"/><path class="cls-2" d="M110.74,162.72h-.8l.14-.55Z"/><path class="cls-2" d="M111.15,161a3.85,3.85,0,0,1,.28.27.08.08,0,0,1,0,.06l-.29.33-.32-.33Z"/><path class="cls-2" d="M133.07,175.4l-.5.68v-.78Z"/><path class="cls-2" d="M135.77,174l-.7.59-.23-.47Z"/><path class="cls-2" d="M130.85,173.7l.48.62-.48.19Z"/><path class="cls-2" d="M119.19,169.06l-.69.5-.09-.5Z"/><path class="cls-2" d="M114.4,166.6l.7-.5.08.5Z"/><path class="cls-2" d="M113.43,164.8v.48l-.61.06,0-.15Z"/><path class="cls-2" d="M118.21,167.09h.39l.06.32C118.37,167.58,118.19,167.58,118.21,167.09Z"/><path class="cls-2" d="M117.13,167.53h.38l.06.32C117.29,168,117.11,168,117.13,167.53Z"/><path class="cls-2" d="M111.48,160.55h-.39l-.06-.32C111.32,160.06,111.5,160.06,111.48,160.55Z"/><path class="cls-2" d="M135.56,174l0-.43.42,0-.34.51Z"/><path class="cls-2" d="M133.89,175.32v-.44h.1v.44Z"/><path class="cls-2" d="M111.3,159.73h.36l0,.11-.36.08Z"/><path class="cls-2" d="M118,161.47h.36v.1l-.35.09Z"/><path class="cls-2" d="M119,161.83h-.36v-.1l.35-.09Z"/><path class="cls-2" d="M119.33,161.9h.36l0,.11-.36.08Z"/><path class="cls-2" d="M121.21,162.48h-.36l0-.11.36-.08Z"/><path class="cls-2" d="M137.32,172l.18.15-.07.07-.15-.18Z"/><path class="cls-2" d="M117.77,161.36h-.21v-.07h.21Z"/><path class="cls-2" d="M120.38,162.23h-.22v-.07h.22Z"/><path class="cls-2" d="M125.08,163.17v.21H125v-.21Z"/><path class="cls-2" d="M129.42,163.6v.22h-.07v-.22Z"/><path class="cls-8" d="M340.64,124.65a.7.7,0,0,1-.42.09l.2-.34-.23-.22-1.74.46.53.31c-.19.34-.57.46-.46.85h-.31c-.31-1-.31-1-.14-1.7h-.83l0,0-.15-.18-.07.07a1.33,1.33,0,0,0,.19.14c.07.2.14.42.23.71-.46.28-.14.77-.35,1.45,0,.11.12.07.12,0s-.06-.2-.09-.3c0,.13-.08.26,0,.26a1.2,1.2,0,0,1,1-.18l-.62.46.19,1-.67.32.19-.69a2.37,2.37,0,0,1-.42-.79.76.76,0,0,1,0-.91.57.57,0,0,0,0-.51c-.36-.43-.1-.94-.24-1.38l-.55-.28a4.85,4.85,0,0,1-1.59.42c-.05,0-.11.13-.16.2-.51.08-.33.6-.58.94l-.65-.55.56-.23,0-.29-.64.13v-.37c-.35.06-.71.36-1.1,0,.21-.41.42-.84.64-1.28l-.25-.25-.78.4c0-.36-.31-.16-.54-.24l-.37.51-.34-.39.58-.88a1.43,1.43,0,0,0-1.32.19l-.31-.37a1.3,1.3,0,0,1,1.19-.51,8.16,8.16,0,0,1,1.21.4,1.36,1.36,0,0,0,.29-1.2c-.38,0-.58.28-.76.64l-1.05-.67-.11.35-.39.07.12-.42-.11-.89.21-.16-.21-.26.21-.64c.46.09.39.54.51.88l.25-.25.69.86h.25l.07.18a.4.4,0,0,0,.11-.2c.24,0,.44,0,.83,0L332,119a4,4,0,0,0-.35.4.42.42,0,0,1-.18,0v-.78a1.86,1.86,0,0,1-.64-.48l.82-.1-.78-.4c0,.23,0,.36,0,.5-.44.15-.53-.46-.94-.45l-.12.22-.42-.21.09-.19-.61-.61.12-.12c0-.17,0-.34-.06-.54h-.77l-.07-.76-.6-.38a2.19,2.19,0,0,1,.83-2.22V112h.43v-.4a3,3,0,0,0,.32-.23l.22.19-.23-.26.56,0-.09-.12-.78,0v.42c-.14.11-.28.26-.43.4h-.63c.07-.14.14-.29.2-.44l0,0,.17-.15-.06-.07-.14.18-.63-.2-.21-.21.27-.41c.23-.24.66.25.81-.24a2.39,2.39,0,0,1,.36.25c.1-.38.1-.68-.34-.86a5.92,5.92,0,0,1,0,.61c-.23-.06-.45-.13-.71-.22l.18-.21-.19-.39-.4.23c-.4-.27-.49-.85-1-.89v-.42l.21-.22h.64v.78l.7.3-.24-.61.93-.63.31.18.44-.32-.23-.22c.22-.26.62-.48.34-1-.07.06-.13.14-.2.16a2.69,2.69,0,0,1-.46,0l-.37-.53.46-.22,0-.11h-.6v-.5l.76-.53h.74l-.73.4c.37.43.86.58,1,1.12.17-.59.84-.61,1-1.14l-.23-.43s0,0,0,0l.17-.15-.06-.07-.14.18H330c.14-.32.23-.55.34-.82h.38l.83.72-.24.24.43.24.05-.74.1,0a.6.6,0,0,1,.08.08,21.65,21.65,0,0,1,3.34,2.93c.08.08.07.26.11.46-.72.1-.81.81-1.22,1.24a8.33,8.33,0,0,0-.93,1.64v.55l-.38.3c-.1.69-.22,1.26-.26,1.83s0,1.13,0,1.62a3.51,3.51,0,0,1,.63,2.08,5,5,0,0,1,.78,1.13c.26.81.92,1.15,1.56,1.54l-.16.16.93.77.2-.2a3,3,0,0,0,2.14,1.09c.2.38.64-.35.81.18h1.05c.32,0,.64,0,1,0a2,2,0,0,0,1-.17,3.71,3.71,0,0,1,1.3-.25c.24.88.47,1.77.72,2.73l-.5,0-.56.66s0,.15,0,.35l-.73.11.6.39c-.49.52-.11,1.08-.3,1.53l.41.41v.79h-.31c-.11-.28-.22-.59-.37-1-.21-.11-.62-.21-.54-.71h.38l.05-.84-.81-.32-.19-.41-.14.74c-.79-.06-.39-1-1-1.13a1.78,1.78,0,0,0,.21-.46s0,0,0,.1l.42-.08,0-.13A.79.79,0,0,0,340.64,124.65ZM329.57,115l0,0-.15-.18-.06.07c.06,0,.11.1.28,0l-.28.72.72.37A2.16,2.16,0,0,0,329.57,115Zm1.46-6.62h-.18l.08.41.14,0a.45.45,0,0,0-.26-.4q.12-.63.24-1.23l-.57.5.2.31-.24.42Zm-2.5,6.76c0-.17,0-.32,0-.37a2.67,2.67,0,0,0-.57-.26l.62,1.08.66-.33c-.25,0-.44-.08-.72-.52l0,0,.17-.14-.07-.07C328.6,114.61,328.55,114.66,328.53,115.12Zm6.82,6.62,0,0,.15.17.06-.07a.69.69,0,0,0-.19-.12c0-.35-.31-.16-.48-.21-.35.14-.44.62-.88.65-.05,0-.08.25-.11.38.27-.27.57-.17.8-.26V123l-.4.13,0,.13.79-.14.21.15c0-.61,0-.61-.6-.86.07-.11.2-.21.2-.31C334.86,121.71,335.1,121.75,335.35,121.74Zm8,2.42-.61.17-.62.59.05.49.27-.23.3.25.31-.88.6-.08Zm-10.16-2.63v-.08l-.82-.81v.89Zm-1.66-4.33-1-.75-.68.39.3.27.44-.25C331,116.91,331,117.44,331.55,117.2ZM329,113.08l-.13.11.45.62-.34.41.78-.35-.26-.55Zm4,9.42c0,.21,0,.46.05.81l.54-.56Zm-3.87-13-.33-.37v1Zm.49-1.4-.45.09c0,.21,0,.4,0,.71Zm3.86,13.24V122l.45-.09Zm-1.84-14.92-.2-.44-.1.08v.36Zm-3.37,7.77v-.33l-.28,0Zm1-4.67c.61.24.51,0,.47-.24Zm3.18,10.68c.07-.32.07-.32-.45-.28Zm3.86,2.4h-.1V123h.1Zm-6.5-9.6.18,0-.08-.34-.1,0Zm1,1.09h-.1v.43h.1Zm7.64,9.36h-.07v.21h.07Zm-5.32-3.4h-.07v.21h.07Zm8.44,4.89h.07v-.21h-.07Zm-2.06-1.07h-.07v.22h.07Zm-8-16.86V107h-.21V107Zm-1.2-.36h.07v-.21h-.07Zm-.28,9.43v.07h.21v-.07Zm-.15-3.69h.07v-.21h-.07Zm.71-2.34h-.07v.22h.07Zm-.64,0h-.07v.22h.07Zm-.35-.07v-.07h-.21V110Zm-1.91-.71v.08h.21v-.08Zm1.77-1.55h.07v-.22h-.07Z"/><path class="cls-8" d="M340,126.39a4.31,4.31,0,0,0,.2.69l0,0-.17.15.07.07a1.27,1.27,0,0,0,.13-.19h.38l.05.56,1.22.64v.78l-.53-.25-.92.19.27-1-.84-.07-.13-.36-.57.27v.33h-.64a2.75,2.75,0,0,1,0-.43l.63-.33-.61-.29c0,.22,0,.42,0,.62l-.81.54-.06-.75h.43l-.26-.49.57-.32.4.23c-.13-.49-.21-.8-.29-1.12.54,0,.75-.31.86-.79a2,2,0,0,1,.35-.54l.49.27c0,.35,0,.7,0,1.07t0,0l-.17.14.07.07a1.18,1.18,0,0,0,.13-.18,3.25,3.25,0,0,1,.38-.24l0,.56a3.62,3.62,0,0,1-.62.26,8.05,8.05,0,0,0-1-.32v.5l.27.28C339.5,126.71,339.62,126.32,340,126.39Zm1.43,2.14v-.19l-.36.08,0,.11Z"/><path class="cls-8" d="M326.83,108.36l-.43-.63.88-.33c0-.18-.11-.36-.16-.55s-.09-.39-.13-.54l-.76.17,0-.41.63-.09v-.81h.86l-.16.6.37.47v.58l-.57.18.73.14-.2.64Z"/><path class="cls-8" d="M327.67,116.67c0,.4,0,.81,0,1.21,0,.09-.13.18-.22.28l0,0-.15-.17-.07.07.18.14a2.91,2.91,0,0,1,0,.3l-.57.3-.46-.68v-.6l.77.15.18-.43c-.05-.22-.11-.5-.21-.91l-.6-.47.41-.7.91.62c-.12.25.21.65-.22.93,0,0,0,0,0,0l-.15-.18-.07.07A1.33,1.33,0,0,0,327.67,116.67Z"/><path class="cls-8" d="M325.34,103.26l.19.34-.39.39.73.47-.7.11v.6l.39-.25.46.39-.25.51s.54.27,0,.42c-.27-.44-.79-.65-1.06-1.34l.19-.92-.15-.15.27-.57Z"/><path class="cls-8" d="M329.59,119l-.57-.14-.45.21v-.83a1.55,1.55,0,0,1-.38-.12,1.19,1.19,0,0,1-.26-.25v-.81a2.09,2.09,0,0,1,1,.51,1.25,1.25,0,0,0,.46.16l-.17.6.38.25Z"/><path class="cls-8" d="M326,109.85l-.69.19-.62-.31c.12-.37.3-.57.66-.52a2.41,2.41,0,0,0,.05.3l.42-.16-.08-.12-.39,0c0-.25.1-.55-.24-.76l.79-.51.31.42-.21.22-.22.16.22.26Z"/><path class="cls-8" d="M332.54,124.34c.08.52.18,1.07.28,1.71l-1.22-.37.5-.42-.41-.48.32-.64Z"/><path class="cls-8" d="M327.68,104.32l-1.44.29v-1.07a3.25,3.25,0,0,1,1.44.26Z"/><path class="cls-8" d="M339.58,130.48l-.42.63c-.14-.13-.42-.27-.4-.39,0-.52-.34-.61-.66-.77l.3-1.16.24,0c.12.5.25,1,.37,1.49h.36Z"/><path class="cls-8" d="M330.94,126.75l-.6.27-.23-.13-.2.16-.32-.29.14-.6.44-.55Z"/><path class="cls-8" d="M325.76,106.24l.2.33-.19.2.63.36v.6h-.57l-.4-.64H325c0-.19,0-.37,0-.54Z"/><path class="cls-8" d="M327.25,111.34l-.38.53-.52-.46.21-.39c-.38-.14-.43-.63-.79-.82l.21-.35c.44-.12.45.48.81.5.17.23-.2.64.25.78Z"/><path class="cls-8" d="M337.31,128.52l.34.34c-.26.56-.76,1-.58,1.8l-.65,0v-.57l.38-.14-.21-.33Z"/><path class="cls-8" d="M325.34,112.83c-.07,0-.18.09-.21.16-.09.23-.16.48-.23.71l-.41-.23v-.33l.43-.2-.25-.27.35-.73.69.19.16-.15.31.31-.26.28-.58-.22Z"/><path class="cls-8" d="M341.15,129.82l.32.28.76-.59.53.52c-.34.19-.51.28-.66.38a4,4,0,0,0-.38.34l-1-.39Z"/><path class="cls-8" d="M327.5,122.1l-.83,1a1.22,1.22,0,0,1-.66-1.34h.31l.15.45.91-.23Z"/><path class="cls-8" d="M329.69,104.8c0,.29.08.53.12.81-.56-.22-.4-.65-.44-1-.33-.17-.82.12-1-.44l.55-.32.94.63Z"/><path class="cls-8" d="M334.06,125.59l.53-.29.22.48-.32.35.94.33-.58.54-.21-.52c-.33,0-.69,0-.8-.47C334.16,126,334,125.75,334.06,125.59Z"/><path class="cls-8" d="M326.21,114.13h.6v.32l-1.2.27-.23-.54c.05-.44.05-.44.78-.48,0,.13,0,.26,0,.42l0,0-.17.15.06.07Z"/><path class="cls-8" d="M327.65,112.62c-.13.43-.27.86-.39,1.26l-.57-.34.56-.11-.6-1,.61-.61.53.55Z"/><path class="cls-8" d="M333.84,126H333v-1.08l1,.32v.34C333.74,125.6,333.88,125.85,333.84,126Z"/><path class="cls-8" d="M343.54,125.11l.63.31.19-.53.42,1-1.28.35-.11-.16L344,126l-.21-.21Z"/><path class="cls-8" d="M339.37,130.26a1.61,1.61,0,0,1,1.06-1.27l.24.44-1.09,1Z"/><path class="cls-8" d="M330.87,125l.24-.14-.32-.64.72-.1-.12.85.19.63-.93,0v-.43Z"/><path class="cls-8" d="M325.91,115.54l.62.46-.51.33-.09.52-.56-.27C325.19,116.11,325.59,115.9,325.91,115.54Z"/><path class="cls-8" d="M326.72,119.52l-.51.19.11.12h-.69l-.33-.73c.54-.36.85.39,1.35,0Z"/><path class="cls-8" d="M335.45,125c-.13-.37-.23-.68-.34-1l.36-.37.23.41-.21.25h.89c-.05.12-.05.19-.09.21Z"/><path class="cls-8" d="M334.71,130.59v-.67l.69-.33.47.55Z"/><path class="cls-8" d="M337.48,131.17a.63.63,0,0,1,.85.34l-.2.34.16.28C337.74,132,337.35,131.76,337.48,131.17Z"/><path class="cls-8" d="M323.46,106.46v-.81c.43-.21.34.2.47.35l.37,0-.56.56Z"/><path class="cls-8" d="M327.35,121.32h-1.09a1.46,1.46,0,0,1,.66-.86Z"/><path class="cls-8" d="M323.45,106.55l-.46.21.14.14-.27.53-.53-.47c.05-.11.06-.23.13-.28a7.31,7.31,0,0,1,.65-.43Z"/><path class="cls-8" d="M343.63,129.63l-.72.26-.34-.66.71-.31Z"/><path class="cls-8" d="M324.47,108.59l-.49-.38.39-.49.26.25c.06.29.12.61.19,1l-.6.32Z"/><path class="cls-8" d="M329.07,123.88a.63.63,0,0,1-.78-.46l.52-.35.53.25Z"/><path class="cls-8" d="M334.73,127.76c-.11.53-.38.68-.82.55-.18-.4,0-.65.35-.83Z"/><path class="cls-8" d="M323.61,114.58a.89.89,0,0,1-.36-1.09h.52A1.56,1.56,0,0,1,323.61,114.58Z"/><path class="cls-8" d="M329.16,122.23l.26-.19.26-.09.4.76a1.69,1.69,0,0,1-.31.11A.51.51,0,0,1,329.16,122.23Z"/><path class="cls-8" d="M333.67,129.05l-.33.33h-.58a1.91,1.91,0,0,1,.13-.59c.14-.27.31-.24.47,0C333.42,128.92,333.57,129,333.67,129.05Z"/><path class="cls-8" d="M339.8,131.75l-.54.28-.22-.47.12-.45C339.63,131.16,339.75,131.28,339.8,131.75Z"/><path class="cls-8" d="M342.59,131.85c-.11.25-.22.51-.36.86l-.64-.58.84-.42Z"/><path class="cls-8" d="M323.32,115.2h.92l0,.53C323.8,115.93,323.56,115.72,323.32,115.2Z"/><path class="cls-8" d="M326.89,102.58l1.41.29v.32a.61.61,0,0,1-.74-.13,2.24,2.24,0,0,0-.7-.32Z"/><path class="cls-8" d="M334.27,123.75l.61.4v.64l-.61-.61Z"/><path class="cls-8" d="M324.91,116.52l.49.61c-.38.33-.75,0-1,.18Z"/><path class="cls-8" d="M336.05,129.39c0-.06-.09-.13-.07-.18a1.91,1.91,0,0,1,.17-.32l-.25-.5h.76C336.47,128.78,336.45,129.18,336.05,129.39Z"/><path class="cls-8" d="M328.84,119.53l.2.67-.44.25-.25-.25.28-.57Z"/><path class="cls-8" d="M331.5,126.91l.68,1h-.59C331.66,127.61,331.07,127.46,331.5,126.91Z"/><path class="cls-8" d="M328,124.06l-.88.34v-.65C327.41,123.49,327.65,123.73,328,124.06Z"/><path class="cls-8" d="M326,102.41h.54l.06.6H326Z"/><path class="cls-8" d="M323.42,117.45v-.54l.61,0v.59Z"/><path class="cls-8" d="M327.68,105.17l-.23-.42.23-.43c.41.12.49.41.36.85Z"/><path class="cls-8" d="M323.67,110.52h.58v.56h-.58Z"/><path class="cls-8" d="M343.92,127.7c0-.69,0-.69.26-1.1l.28.52Z"/><path class="cls-8" d="M332,122.93l-.48.2-.24-.31a.54.54,0,0,1-.15-.45l.8.31Z"/><path class="cls-8" d="M324,120.85l-.59-1.19.59,0Z"/><path class="cls-8" d="M333.21,128.7c-.1-.4-.17-.67-.3-1.16l.81.52Z"/><path class="cls-8" d="M332,130.77v-.9l.56,0c0,.14.08.27,0,.32A8,8,0,0,1,332,130.77Z"/><path class="cls-8" d="M329.87,123.52l.94-.37v.8Z"/><path class="cls-8" d="M337.24,130.38l.33-.34c.17.27.56.35.52.83C337.64,131,337.52,130.55,337.24,130.38Z"/><path class="cls-8" d="M323.59,110.53c-.3-.25-.52-.47-.33-.83.34.06.34.06.6.37Z"/><path class="cls-8" d="M322.51,112.9l-.55.67-.41-.37C321.52,113,321.82,112.87,322.51,112.9Z"/><path class="cls-8" d="M328.15,121.14l-.86-.07.7-.77Z"/><path class="cls-8" d="M323.63,105.28l-.68-.37.73-.25.25.25Z"/><path class="cls-8" d="M333.26,127l-.65.06v-.64C333,126.39,333.14,126.65,333.26,127Z"/><path class="cls-8" d="M330.39,128.71l.59-.5.13.72h-.67Z"/><path class="cls-8" d="M336.84,128.59V128l.51,0C337.58,128.18,337.39,128.43,336.84,128.59Z"/><path class="cls-8" d="M340.43,133.27h.6v.62C340.57,133.86,340.41,133.63,340.43,133.27Z"/><path class="cls-8" d="M325.34,112.86h.6v.62C325.48,113.45,325.32,113.22,325.34,112.86Z"/><path class="cls-8" d="M335.25,127l.82.41-.55.55-.15-.1c0-.11.13-.22.12-.33A2.62,2.62,0,0,0,335.25,127Z"/><path class="cls-8" d="M327.48,120.32,327,120l.58-.45.1.72Z"/><path class="cls-8" d="M323.77,103.3h.78l-.37.7Z"/><path class="cls-8" d="M330.65,125.16h-.37l0-.61a.5.5,0,0,1,.64.4Z"/><path class="cls-8" d="M336.06,132.73l.73-.44,0,.8Z"/><path class="cls-8" d="M341.39,131.83l-.41-.66h.83Z"/><path class="cls-8" d="M325.62,110.6l.35.71-.69,0C325.4,111.08,325.49,110.9,325.62,110.6Z"/><path class="cls-8" d="M325,102.47l.77.43a1.84,1.84,0,0,1-.29.28C325.35,103.28,325.35,103.27,325,102.47Z"/><path class="cls-8" d="M323.46,108.47l-.32.57-.36-.37.5-.36Z"/><path class="cls-8" d="M342.14,127.05h-.61l0-.36h.61Z"/><path class="cls-8" d="M325,122.42l-.32-.52c.37-.34.48,0,.68.18Z"/><path class="cls-8" d="M329.18,122.13l-.34.26-.32-.32.53-.44Z"/><path class="cls-8" d="M339.79,131.78h.61l0,.35h-.62Z"/><path class="cls-8" d="M335.81,125.53l.41.41-.56.32-.12-.14c.07-.07.17-.13.21-.22A1.63,1.63,0,0,0,335.81,125.53Z"/><path class="cls-8" d="M325.74,115.6l-.37,0,0-.38.64,0Z"/><path class="cls-8" d="M343.6,129.62l.51,0-.4.78Z"/><path class="cls-8" d="M344.3,130.22v-.79c.15,0,.37-.15.31.16s-.14.43-.21.64Z"/><path class="cls-8" d="M333.82,130.65l.1-.49.67.49Z"/><path class="cls-8" d="M343.52,131.33l.31.31-.34.36-.27-.37Z"/><path class="cls-8" d="M334.69,127.69l0-.37.38,0,0,.65Z"/><path class="cls-8" d="M320.89,111.28l.56-.45.09.45Z"/><path class="cls-8" d="M324.49,110.72h.38l.06.31C324.65,111.2,324.47,111.19,324.49,110.72Z"/><path class="cls-8" d="M322.54,117.87l-.38-.73.38-.08Z"/><path class="cls-8" d="M333,123.88v.43h-.42v-.43Z"/><path class="cls-8" d="M330,128.19v.31l-.38.08-.08-.39Z"/><path class="cls-8" d="M328.1,125.18h.38l.06.31C328.26,125.66,328.09,125.65,328.1,125.18Z"/><path class="cls-8" d="M324.5,113.46l0,.4-.36,0,0-.4Z"/><path class="cls-8" d="M328.74,116.85h-.38l-.06-.31C328.58,116.37,328.76,116.38,328.74,116.85Z"/><path class="cls-8" d="M329.49,103.41l.28.45C329.5,103.91,329.25,104,329.49,103.41Z"/><path class="cls-8" d="M329.93,124.51h-.3v-.37l.1-.08Z"/><path class="cls-8" d="M339,128.84l.45.28C339,129.16,339,129.16,339,128.84Z"/><path class="cls-8" d="M332,126.81v-.34h.62Z"/><path class="cls-8" d="M334.71,128.62v-.23h.37l.06.09Z"/><path class="cls-8" d="M340.74,126.49l-.28.28,0-.28Z"/><path class="cls-8" d="M325,111.75h-.3v-.37l.1-.07Z"/><path class="cls-8" d="M323.64,114.52l.42,0,0,.41-.5-.32Z"/><path class="cls-8" d="M326.86,117.28h-.38l-.07-.08.41-.12C326.8,117,326.82,117.09,326.86,117.28Z"/><path class="cls-8" d="M331.68,123.64h-.35l0-.11.36-.08Z"/><path class="cls-8" d="M339.67,128.38l-.51-.14a1.76,1.76,0,0,1,.3-.1S339.53,128.22,339.67,128.38Z"/><path class="cls-8" d="M336.78,131.08h-.35l0-.11.36-.07Z"/><path class="cls-8" d="M339.19,134.06v-.36h.11l.08.34Z"/><path class="cls-8" d="M322.33,108.11H322l0-.1.34-.08Z"/><path class="cls-8" d="M323.6,112.44v.36h-.1l-.08-.36Z"/><path class="cls-8" d="M321.14,105.17v-.42h.11v.42Z"/><path class="cls-8" d="M325.51,117.55v.35h-.1l-.08-.35Z"/><path class="cls-8" d="M328.17,119v-.21h.07V119Z"/><path class="cls-8" d="M328.17,126.86v-.21h.07v.21Z"/><path class="cls-8" d="M344.55,126.65v-.21h.07v.21Z"/><ellipse class="cls-8" cx="332.25" cy="128.67" rx="0.15" ry="0.05"/><path class="cls-8" d="M344.69,128.92h-.22v-.07h.22Z"/><path class="cls-8" d="M340.84,130.07l-.17-.14.06-.07.15.17Z"/><path class="cls-8" d="M340.42,133.26l-.18-.15.07-.06.15.17Z"/><path class="cls-8" d="M326.26,105.17V105h.07v.21Z"/><path class="cls-8" d="M330,103.76h.21v.07H330Z"/><path class="cls-8" d="M323.92,102.62v-.21H324v.21Z"/><path class="cls-8" d="M327.46,112.19l.22-.21Z"/><path class="cls-8" d="M158.41,283l.61-1.14h.58a1.36,1.36,0,0,1-.34,1.34,1.38,1.38,0,0,1-1.22.59l-.39-.59-.26.58h-1.07l-.59-.54a1.3,1.3,0,0,1,.06-.25.64.64,0,0,1,.78-.25c0,.09,0,.18,0,.28s0,.2,0,.32h.56l.06-.33-.38-.13-.31-.95.51-.29.47.37-.58.7a4.15,4.15,0,0,1,.8,0A2.88,2.88,0,0,1,158.41,283Zm-.28.43v.07h.22v-.07Z"/><path class="cls-8" d="M170.29,281.23l.43-.25c.37.34.37.34.43.72l-1.28.81c.11.54.91.36.84,1a1.49,1.49,0,0,1-1.38-.19l-.23.49-.32-.05.23-.4-.9-.71.86-.26.09.06.67-.83h.53Z"/><path class="cls-8" d="M164.41,281.64c.07-.26.17-.51.26-.78l.75-.25.58.29-.53.76.2,1.47c-.46.07-.69-.27-.94-.65l-.38.59-.47-.55.18-.86.35,0,.24.21,0,0,.15.18.07-.07a1.33,1.33,0,0,0-.19-.14Z"/><path class="cls-8" d="M167.11,283.15h-.44l-.36-.92,1.16-1v-.36h1.45c.35.51.37.62.11.88s-.49.2-1.09-.3Z"/><path class="cls-8" d="M179.62,275.57l-.33-.83-.58-.1L179,274l.49.47h.65c.31-.58.31-.58.89-.63,0,0,.07,0,.07.08s0,.28,0,.45c.42,0,.45.42.64.64-.23.45-.63.31-1,.33,0-.25-.07-.45-.12-.75l-.43,1.18h-.37Z"/><path class="cls-8" d="M188.33,281.86h.5c.13.3.25.6.42,1l.7-.54h.69a1.55,1.55,0,0,1-.53,1.54l-1.78-.8ZM189.6,283v.07h.21V283Z"/><path class="cls-8" d="M190.73,269l.82-.16c0,.24.07.46,0,.57a1.7,1.7,0,0,1-1.39.77l-.32-.32.2-.22c-.34-.31-1-.25-1.1-1l.85.13.12-.61A1.24,1.24,0,0,1,190.73,269Zm0,.45v-.07h-.22v.07Z"/><path class="cls-8" d="M168.61,278.61h.68l.46-.75.44.81a2.54,2.54,0,0,0-.51.23,1.65,1.65,0,0,0-.26.32l-.33.36.12.52-.36.48-.67-.29-.3-.6C168.11,279.36,168.35,279,168.61,278.61Z"/><path class="cls-8" d="M191.55,271.44l.39-.53.53.47-.24.42.39.14-.09.78.44.63.47-.27.07.63c-.26.27-1.06,0-1.56-.53l.28-.41-.68.12v-1h.59Z"/><path class="cls-8" d="M152.18,282.73h-.34l-.93,1.08c-.39-.61-1,.48-1.34-.22-.32.41-.75.12-1.19.28l.31-.75c.3.07.71.29.9.17.37-.22.7-.05,1.06-.15.15-.37.32-.76.89-.61l.18-.51Z"/><path class="cls-8" d="M174,278.36l-.38-.62c-.05,0,0,0,0,0l-.5-.5c.11-.55.17-.87.24-1.21h.6c-.05.27-.09.52-.14.84l.19.4c.39.06.94.08.79.75C174.76,278.3,174.49,278.45,174,278.36Z"/><path class="cls-8" d="M178.94,277.56v1a.58.58,0,0,1-.83-.23l0-.8-.31.24a1.38,1.38,0,0,1-.48-1.35C178,276.63,178.34,277.28,178.94,277.56Z"/><path class="cls-8" d="M187.66,282.32l-1.51-1v-.42l.61-.32.3.79.91-.16c.12.26.34.51.29.67S187.91,282.14,187.66,282.32Z"/><path class="cls-8" d="M194.48,274.48l.22.22.49-.65a.55.55,0,0,1,.31,0c.3.14.31.19.38.77l-.78.37-.42.67-.62-.48.3-.37-.2-.22Z"/><path class="cls-8" d="M179.6,282.5a4.44,4.44,0,0,1-.48.25l-.37-.46v-.78l.83.56h1.08l.05.88-.75.27c-.14-.29-.24-.5-.36-.72l0,0,.18-.15-.07-.07A1.33,1.33,0,0,0,179.6,282.5Z"/><path class="cls-8" d="M189.79,271v.81l-.37.36-.56-.44.29-.38-.63-.39a.66.66,0,0,1,.5-.83l.36.42Z"/><path class="cls-8" d="M197.58,281.54l.53.2-.34.58c-.38-.31-.51-.82-.93-.91l.21-1.1,1.22.56C198.3,281.35,197.92,281.37,197.58,281.54Z"/><path class="cls-8" d="M170.52,279.44v-1.19l.32-.3c.51,0,.63.38.3,1l.64.11v.52C171.3,279.92,171,279.46,170.52,279.44Z"/><path class="cls-8" d="M161.19,282.64c.28-.45.85-.61,1.09-1.11,0-.07.17-.09.27-.1a1.35,1.35,0,0,1,.33,0v.75C162,283.08,161.82,283.12,161.19,282.64Z"/><path class="cls-8" d="M153,280.34l.51-.62.61.77.79-.4.26.25-.58.64-.31-.18c-.06.14-.13.28-.22.47C153.75,281,153.44,280.7,153,280.34Z"/><path class="cls-8" d="M196.6,269c-.39.59-.25,1.39-1,1.64l-.35-1,.35-.14.41-.95Z"/><path class="cls-8" d="M156.8,277.66l.38-.38c.17.53,1.11.38.95,1.21l-.42.44.2.23-.31.3Z"/><path class="cls-8" d="M184.66,280.5l-.8-.79-.67.55-.13-.57.65-.65.81.3C184.57,279.61,185,279.9,184.66,280.5Z"/><path class="cls-8" d="M171.84,277a.61.61,0,0,1-.84.45l-.15-.44-.48.22L170,277l.42-.24.11-.74c.38.06.49.26.62.54S171.58,276.84,171.84,277Z"/><path class="cls-8" d="M181.84,271.22c.45-.08.3-.58.53-1l.63.63-.52.17a1.92,1.92,0,0,1,.17.39,5.22,5.22,0,0,1,0,.56l-1.1.34C181.66,271.93,181.75,271.59,181.84,271.22Z"/><path class="cls-8" d="M166.92,278.63l.25.18.15-.4h.75V279l-.7.07-.5.73-.75-.67Z"/><path class="cls-8" d="M196.94,276.62l-.57.06-.07.35a4,4,0,0,0-.49-.16,3.84,3.84,0,0,0-.48,0l-.27-.57.33-.35.66.46.1-.39h.79Z"/><path class="cls-8" d="M166.4,276.1l-.07.31h-.56v-.87l.79.17.06-.27c.32-.25.56-.07.8.19l-.25.59Z"/><path class="cls-8" d="M188.51,267.15v-.59c.29-.34.59-.53,1-.11l.23-.21.47.47-.26.46-.37-.19Z"/><path class="cls-8" d="M185.19,277.34l.21.47-.2.76h-.76v-1.23Z"/><path class="cls-8" d="M165,278l.26.51c-.14.14-.13.25,0,.45s0,.42,0,.71l-.58,0-.33-1.7Z"/><path class="cls-8" d="M160.92,280.76l-.43-.24-.74.67-.49-.49v-.63l.55.24.34-.45.45.45.32-.17Z"/><path class="cls-8" d="M186.61,282.13l-.34.34-1.43-.25v-.53c.35-.05.69-.17,1,.15l.38-.28Z"/><path class="cls-8" d="M183.57,273.6v-.71l1-.8.33.76C184.34,273,184.2,273.67,183.57,273.6Z"/><path class="cls-8" d="M190.24,276.73l.55-.23c.26.4,1-.16,1.2.61l-.3.41H191C191,277.07,190.46,277.08,190.24,276.73Z"/><path class="cls-8" d="M187.77,276.63l.26.88-.78.33v-.69l-.88.18v-.62a.81.81,0,0,1,.27,0,1,1,0,0,1,.37.13A.52.52,0,0,0,187.77,276.63Z"/><path class="cls-8" d="M195.89,271.84c-.09-.5.23-.87.49-1.26h.48c.33.44,0,.82-.15,1.26Z"/><path class="cls-8" d="M187.21,272.09v.38l.65.12V273l-.59-.14-.09.28c-.6.06-.79,0-.84-.39S186.49,272.14,187.21,272.09Z"/><path class="cls-8" d="M192.26,281.61a5.05,5.05,0,0,1,.56.11c.15.06.3.15.49.25l-.32,1.2-.44-.09.31-.53h-.6Z"/><path class="cls-8" d="M176.86,274.81l-.86.26-.56-.32.56-1C176.61,273.92,176.61,274.43,176.86,274.81Z"/><path class="cls-8" d="M184.59,281.05v.77l-.6.08.29.74-.79-.41.23-.26-.27-.36C183.79,281.32,183.93,280.84,184.59,281.05Z"/><path class="cls-8" d="M180.22,276.54v1.21l-.32.54-.52-.46A1.42,1.42,0,0,1,180.22,276.54Z"/><path class="cls-8" d="M192.38,278.91l1,.51-1,.9H192a1.3,1.3,0,0,1,.07-.57C192.19,279.51,192.52,279.39,192.38,278.91Z"/><path class="cls-8" d="M181.18,275.77c.18.59.3,1,.41,1.29a.63.63,0,0,1-.79.45l-.27-.28Z"/><path class="cls-8" d="M195.7,281.51l-.32.32h-.74v-1.18l.74.54c.05-.12.09-.25.2-.55C195.64,281,195.67,281.28,195.7,281.51Z"/><path class="cls-8" d="M160.09,277.68a.55.55,0,0,1-.57.49.53.53,0,0,1-.52-.54.55.55,0,0,1,.63-.55A.57.57,0,0,1,160.09,277.68Z"/><path class="cls-8" d="M191.55,266.1a.54.54,0,0,1-.49.57.53.53,0,0,1-.6-.57.55.55,0,0,1,.55-.52A.54.54,0,0,1,191.55,266.1Z"/><path class="cls-8" d="M156.92,280.14h1.13c.27.42-.12.69-.21,1.05l-.48,0Z"/><path class="cls-8" d="M176.09,281.35a1.37,1.37,0,0,1,.7,1.34H176l-.25-.76Z"/><path class="cls-8" d="M150.79,280.32l.68-.26.43.51a5.21,5.21,0,0,0-.68.52,5,5,0,0,0-.43.76Z"/><path class="cls-8" d="M180.73,265.17h.84l.29.7-.62.31-.51-.24Z"/><path class="cls-8" d="M196.42,273.71l.87-.88.19.55.12-.12V274h-.75l.11-.1Z"/><path class="cls-8" d="M176.62,276.73l-.72.39-.54-.81.5-.28Z"/><path class="cls-8" d="M193.35,278.43a2.24,2.24,0,0,0,.88-1l.46.6-.49.17a1,1,0,0,1-.63,1Z"/><path class="cls-8" d="M182.68,277.68c.13.12.26.18.28.26.06.35.09.69.15,1.15l-.81-.2C182.24,278.1,182.24,278.1,182.68,277.68Z"/><path class="cls-8" d="M192.17,260.07l-.66.33c-.34-.2-.51-.47-.35-.81a.5.5,0,0,1,.62-.29A.55.55,0,0,1,192.17,260.07Z"/><path class="cls-8" d="M168.18,276.58l-.28-.56,1.22-.58c0,.24.07.37.08.5,0,.31,0,.59-.44.51A1.7,1.7,0,0,0,168.18,276.58Z"/><path class="cls-8" d="M170,271.44l.4.41-.68.78c-.18-.2-.4-.35-.45-.54C169.11,271.7,169.29,271.56,170,271.44Z"/><path class="cls-8" d="M177.59,272.06l-.39.91-.62-.33c.07.07,0,0,0,0,.12-.39.26-.79.37-1.13Z"/><path class="cls-8" d="M179.45,272l.53.67-.23.48H179C178.84,273,179,272.48,179.45,272Z"/><path class="cls-8" d="M190.14,272.66a1.74,1.74,0,0,1-.22,1.63c-.2-.29-.37-.56-.58-.86A1.71,1.71,0,0,1,190.14,272.66Z"/><path class="cls-8" d="M154.43,283.44c.36-.48.36-.48,1.15-.72l-.23.59.39.39A1.14,1.14,0,0,1,154.43,283.44Z"/><path class="cls-8" d="M186.16,278.82h.55l.49.76c-.51.4-.51.4-1.08,0Z"/><path class="cls-8" d="M193.21,268.45l-.51.26c0-.34-.06-.61-.09-1,.22,0,.42-.06.55,0a8.24,8.24,0,0,1,.84.66A.48.48,0,0,1,193.21,268.45Z"/><path class="cls-8" d="M191.5,275.09c.08-.29.14-.53.21-.79h1l-.21.79Z"/><path class="cls-8" d="M174.41,283.16v.6h-1C173.36,282.88,173.56,282.76,174.41,283.16Z"/><path class="cls-8" d="M187.83,266.87h-.54l-.4-1h.94Z"/><path class="cls-8" d="M188.36,270.22l-.69.36-.52-1.25.55-.07Z"/><path class="cls-8" d="M188.47,274.77l-.81-.37,0-.45.55-.28.61.3Z"/><path class="cls-8" d="M174.62,279.58v-.5l.79-.05c.07.37.49.63.19,1.12Z"/><path class="cls-8" d="M178.49,274.46h-.79v-1l.79.23Z"/><path class="cls-8" d="M190.07,262l.57-.26.37.7-.74.5-.2-.21Z"/><path class="cls-8" d="M178.8,280.92l.22-.53c.23-.14.43,0,.82.4l-.69.69Z"/><path class="cls-8" d="M164.49,279.78l-.54.35c-.07,0-.31,0-.42-.17a2,2,0,0,1-.25-.63C163.8,279.22,164.2,279.14,164.49,279.78Z"/><path class="cls-8" d="M192.26,257.81c-.6.5-.6.5-1.14,0C191.54,257.16,191.63,257.15,192.26,257.81Z"/><path class="cls-8" d="M179.6,264.79v1h-.82a1.76,1.76,0,0,1,0-.65C178.89,264.71,179.27,265.08,179.6,264.79Z"/><path class="cls-8" d="M173.87,273.94l-.14-.56-.17.16v-.75c.1,0,.21-.07.29,0s.4.19.62.3l-.38.78Z"/><path class="cls-8" d="M147.41,283.16a.62.62,0,0,1-.78-.43c.1-.38.38-.46.78-.43l.4.37Z"/><path class="cls-8" d="M180.48,280.12h.61c.06.37.15.74-.25,1.05l-.57-.28v-.55Z"/><path class="cls-8" d="M189.22,275.79l.51,1h-1.22C188.5,276.34,188.89,276.24,189.22,275.79Z"/><path class="cls-8" d="M198.35,276.72l.77.64-.57.58C197.94,277.56,197.94,277.56,198.35,276.72Z"/><path class="cls-8" d="M189.16,278.6c.06-.78.06-.78.79-.83l.3.62A1.49,1.49,0,0,1,189.16,278.6Z"/><path class="cls-8" d="M189.24,263.72l.45-.52a.65.65,0,0,1,.81.55l-.5.15.12.21a3.66,3.66,0,0,0-.42-.26A4.53,4.53,0,0,0,189.24,263.72Z"/><path class="cls-8" d="M182.1,261.36l.87.37-1.07.83C181.59,262.11,182,261.84,182.1,261.36Z"/><path class="cls-8" d="M152.06,282.71l.71.37c-.1.25-.22.51-.33.78C151.73,283.42,151.73,283.42,152.06,282.71Z"/><path class="cls-8" d="M191.3,281.28l-1,.79-.32-.69.31-.31Z"/><path class="cls-8" d="M192.81,270.73l.58-.58c.4.25.37.63.29,1C193.26,271.34,193,271.19,192.81,270.73Z"/><path class="cls-8" d="M158.53,273.45h1l-.81,1.15C158.43,274.16,158.67,273.78,158.53,273.45Z"/><path class="cls-8" d="M169.21,274.17v-.45l.29-.29.64.32c-.12.25-.23.51-.39.87Z"/><path class="cls-8" d="M197.8,274.22l.06.59-.64.6-.49-.39C197.09,274.77,197.28,274.35,197.8,274.22Z"/><path class="cls-8" d="M173.16,279.66c.63.37.7.69.33,1.27l-.07,0-.46-.45Z"/><path class="cls-8" d="M166.13,273.89a.51.51,0,0,1,.2-.54c.4.26.82.48.67,1.13-.56,0-.65-.57-.87-.59l.27.18.18-.15-.07-.07C166.46,273.91,166.41,274,166.13,273.89Z"/><path class="cls-8" d="M183.94,275.11h-.82v-.58h1.08C184.1,274.75,184,274.94,183.94,275.11Z"/><path class="cls-8" d="M184.64,274.45c.38.26.52.53.36.81a.56.56,0,0,1-.87.19Z"/><path class="cls-8" d="M177.88,276.65v-.57l-.4-.13,0-.34a3.66,3.66,0,0,0,.54.17,4.34,4.34,0,0,0,.51,0C178.47,276.49,178.47,276.49,177.88,276.65Z"/><path class="cls-8" d="M174.33,282.9l.57-.47.43.82-.45.53Z"/><path class="cls-8" d="M171.42,283.58c-.33-.62-.33-.62.2-1.12l.46.43A1.63,1.63,0,0,1,171.42,283.58Z"/><path class="cls-8" d="M165.76,270.53c.56.55.56.55.57,1.16l-.91-.36Z"/><path class="cls-8" d="M188.66,280l.91.85-.72.24C188.68,281.21,188.52,280.69,188.66,280Z"/><path class="cls-8" d="M172.44,281.72v.48c-.34.34-.8,0-1.06-.8Z"/><path class="cls-8" d="M188.87,260.51l.85.41-.5.6C188.77,261.28,188.58,261,188.87,260.51Z"/><path class="cls-8" d="M187.48,283.78h-1.11a.45.45,0,0,1,.41-.61C187.16,283.09,187.34,283.32,187.48,283.78Z"/><path class="cls-8" d="M190.41,280.61l-.37-.37.32-.35.44.17.5-.2v.67l-.41-.2Z"/><path class="cls-8" d="M178.93,279.2v.56l-.64.63-.44-.39Z"/><path class="cls-8" d="M146.93,280l-.86-.41.51-.6C147,279.22,147.22,279.48,146.93,280Z"/><path class="cls-8" d="M177.58,279.81l-.91-.45.46-.56C177.59,278.9,177.74,279.18,177.58,279.81Z"/><path class="cls-8" d="M190.25,278.39c.36,0,.71,0,.89.47l-.35.41C190.21,279.18,190.24,278.78,190.25,278.39Z"/><path class="cls-8" d="M196.48,278.3l.44-.35c.31,0,.43.19.44.81C197,278.92,196.72,278.79,196.48,278.3Z"/><path class="cls-8" d="M154.72,276h.48l.31.61-.79.38Z"/><path class="cls-8" d="M187.21,272.06v-.73l.31-.3c.48.21.31.63.35,1Z"/><path class="cls-8" d="M186.05,270.32l.25,1c-.43-.28-.91-.3-1.1-.89Z"/><path class="cls-8" d="M172.64,271.18c-.43.12-.7,0-.9-.53l.44-.31A.61.61,0,0,1,172.64,271.18Z"/><path class="cls-8" d="M171.29,267.67l.86.42-.51.59C171.19,268.44,171,268.18,171.29,267.67Z"/><path class="cls-8" d="M185.37,267.4l-.44.91-.58-.47C184.51,267.36,184.79,267.25,185.37,267.4Z"/><path class="cls-8" d="M193.26,266.89l.35-.55c.48.45.48.45.5.92C193.73,267.43,193.47,267.29,193.26,266.89Z"/><path class="cls-8" d="M195.15,265.81a2.19,2.19,0,0,0-.27-.22,2.67,2.67,0,0,0-.41-.1l.62-.76C195.52,264.92,195.54,265.19,195.15,265.81Z"/><path class="cls-8" d="M145,281.42c.32.43.32.43.22,1.09C144.52,282.14,144.5,282.07,145,281.42Z"/><path class="cls-8" d="M163.92,278.46c-.54-.21-.66-.48-.53-.91h.51l.27.55Z"/><path class="cls-8" d="M164.88,276.08l.48.52-.42.55-.63-.47Z"/><path class="cls-8" d="M174.5,281.73l-.78.38-.3-.63h1Z"/><path class="cls-8" d="M177.24,283.56l-.18-.28.26-.54c.36-.05.49.15.52.82Z"/><path class="cls-8" d="M177.91,268.5l.57-.29.27.41c-.09.38-.39.48-.84.42Z"/><path class="cls-8" d="M181.71,268.55c.12-.3.22-.56.31-.81l.66.37C182.55,268.52,182.32,268.71,181.71,268.55Z"/><path class="cls-8" d="M195.41,266l.05.79-.32.33C194.63,266.46,194.64,266.4,195.41,266Z"/><path class="cls-8" d="M180.41,270.65l-.32-.64s0,0,0,0l.43-.18.63.54Z"/><path class="cls-8" d="M193.25,262.09l-.5-.6.5-.54.54.45Z"/><path class="cls-8" d="M192.89,270l-.54-.51.44-.53.56.42Z"/><path class="cls-8" d="M185.06,269v-.51l.51-.26.37.27C185.8,269,185.57,269.15,185.06,269Z"/><path class="cls-8" d="M194.73,280.4l-.35-.15.18-.22-.26-.38.58-.49c.07.17.15.26.13.34C194.94,279.79,194.83,280.07,194.73,280.4Z"/><path class="cls-8" d="M186.16,264.5h.07l.08-.08.55.54-.7.28Z"/><path class="cls-8" d="M191.84,263.65h.54v.81C191.79,264.33,191.79,264.32,191.84,263.65Z"/><path class="cls-8" d="M178.08,262.67l-.38.37-.54-.42.49-.63Z"/><path class="cls-8" d="M190.57,275.13l.38.38-1.07.46C190,275.46,190,275.46,190.57,275.13Z"/><path class="cls-8" d="M160.34,276v-.94c.24.06.56.06.59.15C161,275.63,160.88,275.92,160.34,276Z"/><path class="cls-8" d="M189.2,259.26h-.94c.06-.24.06-.57.15-.59C188.79,258.55,189.08,258.71,189.2,259.26Z"/><path class="cls-8" d="M177,270.9l.54-.53c.26.2.46.44.27.83h-.51Z"/><path class="cls-8" d="M168.53,270v.58a.6.6,0,0,1-.87-.49C167.93,269.82,168.22,270,168.53,270Z"/><path class="cls-8" d="M188,255.16a.66.66,0,0,1-.82-.47l.33-.37.54.7Z"/><path class="cls-8" d="M198.24,276.87h-.51l-.3-.31a.6.6,0,0,1,.81-.3Z"/><path class="cls-8" d="M167.46,276.54v.71l-.53.06-.39-.39Z"/><path class="cls-8" d="M182.53,273.86l-.43,1.07-.4-1.07Z"/><path class="cls-8" d="M172.24,273.07v-.42c.18-.22.37-.18.86.2C172.86,273.12,172.62,273.38,172.24,273.07Z"/><path class="cls-8" d="M162.06,279.69l-.85.32,0-.68C161.54,279.17,161.81,279.23,162.06,279.69Z"/><path class="cls-8" d="M172.74,273.21l.27.61-.48.43-.38-.36Z"/><path class="cls-8" d="M200.65,283.78h-1l.55-.77Z"/><path class="cls-8" d="M155.77,282.26v-.58h.59l0,.58Z"/><path class="cls-8" d="M185.28,274l.36-.44.53.52C186,274.37,185.78,274.34,185.28,274Z"/><path class="cls-8" d="M175.79,268.65l.44.35-.51.53C175.38,269.35,175.42,269.14,175.79,268.65Z"/><path class="cls-8" d="M176.09,278h-.55l-.06-.61h.61Z"/><path class="cls-8" d="M180.13,268l.44.35-.51.53C179.72,268.7,179.76,268.49,180.13,268Z"/><path class="cls-8" d="M199.22,281.22l.45-.41c.36.16.42.44.25.91Z"/><path class="cls-8" d="M177.26,280.79h.58v.6l-.58.05Z"/><path class="cls-8" d="M182.65,264.44v-.55l.62-.05v.6Z"/><path class="cls-8" d="M180.27,280.34l-.87-.28a3,3,0,0,1,.5-.32,3.83,3.83,0,0,1,.58-.07v.45Z"/><path class="cls-8" d="M189.4,278.6l-.66.7c-.34-.19-.31-.39.09-.91.08.07.15.15.23.21S189.13,278.6,189.4,278.6Z"/><path class="cls-8" d="M192.3,266.36l-.74-.63.68-.25C192.43,265.57,192.5,265.84,192.3,266.36Z"/><path class="cls-8" d="M158.37,279.61l.36-.44.53.51C159.08,280,158.87,280,158.37,279.61Z"/><path class="cls-8" d="M189.78,256.81v.71l-.6.05C189.12,257.13,189.36,257,189.78,256.81Z"/><path class="cls-8" d="M194.62,271.84v-.56h.79l-.6.65Z"/><path class="cls-8" d="M181.79,271.2h-.61v-.64C181.64,270.6,181.81,270.83,181.79,271.2Z"/><path class="cls-8" d="M195.86,271.85v.64c-.46.14-.51-.21-.73-.53Z"/><path class="cls-8" d="M182.44,281.6c0-.43.2-.57.61-.64l0,.64Z"/><path class="cls-8" d="M198.44,282.3l.37-.45.61.61-.89.06Z"/><path class="cls-8" d="M174.52,282.25l.43-.69.32.59C175.22,282.53,174.88,282.23,174.52,282.25Z"/><path class="cls-8" d="M196.62,283.34h-.79l.38-.71Z"/><path class="cls-8" d="M156.28,275h.86l-.39.64Z"/><path class="cls-8" d="M152.73,282.34l.73-.55c.07.16.13.24.11.28C153.44,282.33,153.32,282.64,152.73,282.34Z"/><path class="cls-8" d="M177.11,275.77l-.41.45-.32-.56.28-.28Z"/><path class="cls-8" d="M179.21,261.88l.94.05-.4.66Z"/><path class="cls-8" d="M193.67,263.79c.12.56-.2.62-.5.81C193,264.06,193.25,263.93,193.67,263.79Z"/><path class="cls-8" d="M186.16,260.89v-.79l.72.38Z"/><path class="cls-8" d="M181,278.66c-.11-.55.2-.62.51-.8C181.66,278.39,181.39,278.53,181,278.66Z"/><path class="cls-8" d="M190.33,271.82l.49.61-.9.13Z"/><path class="cls-8" d="M177.57,272.13h.81l-.37.69Z"/><path class="cls-8" d="M196.44,278.57l-.42.74-.48-.62Z"/><path class="cls-8" d="M195.08,263.06l-.62.49-.12-.89Z"/><path class="cls-8" d="M183,268.33l.42.67h-.85Z"/><path class="cls-8" d="M178,267.45l.61-.48c0,.33.08.53.13.89Z"/><path class="cls-8" d="M194.49,272.93l-.43.74-.47-.62Z"/><path class="cls-8" d="M179.35,271.25l.37-.48.47.57-.74.11Z"/><path class="cls-8" d="M171.37,274.65v-.35l.72-.05-.34.69Z"/><path class="cls-8" d="M161.81,280.29l.47.38-.58.46-.11-.74Z"/><path class="cls-8" d="M175.08,271.71l-.48-.38.58-.46.11.74Z"/><path class="cls-8" d="M182.49,273h.34l0,.6-.39.08Z"/><path class="cls-8" d="M195.43,272.86l.62-.14.08.4h-.67Z"/><path class="cls-8" d="M186.14,268.8v-.36h.63C186.79,269.05,186.41,268.78,186.14,268.8Z"/><path class="cls-8" d="M191.55,271.88h-.63v-.44h.63Z"/><path class="cls-8" d="M185.83,279.86l.6.38-.47.23C185.88,280.36,185.49,280.25,185.83,279.86Z"/><path class="cls-8" d="M188.32,263.34l.35.63-1-.43Z"/><path class="cls-8" d="M175.37,270.11l.15.63-.41.08v-.68Z"/><path class="cls-8" d="M149,280.12h-.33l0-.6.38-.07Z"/><path class="cls-8" d="M167.66,267.61l.53-.33c.34.38-.05.49-.18.7Z"/><path class="cls-8" d="M162.69,274.64v-.33l.6-.06.08.39Z"/><path class="cls-8" d="M186.12,264.45l-.35.27-.37-.52C185.87,263.91,186,264.26,186.12,264.45Z"/><path class="cls-8" d="M181,273l-.33-.33.52-.37C181.54,272.66,181.16,272.77,181,273Z"/><path class="cls-8" d="M191.53,264.32v.36h-.63C190.88,264.07,191.26,264.34,191.53,264.32Z"/><path class="cls-8" d="M172.56,275.6l-.59-.33.4-.34.35.48Z"/><path class="cls-8" d="M182,281.75l-.32.6-.34-.41.47-.35Z"/><path class="cls-8" d="M166.78,278.15h-.36v-.63C167,277.5,166.76,277.88,166.78,278.15Z"/><path class="cls-8" d="M144,283.76v-.34l.6-.05.08.39Z"/><path class="cls-8" d="M185.51,276h.36v.61h-.36Z"/><path class="cls-8" d="M154.85,282l.32-.6.34.4-.47.36Z"/><path class="cls-8" d="M162,278.07l.32-.61.34.41-.47.35Z"/><path class="cls-8" d="M195.63,283.57h-.35V283h.35Z"/><path class="cls-8" d="M173.05,283.3l-.47-.31.47-.56Z"/><path class="cls-8" d="M191.61,268.86h.88l-.48.51Z"/><path class="cls-8" d="M173.43,281.78l-.51.09v-.77Z"/><path class="cls-8" d="M172.77,279.9l-.31-.31.27-.29C173.1,279.61,173.1,279.61,172.77,279.9Z"/><path class="cls-8" d="M168.71,277.79l.28.28-.34.29-.36-.33Z"/><path class="cls-8" d="M192.11,277.63l.11.5h-.77Z"/><path class="cls-8" d="M160,278.34l.29.45-.64,0,.12-.46Z"/><path class="cls-8" d="M179.83,275.78l-.29.45-.37-.34.45-.32Z"/><path class="cls-8" d="M190.3,259.78l.28-.28.3.34-.34.36Z"/><path class="cls-8" d="M188.31,275.17l-.09.5-.69-.5Z"/><path class="cls-8" d="M163.24,283.76l.62-.49.19.49Z"/><path class="cls-8" d="M193.73,275.89l-.33.3-.34-.29.33-.33Z"/><path class="cls-8" d="M169.79,276.05l.28.28-.33.3-.36-.33Z"/><path class="cls-8" d="M187.16,267.72h-.58v-.45l.63.29Z"/><path class="cls-8" d="M180.07,272.47v-.88c.19.19.32.3.51.48Z"/><path class="cls-8" d="M170.9,272.42l-.5-.68.5-.1Z"/><path class="cls-8" d="M193.31,271.5l.84-.07-.06.55Z"/><path class="cls-8" d="M183.1,276.85l-.08.54-.7-.43Z"/><path class="cls-8" d="M172.92,277.19l.51.69-.51.09Z"/><path class="cls-8" d="M195.08,268.68l-.19.48-.61-.48Z"/><path class="cls-8" d="M194.41,282.79l.38.75-.38.07Z"/><path class="cls-8" d="M175.71,273h.39l.06.32C175.87,273.47,175.69,273.47,175.71,273Z"/><path class="cls-8" d="M176.78,277.09v.38l-.32.07C176.29,277.25,176.29,277.07,176.78,277.09Z"/><path class="cls-8" d="M193.29,276.49v.32l-.39.07-.08-.39Z"/><path class="cls-8" d="M191.37,283.53l-.47-.48.36-.36Z"/><path class="cls-8" d="M155.31,279.41v-.31l.38-.08.08.39Z"/><path class="cls-8" d="M134.44,283.82l-.7-.05.46-.4Z"/><path class="cls-8" d="M182.65,275.84v.31l-.38.08-.08-.39Z"/><path class="cls-8" d="M187.19,275.41l-.56.46-.1-.46Z"/><path class="cls-8" d="M191.64,268.22l-.47-.38.55-.1.06.34Z"/><path class="cls-8" d="M191,261.25h.31l.08.38-.39.08Z"/><path class="cls-8" d="M164.08,281.46l-.46-.38.54-.1.06.33Z"/><path class="cls-8" d="M191.56,267.33l-.41,0,0-.37.41-.05Z"/><path class="cls-8" d="M181.35,266.51v.31l-.38.08-.08-.39Z"/><path class="cls-8" d="M187.45,279.85l.56-.46.09.46Z"/><path class="cls-8" d="M186.94,263h-.32l-.08-.38.4-.08Z"/><path class="cls-8" d="M176.38,265.53l.56-.46.1.46Z"/><path class="cls-8" d="M191.33,255.55v-.32l.38-.08.08.4Z"/><path class="cls-8" d="M174.41,269.22v-.32l.38-.08.08.4Z"/><path class="cls-8" d="M196.33,279.27h.38l.06.32C196.49,279.76,196.31,279.76,196.33,279.27Z"/><path class="cls-8" d="M180.68,278.44v.34H180Z"/><path class="cls-8" d="M193,280.57h.35l-.27.43Z"/><path class="cls-8" d="M161.19,277.77v-.36l.42.28Z"/><path class="cls-8" d="M169.89,281.49l0-.49.5,0Z"/><path class="cls-8" d="M186.07,271.5l.42-.08c0,.13,0,.25.13.62Z"/><path class="cls-8" d="M197.57,271v.65h-.11V271Z"/><path class="cls-8" d="M178.59,271.14l.29-.46C178.92,271.21,178.92,271.21,178.59,271.14Z"/><path class="cls-8" d="M181.24,267.6l-.29-.46C181.22,267.09,181.48,267,181.24,267.6Z"/><path class="cls-8" d="M188.56,267.24l-.44.11-.06-.57Z"/><path class="cls-8" d="M193.12,266.18l-.42.08-.13-.62Z"/><path class="cls-8" d="M177.23,283.77l-.63,0v-.15l.63-.08Z"/><path class="cls-8" d="M164.84,275.1v.36l-.42-.28Z"/><path class="cls-8" d="M161.79,283.77h-.58v-.11l.57-.08Z"/><path class="cls-8" d="M182,280.29h-.43v-.11H182Z"/><path class="cls-8" d="M170,279.08v.36h-.11l-.08-.36Z"/><path class="cls-8" d="M178.5,282.82l.15-.53a1.58,1.58,0,0,1,.09.31S178.66,282.67,178.5,282.82Z"/><path class="cls-8" d="M199.11,279h-.36l0-.1.36-.09Z"/><path class="cls-8" d="M176.32,279.72v.36l-.1,0-.08-.35Z"/><path class="cls-8" d="M166.85,280.59h.36v.11l-.35.08Z"/><path class="cls-8" d="M187.82,280.74h-.36v-.11l.36-.08Z"/><path class="cls-8" d="M195.28,263h.36v.1l-.36.08Z"/><path class="cls-8" d="M188.11,256.29h.36l0,.1-.35.09Z"/><path class="cls-8" d="M190.5,273.36V273h.1l.09.35Z"/><path class="cls-8" d="M196.28,283.77h-.36v-.1l.36-.08Z"/><path class="cls-8" d="M183.56,270.61h.36l0,.11-.37.08Z"/><path class="cls-8" d="M170.47,270.32h-.36l0-.1.35-.09Z"/><path class="cls-8" d="M177.28,268.84v-.43h.11v.43Z"/><path class="cls-8" d="M182.69,266.27h.36v.11l-.35.08Z"/><path class="cls-8" d="M149.45,282.36h.22v.08h-.22Z"/><path class="cls-8" d="M153.58,283.67h.21v.07h-.21Z"/><path class="cls-8" d="M145.4,283.59v-.21h.08v.21Z"/><path class="cls-8" d="M196.61,282.29v-.21h.07v.21Z"/><path class="cls-8" d="M154.52,282.73v-.22h.07v.22Z"/><path class="cls-8" d="M165.58,283.81v-.22h.08v.22Z"/><path class="cls-8" d="M194.66,259.73v-.22h.07v.22Z"/><path class="cls-8" d="M195,260.16v.22h-.07v-.22Z"/><ellipse class="cls-8" cx="186.23" cy="262.66" rx="0.15" ry="0.05"/><path class="cls-8" d="M194.88,264.5v-.22H195v.22Z"/><path class="cls-8" d="M166.45,267.32v-.22h.07v.22Z"/><ellipse class="cls-8" cx="186.23" cy="276.11" rx="0.15" ry="0.05"/><path class="cls-8" d="M172.38,278.17v.22h-.07v-.22Z"/><path class="cls-8" d="M195.82,278.17v.22h-.08v-.22Z"/><path class="cls-8" d="M177.73,278.6v-.21h.08v.21Z"/><path class="cls-8" d="M174.34,278.6v.22h-.08v-.22Z"/><path class="cls-8" d="M192.4,279.06l-.18-.15.07-.07.15.18Z"/><path class="cls-8" d="M156.83,279.33h.22v.07h-.22Z"/><path class="cls-8" d="M152.49,280.92h-.21v-.07h.21Z"/><path class="cls-8" d="M175.56,281.42v-.21h.08v.21Z"/><path class="cls-8" d="M180.19,281.64v.22h-.07v-.22Z"/><path class="cls-8" d="M191.57,267.3l.18.15-.07.07-.15-.18Z"/><path class="cls-8" d="M173.76,271.3H174v.07h-.21Z"/><path class="cls-8" d="M181.28,271.44v.22h-.07v-.22Z"/><path class="cls-8" d="M193.52,271.68l-.15.18-.06-.07.17-.15Z"/><path class="cls-8" d="M162.91,272.89h-.22v-.07h.22Z"/><path class="cls-8" d="M190.83,273.61v.22h-.08v-.22Z"/><ellipse class="cls-8" cx="196.21" cy="273.72" rx="0.15" ry="0.05"/><path class="cls-8" d="M171.39,274.72l-.15.18-.07-.07.18-.15Z"/><path class="cls-8" d="M172.89,275.42h.22v.07h-.22Z"/><path class="cls-3" d="M88.45,133.67a.36.36,0,0,1-.3-.54,3.3,3.3,0,0,1,4.48-1.06.36.36,0,0,1,.13.49.37.37,0,0,1-.49.12,2.59,2.59,0,0,0-3.52.83A.37.37,0,0,1,88.45,133.67Z"/><path class="cls-3" d="M139.14,133.25a.35.35,0,0,1-.35-.31.36.36,0,0,1,.3-.4,3.46,3.46,0,0,0,2.9-2.15,4.24,4.24,0,0,0-.9-3.53,17.5,17.5,0,0,0-1.4-1.59,18.32,18.32,0,0,1-1.31-1.47,12.39,12.39,0,0,1-1.44-2.4.35.35,0,0,1,.16-.47.36.36,0,0,1,.48.16,11.73,11.73,0,0,0,1.35,2.27c.39.5.84,1,1.27,1.42a15.73,15.73,0,0,1,1.46,1.67,4.71,4.71,0,0,1,1,4.15,4.16,4.16,0,0,1-3.48,2.65Z"/><path class="cls-4" d="M188,47l-2.92,0a74.36,74.36,0,0,1-13.83-1.09l.18-1a73.93,73.93,0,0,0,13.66,1.07L188,46Z"/><path class="cls-4" d="M122.51,184.13a20.19,20.19,0,0,1-4.39-.45c-3.38-.77-6.36-2.55-9.23-4.27l.54-.91c2.81,1.68,5.71,3.42,8.92,4.14,3.42.78,7.06.35,10.5-.15l.15,1A44.86,44.86,0,0,1,122.51,184.13Z"/><path class="cls-4" d="M23,59.33l-.17-1a31,31,0,0,0,11.54-4.43l.57.89A32.17,32.17,0,0,1,23,59.33Z"/><rect class="cls-4" x="34.44" y="283.73" width="52.92" height="1.06"/><rect class="cls-4" x="113.34" y="283.79" width="303.72" height="1.06"/><rect class="cls-4" x="87.36" y="283.75" width="25.98" height="1.06"/><path class="cls-7" d="M113.63,293.76c-.31,1.31-.63,2.64-1,4l0,.17-22.79,0a26.69,26.69,0,0,1-2.16-4.21A64.59,64.59,0,0,1,84.42,283c-.23-1-.44-2.07-.63-3.1-.67-3.5-1.17-6.93-1.52-9.85-.17-1.45-.32-2.78-.43-3.93-.27-2.82-.37-4.6-.37-4.6l2.85-.08,33.05-.94A144.3,144.3,0,0,1,113.63,293.76Z"/><path class="cls-7" d="M83.79,279.92c.19,1,.4,2.07.63,3.1a11.53,11.53,0,0,1-11.63-3.49,9.93,9.93,0,0,1-.35-12.11,6.81,6.81,0,0,1,4.93-2.73,8,8,0,0,1,4.47,1.45c.11,1.15.26,2.48.43,3.93a5.06,5.06,0,0,0-6.18-.52,5.5,5.5,0,0,0-2,5.75,6.76,6.76,0,0,0,4.25,4.56A8.66,8.66,0,0,0,83.79,279.92Z"/><rect class="cls-4" x="89.8" y="297.38" width="22.8" height="1.06" transform="translate(-0.49 0.17) rotate(-0.09)"/><path class="cls-4" d="M332.5,289.11a67.26,67.26,0,0,1-3.6-22.46v-.07L339,266.4l7.83-.14,10.62-.19v.26a67.64,67.64,0,0,1-5,27.72l-18,.2C333.75,292.57,333.09,290.85,332.5,289.11Z"/><path class="cls-5" d="M345.55,234.92c.32,10.37,1.28,22.89,1.31,31.27v.07l-7.83.14v0c-.17-1.93-.35-3.85-.53-5.78a7.84,7.84,0,0,0-1.22-4.19c-1-1.4-3.45-2.52-5.62-3.9a7.41,7.41,0,0,1-2.72-2.58,3,3,0,0,1,.38-3.51,2.72,2.72,0,0,1,2.35-.59,4.67,4.67,0,0,1,2.18,1.18,17.77,17.77,0,0,0,1.75,1.62c.53.37,1.46.81,1.91.08a1.6,1.6,0,0,0,.2-.87c0-.12,0-.24,0-.36,0-1.2-.23-2.47-.32-3.67s-.2-2.71-.27-4.06a69.25,69.25,0,0,1,0-8.15c.11-1.54.38-3.25,1.6-4.2,1.67-1.29,4.28-.31,5.45,1.44S345.49,232.81,345.55,234.92Z"/><path class="cls-2" d="M352.34,293.79H352l-.34-.81.34-.06.36.44Z"/><path class="cls-2" d="M334.76,290.54c.07.44.41,0,.59.33l.13-.93c.23.9.95.92,1.45,1.25l.23.39-.26.58.12.11.24-.21c.51.25.51.25.81.86l-.67-.15-.38.62.83-.35-.23.69a.92.92,0,0,0,.24.06,1.48,1.48,0,0,0,1.06-.57,5.86,5.86,0,0,1,.7-.49l-.3.87.25.5c-.71.49-1.44-.33-2.15.07l-.17-.15-.15.15-1-.53c-.14-.37.23-.66.37-1.06-.18-.18-.29-.41.06-.63l-.35-.33c-.09.56-.17,1.12-.27,1.74h-1.34v-.44l.22-.16-.22-.27s0-.08,0-.1l-.35-.35-.38.56-.3-.94H334A1.17,1.17,0,0,1,334.76,290.54Zm.65,1.3h.44l0-.42c-.38,0-.38,0-.62.2h-.86a4.37,4.37,0,0,1,1.1.85l0,0,.15.18.07-.07a.69.69,0,0,0-.2-.13Z"/><path class="cls-2" d="M337.47,290.92l.72-.37c.16.32.32.68.51,1.08l.33-.22.9.29v.59l-.29-.21-.42.31-.28-.58-.53.26C338,291.76,338.11,291.14,337.47,290.92Z"/><path class="cls-2" d="M336.22,288.5l-.8,1.09-.45-.74a3.71,3.71,0,0,0,.22-.55,5.67,5.67,0,0,0,.05-.58h.31l.14.43.31-.23Z"/><path class="cls-2" d="M332.64,288.39l.32,0c0,.36.08.73.13,1.27.21-.51.12-1,.75-1.05v1l-.87.28A1.48,1.48,0,0,1,332.64,288.39Z"/><path class="cls-2" d="M341.48,294c-.05.41-.39.06-.53.27l-.2-.48-.35.2v-.62a3,3,0,0,0,.6,0,3.21,3.21,0,0,0,.54-.22.65.65,0,0,1,.32.88h-.38l0,0-.15-.18-.07.07A1.33,1.33,0,0,0,341.48,294Z"/><path class="cls-2" d="M337.06,289.19l.36-.24.39.7-1.27.52c0-.4,0-.73-.06-1.2Z"/><path class="cls-2" d="M340.59,291.9l1.08-.61-.09.75.15.37C341.14,292.66,340.9,292.26,340.59,291.9Z"/><path class="cls-2" d="M343.66,293a.59.59,0,0,1,.84.22V294H344Z"/><path class="cls-2" d="M339.05,288.82l.37.61-.67,0-.13.38H338c0-.12,0-.26,0-.3C338.37,289.29,338.7,289.07,339.05,288.82Z"/><path class="cls-2" d="M333.25,287.1c-.11.39-.22.72-.34,1.11a1,1,0,0,1-.53-1.11Z"/><path class="cls-2" d="M332,285.14c0-.16,0-.23-.05-.3a.25.25,0,0,1,.05-.11l.79-.13a1.12,1.12,0,0,1,.72,0,1.31,1.31,0,0,1-.31.27A5.57,5.57,0,0,1,332,285.14Z"/><path class="cls-2" d="M345,294c-.07-.5.19-.4.39-.44a2.94,2.94,0,0,0,.54-.26,2.27,2.27,0,0,0,.24.47c.13.17.09.23-.1.23Z"/><path class="cls-2" d="M335.41,294c-.27.1-.5.38-.83.15a.57.57,0,0,1-.21-.73s.11-.05.17-.07.18.2.27.2A.56.56,0,0,1,335.41,294Z"/><path class="cls-2" d="M331.59,286.14l.47-.62c.51.13.59.43.48.9a1.16,1.16,0,0,0-.34-.21A3.42,3.42,0,0,0,331.59,286.14Z"/><path class="cls-2" d="M339.71,291.26c-.13-.4-.2-.61-.29-.91l.22-.25C340.11,290.1,340.16,290.36,339.71,291.26Z"/><path class="cls-2" d="M334.7,289.57l-.26.33c-.43-.57-.44-.62-.05-1.18Z"/><path class="cls-2" d="M340.79,292.27l.17.82h-.72l.25-.82Z"/><path class="cls-2" d="M332.38,286.42,332,287.9a6.33,6.33,0,0,0-.1-.74,2.45,2.45,0,0,0-.17-.45,1.65,1.65,0,0,1,.3-.29C332.14,286.38,332.27,286.42,332.38,286.42Z"/><path class="cls-2" d="M342.73,292.94l-.69-.8.64-.1.29.58Z"/><path class="cls-2" d="M347.38,292.29H348v.6l-.58,0Z"/><path class="cls-2" d="M341.31,289.79l.7.43-.6.31C341,290.48,341.33,290.15,341.31,289.79Z"/><path class="cls-2" d="M333.77,285.71l.47.62-.9.12Z"/><path class="cls-2" d="M331.12,283.49l.69.43-.6.32C330.83,284.19,331.13,283.85,331.12,283.49Z"/><path class="cls-2" d="M341.92,288.48l-.33.33-.37-.52C341.61,288,341.73,288.34,341.92,288.48Z"/><path class="cls-2" d="M333.56,291.25c-.31-.42-.45-.6-.73-1l.85.37Z"/><path class="cls-2" d="M344.07,291.88v.36h-.61v-.36Z"/><path class="cls-2" d="M344.56,290.77h.36v.63C344.31,291.42,344.58,291,344.56,290.77Z"/><path class="cls-2" d="M349.55,291.08l-.33.58-.36-.37.51-.37Z"/><path class="cls-2" d="M340.59,294.17l-.83.07.05-.55Z"/><path class="cls-2" d="M348.1,293.54l.18.42-.66.06A1.22,1.22,0,0,1,348.1,293.54Z"/><path class="cls-2" d="M334.19,286.53l.68.5h-.78Z"/><path class="cls-2" d="M346.55,292.69h-.66a1.08,1.08,0,0,1,.48-.45Z"/><path class="cls-2" d="M338.17,292.87l.2-.48.6.48Z"/><path class="cls-2" d="M335.88,285.89l-.38.47-.1-.55.33-.06Z"/><path class="cls-2" d="M333.18,283.57l-.46-.56.46-.09Z"/><path class="cls-2" d="M350.2,292.4l-.38.47-.1-.55.33-.06Z"/><path class="cls-2" d="M333.79,289.85l.58.33C334,290.52,333.87,290.13,333.79,289.85Z"/><path class="cls-2" d="M337.31,291l-.46-.56.46-.1Z"/><path class="cls-2" d="M339.9,287.24l-.48.48-.32-.36Z"/><path class="cls-2" d="M345.81,291.84v.39l-.32.06C345.32,292,345.32,291.82,345.81,291.84Z"/><path class="cls-2" d="M346.85,293.79h-.31l-.08-.38.39-.08Z"/><path class="cls-2" d="M339,291.22l-.46-.38.54-.1.06.34Z"/><path class="cls-2" d="M334.11,292.71c0-.33.27-.19.43-.22v.43h-.21Z"/><path class="cls-2" d="M350.21,293.83h.57v.11l-.58.08Z"/><path class="cls-2" d="M337.58,291c-.1.42-.44.14-.65.22C337,290.77,337.37,291.05,337.58,291Z"/><path class="cls-2" d="M343.08,291.1l.29-.24C343.4,291.17,343.4,291.17,343.08,291.1Z"/><path class="cls-2" d="M340.72,290.79l-.54-.15a1.81,1.81,0,0,1,.31-.09S340.56,290.62,340.72,290.79Z"/><path class="cls-2" d="M339.8,293.36v-.44h.11v.44Z"/><path class="cls-2" d="M342.79,294.18l-.41,0,0-.14.42-.08Z"/><path class="cls-2" d="M349.47,294h-.36v-.1l.36-.08Z"/><path class="cls-2" d="M342.83,293.4h.36v.1l-.36.08Z"/><path class="cls-2" d="M350.78,293.32h-.36v-.1l.35-.09Z"/><path class="cls-2" d="M334.07,287.68h-.36v-.1l.35-.09Z"/><ellipse class="cls-2" cx="331.4" cy="285.11" rx="0.08" ry="0.31"/><path class="cls-2" d="M334.75,290.37l.42,0,0,.14-.42.09Z"/><path class="cls-2" d="M342.77,294l.15-.18.06.07-.17.15Z"/><path class="cls-2" d="M335.43,294l.18.15-.07.07-.15-.18Z"/><path class="cls-2" d="M343.22,289.53h.22v.07h-.22Z"/><path class="cls-2" d="M347.49,291v.22h-.07V291Z"/><path class="cls-2" d="M340.26,289.67v-.22h.07v.22Z"/><path class="cls-2" d="M332.23,288.37v-.22h.07v.22Z"/><path class="cls-2" d="M334.11,292.92l-.18-.14.18-.07Z"/><path class="cls-2" d="M334.33,292.92l-.15.18-.07-.18Z"/><path class="cls-2" d="M342.81,292.9l.17.15-.06.07-.15-.18Z"/><path class="cls-2" d="M348.79,292.92v.22h-.07v-.22Z"/><path class="cls-2" d="M332.08,281.86v.22H332v-.22Z"/><path class="cls-2" d="M335.19,291.62l.22.22Z"/><g id="CXtvMH.tif"><path class="cls-9" d="M96.28,297v-.42l-.34-.15a2.35,2.35,0,0,0,0-.27l0,0,.14-.12,0,0a.83.83,0,0,0-.11.15c-.18,0-.32.44-.55,0-.24.13-.38.53-.77.28V296l-.37-.12v-.46l.32-.22-.22-.45-.79.22c.16.22.52.38.3.76h-.69l-.28.29.29.24.22-.41c.35.31.54.63,1,.63.1,0,.2.29.28.41l-.5.75c-.38-.09-.26-.25-.08-.42l-.22-.44-.2.16-.41-.56-.46.63-1-.42-.91.16c-.2-.3.18-.37.28-.57v-.7l.46-.31c-.12-.27-.27-.58.09-.9l-.33-.07v-1l.39.13.54-.16.7-.82-.18-.39.82-.29.09.48.27.09c.17.48-.11.88-.18,1.32h-.3l0,0-.12-.14,0,.06.14.11c0,.32.35.05.52.3l.25.7.39-.37.38.38c0-.21-.06-.43,0-.58s.18-.26.14-.45l0,0,.14-.12,0-.06-.11.15c-.31.09-.53-.16-.88-.2l.24-1.12H95l.11.31h.46l-.19.59.37.15V294l.35-.17.3-.12-.09.52.65.1-.25.59c-.27.14-.46,0-.7-.45h-.42c0,.09,0,.21,0,.24.31.25.63.48.92.71l.34-.14c.24.4-.07.57-.35.9l.77-.21.17.17c-.22.38-.58.69-.52,1.21,0,.1-.17.23-.28.38l-.3-.21-.22.2-.28-.73h.42l0,0,.12.14.05-.06A.83.83,0,0,0,96.28,297ZM93,293.77l-.68.23.68.3c0-.23,0-.39,0-.57l0,0,.14-.12-.06-.06A1.72,1.72,0,0,0,93,293.77Zm-1.17,2.1.58.28.41-.84-.12-.11.31-.33-.22-.44-.71.21Zm3.21-.61.31.55.31-.5Zm-2.52-2v.09h.34v-.09Zm2.61,1.66h0v-.17h0Zm-3.23-.68H92v-.17h-.06Zm1.64-1.42v0h-.17v0Z"/><path class="cls-9" d="M88.64,293.41l.45.12.24-.73-.32-.1v-.57c.37-.11.41-.63.84-.78l.24.18.17-.15.24.24c-.15.1-.37.17-.44.31a.54.54,0,0,1-.42.35,3.63,3.63,0,0,1,.1.45c0,.11,0,.23,0,.44l.69-.59h.38a.75.75,0,0,1-.3.83l-.06-.14-.11.14-.14,0,.14.12,0,.14.12-.14.29.05c0,.27.26.29.45.38l-.23.37.48.33-.62.08v.44h-.7c-.07-.43.32-.39.5-.55a2.26,2.26,0,0,0,0-.26l0,0,.14-.11,0-.06-.11.15-.36-.18-.25.19-.71-.24-.09-.54-.18.45-.79-.11-.41-.68.42-.07.17.17.06.32h.11Zm1.7.62V294h-.17V294Z"/><path class="cls-9" d="M89.84,290.18c-.13-.13-.24-.25-.43-.47l-.14.63c-.28,0-.35,0-.46-.53a2,2,0,0,1,1.83-.62v-.49l.74-.06c-.07.12-.12.16-.13.21a1.8,1.8,0,0,0-.06.32h-.35l.21.37-.79.61.78.29-.27,1-.59-.56,0-.34s-.11,0-.13,0c-.13.2-.25.4-.39.63l-.24-.22.17-.83h.29l0,0,.12.14,0-.06Z"/><path class="cls-9" d="M97.29,296c0-.21-.06-.44.17-.6l-.53-.3.53-.64,0-.47.43,0,.35-.73-.43.24c-.29-.05-.31-.19-.25-.46s-.1-.4-.15-.56c.18-.3.37-.41.65-.31.2.33,0,.61-.17,1l.65-.19.25.24-.17.21.21.47-.37.18v.26a.45.45,0,0,0-.51.31l-.32.68.32.26c0,.41-.1.63-.51.61Z"/><path class="cls-9" d="M87.62,289.34l.43-.23.13.42-.41.26.78.26.35.73-.11.55.53.08-1.14,1.14H87.7l-.23-.44c.08-.2.46.12.49-.23h.28l.19-1.14-.44-.33-.71-.23C87.25,289.84,87.54,289.63,87.62,289.34Z"/><path class="cls-9" d="M89.83,288.15l-.42-.29-.51.16-.2-.36-.79,0,.22-.69.85-.65.17-.17,1,.34L90,287h-.44l-.11-.32-.44.21.2.42.38-.19C89.63,287.47,89.89,287.76,89.83,288.15Z"/><path class="cls-9" d="M96.79,293.08l.41.29-.28.33-.07,0a2.41,2.41,0,0,0-1.13-.71l.51-.38s0-.07,0-.07H95.6v-.45c.38-.26.7.32,1.07.1l.59-.43,0,.54-.52.33v.43l0,0-.14.12.06.05Z"/><path class="cls-9" d="M87.62,289.34H87l-.16-.34-.19.16c0-.41,0-.41.64-.62l-.27-.05-.3,0,.14-.37-.15-.53.79-.32.29.41-.32.42c.13.16.24.34,0,.5C87.74,288.77,87.58,289.08,87.62,289.34Zm-.39-1.53h-.06V288h.06Z"/><path class="cls-9" d="M86.61,285.4l.44.17.28-.2.3.55a3.32,3.32,0,0,1-1.18,1.45l.22.37-.33.08-.14-.33-.42-.05V287l.86-.32.52-.76-.6-.43Z"/><path class="cls-9" d="M87.71,288.72l.28-.67.67.06.61.49-.09.12.18.31-.43.35Z"/><path class="cls-9" d="M91.54,291.43l.79.17c.31.18.19.46.22.75l-.7.07.22.28-.41.53-.33-.47.14-.28c0-.05-.07-.15-.12-.25a1.73,1.73,0,0,0-.15-.27Zm.32.49V292h.34v-.09Z"/><path class="cls-9" d="M90.51,287.3c.24-.11.45.14.72.06s.44.09.66.1.55,0,.84,0c0,.43-.28.45-.56.54s-.43-.1-.56.13l-.36-.34-.56.2c-.26-.12-.39-.27-.35-.53Z"/><path class="cls-9" d="M98.48,296.67l.31-.23.29.63,1.16.44c-.09.09-.11.12-.13.12a3.52,3.52,0,0,0-1.24-.07c-.42.14-.8,0-1.32.13l.3-.56.28.21.49-.48Z"/><path class="cls-9" d="M102.19,296.31l.12.32-.19.44-.34-.26-.17.17-.65-.83-.42-.06v-.79h.64l-.11.45.8.71Z"/><path class="cls-9" d="M94.07,291l-.24.12c-.35,0-.25-.36-.27-.55h-.49V291h-.79l.7-1,.33.19.23-.16c.37.09.32.59.7.62a1.8,1.8,0,0,1,0,.24Z"/><path class="cls-9" d="M86.3,285l-.57-.29.17-.35-.16-.17a2.62,2.62,0,0,1-.56.09c-.08,0-.16-.13-.31-.26l.31-.12-.07-.09h1.48l0,.45-.45.05Z"/><path class="cls-9" d="M104.59,296.63v.68l-.27.33c-.45.09-.82-.11-1.24-.59l.81-.12.07-.3Z"/><path class="cls-9" d="M96.21,290.65l1,.49.31-.13a.51.51,0,0,1-.21.72l-.08-.33h-1l-.39-.32Z"/><path class="cls-9" d="M103.87,294.12l.21.24c0,.29-.2.38-.67.33l.2-.22-.46-.05-.35.36-.27-.34.23-.32Z"/><path class="cls-9" d="M95.24,297.62l.21-.26c-.4,0-.81-.1-.67-.72l.49.09.48.13v.76Z"/><path class="cls-9" d="M99.06,295.71l.37-.43h.38l.45.76-.38.3Z"/><path class="cls-9" d="M94.24,290.86h.31l0,.81c.07,0,.16.06.22,0s.12-.1.23-.2l0,.59-.55-.22-.15.11L94,291.8l.24-.42-.18-.35Z"/><path class="cls-9" d="M98.44,291.65l-.39-.38c.35-.52.82-.46,1.26-.64v.52a2.12,2.12,0,0,0-.45.11A2.79,2.79,0,0,0,98.44,291.65Z"/><path class="cls-9" d="M88,292l-.66-.32-.21-.67.48.21.56-.24Z"/><path class="cls-9" d="M85.29,279.09a1.18,1.18,0,0,1,.26,1.05H85C84.8,280,84.88,279.66,85.29,279.09Z"/><path class="cls-9" d="M89,286.28h-.43l-.26-.76.36-.33.16.22a2.46,2.46,0,0,0,.17.27c0,.07.13.11.16.18a.69.69,0,0,1,0,.25Z"/><path class="cls-9" d="M106.58,297.15l-.33-.24-.23.4c-.27,0-.34-.11-.41-.67l.63.07.65-.11Z"/><path class="cls-9" d="M90.86,284.66l-.28.28-.52-.23-.19-.38.24-.31C90.37,284.25,90.8,284.21,90.86,284.66Z"/><path class="cls-9" d="M87,281.59l-.48.25-.29-.27.19-.31-.35-.16.23-.4c.06,0,.11,0,.13.06Z"/><path class="cls-9" d="M88.94,295.32l-.34-.12.27-.47c.24.32.44.61.67.94l-.36.42C89,295.81,88.84,295.63,88.94,295.32Z"/><path class="cls-9" d="M90.35,295.49l-.25.79h-.42v-.79Z"/><path class="cls-9" d="M104,295.58c-.16.61-.56.68-1,.72-.09-.47-.09-.46.25-.52S103.62,295.67,104,295.58Z"/><path class="cls-9" d="M92.21,290.77l-1-.27.77-.54Z"/><path class="cls-9" d="M90.3,288v.67h-.67A.81.81,0,0,1,90.3,288Z"/><path class="cls-9" d="M88.41,280.43l-.68.33-.3-.68c.09,0,.16-.09.19-.07C87.85,280.12,88.08,280.25,88.41,280.43Z"/><path class="cls-9" d="M93.1,286.49l-.68-.36.68-.4.28.48Z"/><path class="cls-9" d="M91.19,289.17c.28,0,.61-.12.84.26l-.44.31C91.53,289.86,91.29,289.53,91.19,289.17Z"/><path class="cls-9" d="M99.7,293.63l.48.43v.35l-.48,0Z"/><path class="cls-9" d="M85.5,278l.24.48-.54.26c-.07-.1-.12-.15-.12-.19C85.12,278.16,85.12,278.16,85.5,278Z"/><path class="cls-9" d="M87.35,284.7l-.36.44c-.36-.19-.5-.39-.29-.76Z"/><path class="cls-9" d="M105,294.8l-.26.74-.42-.59C104.38,294.76,104.6,294.74,105,294.8Z"/><path class="cls-9" d="M85.42,281.27l-.25.25-.61-.67.1-.2C85,280.76,85.17,281.07,85.42,281.27Z"/><path class="cls-9" d="M91.81,297.64h-.56c-.16-.27,0-.47.22-.69Z"/><path class="cls-9" d="M100.88,290.63l.2.23-.35.4-.29-.22Z"/><path class="cls-9" d="M105.92,295.26h-.41l-.24-.24.24-.24h.41Z"/><path class="cls-9" d="M102.21,297.23l.5-.45.13.05c0,.13,0,.27.07.39l-.24.24Z"/><path class="cls-9" d="M87.58,290.81l-.37.06-.44-.84C87.35,290,87.25,290.53,87.58,290.81Z"/><path class="cls-9" d="M101.5,297.61h-1.12l0-.2c.25-.32.55.18.81-.06A2.83,2.83,0,0,1,101.5,297.61Z"/><path class="cls-9" d="M94.46,290.32l.39.17.17-.14.22.3-.29.14-.55-.17Z"/><path class="cls-9" d="M105.6,295.71l.27-.27.52,0L106,296Z"/><path class="cls-9" d="M90.17,286.45l.22-.57.46.23C90.75,286.49,90.46,286.46,90.17,286.45Z"/><path class="cls-9" d="M87.49,277.47l-.69-.06.57-.6Z"/><path class="cls-9" d="M97.31,287.77l-.06.69-.61-.57Z"/><path class="cls-9" d="M97.44,296.54l.36-.13.27.17-.37.43Z"/><path class="cls-9" d="M90.31,291.79l.58.33-.49.37Z"/><path class="cls-9" d="M102.25,296.3l-.18-.28.44-.34.06.59Z"/><path class="cls-9" d="M90,287a.42.42,0,0,1,.51.34l-.17.17H90Z"/><path class="cls-9" d="M94.72,291.05h.5l.06.29-.49,0Z"/><path class="cls-9" d="M93.87,289.15h-.28v-.48h.28Z"/><path class="cls-9" d="M92.57,297.62l.39-.49.25.49Z"/><path class="cls-9" d="M106.21,293.94l-.47-.25.32-.26.27.36Z"/><path class="cls-9" d="M98.56,296.63h-.38l0-.48.12,0Z"/><path class="cls-9" d="M104.43,296.37l.24-.24.23.21C104.65,296.63,104.65,296.63,104.43,296.37Z"/><path class="cls-9" d="M90.12,297.1l.15-.38.47.38Z"/><path class="cls-9" d="M100.63,292.64l-.54-.39h.61Z"/><path class="cls-9" d="M97.19,290.44l-.08-.4h.61Z"/><path class="cls-9" d="M84.82,279.94l-.4.07v-.61Z"/><path class="cls-9" d="M91.63,284.84l.08.39H91.1Z"/><path class="cls-9" d="M86.64,282.86l-.48.25-.08-.32C86.3,282.7,86.48,282.64,86.64,282.86Z"/><path class="cls-9" d="M86.59,282.91h.61l-.52.41Z"/><path class="cls-9" d="M88.55,284.07l.25.25-.27.29-.21-.3Z"/><path class="cls-9" d="M88.3,293.24l.26-.39.16.41-.08.15h-.17Z"/><path class="cls-9" d="M85.26,285.49V285c.19,0,.34.1.32.38Z"/><path class="cls-9" d="M98.48,294.25l.32,0,0,.28-.32,0Z"/><path class="cls-9" d="M89.64,294.66v.41l-.32.07.24-.55Z"/><path class="cls-9" d="M99,289.84v-.3l.25-.05C99.39,289.72,99.39,289.86,99,289.84Z"/><path class="cls-9" d="M90.84,286.12l0-.32.29,0,0,.32Z"/><path class="cls-9" d="M99.5,296.51v.24l-.3.07-.06-.31Z"/><path class="cls-9" d="M99.16,293.87v-.24l.3-.06.06.3Z"/><path class="cls-9" d="M87.45,278.77v-.25l.3-.06.06.31Z"/><path class="cls-9" d="M104.59,297.31l.32,0,0,.29-.32,0Z"/><path class="cls-9" d="M84.86,282.21v.51h-.08v-.51Z"/><path class="cls-9" d="M85.85,281.8l.18.38C85.87,282.21,85.65,282.29,85.85,281.8Z"/><path class="cls-9" d="M95.19,289.66l.13.35C95.16,290.08,95.08,290,95.19,289.66Z"/><path class="cls-9" d="M85.31,277l-.16-.33C85.35,276.55,85.43,276.65,85.31,277Z"/><path class="cls-9" d="M101.73,297.51h.45v.09l-.44.06Z"/><path class="cls-9" d="M105.13,297.51h.45v.09l-.45.06Z"/><path class="cls-9" d="M94.37,293.79l.33-.06.1.48Z"/><path class="cls-9" d="M104.7,293.37l-.15-.42C104.73,292.91,104.73,292.91,104.7,293.37Z"/><ellipse class="cls-9" cx="88.64" cy="292.65" rx="0.24" ry="0.06"/><path class="cls-9" d="M86.41,285.74h-.28l0-.08.28-.06Z"/><path class="cls-9" d="M94.11,295.45l0-.33h.11l.06.33Z"/><path class="cls-9" d="M107.69,296.12v-.34h.08v.34Z"/><path class="cls-9" d="M107.59,296.46v.17h-.06v-.17Z"/><path class="cls-9" d="M100.29,296.8V297h-.05v-.17Z"/><path class="cls-9" d="M90.51,293.41v.17h-.17v-.17Z"/><path class="cls-9" d="M97.41,297.48v.17h-.06v-.17Z"/><ellipse class="cls-9" cx="102.3" cy="293.83" rx="0.12" ry="0.04"/><path class="cls-9" d="M94.69,288.15v.17h0v-.17Z"/><path class="cls-9" d="M86.59,285.45l-.14-.12,0-.05.12.14Z"/><path class="cls-9" d="M86.28,284.91l.14.11-.06.06-.11-.14Z"/><path class="cls-9" d="M98.88,292.9v-.17h.06v.17Z"/></g></g></g></svg>