<svg xmlns="http://www.w3.org/2000/svg" viewBox="0 0 83.05 86.06"><defs><style>.cls-1{fill:#e07243;}.cls-2{fill:none;}.cls-3,.cls-4{fill:#e0e0e0;}.cls-16,.cls-17,.cls-4,.cls-5,.cls-6{fill-rule:evenodd;}.cls-5,.cls-7{fill:#ebebeb;}.cls-6,.cls-8{fill:#f5f5f5;}.cls-17,.cls-9{fill:#455a64;}.cls-10{fill:#263238;}.cls-11,.cls-16{fill:#e8505b;}.cls-12{fill:#fff;}.cls-13{opacity:0.3;}.cls-14{opacity:0.8;}.cls-15{opacity:0.6;}</style></defs><title>Asset 22gridder not found</title><g id="Layer_2" data-name="Layer 2"><g id="Layer_1-2" data-name="Layer 1"><rect class="cls-1" x="41.3" y="32.28" width="3.9" height="0.75" transform="translate(-10.08 42.28) rotate(-47.29)"/><rect class="cls-1" x="41.53" y="28.11" width="3.7" height="0.76"/><rect class="cls-1" x="41.53" y="36.45" width="3.7" height="0.76"/><rect class="cls-1" x="41.47" y="28.11" width="0.75" height="9.06"/><rect class="cls-1" x="44.48" y="28.15" width="0.75" height="9.06"/><rect class="cls-1" x="38.84" y="30.78" width="9.06" height="0.75"/><rect class="cls-1" x="38.81" y="33.79" width="9.06" height="0.75"/><path class="cls-2" d="M65.6,40.85A4.32,4.32,0,0,1,66,39.8l-.57-.88,1.2-1.24.89.55a3.86,3.86,0,0,1,1-.45l.21-1,1.73,0,.25,1a4,4,0,0,1,1,.42l.87-.58,1.24,1.21-.54.89a4.73,4.73,0,0,1,.45,1l1,.22,0,1.73-1,.24A4.17,4.17,0,0,1,73.45,44l.57.88-1.2,1.24-.89-.54a4.17,4.17,0,0,1-1,.44l-.21,1L69,47l-.25-1a4,4,0,0,1-1-.42l-.87.58L65.54,45l.54-.89a4.73,4.73,0,0,1-.45-1l-1-.22,0-1.73,1-.24Zm2.27,1a1.86,1.86,0,1,0,1.83-1.89A1.85,1.85,0,0,0,67.87,41.83Z"/><path class="cls-3" d="M67.87,41.83a1.59,1.59,0,0,1,0-.46,1.8,1.8,0,0,1,.65-1.06A1.9,1.9,0,0,1,70.35,40a1.83,1.83,0,0,1,.48.25,1.56,1.56,0,0,1,.41.4,1.9,1.9,0,0,1,0,2.25,1.73,1.73,0,0,1-.4.41,1.87,1.87,0,0,1-.48.26,1.9,1.9,0,0,1-1,.1,2,2,0,0,1-.8-.35,1.89,1.89,0,0,1-.69-1,1.39,1.39,0,0,1,0-.45s0,.16.09.44a1.87,1.87,0,0,0,.69,1,1.81,1.81,0,0,0,1.72.22,1.43,1.43,0,0,0,.45-.25,1.76,1.76,0,0,0,.38-.39,1.81,1.81,0,0,0,.33-1.07,1.79,1.79,0,0,0-.37-1.06,1.71,1.71,0,0,0-.38-.38,1.56,1.56,0,0,0-.46-.24,1.87,1.87,0,0,0-1-.07,1.9,1.9,0,0,0-.76.35,1.86,1.86,0,0,0-.66,1C67.87,41.66,67.89,41.83,67.87,41.83Z"/><path class="cls-3" d="M65.6,40.85l-.07,0-.19.05-.76.19,0,0,0,1.73,0,0,1,.21h0v0a4,4,0,0,0,.45,1v0l-.54.89v0l1.25,1.2h0l.87-.57h0a4.6,4.6,0,0,0,1,.41h0v0L69,47l0,0,1.73,0-.05,0,.21-1v0h0a4.54,4.54,0,0,0,1-.45h0l.89.55h-.06L74,44.79v.06L73.41,44l0,0v0a4,4,0,0,0,.41-1h0v0h0l1-.24,0,0,0-1.73,0,0-1-.22h0v0a3.89,3.89,0,0,0-.44-1l0,0,0,0,.54-.89v.06l-1.24-1.2h.06l-.88.57,0,0h0a4.14,4.14,0,0,0-1-.42h0v0l-.24-1,0,0-1.73,0,0,0-.22,1v0h0a4.21,4.21,0,0,0-1,.44h0l-.89-.54h0l-1.21,1.24v0l.56.88h0a4.68,4.68,0,0,0-.34.77l-.06.2a.23.23,0,0,0,0,.07.32.32,0,0,1,0-.07c0-.05,0-.11,0-.2a4.27,4.27,0,0,1,.34-.79v0l-.58-.87v0h0l1.2-1.25,0,0,0,0,.89.54h0a4,4,0,0,1,1-.46l0,0,.21-1v0h0l1.73,0h0v0l.25,1,0,0a4.34,4.34,0,0,1,1.06.42h0l.87-.57,0,0,0,0L74,38.75l0,0,0,0-.54.9v-.06a4.47,4.47,0,0,1,.46,1.05l0,0,1,.22h0v0l0,1.73v0h0l-1,.24,0,0h0A4.12,4.12,0,0,1,73.49,44v-.06l.57.88,0,0,0,0L72.85,46.1l0,0,0,0-.89-.54h0a4.55,4.55,0,0,1-1,.45l0,0-.22,1v0h0l-1.73,0h0v0l-.24-1,0,0a3.85,3.85,0,0,1-1.06-.42h.05l-.88.57,0,0,0,0L65.51,45l0,0,0,0,.54-.9v0a4.43,4.43,0,0,1-.45-1l0,0-1-.22h0v0l0-1.72v0h0l.75-.18.2,0Z"/><path class="cls-4" d="M15,36.08a4.78,4.78,0,0,1,.47-1.17l-.64-1,1.34-1.39,1,.61a4.43,4.43,0,0,1,1.16-.5l.24-1.15,1.93,0,.28,1.14a4.75,4.75,0,0,1,1.17.46l1-.64,1.39,1.35-.61,1a4.43,4.43,0,0,1,.5,1.16l1.14.24,0,1.93-1.14.28a4.75,4.75,0,0,1-.46,1.17l.64,1-1.35,1.39-1-.61a4.22,4.22,0,0,1-1.15.5L20.73,43l-1.94,0-.27-1.14a4.6,4.6,0,0,1-1.17-.46l-1,.64L15,40.68l.61-1a4.81,4.81,0,0,1-.51-1.16l-1.14-.24,0-1.93L15,36.08Zm2.55,1.1a2.08,2.08,0,1,0,2-2.11A2.08,2.08,0,0,0,17.59,37.18Z"/><path class="cls-4" d="M59.59,31.09a1.26,1.26,0,0,1,.13-.34l-.18-.28.38-.41.29.18a2.07,2.07,0,0,1,.34-.15l.07-.33h.55l.08.32a1.28,1.28,0,0,1,.34.14l.28-.19.41.39-.18.29a1.66,1.66,0,0,1,.15.33l.33.07v.56l-.32.08a1.43,1.43,0,0,1-.14.34l.19.28-.39.4-.29-.17a1.22,1.22,0,0,1-.33.14l-.07.33h-.56l-.08-.33a1.4,1.4,0,0,1-.34-.13L60,32.8l-.4-.38.17-.29a1.43,1.43,0,0,1-.14-.34l-.33-.07v-.55l.33-.08Zm.73.31a.6.6,0,0,0,.61.59.6.6,0,0,0,.59-.61.6.6,0,1,0-1.2,0Z"/><path class="cls-5" d="M2.19,36.86a1.83,1.83,0,0,1,.18-.46L2.12,36l.54-.55.39.24a2.46,2.46,0,0,1,.47-.2L3.61,35h.77l.12.46a1.83,1.83,0,0,1,.46.18l.39-.25.56.53-.24.4a2.37,2.37,0,0,1,.2.46l.45.1,0,.77-.46.11a1.76,1.76,0,0,1-.18.47l.25.39-.53.56L5,39a1.69,1.69,0,0,1-.46.2l-.1.46H3.69l-.11-.45A1.76,1.76,0,0,1,3.11,39l-.39.25-.56-.54.24-.4a2.13,2.13,0,0,1-.2-.46l-.45-.09,0-.78.46-.11Zm1,.44a.83.83,0,1,0,1.65,0,.83.83,0,1,0-1.65,0Z"/><path class="cls-5" d="M72.45,24.42a4.36,4.36,0,0,1,.43-1.07l-.59-.9,1.23-1.27.92.56a4.29,4.29,0,0,1,1-.46l.22-1.05,1.77,0,.25,1a4.6,4.6,0,0,1,1.08.43l.89-.59L81,22.31l-.55.92a4.27,4.27,0,0,1,.45,1.05l1,.22,0,1.77-1,.25a4.57,4.57,0,0,1-.42,1.08l.58.89-1.23,1.27-.91-.55a4.79,4.79,0,0,1-1.06.46l-.22,1-1.77,0-.25-1a4.33,4.33,0,0,1-1.07-.42l-.9.58-1.27-1.23.56-.91a4.36,4.36,0,0,1-.46-1.06l-1-.22,0-1.77,1-.25Zm2.33,1a1.9,1.9,0,1,0,1.87-1.92A1.9,1.9,0,0,0,74.78,25.42Z"/><path class="cls-6" d="M5,53.9a3.94,3.94,0,0,1,.39-1l-.53-.81L6,51l.83.5a3.87,3.87,0,0,1,1-.42l.2-.94,1.6,0,.23.94a3.92,3.92,0,0,1,1,.38l.81-.53L12.7,52l-.5.82a4.11,4.11,0,0,1,.42,1l.94.2,0,1.6-.94.23a4.55,4.55,0,0,1-.38,1l.52.81-1.11,1.15-.83-.5a3.5,3.5,0,0,1-.95.41l-.2,1-1.6,0-.23-.94a4.1,4.1,0,0,1-1-.39l-.81.53L4.94,57.71l.5-.83a3.57,3.57,0,0,1-.41-1l-1-.19,0-1.6L5,53.9Zm2.11.9a1.72,1.72,0,1,0,1.69-1.74A1.72,1.72,0,0,0,7.1,54.8Z"/><path class="cls-6" d="M38.58,20.78a1.52,1.52,0,0,1,.16-.42L38.51,20,39,19.5l.36.22a2.13,2.13,0,0,1,.41-.18l.09-.41h.7l.1.41a1.54,1.54,0,0,1,.42.17l.35-.24.5.49-.22.36a2,2,0,0,1,.19.42l.41.08v.7l-.41.1a1.54,1.54,0,0,1-.17.42l.23.36-.48.5-.36-.22a2,2,0,0,1-.42.18l-.09.41h-.69l-.1-.41a1.52,1.52,0,0,1-.42-.16l-.36.23-.5-.49.22-.36a1.57,1.57,0,0,1-.18-.42l-.41-.08v-.7l.41-.1Zm.91.4a.75.75,0,1,0,.74-.76A.75.75,0,0,0,39.49,21.18Z"/><path class="cls-7" d="M74.72,69.54a4.69,4.69,0,0,1,2.89-.35,2.4,2.4,0,0,1,1.43.63,1,1,0,0,1,0,1.43,1.39,1.39,0,0,1-.9.23,3.53,3.53,0,0,0-2.22.31c-.35.26-.58.7-1,.83a1,1,0,0,1-1.09-.48,1.71,1.71,0,0,1-.12-1.24A1.92,1.92,0,0,1,74.72,69.54Z"/><path class="cls-7" d="M72.71,65.65a1.37,1.37,0,0,0,2.06,0,3.92,3.92,0,0,0,.88-1.79,9.57,9.57,0,0,0,.54-4.54,2.6,2.6,0,0,0-.58-1.23,1.3,1.3,0,0,0-1.25-.42,1.94,1.94,0,0,0-1.09,1.15,11,11,0,0,0-1.07,4.64,3.76,3.76,0,0,0,.51,2.14"/><path class="cls-7" d="M71.24,66.75a2.78,2.78,0,0,0,.43-2.56A5,5,0,0,0,70.15,62a8.11,8.11,0,0,0-2.73-1.61,2.86,2.86,0,0,0-1.22-.21,1.29,1.29,0,0,0-1,.63,1.91,1.91,0,0,0,.29,1.75,20.25,20.25,0,0,0,1.79,2.72,4.83,4.83,0,0,0,2,1.69,1.8,1.8,0,0,0,2.1-.29"/><path class="cls-3" d="M72.67,77.23a1.55,1.55,0,0,0,0-.35l.09-.95c0-.4.11-.88.22-1.4a10,10,0,0,1,.51-1.65,6.09,6.09,0,0,1,.84-1.49,3,3,0,0,1,1.06-.88,2.8,2.8,0,0,1,.9-.28,1.38,1.38,0,0,0,.34,0,1.55,1.55,0,0,0-.35,0,2.54,2.54,0,0,0-.93.24,3.12,3.12,0,0,0-1.13.89,6.17,6.17,0,0,0-.87,1.52,10.07,10.07,0,0,0-.5,1.67,10.76,10.76,0,0,0-.19,1.42c0,.4,0,.73,0,1A1.71,1.71,0,0,0,72.67,77.23Z"/><path class="cls-3" d="M72.74,76.49a.92.92,0,0,0,0-.16v-.46c0-.4,0-1,0-1.7,0-1.43.16-3,.4-5.16s.52-4.42.84-6c.07-.35.14-.67.21-.95s.11-.52.16-.71l.11-.45,0-.16-.06.15-.13.44c-.06.2-.12.44-.19.71s-.15.59-.22,1a51,51,0,0,0-.9,5.54c-.24,2.18-.34,4.17-.35,5.61,0,.72,0,1.3,0,1.7l0,.46C72.73,76.44,72.73,76.49,72.74,76.49Z"/><path class="cls-3" d="M72.75,72.66a3,3,0,0,0,0-.48c0-.31-.07-.76-.15-1.31A17.63,17.63,0,0,0,72.17,69a15.23,15.23,0,0,0-.8-2.25A12.1,12.1,0,0,0,69,63.06a6.16,6.16,0,0,0-.55-.51l-.23-.2L68,62.2l-.4-.26A17.73,17.73,0,0,1,69,63.13a12.63,12.63,0,0,1,2.28,3.63A17.32,17.32,0,0,1,72,69c.21.7.35,1.35.46,1.89s.15,1,.19,1.29A3.23,3.23,0,0,0,72.75,72.66Z"/><polygon class="cls-3" points="69.05 79.42 69.43 84.68 76.19 84.68 76.57 79.42 69.05 79.42"/><rect class="cls-3" x="68.39" y="77.35" width="8.98" height="2.07"/><polygon class="cls-7" points="68.39 84.48 68.39 85.05 68.82 85.05 77.23 85.05 77.23 84.48 68.39 84.48"/><polygon class="cls-3" points="69.23 86.06 68.82 85.05 76.91 85.05 76.42 86.06 69.23 86.06"/><path class="cls-8" d="M76.44,81.14s0,0,0,0l-.1.13-.39.5,0,0,0,0c-.24-.34-.57-.8-1-1.33h0l-1,1.34,0,0,0,0-1.13-1.35h.06l-.06.08-1,1.27,0,0,0,0-1-1.34h.06l-1.17,1.34,0,0,0,0-.37-.61L69.19,81l0-.06,0,0,.1.16.39.61h0l1.16-1.36,0,0,0,0c.29.4.62.85,1,1.34h-.06l1-1.27.06-.08,0,0,0,0L74,81.78H74c.34-.49.67-.94,1-1.34l0,0,0,0,1,1.35h0l.41-.49.11-.13Z"/><path class="cls-8" d="M76.66,79.39s-1.69,0-3.78,0-3.78,0-3.78,0,1.69,0,3.78,0S76.66,79.36,76.66,79.39Z"/><path class="cls-8" d="M77,85.11s-1.84,0-4.1,0-4.11,0-4.11,0,1.84,0,4.11,0S77,85.08,77,85.11Z"/><path class="cls-7" d="M5.87,26.23a1.88,1.88,0,0,1,.35,0h.41l.54,0a13.47,13.47,0,0,1,1.4.23,12.65,12.65,0,0,1,1.67.48,12.26,12.26,0,0,1,1.58.71,11.21,11.21,0,0,1,1.22.73c.17.11.31.22.44.32a3.63,3.63,0,0,1,.32.25l.26.23a1.68,1.68,0,0,1-.28-.2l-.33-.24c-.14-.09-.28-.2-.45-.3-.34-.22-.75-.46-1.22-.71a13.85,13.85,0,0,0-1.58-.69,13.71,13.71,0,0,0-1.65-.49,11.31,11.31,0,0,0-1.39-.24l-.54-.06-.4,0Z"/><path class="cls-7" d="M2.25,48s0,0,.1-.09l.32-.24c.13-.1.3-.23.5-.36l.69-.45c.26-.16.55-.33.87-.5s.66-.34,1-.52a19.49,19.49,0,0,1,5-1.58c.4-.07.78-.13,1.13-.17s.69-.07,1-.08.58,0,.82,0h.62c-.17,0-.37,0-.62,0s-.51,0-.82,0-.63,0-1,.1-.73.1-1.13.17a21.13,21.13,0,0,0-5,1.57c-.36.18-.71.34-1,.52s-.61.33-.87.48-.49.31-.7.44l-.51.34-.32.23Z"/><path class="cls-7" d="M16.28,58.49s0,0,0-.11l.06-.3c0-.13.06-.29.1-.47s.1-.39.17-.62c.12-.45.3-1,.52-1.58A18,18,0,0,1,18,53.55c.32-.65.67-1.25,1-1.78s.67-1,1-1.36c.14-.19.28-.36.39-.5s.23-.27.32-.37l.2-.22c.05-.06.07-.08.08-.08l-.06.09-.19.24a4.71,4.71,0,0,0-.3.37l-.39.51c-.28.38-.6.84-.93,1.37s-.67,1.13-1,1.77-.6,1.27-.82,1.86-.41,1.11-.54,1.56c-.08.23-.13.43-.18.61s-.09.34-.12.47l-.08.29C16.3,58.45,16.29,58.49,16.28,58.49Z"/><path class="cls-7" d="M42.82,4.88,42.74,5l-.23.32-.37.53c-.13.2-.3.43-.46.7s-.36.55-.54.87-.37.66-.57,1c-.39.74-.78,1.56-1.14,2.44s-.65,1.75-.89,2.54c-.11.4-.22.77-.3,1.13s-.16.69-.22,1-.12.59-.16.83-.08.46-.1.63l-.07.4c0,.09,0,.14,0,.14s0-.05,0-.14l0-.41c0-.17,0-.38.08-.63s.08-.53.15-.83.12-.65.21-1,.18-.74.29-1.14a26.85,26.85,0,0,1,.88-2.55c.37-.89.76-1.71,1.15-2.44.21-.36.39-.71.59-1s.37-.61.55-.87.33-.49.48-.7.27-.37.38-.51L42.73,5Z"/><path class="cls-7" d="M60.4,25.17l-.11,0-.34,0-.25,0-.28.06a5.55,5.55,0,0,0-.7.15l-.4.1-.43.14c-.3.09-.6.22-.92.35a12.41,12.41,0,0,0-2,1.11,12.14,12.14,0,0,0-1.71,1.48c-.24.26-.46.5-.65.75s-.19.24-.27.36l-.24.34c-.15.21-.26.43-.37.61s-.11.17-.15.25l-.11.22-.16.3c0,.07,0,.11-.06.1a.82.82,0,0,1,0-.11l.14-.31.11-.22.14-.26a6.07,6.07,0,0,1,.36-.62l.23-.35.28-.36c.18-.25.41-.5.64-.76a11.71,11.71,0,0,1,1.72-1.5,12.31,12.31,0,0,1,2-1.12,8.28,8.28,0,0,1,.94-.34l.43-.14.4-.09c.26-.07.5-.1.71-.14l.29,0,.24,0,.35,0C60.36,25.16,60.4,25.16,60.4,25.17Z"/><path class="cls-7" d="M74.77,36.79h-.06l-.14-.05L74,36.52l-.41-.14-.48-.16c-.36-.11-.75-.25-1.2-.36l-.7-.19c-.24-.07-.5-.12-.76-.18-.53-.13-1.1-.23-1.71-.34a32.82,32.82,0,0,0-4-.39,33.49,33.49,0,0,0-4,.15c-.6.07-1.18.13-1.72.23l-.77.13-.71.15c-.46.09-.86.2-1.22.29l-.49.12-.41.13-.58.16-.15.05h-.05l.05,0,.15-.06.56-.18.42-.13.49-.14c.36-.09.76-.21,1.21-.3l.71-.15c.25-.06.51-.09.78-.14.54-.1,1.11-.17,1.72-.24a29.88,29.88,0,0,1,4-.16,31.18,31.18,0,0,1,4,.4c.6.11,1.18.21,1.7.35.27.06.53.11.77.18l.7.2c.45.12.84.26,1.19.38l.49.16.4.16.55.22.15.06Z"/><path class="cls-9" d="M27,2h0a3,3,0,0,1,3,3V5.2a3,3,0,0,1-3,3h0a0,0,0,0,1,0,0V2a0,0,0,0,1,0,0Z" transform="translate(4.7 21.58) rotate(-44.79)"/><path class="cls-10" d="M29.66,8.34h0L25.29,4h0l.19-.18A2.69,2.69,0,0,1,27.4,3h0a2.71,2.71,0,0,1,1.93.81l.52.52a2.73,2.73,0,0,1,.79,1.93,2.69,2.69,0,0,1-.81,1.93ZM25.3,4l4.36,4.38.18-.18a2.72,2.72,0,0,0,0-3.84l-.52-.53A2.7,2.7,0,0,0,27.41,3h0a2.73,2.73,0,0,0-1.92.79Z"/><path class="cls-9" d="M11.81,16.89h0a3,3,0,0,1,3,3v.22a3,3,0,0,1-3,3h0a0,0,0,0,1,0,0V16.89a0,0,0,0,1,0,0Z" transform="translate(36.63 25.64) rotate(137.3)"/><path class="cls-10" d="M14.46,22.14h-.11a2.72,2.72,0,0,1-1.9-.88l-.5-.54a2.71,2.71,0,0,1-.72-2,2.68,2.68,0,0,1,.88-1.89l.19-.18h0l4.19,4.55h0l-.19.18A2.7,2.7,0,0,1,14.46,22.14Zm-2.34-5.27A2.72,2.72,0,0,0,12,20.72l.5.54a2.71,2.71,0,0,0,1.89.87h.11a2.66,2.66,0,0,0,1.84-.72l.19-.17L12.3,16.7Z"/><rect class="cls-9" x="10.9" y="10.67" width="0.49" height="4.04" transform="translate(-5.73 13.4) rotate(-51.11)"/><path class="cls-10" d="M9.93,10.43A1,1,0,0,1,8.68,12a1,1,0,0,1-.15-1.4A1,1,0,0,1,9.93,10.43Z"/><rect class="cls-11" x="12.72" y="7.04" width="19.37" height="14.62" rx="7.31" transform="translate(-3.61 19.95) rotate(-44.8)"/><polygon class="cls-9" points="22.09 4.36 21.66 2.71 20.54 2.9 20.21 1.71 20.58 1.62 20.84 2.49 21.96 2.33 22.43 4.02 22.09 4.36"/><rect class="cls-10" x="12.58" y="9.85" width="16.63" height="5.97" rx="2.99" transform="translate(-2.97 18.45) rotate(-44.8)"/><path class="cls-10" d="M27.4,11.73l.07-.08c.05-.06.13-.14.22-.26a3.47,3.47,0,0,0,.57-1.15,4.16,4.16,0,0,0,.13-.92,3.54,3.54,0,0,0-.18-1.08,3.3,3.3,0,0,0-.61-1.11l-.23-.25-.25-.25a5.07,5.07,0,0,0-.54-.49,3.32,3.32,0,0,0-1.41-.64,3.41,3.41,0,0,0-1.67.1,3.06,3.06,0,0,0-.8.37,4,4,0,0,0-.71.59L20.61,7.93c-1.88,1.88-4,3.94-6.14,6.1a3.51,3.51,0,0,0-1,2,3.63,3.63,0,0,0,0,1.09,3.54,3.54,0,0,0,.37,1c.09.16.2.3.3.45s.23.26.36.39a5.6,5.6,0,0,0,.77.7,3.32,3.32,0,0,0,1.88.64,3.38,3.38,0,0,0,1.83-.47,2.55,2.55,0,0,0,.38-.26l.34-.3.64-.64,2.34-2.31L26.14,13l.93-.9.24-.24.09-.08-.08.09-.24.24-.91.92L22.8,16.35l-2.33,2.32-.64.64-.34.31a4,4,0,0,1-.4.27,3.46,3.46,0,0,1-3.81-.17A6.57,6.57,0,0,1,14.5,19c-.13-.13-.25-.27-.37-.4a4.53,4.53,0,0,1-.3-.46,3.48,3.48,0,0,1-.39-1,3.88,3.88,0,0,1,0-1.13,3.56,3.56,0,0,1,1-2l6.15-6.1L21.93,6.5a3.7,3.7,0,0,1,.72-.6,3.31,3.31,0,0,1,.83-.39,3.45,3.45,0,0,1,3.15.57,5.16,5.16,0,0,1,.54.5l.25.25.23.26a3.5,3.5,0,0,1,.62,1.13,3.69,3.69,0,0,1,.17,1.1,4.14,4.14,0,0,1-.14.93,3.43,3.43,0,0,1-.6,1.15,2.12,2.12,0,0,1-.22.25A.45.45,0,0,1,27.4,11.73Z"/><path class="cls-12" d="M17.26,17.88a14.52,14.52,0,0,1-.07-1.76,13.85,13.85,0,0,1,0-1.75,15.62,15.62,0,0,1,.08,1.75A15.17,15.17,0,0,1,17.26,17.88Z"/><path class="cls-12" d="M19,16s-.78.08-1.75.13a14.53,14.53,0,0,1-1.76,0s.78-.08,1.75-.13A14.53,14.53,0,0,1,19,16Z"/><path class="cls-12" d="M24.22,10.79A14.68,14.68,0,0,1,24.15,9a14.05,14.05,0,0,1,0-1.76A15.91,15.91,0,0,1,24.25,9,15.17,15.17,0,0,1,24.22,10.79Z"/><path class="cls-12" d="M25.92,8.89A13.76,13.76,0,0,1,24.17,9a16,16,0,0,1-1.76,0,13.76,13.76,0,0,1,1.75-.13A16,16,0,0,1,25.92,8.89Z"/><circle class="cls-10" cx="20.17" cy="1" r="1" transform="translate(-0.01 0.31) rotate(-0.89)"/><path class="cls-10" d="M23.27,23.79l-.18-.14-.44-.42-1.43-1.39c-.55-.55-1-1.05-1.4-1.42a3.94,3.94,0,0,1-.55-.62l.16.15.44.42,1.42,1.4c.56.55,1.06,1.05,1.41,1.41l.42.44A.9.9,0,0,1,23.27,23.79Z"/><path class="cls-10" d="M31.73,15.27l-.17-.14-.45-.42-1.43-1.39c-.55-.55-1.05-1.05-1.4-1.42a3.94,3.94,0,0,1-.55-.62l.16.15.44.42,1.42,1.4c.56.54,1.06,1.05,1.41,1.41l.42.44A.9.9,0,0,1,31.73,15.27Z"/><rect class="cls-10" x="19.42" y="15.96" width="10.19" height="1.12" transform="translate(-4.45 22.4) rotate(-45.46)"/><path class="cls-10" d="M19.57,21.08a.21.21,0,0,1-.22.21.21.21,0,0,1-.2-.22.21.21,0,0,1,.22-.21A.21.21,0,0,1,19.57,21.08Z"/><path class="cls-10" d="M21.2,22.8A.21.21,0,0,1,21,23a.21.21,0,0,1-.2-.22.21.21,0,0,1,.22-.21A.21.21,0,0,1,21.2,22.8Z"/><path class="cls-10" d="M29.15,11.33a.22.22,0,1,1-.21-.22A.23.23,0,0,1,29.15,11.33Z"/><path class="cls-10" d="M30.78,13.05a.22.22,0,1,1-.43,0,.22.22,0,0,1,.22-.21A.23.23,0,0,1,30.78,13.05Z"/><path class="cls-12" d="M13.3,21.31s-.16-.18-.46-.4c-.14-.12-.33-.25-.52-.41a2,2,0,0,1-.49-.65,2.23,2.23,0,0,1-.16-1.46,2.2,2.2,0,0,1,.16-.43l.09-.13a4.84,4.84,0,0,0-.18.57,2.26,2.26,0,0,0,.18,1.4,3,3,0,0,0,1,1.05A1.44,1.44,0,0,1,13.3,21.31Z"/><path class="cls-12" d="M21.79,5.6s-2,2-4.59,4.52-4.64,4.48-4.66,4.46,2-2.05,4.59-4.53S21.77,5.58,21.79,5.6Z"/><path class="cls-12" d="M9.09,11.91s-.1,0-.23-.09a.77.77,0,0,1-.34-.5.83.83,0,0,1,.1-.59.5.5,0,0,1,.18-.18s-.05.08-.11.21a.78.78,0,0,0-.07.54.84.84,0,0,0,.28.47C9,11.86,9.1,11.9,9.09,11.91Z"/><path class="cls-12" d="M19.94,1.72s-.11,0-.25-.1a.82.82,0,0,1-.34-.56.84.84,0,0,1,.19-.62c.1-.13.21-.17.21-.16s-.07.07-.16.2a.9.9,0,0,0-.14.57.87.87,0,0,0,.28.51C19.85,1.67,19.94,1.71,19.94,1.72Z"/><path class="cls-12" d="M27.33,3.29a4.24,4.24,0,0,0-.8.18,3.54,3.54,0,0,0-.71.42,1.23,1.23,0,0,1,.67-.51A1.19,1.19,0,0,1,27.33,3.29Z"/><path class="cls-12" d="M19.22,24.14s-.67-.63-1.45-1.44a20.21,20.21,0,0,1-1.39-1.5s.67.62,1.46,1.43A20.13,20.13,0,0,1,19.22,24.14Z"/><rect class="cls-11" x="33.41" y="71.04" width="8.36" height="11.85"/><path class="cls-10" d="M33.58,82.69h8a1.22,1.22,0,0,1,1.22,1.22v0a0,0,0,0,1,0,0H32.36a0,0,0,0,1,0,0v0A1.22,1.22,0,0,1,33.58,82.69Z"/><rect class="cls-11" x="31.41" y="83.9" width="12.69" height="1.93"/><path class="cls-10" d="M41.73,81.59s-1.86,0-4.14,0-4.14,0-4.14,0,1.85,0,4.14,0S41.73,81.56,41.73,81.59Z"/><path class="cls-10" d="M41.73,80.18s-1.86,0-4.14,0-4.14,0-4.14,0,1.85-.05,4.14-.05S41.73,80.15,41.73,80.18Z"/><path class="cls-10" d="M41.73,78.79s-1.86.06-4.14.06-4.14,0-4.14-.06,1.85-.05,4.14-.05S41.73,78.77,41.73,78.79Z"/><path class="cls-10" d="M41.73,77.39s-1.86,0-4.14,0-4.14,0-4.14,0,1.85,0,4.14,0S41.73,77.36,41.73,77.39Z"/><path class="cls-10" d="M41.73,76s-1.86,0-4.14,0-4.14,0-4.14,0,1.85,0,4.14,0S41.73,76,41.73,76Z"/><path class="cls-10" d="M41.73,74.59s-1.86,0-4.14,0-4.14,0-4.14,0,1.85,0,4.14,0S41.73,74.57,41.73,74.59Z"/><path class="cls-10" d="M41.73,73.21s-1.86.05-4.14.05-4.14,0-4.14-.05,1.85,0,4.14,0S41.73,73.18,41.73,73.21Z"/><path class="cls-10" d="M41.73,71.8s-1.86,0-4.14,0-4.14,0-4.14,0,1.85,0,4.14,0S41.73,71.77,41.73,71.8Z"/><g class="cls-13"><polygon points="33.41 72.69 41.73 72.46 41.73 71.25 33.34 71.25 33.41 72.69"/></g><rect class="cls-11" x="46.5" y="71.04" width="8.36" height="11.85"/><path class="cls-10" d="M46.67,82.69h8a1.22,1.22,0,0,1,1.22,1.22v0a0,0,0,0,1,0,0H45.45a0,0,0,0,1,0,0v0A1.22,1.22,0,0,1,46.67,82.69Z"/><rect class="cls-11" x="44.5" y="83.9" width="12.69" height="1.93"/><path class="cls-10" d="M54.82,81.59s-1.86,0-4.14,0-4.14,0-4.14,0,1.85,0,4.14,0S54.82,81.56,54.82,81.59Z"/><path class="cls-10" d="M54.82,80.18s-1.86,0-4.14,0-4.14,0-4.14,0,1.85-.05,4.14-.05S54.82,80.15,54.82,80.18Z"/><path class="cls-10" d="M54.82,78.79s-1.86.06-4.14.06-4.14,0-4.14-.06,1.85-.05,4.14-.05S54.82,78.77,54.82,78.79Z"/><path class="cls-10" d="M54.82,77.39s-1.86,0-4.14,0-4.14,0-4.14,0,1.85,0,4.14,0S54.82,77.36,54.82,77.39Z"/><path class="cls-10" d="M54.82,76s-1.86,0-4.14,0-4.14,0-4.14,0,1.85,0,4.14,0S54.82,76,54.82,76Z"/><path class="cls-10" d="M54.82,74.59s-1.86,0-4.14,0-4.14,0-4.14,0,1.85,0,4.14,0S54.82,74.57,54.82,74.59Z"/><path class="cls-10" d="M54.82,73.21s-1.86.05-4.14.05-4.14,0-4.14-.05,1.85,0,4.14,0S54.82,73.18,54.82,73.21Z"/><path class="cls-10" d="M54.82,71.8s-1.86,0-4.14,0-4.14,0-4.14,0,1.85,0,4.14,0S54.82,71.77,54.82,71.8Z"/><g class="cls-13"><polygon points="46.5 72.69 54.82 72.46 54.82 71.25 46.42 71.25 46.5 72.69"/></g><path class="cls-11" d="M57.22,36.87h0a.78.78,0,0,1,.78.78v3a0,0,0,0,1,0,0H56.44a0,0,0,0,1,0,0v-3A.78.78,0,0,1,57.22,36.87Z" transform="translate(5.62 84.76) rotate(-75.83)"/><g class="cls-13"><path d="M57.22,36.87h0a.78.78,0,0,1,.78.78v3a0,0,0,0,1,0,0H56.44a0,0,0,0,1,0,0v-3A.78.78,0,0,1,57.22,36.87Z" transform="translate(5.62 84.76) rotate(-75.83)"/></g><path class="cls-11" d="M56.52,39.61h0a1.17,1.17,0,0,1,1.17,1.17v2.64a0,0,0,0,1,0,0H55.35a0,0,0,0,1,0,0V40.79A1.17,1.17,0,0,1,56.52,39.61Z" transform="translate(2.43 86.16) rotate(-75.83)"/><rect class="cls-11" x="56.05" y="39.48" width="3.98" height="1.5" transform="translate(4.82 86.66) rotate(-75.83)"/><path class="cls-11" d="M60.21,53.82s6.24-.26,5.73-6.24C65.54,43,58.73,43,58.73,43l1.74-3.81s8,.7,9.54,6.49c1.77,6.55-2.33,11.9-9.8,11.77Z"/><rect class="cls-10" x="58" y="38.29" width="2.43" height="5.41" transform="translate(10.24 -11.81) rotate(12.46)"/><path class="cls-9" d="M59.92,43.34a5.14,5.14,0,0,1-1.18-.19,8.44,8.44,0,0,1-1.16-.32,6.69,6.69,0,0,1,1.18.22l.82.19.25.07Z"/><path class="cls-9" d="M60.13,42.39A5.14,5.14,0,0,1,59,42.2a8.44,8.44,0,0,1-1.16-.32A6.69,6.69,0,0,1,59,42.1l.82.19.25.07Z"/><path class="cls-9" d="M60.38,41.44a5.14,5.14,0,0,1-1.18-.19A6.48,6.48,0,0,1,58,40.92a8.7,8.7,0,0,1,1.18.23l.82.19.25.07Z"/><path class="cls-9" d="M60.55,40.49a4.87,4.87,0,0,1-1.18-.2A6,6,0,0,1,58.21,40a9,9,0,0,1,1.18.23l.82.19.25.07C60.52,40.47,60.54,40.48,60.55,40.49Z"/><path class="cls-9" d="M60.79,39.6a5.21,5.21,0,0,1-1.18-.19,8,8,0,0,1-1.15-.32,6.67,6.67,0,0,1,1.17.22l.82.19.25.07Z"/><path class="cls-10" d="M61.58,57.37a2,2,0,0,1-.13-.52c-.06-.33-.14-.79-.19-1.3s-.09-1-.1-1.3a3.84,3.84,0,0,1,0-.54,2.3,2.3,0,0,1,.07.54c0,.33.07.79.13,1.29s.12,1,.16,1.29A3.34,3.34,0,0,1,61.58,57.37Z"/><path class="cls-10" d="M63.52,57.07A16,16,0,0,1,63,55.21a16.76,16.76,0,0,1-.47-1.9s.28.83.57,1.87S63.54,57.06,63.52,57.07Z"/><path class="cls-10" d="M66.12,56.14s-.13-.2-.33-.52L65,54.35l-.76-1.27a2.7,2.7,0,0,1-.3-.54,3.25,3.25,0,0,1,.36.5c.21.31.49.76.79,1.25s.55,1,.73,1.29A2.76,2.76,0,0,1,66.12,56.14Z"/><path class="cls-10" d="M68.32,54.38s-.8-.6-1.74-1.38-1.68-1.43-1.67-1.45.8.6,1.74,1.38S68.34,54.36,68.32,54.38Z"/><path class="cls-10" d="M69.73,52s-.93-.33-2-.8a20.82,20.82,0,0,1-2-.9s.92.34,2,.8S69.74,51.94,69.73,52Z"/><path class="cls-10" d="M70.42,49.36a3.51,3.51,0,0,1-.66-.06l-1.57-.19-1.58-.19a5.35,5.35,0,0,1-.66-.1,3.63,3.63,0,0,1,.66,0c.41,0,1,.08,1.59.16s1.17.15,1.57.22A5.31,5.31,0,0,1,70.42,49.36Z"/><path class="cls-10" d="M70.1,46.67a4.24,4.24,0,0,1-.59.2c-.37.1-.88.24-1.46.36s-1.1.2-1.48.26a3.47,3.47,0,0,1-.62,0,5,5,0,0,1,.61-.13c.38-.06.9-.16,1.47-.28l1.46-.33A3.18,3.18,0,0,1,70.1,46.67Z"/><path class="cls-10" d="M69.31,44.08s-.82.47-1.87,1a21.06,21.06,0,0,1-1.91.9s.82-.47,1.87-1A19.77,19.77,0,0,1,69.31,44.08Z"/><path class="cls-10" d="M67.7,42a19.57,19.57,0,0,1-1.55,1.4c-.88.76-1.6,1.35-1.62,1.33s.68-.65,1.55-1.4S67.69,42,67.7,42Z"/><path class="cls-10" d="M65,40.42s-.42.78-1,1.72S63,43.83,62.94,43.82s.42-.79,1-1.73A19.76,19.76,0,0,1,65,40.42Z"/><path class="cls-10" d="M62.56,39.44s-.24.87-.58,1.93-.66,1.9-.68,1.89a18.17,18.17,0,0,1,.58-1.93A19.33,19.33,0,0,1,62.56,39.44Z"/><g class="cls-13"><path d="M65.49,50.64A4.86,4.86,0,0,1,63.23,53a6.91,6.91,0,0,1-1.54.59,3.56,3.56,0,0,0,3.8-.6,4.84,4.84,0,0,0,1.63-3.58,4.14,4.14,0,0,0-.34-1.88A2.87,2.87,0,0,0,65.5,46a3.63,3.63,0,0,1,.36,1A6,6,0,0,1,65.49,50.64Z"/></g><path class="cls-10" d="M19.62,61.18s.07.07.19.22.29.35.48.62a14.19,14.19,0,0,1,1.3,2.26,14.28,14.28,0,0,1,.83,2.47c.08.33.13.59.16.78a1,1,0,0,1,0,.28,1.24,1.24,0,0,1-.07-.28c0-.18-.1-.44-.19-.76a14.54,14.54,0,0,0-.86-2.44,14.91,14.91,0,0,0-1.26-2.27c-.18-.27-.34-.49-.45-.64A1.26,1.26,0,0,1,19.62,61.18Z"/><path class="cls-10" d="M18.79,60.49s.11,0,.21.11.15.17.13.19-.11,0-.2-.11S18.77,60.51,18.79,60.49Z"/><path class="cls-10" d="M19,59.91s.12.11.22.26.15.3.12.32-.12-.1-.21-.26S19,59.93,19,59.91Z"/><path class="cls-9" d="M22.59,67.94l0-.16.11-.44c.09-.39.22-1,.37-1.64.3-1.39.67-3.32.94-5.46a24,24,0,0,1,.44-3A4.7,4.7,0,0,1,25,56a3.5,3.5,0,0,1,.78-.87,3.7,3.7,0,0,1,1.51-.74l.46-.07h.16l-.16,0c-.11,0-.26,0-.45.09a3.77,3.77,0,0,0-1.47.75,3.54,3.54,0,0,0-.75.86,4.48,4.48,0,0,0-.51,1.22,24.74,24.74,0,0,0-.43,3,55.2,55.2,0,0,1-1,5.46c-.16.7-.3,1.25-.4,1.64l-.13.44C22.61,67.89,22.6,67.94,22.59,67.94Z"/><path class="cls-10" d="M22.83,52.45a2.9,2.9,0,0,0,.49.73,3.36,3.36,0,0,0,1.88.91A6.8,6.8,0,0,0,27.33,54l.65-.11a.67.67,0,0,1,.23,0l-.23.07c-.15,0-.36.09-.63.14a6.56,6.56,0,0,1-2.16.12,3.19,3.19,0,0,1-1.92-1,2.17,2.17,0,0,1-.37-.54C22.84,52.53,22.82,52.45,22.83,52.45Z"/><path class="cls-10" d="M22.08,51.83s.12,0,.21.14.16.19.14.21-.12,0-.21-.14S22.06,51.85,22.08,51.83Z"/><path class="cls-10" d="M22.31,51.49s.11.09.19.22.14.26.11.28-.11-.09-.19-.22S22.28,51.51,22.31,51.49Z"/><path class="cls-10" d="M22.92,51.45s0,.12,0,.25-.06.25-.09.24,0-.11,0-.25S22.89,51.44,22.92,51.45Z"/><path class="cls-9" d="M24.76,59.07s0,.13,0,.35,0,.55-.1.95c-.09.79-.25,1.89-.5,3.08s-.52,2.27-.75,3c-.11.39-.21.69-.28.91a1.4,1.4,0,0,1-.12.32,3.34,3.34,0,0,1,.08-.33l.25-.92c.21-.77.48-1.84.72-3s.42-2.28.53-3.07l.13-.94A1.89,1.89,0,0,1,24.76,59.07Z"/><path class="cls-9" d="M28.22,54.55s-.28,0-.71.14a3.61,3.61,0,0,0-1.51.82A3.54,3.54,0,0,0,25.06,57c-.15.42-.17.7-.19.7s0-.07,0-.2a2.21,2.21,0,0,1,.11-.52,3.4,3.4,0,0,1,2.5-2.31,2.56,2.56,0,0,1,.53-.07Z"/><path class="cls-9" d="M23.52,67.9s0-.05,0-.15,0-.24,0-.42A3.92,3.92,0,0,1,24,65.85c.17-.28.39-.57.57-.9a2.09,2.09,0,0,0,.21-.54,2.56,2.56,0,0,0,0-.62,5.06,5.06,0,0,1-.06-1.36,1.73,1.73,0,0,1,.32-.67c.14-.2.31-.38.44-.59a1.33,1.33,0,0,0,.22-.66,3.28,3.28,0,0,0-.1-.7,4.24,4.24,0,0,1-.11-1.36,3.88,3.88,0,0,1,2.06-3.1,3.79,3.79,0,0,1,.38-.18l.14,0-.13.06-.37.19a4,4,0,0,0-1.17,1,3.89,3.89,0,0,0-.82,2.09,4.4,4.4,0,0,0,.12,1.33,3.38,3.38,0,0,1,.1.72,1.35,1.35,0,0,1-.24.72c-.14.21-.3.4-.44.59a1.59,1.59,0,0,0-.3.63,4.91,4.91,0,0,0,.06,1.33,2.27,2.27,0,0,1,0,.64,2,2,0,0,1-.22.57c-.19.34-.42.62-.59.9a4,4,0,0,0-.48,1.45l-.07.41Z"/><path class="cls-3" d="M28.45,56.58a1.44,1.44,0,0,0-.48.06,1.91,1.91,0,0,0-1,.81,4.35,4.35,0,0,0-.53,1.88,23.19,23.19,0,0,1-.35,2.4A38.61,38.61,0,0,1,24.91,66c-.17.54-.32,1-.43,1.27l-.12.34c0,.08,0,.12-.05.12l0-.12.11-.35L24.84,66c.33-1.08.79-2.57,1.14-4.26.17-.84.28-1.65.36-2.4a4.21,4.21,0,0,1,.56-1.9,1.85,1.85,0,0,1,1.06-.8,1.08,1.08,0,0,1,.36,0Z"/><path class="cls-11" d="M21.27,67.2h3.78s-2.29,18.22-15,18.16l.16-3.56S18.87,81.27,21.27,67.2Z"/><path class="cls-11" d="M6.93,79.62h0a.78.78,0,0,1,.78.78v3a0,0,0,0,1,0,0H6.15a0,0,0,0,1,0,0v-3A.78.78,0,0,1,6.93,79.62Z" transform="translate(-74.71 87.02) rotate(-88.99)"/><g class="cls-13"><path d="M6.93,79.62h0a.78.78,0,0,1,.78.78v3a0,0,0,0,1,0,0H6.15a0,0,0,0,1,0,0v-3A.78.78,0,0,1,6.93,79.62Z" transform="translate(-74.71 87.02) rotate(-88.99)"/></g><path class="cls-11" d="M6.88,82.45h0a1.17,1.17,0,0,1,1.17,1.17v2.64a0,0,0,0,1,0,0H5.71a0,0,0,0,1,0,0V83.62A1.17,1.17,0,0,1,6.88,82.45Z" transform="translate(-77.58 89.75) rotate(-88.99)"/><rect class="cls-11" x="6.07" y="82.01" width="3.98" height="1.5" transform="translate(-74.83 89.36) rotate(-88.99)"/><rect class="cls-10" x="8.16" y="80.53" width="2.43" height="5.41" transform="translate(-1.02 0.12) rotate(-0.7)"/><path class="cls-9" d="M10.6,85.36a5.45,5.45,0,0,1-1.2.08,6.81,6.81,0,0,1-1.19,0,7.38,7.38,0,0,1,1.19-.06h1.2Z"/><path class="cls-9" d="M10.59,84.38a4.31,4.31,0,0,1-1.2.08,5.81,5.81,0,0,1-1.19,0,8.22,8.22,0,0,1,1.19,0h1.2Z"/><path class="cls-9" d="M10.61,83.4a4.63,4.63,0,0,1-1.19.08,7,7,0,0,1-1.2,0,7,7,0,0,1,1.2-.05h1.19Z"/><path class="cls-9" d="M10.56,82.44a5.24,5.24,0,0,1-1.19.08,7,7,0,0,1-1.2,0,7.57,7.57,0,0,1,1.2-.06h1.19Z"/><path class="cls-9" d="M10.6,81.51a4.31,4.31,0,0,1-1.2.08,7.52,7.52,0,0,1-1.19,0,7.38,7.38,0,0,1,1.19-.06h1.2Z"/><path class="cls-10" d="M11.93,85.18a.31.31,0,0,1,0,.09v.12l0-.11a15.62,15.62,0,0,1-.37-1.79c-.09-.53-.15-1-.18-1.35a2.29,2.29,0,0,1,0-.57s0,.22.09.56.12.82.21,1.34c.13.85.27,1.56.3,1.8h0C11.91,85.21,11.92,85.18,11.93,85.18Z"/><path class="cls-10" d="M13.72,84.83S13.41,84,13.09,83a17.07,17.07,0,0,1-.53-1.87A17.67,17.67,0,0,1,13.19,83,17.07,17.07,0,0,1,13.72,84.83Z"/><path class="cls-10" d="M15.84,83.93s-.44-.78-.93-1.77-.86-1.8-.84-1.81A17.64,17.64,0,0,1,15,82.12,18.57,18.57,0,0,1,15.84,83.93Z"/><path class="cls-10" d="M17.73,82.53A17.73,17.73,0,0,1,16.52,81c-.65-.87-1.15-1.59-1.13-1.6a15.13,15.13,0,0,1,1.21,1.54C17.24,81.79,17.75,82.51,17.73,82.53Z"/><path class="cls-10" d="M19.37,81A18.8,18.8,0,0,1,18,79.63c-.75-.76-1.35-1.39-1.33-1.41A18.8,18.8,0,0,1,18,79.56C18.79,80.32,19.39,81,19.37,81Z"/><path class="cls-10" d="M20.72,79.1a3.51,3.51,0,0,1-.49-.26l-1.15-.68-1.16-.67a4.5,4.5,0,0,1-.47-.3,3.68,3.68,0,0,1,.51.23l1.17.65,1.14.7A2.52,2.52,0,0,1,20.72,79.1Z"/><path class="cls-10" d="M21.64,77.2a2.11,2.11,0,0,1-.48-.21L20,76.45l-1.14-.51a3,3,0,0,1-.47-.22,2.54,2.54,0,0,1,.49.15c.3.12.71.28,1.16.49s.84.41,1.12.57A2.61,2.61,0,0,1,21.64,77.2Z"/><path class="cls-10" d="M22.73,75.37a3.19,3.19,0,0,1-.54-.09c-.33-.07-.79-.18-1.28-.33s-.94-.29-1.26-.41a4,4,0,0,1-.51-.21,2.17,2.17,0,0,1,.53.14l1.27.38c.49.15.94.27,1.27.36A3.75,3.75,0,0,1,22.73,75.37Z"/><path class="cls-10" d="M23.32,73.52a14.78,14.78,0,0,1-1.81-.18,13.82,13.82,0,0,1-1.79-.28s.81.06,1.8.18A16.72,16.72,0,0,1,23.32,73.52Z"/><path class="cls-10" d="M23.94,71.72a4.18,4.18,0,0,1-.53,0l-1.26-.11-1.26-.14a3,3,0,0,1-.52-.09,2.67,2.67,0,0,1,.53,0l1.26.11,1.26.14A2.13,2.13,0,0,1,23.94,71.72Z"/><path class="cls-10" d="M24.42,70s-.85.07-1.89.11a16.27,16.27,0,0,1-1.88,0s.84-.07,1.88-.11A16.48,16.48,0,0,1,24.42,70Z"/><path class="cls-10" d="M24.61,68.54a3.49,3.49,0,0,1-.51.08c-.32,0-.77.06-1.26.06s-.93,0-1.25-.05a1.9,1.9,0,0,1-.52-.08h.52l1.25,0c.49,0,.93,0,1.25,0A2.37,2.37,0,0,1,24.61,68.54Z"/><path class="cls-12" d="M21.44,67.74v.19c0,.13,0,.32,0,.56a14.3,14.3,0,0,1-.24,2,16.18,16.18,0,0,1-.85,2.9,16,16,0,0,1-1.79,3.26A15.79,15.79,0,0,1,16,79.4a15.17,15.17,0,0,1-2.49,1.72,13.88,13.88,0,0,1-1.85.87l-.52.19-.14,0h0l0,0,.13,0c.12,0,.3-.11.52-.21a16.87,16.87,0,0,0,1.83-.89A15.72,15.72,0,0,0,16,79.32a15.2,15.2,0,0,0,2.5-2.7,15.77,15.77,0,0,0,1.78-3.23,15.84,15.84,0,0,0,.87-2.89,16.75,16.75,0,0,0,.27-2c0-.24,0-.42,0-.55v-.14S21.43,67.74,21.44,67.74Z"/><path class="cls-11" d="M39,46.5S36.88,43.67,32,44.09c0,0,4.93-3.79,2-7.68,0,0,6.23,1.84,6.3-5.95,0,0,1.13,7.22,7,5.17,0,0,.42,5.74,4.48,4.67-2,1.94-3.88,3.65-3.49,6.12"/><g class="cls-14"><path class="cls-12" d="M39,46.5S36.88,43.67,32,44.09c0,0,4.93-3.79,2-7.68,0,0,6.23,1.84,6.3-5.95,0,0,1.13,7.22,7,5.17,0,0,.42,5.74,4.48,4.67-2,1.94-3.88,3.65-3.49,6.12"/></g><path class="cls-11" d="M39,46.5s0-3.3-3.94-3c0,0,3.62-2.09,1.29-5.22,0,0,5,1.48,5.06-4.77,0,0,.91,5.8,5.63,4.15,0,0-.56,4.2,2.7,3.35a5.88,5.88,0,0,0-1.91,5.31"/><g class="cls-15"><path class="cls-12" d="M39,46.5s0-3.3-3.94-3c0,0,3.62-2.09,1.29-5.22,0,0,5,1.48,5.06-4.77,0,0,.91,5.8,5.63,4.15,0,0-.56,4.2,2.7,3.35a5.88,5.88,0,0,0-1.91,5.31"/></g><path class="cls-11" d="M45.36,24.59s0,0,0,.12l-.16.34c-.06.15-.15.33-.23.55s-.2.46-.3.73-.22.57-.33.9-.22.67-.33,1c-.21.75-.42,1.57-.58,2.45s-.25,1.72-.31,2.49c0,.39,0,.75,0,1.1s0,.66,0,.95,0,.56,0,.79,0,.43,0,.6l0,.37c0,.09,0,.13,0,.13a1.11,1.11,0,0,1,0-.13l0-.37c0-.16,0-.36,0-.6s0-.49,0-.79,0-.61,0-1,0-.71.05-1.1a24.51,24.51,0,0,1,.3-2.5,23.22,23.22,0,0,1,.59-2.45c.12-.37.22-.73.34-1.05s.23-.62.34-.9.22-.51.31-.72.18-.4.26-.54l.17-.34C45.34,24.62,45.36,24.58,45.36,24.59Z"/><path class="cls-11" d="M31.39,23.24a7.53,7.53,0,0,0-1.18-.87,5.91,5.91,0,0,0-1.38-.49.94.94,0,0,1,.44,0,3.75,3.75,0,0,1,1.84,1A2.59,2.59,0,0,1,31.39,23.24Z"/><path class="cls-11" d="M32.89,31.75s0,0,.08.07l.21.24c.19.2.45.5.77.89s.67.85,1,1.39.77,1.14,1.15,1.79.71,1.3,1,1.89.5,1.14.68,1.6.31.84.39,1.11l.1.3c0,.07,0,.11,0,.11a.39.39,0,0,1,0-.1l-.12-.3c-.09-.26-.23-.63-.42-1.09s-.42-1-.7-1.59-.61-1.22-1-1.88-.77-1.25-1.13-1.79-.72-1-1-1.4-.56-.7-.74-.91l-.2-.24C32.91,31.78,32.88,31.75,32.89,31.75Z"/><path class="cls-11" d="M46.31,32.74s0,0,0,.09l-.13.25a3.43,3.43,0,0,0-.2.39c-.08.15-.17.32-.26.52a13.28,13.28,0,0,0-.58,1.4,16.34,16.34,0,0,0-.52,1.77A17.61,17.61,0,0,0,44.29,39a14.5,14.5,0,0,0-.08,1.52c0,.21,0,.41,0,.58s0,.32,0,.44v.27c0,.07,0,.1,0,.1a.66.66,0,0,1,0-.09l0-.28c0-.12,0-.27,0-.44s0-.37,0-.58a14,14,0,0,1,0-1.53,17.36,17.36,0,0,1,.29-1.84A17.4,17.4,0,0,1,45,35.35a15.13,15.13,0,0,1,.6-1.39,4.89,4.89,0,0,1,.28-.52,3.9,3.9,0,0,1,.22-.38l.15-.24Z"/><path class="cls-11" d="M50.15,33.5s-.16.14-.42.37a7.21,7.21,0,0,0-.93,1A8.2,8.2,0,0,0,48.06,36a3.75,3.75,0,0,1-.26.49,2.28,2.28,0,0,1,.2-.53,6.46,6.46,0,0,1,.72-1.15,6.16,6.16,0,0,1,1-1A2.39,2.39,0,0,1,50.15,33.5Z"/><path class="cls-11" d="M33.84,38.48a2.44,2.44,0,0,1,.48.3,7.62,7.62,0,0,1,1,.91,7,7,0,0,1,.8,1.1,2,2,0,0,1,.25.51,4.76,4.76,0,0,1-.31-.47,9.08,9.08,0,0,0-.82-1.07,8.64,8.64,0,0,0-1-.92A4.2,4.2,0,0,1,33.84,38.48Z"/><path class="cls-11" d="M32.85,36.67s-.41-.2-1-.34-1-.13-1-.17a2.32,2.32,0,0,1,1,.08A2.17,2.17,0,0,1,32.85,36.67Z"/><path class="cls-16" d="M28.83,30.55a1.79,1.79,0,0,1,.13-.32L28.79,30l.37-.38.27.16a1.83,1.83,0,0,1,.32-.14l.07-.31h.53l.08.31a1.79,1.79,0,0,1,.32.13l.27-.18.38.38-.16.27a1.83,1.83,0,0,1,.14.32l.31.07v.53l-.31.08a1.79,1.79,0,0,1-.13.32l.17.27-.37.38L30.79,32a1.27,1.27,0,0,1-.32.13l-.07.32h-.53l-.08-.31a1.79,1.79,0,0,1-.32-.13l-.27.17-.38-.37.16-.27a1.83,1.83,0,0,1-.14-.32l-.31-.07v-.53l.31-.08Zm.71.3a.57.57,0,1,0,.56-.58A.57.57,0,0,0,29.54,30.85Z"/><path class="cls-17" d="M51.21,45a.92.92,0,0,1,.09-.23l-.13-.2.28-.29.2.13a.88.88,0,0,1,.24-.11l0-.23h.4l.05.23a.85.85,0,0,1,.24.09l.2-.13.29.27-.13.21a.67.67,0,0,1,.1.23l.24,0v.4l-.23.05a.85.85,0,0,1-.09.24l.13.2-.28.28-.2-.12a.87.87,0,0,1-.24.1l0,.23H52l0-.23a.85.85,0,0,1-.24-.09l-.2.13-.29-.28.13-.2a.64.64,0,0,1-.1-.24l-.24,0V45l.23-.06Zm.52.23a.42.42,0,1,0,.41-.43A.41.41,0,0,0,51.73,45.21Z"/><rect class="cls-3" x="46.25" y="28.75" width="2.04" height="0.92" transform="translate(0.6 59.37) rotate(-64.59)"/><path class="cls-10" d="M46.42,29.94l.24.09.6.27,0,0c.22-.48.53-1.13.87-1.85,0-.06,0,.08,0,.07h0l0,0-.06,0-.11,0-.21-.11-.4-.19.06,0c-.25.52-.47,1-.64,1.3l-.19.38-.08.14s0-.05,0-.13l.16-.39c.15-.33.36-.8.62-1.34l0,0,0,0,.4.19.22.1.1.06.06,0h0s0,.13,0,.07c-.34.71-.65,1.36-.89,1.83l0,0h0l-.61-.32Z"/><path class="cls-3" d="M48,27.51a.85.85,0,0,0-1.13.41l1.53.73A.85.85,0,0,0,48,27.51Z"/><path class="cls-10" d="M48,27.51l.1,0a.86.86,0,0,1,.21.17,1,1,0,0,1,.2.39.92.92,0,0,1-.06.56l0,0,0,0-.76-.36L46.89,28l0,0,0,0a.84.84,0,0,1,.39-.4.88.88,0,0,1,.42-.1,1.2,1.2,0,0,1,.28.06l.08.05a2.88,2.88,0,0,0-.36-.05.8.8,0,0,0-.39.11.82.82,0,0,0-.34.37l0-.07.77.37.76.36-.06,0a.82.82,0,0,0,.07-.5.74.74,0,0,0-.16-.37C48.17,27.58,48,27.53,48,27.51Z"/><path class="cls-3" d="M48.06,28a.53.53,0,0,0-.17-.55"/><path class="cls-10" d="M47.89,27.45s.16.06.21.24,0,.32,0,.31,0-.14-.05-.28S47.87,27.48,47.89,27.45Z"/><path class="cls-10" d="M47.12,28.36s.21.07.45.18a2.2,2.2,0,0,1,.43.21s-.22,0-.47-.12A1,1,0,0,1,47.12,28.36Z"/><path class="cls-10" d="M47,28.57a2,2,0,0,1,.45.19c.24.11.44.18.43.21a.9.9,0,0,1-.48-.12C47.18,28.74,47,28.59,47,28.57Z"/><path class="cls-10" d="M46.92,28.79s.2.08.44.18.45.19.44.22a1,1,0,0,1-.48-.12C47.07,29,46.9,28.81,46.92,28.79Z"/><path class="cls-10" d="M46.81,29a2,2,0,0,1,.45.19,2.17,2.17,0,0,1,.44.21.9.9,0,0,1-.48-.12C47,29.17,46.8,29,46.81,29Z"/><path class="cls-10" d="M46.71,29.22a2.25,2.25,0,0,1,.45.18c.24.11.44.19.43.22a1,1,0,0,1-.47-.12A1,1,0,0,1,46.71,29.22Z"/><path class="cls-10" d="M46.61,29.44s.21.07.45.18a2.2,2.2,0,0,1,.43.21.8.8,0,0,1-.48-.12C46.76,29.6,46.59,29.46,46.61,29.44Z"/><path class="cls-10" d="M46.51,29.65a2.27,2.27,0,0,1,.44.19,2.17,2.17,0,0,1,.44.21.9.9,0,0,1-.48-.12C46.66,29.82,46.49,29.67,46.51,29.65Z"/><rect class="cls-3" x="26.26" y="44.34" width="2.04" height="0.92" transform="translate(-16.07 15.27) rotate(-24.4)"/><path class="cls-10" d="M28.4,44.8a2.35,2.35,0,0,1-.13-.23L28,44H28c-.47.23-1.13.53-1.85.86,0,.06,0-.08,0-.07h0v.05l0,0,0,.11.09.21.19.41-.07,0L27.85,45l.39-.16.16-.06-.13.07-.37.18-1.34.63,0,0,0,0-.19-.41-.1-.21,0-.11,0,0v0h0s0-.12,0-.06L28,43.93l0,0v0a6.68,6.68,0,0,1,.26.63Z"/><path class="cls-3" d="M25.59,45.6a.84.84,0,0,0,1.13.42L26,44.48A.85.85,0,0,0,25.59,45.6Z"/><path class="cls-10" d="M25.59,45.6l-.05-.09a.81.81,0,0,1-.05-.27.88.88,0,0,1,.1-.42.94.94,0,0,1,.4-.39l.05,0,0,.05.35.77.35.78,0,0,0,0a.92.92,0,0,1-.56,0,.85.85,0,0,1-.38-.2,1,1,0,0,1-.18-.22l0-.1a1.42,1.42,0,0,0,.24.28.85.85,0,0,0,.37.16.81.81,0,0,0,.5-.06l0,.06-.35-.77L26,44.5l.06,0a.77.77,0,0,0-.37.34.88.88,0,0,0-.12.38A2.88,2.88,0,0,0,25.59,45.6Z"/><path class="cls-3" d="M25.89,45.22a.52.52,0,0,0-.22.52"/><path class="cls-10" d="M25.67,45.74s-.09-.14,0-.31.23-.24.24-.21-.08.11-.14.25S25.69,45.74,25.67,45.74Z"/><path class="cls-10" d="M26.84,45.55s-.11-.19-.23-.43a2,2,0,0,1-.19-.44s.17.15.29.4A1.06,1.06,0,0,1,26.84,45.55Z"/><path class="cls-10" d="M27.06,45.45s-.11-.19-.23-.43-.22-.42-.19-.44.17.15.28.4A1.06,1.06,0,0,1,27.06,45.45Z"/><path class="cls-10" d="M27.27,45.35s-.11-.19-.22-.43-.22-.42-.19-.44a1,1,0,0,1,.28.4C27.26,45.13,27.3,45.35,27.27,45.35Z"/><path class="cls-10" d="M27.49,45.26a2,2,0,0,1-.22-.43,2.34,2.34,0,0,1-.2-.45s.17.16.29.4A.86.86,0,0,1,27.49,45.26Z"/><path class="cls-10" d="M27.71,45.16a2,2,0,0,1-.22-.43,1.78,1.78,0,0,1-.2-.45,1.06,1.06,0,0,1,.29.4A1,1,0,0,1,27.71,45.16Z"/><path class="cls-10" d="M27.93,45.06s-.11-.19-.23-.43a2.27,2.27,0,0,1-.19-.44s.17.15.29.39A1.12,1.12,0,0,1,27.93,45.06Z"/><path class="cls-10" d="M28.14,45a2.59,2.59,0,0,1-.22-.43c-.11-.24-.22-.43-.19-.44s.17.15.28.4A.82.82,0,0,1,28.14,45Z"/><path class="cls-11" d="M32.06,21A16.92,16.92,0,0,1,35,24.79c.56,1.39.93,2.68.93,2.68a.7.7,0,0,1,1.3,0c.69,1.07,3.93,14,4.46,18.9h2.06s-1-8.16-1.42-9.07a3.88,3.88,0,0,0-.83-1.22,21.8,21.8,0,0,0-.92-4,2.58,2.58,0,0,0-.84-.76s-.68-3.74-1.67-4.5a1.71,1.71,0,0,0-1.75-.38A7.59,7.59,0,0,0,32.06,21Z"/><path class="cls-9" d="M51.42,38.3a11.83,11.83,0,0,0-1.37.46,10.43,10.43,0,0,0-1.25.73,1.35,1.35,0,0,1,.32-.29,4.84,4.84,0,0,1,.89-.53,4.46,4.46,0,0,1,1-.32A1,1,0,0,1,51.42,38.3Z"/><path class="cls-9" d="M51.34,37.89A12.42,12.42,0,0,0,50,38.5c-.73.4-1.23.87-1.25.84A1.57,1.57,0,0,1,49,39a5.21,5.21,0,0,1,.89-.61,5.49,5.49,0,0,1,1-.43A1.46,1.46,0,0,1,51.34,37.89Z"/><path class="cls-9" d="M50.94,38.88s-.43,0-.93.19-.88.36-.89.33A2.06,2.06,0,0,1,50,39,2.16,2.16,0,0,1,50.94,38.88Z"/><path class="cls-10" d="M46.39,46.34c-.35-2.73.55-5.94,2.74-7.47l.52.42s-2.72,1.62-2.52,7.08"/><path class="cls-9" d="M35.16,42.41a6.76,6.76,0,0,0-1,.46,7,7,0,0,0-.89.73,2.32,2.32,0,0,1,.84-.81A2.15,2.15,0,0,1,35.16,42.41Z"/><path class="cls-9" d="M35.11,42.16a9.77,9.77,0,0,1-1.07.41A9.08,9.08,0,0,1,33,43a5.22,5.22,0,0,1,1-.48A5.34,5.34,0,0,1,35.11,42.16Z"/><path class="cls-10" d="M41.13,47l-1-.25a2.17,2.17,0,0,0-.25-1.65,2.29,2.29,0,0,0-.46-.52,1.8,1.8,0,0,1-1,1.39,1.53,1.53,0,0,1-1.3-.08,1.39,1.39,0,0,1-.71-.92,1.53,1.53,0,0,1,.76-1.57,1.87,1.87,0,0,1,.71-.24l-.07-.06A2.61,2.61,0,0,0,34.88,43l-.55-.81a3.6,3.6,0,0,1,4.09.11,2.89,2.89,0,0,1,.84,1,3.18,3.18,0,0,1,1.49,1.24A3.12,3.12,0,0,1,41.13,47Zm-2.92-2.89a1,1,0,0,0-.53.13.56.56,0,0,0-.3.54.42.42,0,0,0,.21.25.58.58,0,0,0,.46,0,.88.88,0,0,0,.46-.89v0A1.43,1.43,0,0,0,38.21,44.13Z"/><path class="cls-11" d="M33.2,28.88l.26.14a7.88,7.88,0,0,1,.68.44,11.15,11.15,0,0,1,.94.73,14.39,14.39,0,0,1,1.05,1,12.51,12.51,0,0,1,.92,1.15c.26.37.47.72.64,1a7.22,7.22,0,0,1,.37.72l.11.27a1.5,1.5,0,0,1-.15-.26c-.09-.17-.22-.41-.39-.7s-.4-.63-.66-1-.57-.74-.91-1.13a12.35,12.35,0,0,0-1-1,11.79,11.79,0,0,0-.93-.75c-.27-.21-.49-.36-.65-.47S33.19,28.89,33.2,28.88Z"/><path class="cls-10" d="M30.06,50.64h0a0,0,0,0,1,0,0v9.87a0,0,0,0,1,0,0h0a1.92,1.92,0,0,1-1.92-1.92v-6A1.92,1.92,0,0,1,30.06,50.64Z"/><path class="cls-10" d="M58.3,50.64h0a1.92,1.92,0,0,1,1.92,1.92v6a1.92,1.92,0,0,1-1.92,1.92h0a0,0,0,0,1,0,0V50.64A0,0,0,0,1,58.3,50.64Z"/><rect class="cls-11" x="29.55" y="48.72" width="29.18" height="21.48" rx="10.74"/><path class="cls-12" d="M47.85,51a6.68,6.68,0,0,0-6.68,6.69H54.54A6.68,6.68,0,0,0,47.85,51Z"/><path class="cls-3" d="M53.24,57.36H54a2,2,0,0,1,.3,0,1.11,1.11,0,0,1-.3,0H52.52Z"/><path class="cls-3" d="M52.77,55.34a4.26,4.26,0,0,1,.95-.38,4.45,4.45,0,0,1-.91.47,6.42,6.42,0,0,1-.94.38A8.86,8.86,0,0,1,52.77,55.34Z"/><path class="cls-3" d="M51.52,53.69a3.71,3.71,0,0,1,.72-.72,5.3,5.3,0,0,1-.65.79,9,9,0,0,1-.71.72A5.61,5.61,0,0,1,51.52,53.69Z"/><path class="cls-3" d="M49.73,52.63a4.28,4.28,0,0,1,.4-.93,4.72,4.72,0,0,1-.31,1,6.44,6.44,0,0,1-.4.93A7.38,7.38,0,0,1,49.73,52.63Z"/><path class="cls-3" d="M47.68,52.28a4.92,4.92,0,0,1,0-1,4.2,4.2,0,0,1,.05,1,7.58,7.58,0,0,1-.05,1A7.58,7.58,0,0,1,47.68,52.28Z"/><path class="cls-3" d="M45.64,52.67a4.72,4.72,0,0,1-.31-1,4.28,4.28,0,0,1,.4.93,7.38,7.38,0,0,1,.31,1A6.44,6.44,0,0,1,45.64,52.67Z"/><path class="cls-3" d="M43.87,53.76a5.3,5.3,0,0,1-.65-.79,3.71,3.71,0,0,1,.72.72,5.61,5.61,0,0,1,.64.79A9,9,0,0,1,43.87,53.76Z"/><path class="cls-3" d="M42.65,55.43a4.45,4.45,0,0,1-.91-.47,4.26,4.26,0,0,1,.95.38,8.86,8.86,0,0,1,.9.47A6.42,6.42,0,0,1,42.65,55.43Z"/><path class="cls-3" d="M42.22,57.41H41.5a1.11,1.11,0,0,1-.3,0,2,2,0,0,1,.3,0h.72l.72,0h-.72Z"/><path class="cls-12" d="M36.7,52.17a.89.89,0,1,1-.88-.89A.88.88,0,0,1,36.7,52.17Z"/><path class="cls-9" d="M36.7,54.85a.89.89,0,1,1-.88-.89A.88.88,0,0,1,36.7,54.85Z"/><path class="cls-10" d="M53.53,68.35a1.15,1.15,0,0,1,0-.17V65.87c0-1.59,0-3.88,0-6.7l0,0H35.33l.05,0c0,3.24,0,6.34,0,9.18l0,0,13.07,0,3.77,0H48.43l-13.1,0h0V59.12H53.56v0c0,2.83,0,5.13,0,6.72v2.46Z"/><path class="cls-10" d="M32.56,70.16H55.72a0,0,0,0,1,0,0v0a1.33,1.33,0,0,1-1.33,1.33H33.9a1.33,1.33,0,0,1-1.33-1.33v0a0,0,0,0,1,0,0Z"/><g class="cls-13"><path d="M51.58,60.46A.54.54,0,0,0,52,61a.61.61,0,0,0,.66-.24.69.69,0,0,0,0-.72.73.73,0,0,1-.15.46.5.5,0,0,1-.44.17.39.39,0,0,1-.34-.32"/></g><path class="cls-3" d="M52.62,60.24a.54.54,0,0,1-.54.54.54.54,0,0,1,0-1.08A.54.54,0,0,1,52.62,60.24Z"/><path class="cls-10" d="M52.62,60.24s0-.05,0-.12a.59.59,0,0,0-.2-.28.51.51,0,0,0-.47-.06.5.5,0,0,0-.33.46.5.5,0,0,0,.8.4.53.53,0,0,0,.2-.27c0-.08,0-.13,0-.13s0,0,0,.14a.55.55,0,0,1-.2.32.57.57,0,0,1-.55.09.58.58,0,0,1-.39-.55.59.59,0,0,1,.39-.55.57.57,0,0,1,.75.42C52.64,60.19,52.63,60.24,52.62,60.24Z"/><path class="cls-10" d="M52.33,60s-.12.1-.23.22-.19.25-.21.24,0-.17.13-.31S52.33,60,52.33,60Z"/><path class="cls-10" d="M52.33,60.41s-.11-.08-.24-.17-.26-.14-.26-.17a.36.36,0,0,1,.31.09C52.29,60.26,52.36,60.4,52.33,60.41Z"/><g class="cls-13"><path d="M51.83,67.14a.55.55,0,0,0,.38.58.62.62,0,0,0,.66-.24.69.69,0,0,0,0-.72.64.64,0,0,1-.15.46.5.5,0,0,1-.44.17.39.39,0,0,1-.33-.32"/></g><circle class="cls-3" cx="52.34" cy="66.92" r="0.54"/><path class="cls-10" d="M52.88,66.92s0,0,0-.13a.52.52,0,0,0-.67-.33.49.49,0,1,0,.47.86.51.51,0,0,0,.2-.27c0-.08,0-.13,0-.13a.5.5,0,0,1,0,.14.61.61,0,0,1-.2.32.55.55,0,0,1-.54.09.58.58,0,0,1,0-1.1.55.55,0,0,1,.54.09.61.61,0,0,1,.2.32A.5.5,0,0,1,52.88,66.92Z"/><path class="cls-10" d="M52.59,66.69s-.12.09-.24.22-.18.25-.21.24,0-.17.14-.31S52.58,66.66,52.59,66.69Z"/><path class="cls-10" d="M52.59,67.09s-.12-.08-.25-.17-.26-.14-.25-.17.15,0,.31.08S52.61,67.08,52.59,67.09Z"/><g class="cls-13"><path d="M36.13,60.45a.55.55,0,0,0,.38.58.59.59,0,0,0,.66-.24.69.69,0,0,0,0-.72.63.63,0,0,1-.15.46.51.51,0,0,1-.44.18.4.4,0,0,1-.33-.33"/></g><circle class="cls-3" cx="36.64" cy="60.23" r="0.54"/><path class="cls-10" d="M37.18,60.23s0,0,0-.12a.53.53,0,0,0-.2-.28.5.5,0,1,0,0,.8.48.48,0,0,0,.2-.27c0-.08,0-.13,0-.13a.5.5,0,0,1,0,.14.61.61,0,1,1,0-.27A.41.41,0,0,1,37.18,60.23Z"/><path class="cls-10" d="M36.89,60s-.12.1-.24.22-.18.25-.21.25,0-.18.14-.32A.39.39,0,0,1,36.89,60Z"/><path class="cls-10" d="M36.89,60.4s-.12-.08-.25-.17-.26-.14-.25-.16.16,0,.31.08S36.91,60.39,36.89,60.4Z"/><g class="cls-13"><path d="M36,67.07a.54.54,0,0,0,.38.58.59.59,0,0,0,.66-.24.69.69,0,0,0,0-.72.73.73,0,0,1-.15.46.51.51,0,0,1-.44.18.42.42,0,0,1-.34-.33"/></g><circle class="cls-3" cx="36.52" cy="66.85" r="0.54"/><path class="cls-10" d="M37.06,66.85s0,0,0-.12a.59.59,0,0,0-.2-.28.53.53,0,0,0-.48-.06.5.5,0,0,0,0,.93A.54.54,0,0,0,37,67c0-.08,0-.13,0-.13s0,.05,0,.14a.48.48,0,0,1-.19.32.57.57,0,0,1-.55.1.59.59,0,0,1,0-1.11.57.57,0,0,1,.55.1.48.48,0,0,1,.19.32C37.08,66.81,37.07,66.85,37.06,66.85Z"/><path class="cls-10" d="M36.77,66.62s-.12.1-.23.22-.19.25-.21.25,0-.18.13-.32S36.77,66.6,36.77,66.62Z"/><path class="cls-10" d="M36.77,67s-.11-.08-.25-.17a2.28,2.28,0,0,1-.25-.16s.16,0,.31.08S36.8,67,36.77,67Z"/><g class="cls-13"><path d="M35.33,68.4a27.31,27.31,0,0,0,6.86.36,4.84,4.84,0,0,1,3.18.54c.19.15.42.34.65.25s.34-.72.69-.73c.17,0,.31.16.37.32a2.32,2.32,0,0,0,.16.51c.09.15.3.25.44.14s0-.53,0-.8.48-.3.75-.19a1.68,1.68,0,0,0,.82.26,1.54,1.54,0,0,0,.55-.29,3.48,3.48,0,0,1,1.75-.34c.64,0,1.29-.07,1.93-.08Z"/></g><path class="cls-10" d="M49.88,61.51l-.1,0-.28.1a3.91,3.91,0,0,0-1,.54c-.38.26-.8.63-1.33,1a3.3,3.3,0,0,1-.9.38,5.2,5.2,0,0,1-1.05.08,3.85,3.85,0,0,0-1.87.58c-.55.29-1,.55-1.42.81a5,5,0,0,0-.85.7c-.18.18-.26.3-.27.29l0-.09.19-.23a4.79,4.79,0,0,1,.84-.73,15.93,15.93,0,0,1,1.41-.84,9.17,9.17,0,0,1,.89-.41,2.9,2.9,0,0,1,1-.18,5.66,5.66,0,0,0,1-.08,2.8,2.8,0,0,0,.87-.36c.53-.31,1-.67,1.34-.93a4,4,0,0,1,1-.52,1.35,1.35,0,0,1,.3-.08Z"/><path class="cls-10" d="M45.25,63.05a2.84,2.84,0,0,1-.57-.08,8.41,8.41,0,0,1-1.32-.42,9,9,0,0,1-1.24-.61,3.48,3.48,0,0,1-.47-.33s.2.1.51.26a11.42,11.42,0,0,0,1.24.59c.5.2,1,.34,1.3.44Z"/><path class="cls-11" d="M48.19,56.68c.15-.08,4.54-1.49,4.54-1.49l-4.2,2.35Z"/><path class="cls-10" d="M47.73,56.2a1.49,1.49,0,0,0-1.48,1.49h3A1.49,1.49,0,0,0,47.73,56.2Z"/><path class="cls-10" d="M32.81,70.16s-.06-4.77-.06-10.65,0-10.66.06-10.66,0,4.77,0,10.66S32.83,70.16,32.81,70.16Z"/><path class="cls-10" d="M56,70.16S56,65.39,56,59.51s0-10.66.05-10.66,0,4.77,0,10.66S56.05,70.16,56,70.16Z"/><circle class="cls-10" cx="31.83" cy="51.51" r="0.23"/><circle class="cls-10" cx="31.83" cy="55.79" r="0.23"/><circle class="cls-10" cx="31.83" cy="60.06" r="0.23"/><circle class="cls-10" cx="31.83" cy="64.34" r="0.23"/><circle class="cls-10" cx="31.83" cy="68.61" r="0.23"/><circle class="cls-10" cx="57.21" cy="51.51" r="0.23"/><circle class="cls-10" cx="57.21" cy="55.79" r="0.23"/><circle class="cls-10" cx="57.21" cy="60.06" r="0.23"/><circle class="cls-10" cx="57.21" cy="64.34" r="0.23"/><circle class="cls-10" cx="57.21" cy="68.61" r="0.23"/><rect class="cls-9" x="38.46" y="46.37" width="9.98" height="2.35"/><path class="cls-10" d="M39.18,48.72a6.27,6.27,0,0,1,0-1.14,6.2,6.2,0,0,1,0-1.13,6.2,6.2,0,0,1,0,1.13A6.27,6.27,0,0,1,39.18,48.72Z"/><path class="cls-10" d="M40.21,48.72a5.73,5.73,0,0,1-.06-1.14,5.67,5.67,0,0,1,.06-1.13,7.5,7.5,0,0,1,0,1.13A7.58,7.58,0,0,1,40.21,48.72Z"/><path class="cls-10" d="M41.23,48.72a6.27,6.27,0,0,1,0-1.14,6.2,6.2,0,0,1,0-1.13,6.2,6.2,0,0,1,.05,1.13A6.27,6.27,0,0,1,41.23,48.72Z"/><path class="cls-10" d="M42.26,48.72a5.73,5.73,0,0,1-.06-1.14,5.67,5.67,0,0,1,.06-1.13,7.5,7.5,0,0,1,.05,1.13A7.58,7.58,0,0,1,42.26,48.72Z"/><path class="cls-10" d="M43.28,48.72a6.27,6.27,0,0,1-.05-1.14,6.2,6.2,0,0,1,.05-1.13,6.2,6.2,0,0,1,0,1.13A6.27,6.27,0,0,1,43.28,48.72Z"/><path class="cls-10" d="M44.3,48.72a7.58,7.58,0,0,1,0-1.14,7.5,7.5,0,0,1,0-1.13,5.67,5.67,0,0,1,.06,1.13A5.73,5.73,0,0,1,44.3,48.72Z"/><path class="cls-10" d="M45.33,48.72a6.27,6.27,0,0,1,0-1.14,6.2,6.2,0,0,1,0-1.13,6.2,6.2,0,0,1,.05,1.13A6.27,6.27,0,0,1,45.33,48.72Z"/><path class="cls-10" d="M46.35,48.72a7.58,7.58,0,0,1-.05-1.14,7.5,7.5,0,0,1,.05-1.13,6.2,6.2,0,0,1,0,1.13A6.27,6.27,0,0,1,46.35,48.72Z"/><path class="cls-10" d="M47.38,48.72a6.27,6.27,0,0,1-.05-1.14,6.2,6.2,0,0,1,.05-1.13,6.2,6.2,0,0,1,0,1.13A6.27,6.27,0,0,1,47.38,48.72Z"/><g class="cls-13"><path d="M60.21,53.82c.25,1.22.47,2.37.71,3.59a5.25,5.25,0,0,1-.71,0c0-1.17,0-2.42,0-3.59"/></g><path class="cls-12" d="M30.23,51s0,3.65-.07,8.15S30,67.3,30,67.3s0-3.65.07-8.15S30.2,51,30.23,51Z"/><path class="cls-12" d="M34.47,67.8s0-1.81,0-4,0-4.06,0-4.06.05,1.82.05,4.06S34.5,67.8,34.47,67.8Z"/><path class="cls-12" d="M53.66,49.38s-4.48,0-10,0-10,0-10,0,4.47-.06,10-.06S53.66,49.35,53.66,49.38Z"/><path class="cls-10" d="M83.05,86S64.46,86,41.53,86,0,86,0,86s18.59,0,41.53,0S83.05,86,83.05,86Z"/></g></g></svg>