<svg xmlns="http://www.w3.org/2000/svg" viewBox="0 0 224.2 122.76"><defs><style>.cls-1{fill:#5c5262;}.cls-2{fill:#1d1d1b;}.cls-3{fill:#3e3742;}.cls-4{fill:#fff;}.cls-5{fill:#c7dbf3;}.cls-6{fill:#353535;}</style></defs><title>Asset 1panda</title><g id="Layer_2" data-name="Layer 2"><g id="Layer_1-2" data-name="Layer 1"><path class="cls-1" d="M169.77,82.19s14.07-16.65,14.16-16.84,8.52-15.94,8.8-16.37,5.78-6.25,6.25-6.25S206.13,44,206.13,44l6,9S214,62.39,214,63s-2.83,26.86-2.83,26.86l-6.53,15.43s-55.65,1.08-54.57,0S169.77,82.19,169.77,82.19Z"/><path class="cls-2" d="M213.8,81.39a91.23,91.23,0,0,1-6.54,21.83c-.47,1.08-.94,2.12-1.46,3.25h-2.44c.52-1.09,1-2.17,1.5-3.25a90.81,90.81,0,0,0,6.73-22.16c2.87-17.63-1-29.86-2.12-31.93-1.22-2.31-4.42-5.65-8.18-5.51-3.43.1-6.68,3.3-9.31,9.13-7.25,16.08-25.59,35.61-26.39,36.41l-1.65-1.56c.19-.19,18.91-20,26-35.79C193,45,196.73,41.51,201.2,41.32s8.46,3.38,10.25,6.72C212.77,50.4,216.86,63,213.8,81.39Z"/><path class="cls-3" d="M191,59.85c-.57,1.51-.1,3,1,3.43s2.44-.47,3-2,.09-3-1-3.44S191.55,58.35,191,59.85Z"/><path class="cls-3" d="M197.43,56.23c-.56,1.5-.09,3,1,3.43s2.45-.47,3-2,.09-3-1-3.44S198,54.77,197.43,56.23Z"/><path class="cls-3" d="M204.44,58.25c-.56,1.51-.09,3,1,3.44s2.44-.48,3-1.93.09-3-1-3.44S205,56.75,204.44,58.25Z"/><path class="cls-3" d="M206.65,66c-.56,1.51-.09,3,1,3.44s2.45-.47,3-1.93.09-3-1-3.44S207.22,64.51,206.65,66Z"/><path class="cls-3" d="M190.14,69.26a2.1,2.1,0,0,1,.57-1.84c1-1.22,3.71-3.76,7.1-3,5.83,1.27,7.81,3.44,7.76,8.38s-5.5-.8-8.33-1.37C194.8,71,190.61,71.61,190.14,69.26Z"/><path class="cls-1" d="M63.3,1.05C53,.91,47.44,8.3,45.89,10.74c-3,4.71-3.57,13.17-2.4,18.68,1.6,7.62,7,15.24,12.33,17.45L86.11,15.78c-1.5-2-10.21-13.13-20-14.54C65.13,1.15,64.19,1.1,63.3,1.05Z"/><path class="cls-3" d="M58.78,1.52c.1.14,19.62,3.72,19,22.82l8.28-8.52c-1.5-2-10.2-13.12-20-14.53A20,20,0,0,0,58.78,1.52Z"/><path class="cls-3" d="M63.2,15.45h0a11.67,11.67,0,0,0-6.92.14,12.76,12.76,0,0,1,2-.05h.51l1.74.09-1.55.76a10.43,10.43,0,0,0-2.58,1.78,12,12,0,0,0-3.53,9c0,5.31,4.23,9.74,6.72,12l1,.84L73.74,24.1c-.24-.37-.47-.8-.75-1.17A17.28,17.28,0,0,0,63.2,15.45Z"/><path class="cls-2" d="M73.22,22.5A17.84,17.84,0,0,0,63.2,15a13.18,13.18,0,0,0-10.35,1.55,18.43,18.43,0,0,1,5.61-.66,10.48,10.48,0,0,0-2.6,1.79,12.5,12.5,0,0,0-3.66,9.26c0,5.51,4.32,10,6.86,12.23a17.05,17.05,0,0,0,1.32,1.09c.28-.47.61-1,.89-1.46L60,37.7c-2.31-2-6-6.07-6-10.73a10.8,10.8,0,0,1,3.1-8,7.44,7.44,0,0,1,5.66-2.2c3.5.46,6.62,2.95,9.2,6.9a14.26,14.26,0,0,1,.9,1.46l0-.05c.42-.37.84-.75,1.27-1.08C73.83,23.44,73.5,23,73.22,22.5Z"/><path class="cls-2" d="M45.47,10.51c-3.06,4.8-3.67,13.4-2.49,19,1.64,7.9,7.29,15.71,12.84,17.83l.61-1.6c-4.33-1.65-10.07-8.47-11.76-16.61-1.13-5.26-.56-13.31,2.26-17.73C48.53,8.91,54.59.91,65.88,2.51c9.93,1.41,19.24,14.16,19.34,14.3l1.36-1c-.38-.56-9.83-13.45-20.46-15C53.84-.92,47.21,7.78,45.47,10.51Z"/><path class="cls-1" d="M159.77,2.51c-.89,0-1.83.05-2.82.14-9.78,1.08-18.86,12-20.41,13.93l29.35,32c5.41-2.07,11-9.45,12.79-17.07,1.32-5.46,1-14-1.88-18.77C175.39,10.23,170,2.65,159.77,2.51Z"/><path class="cls-3" d="M166.36,19.68a9.89,9.89,0,0,0-2.54-1.83l-1.55-.8h2.25a12.3,12.3,0,0,1,2,.14,11.91,11.91,0,0,0-6.92-.33h0a17.7,17.7,0,0,0-10,7.05c-.28.38-.51.76-.79,1.13l12.74,16.23c.28-.23.61-.47,1-.8,2.54-2.12,6.87-6.4,7.06-11.71A12,12,0,0,0,166.36,19.68Z"/><path class="cls-3" d="M157.56,2.65c-9.78,1.08-18.86,12-20.41,13.93l8,8.74c-.05-19.09,19.57-22.06,19.66-22.2A19.85,19.85,0,0,0,157.56,2.65Z"/><path class="cls-2" d="M167.2,19.35a10.06,10.06,0,0,0-2.63-1.93h0a19.18,19.18,0,0,1,5.74.8A13.64,13.64,0,0,0,160,16.39a17.86,17.86,0,0,0-10.26,7.24c-.33.47-.66.94-.94,1.41l1.27,1.13,0,0a14.56,14.56,0,0,1,.94-1.46,17.53,17.53,0,0,1,5.9-5.39,7.6,7.6,0,0,1,9,1.15l0,.05a10.78,10.78,0,0,1,2.87,8.14c-.19,4.66-4,8.56-6.4,10.58a17,17,0,0,1-1.36,1.09c.28.51.56,1,.85,1.5.33-.23.8-.61,1.36-1,2.59-2.17,7-6.54,7.24-12A12.18,12.18,0,0,0,167.2,19.35Z"/><path class="cls-2" d="M157.51,2.18C146.84,3.4,137,16,136.58,16.53l1.37,1C138,17.42,147.73,5,157.7,3.88c11.34-1.27,17.17,6.91,18.68,9.45,2.68,4.52,3,12.56,1.74,17.78-2,8.09-7.91,14.72-12.23,16.28l.56,1.59c5.6-2,11.43-9.64,13.36-17.45,1.36-5.55,1-14.2-1.93-19C176.14,9.71,169.84.82,157.51,2.18Z"/><path class="cls-4" d="M166.92,106.09c-.09.09-.19.23-.28.33s-.14.14-.19.23c.05-.09.14-.14.19-.23h-.33l-.23.14s.09-.09.09-.14H54.22c-.24-.28-.42-.52-.66-.8s-.56-.71-.8-1.08l0-.05h0c-6.39-8.66-9.4-18.82-6.11-29.07,1-2,2.12-6.68,2.91-10.25a91,91,0,0,1,5.88-18,1.69,1.69,0,0,1,.19-.38c.19-.38.38-.8.57-1.17a66.42,66.42,0,0,1,3.29-6.12l.23-.38a9.48,9.48,0,0,0,.66-1.08,60.53,60.53,0,0,1,12-13.83c.33-.28.66-.56,1-.84a.75.75,0,0,1,.33-.24c1.27-1,2.63-2,4-3a56.78,56.78,0,0,1,7.06-4.09c.38-.19.8-.38,1.22-.57a1.35,1.35,0,0,0,.38-.19,66.42,66.42,0,0,1,16.23-5c.14,0,.33,0,.47-.1.09-.23.23-.52.37-.8C105,6,108,1.29,113.53.86c6.31-.14,5.6,5,3.81,9.18l.76.14h.14c.14.05.28.05.42.09,1.27.24,2.63.57,4,.94a85.2,85.2,0,0,1,14,5.27l.8.38c.24.14.52.23.76.37a57.68,57.68,0,0,1,7.24,4.38,39.46,39.46,0,0,1,3.29,2.63,2.06,2.06,0,0,1,.33.33h0c.42.38.85.8,1.27,1.18a65.54,65.54,0,0,1,11.15,14.3c.14.28.33.56.47.84s.24.43.38.66c1.17,2.12,2.25,4.33,3.24,6.59a86.32,86.32,0,0,1,5.65,18.77c.65,3.57,1.64,8.28,2.58,10.34C176.8,87.7,173.51,97.72,166.92,106.09Z"/><path class="cls-5" d="M55.21,105.9c.28.19.61.33.94.52H54.31c-.23-.28-.47-.52-.66-.8s-.56-.71-.8-1.08l0-.05h0Q53.94,105.2,55.21,105.9Z"/><path class="cls-5" d="M166.92,106.09c-.09.09-.19.23-.28.33h-.33C166.55,106.32,166.73,106.18,166.92,106.09Z"/><path class="cls-5" d="M121.81,10.7,118,10.13l-1.74,2.31,2.12,1.17s.94,4.89-5.32,6.16c-.19.05,10.54-1.27,11-4.61A4.07,4.07,0,0,0,121.81,10.7Z"/><path class="cls-2" d="M117.62,11.91c1.83-2.86,2.72-6.32,1.93-8.74-.47-1.27-1.74-3.39-5.69-3.15-6,.37-9.41,5.83-11,9.45-.33.71-.57,1.37-.75,1.88a7.5,7.5,0,0,0-.43,1.37,11.39,11.39,0,0,1,.76-1.41,13.28,13.28,0,0,1,1-1.65c2-3.15,5.69-7.62,10.63-7.95,2.12-.14,3.44.57,4,2,1,3.06-4.13,12.14-4.13,12.14a12.09,12.09,0,0,0,2.81-2.56c.84.47,1.32,1,1.28,1.38,0,1.32-5.41,5.55-5.41,5.55,1.17-.42,7-2.54,7.1-5.5C119.68,13.68,119,12.72,117.62,11.91Z"/><path class="cls-2" d="M168.38,106.42h-1.74c0,.09-.14.14-.19.23.05-.09.14-.14.19-.23h-.33l-.23.14s.09-.09.09-.14c9.36-11.67,9.12-25,7.34-28.79-.8-1.69-1.7-5.22-2.68-10.54a85.94,85.94,0,0,0-6.17-19.89c-.28-.61-.56-1.23-.84-1.79-.57-1.18-1.18-2.35-1.88-3.53-.15-.23-.24-.42-.38-.66s-.33-.56-.47-.84a79,79,0,0,0-8.28-11.29A30.61,30.61,0,0,0,150,26.22c-.43-.38-.85-.75-1.22-1.13l-.05-.05c-1.08-.94-2.26-1.83-3.39-2.68a57.94,57.94,0,0,0-6.73-4.19l-1.12-.56a71.92,71.92,0,0,0-14-5.36c-.75-.19-1.41-.38-1.93-.52-.94-.23-2.82-.61-3.39-.75a.32.32,0,0,0-.18-.05l.14-.8.14-.89a4.59,4.59,0,0,1,.61.14c.8.14,2.12.47,2.82.61a75.22,75.22,0,0,1,15.62,5.6h0c.14,0,.28.14.42.19l1.13.56a58.58,58.58,0,0,1,6.73,4.05,51.16,51.16,0,0,1,4.09,3.15h0l1.27,1.13a36.92,36.92,0,0,1,3.1,3.15,76.43,76.43,0,0,1,8.33,11.38c.19.28.33.57.47.8s.28.47.38.66c.75,1.27,1.41,2.59,2,3.86.37.8.75,1.6,1.13,2.44l.42,1a3.77,3.77,0,0,1,.24.56h0a89.78,89.78,0,0,1,5.36,18.16,53.43,53.43,0,0,0,2.54,10.11C176.71,80.36,177.88,93.77,168.38,106.42Z"/><path class="cls-2" d="M103.33,9.66h0c-.19.33-.38.61-.57.89a4,4,0,0,0-.42.76.7.7,0,0,1-.28,0h0a75.37,75.37,0,0,0-17.41,5.93h0a59.85,59.85,0,0,0-7,4A31.37,31.37,0,0,0,74.12,24c-.43.33-.85.71-1.27,1.08a1.87,1.87,0,0,1-.33.28c-.9.8-1.74,1.65-2.59,2.54a78.72,78.72,0,0,0-8.09,10.26,7.24,7.24,0,0,0-.52.8h0c-.19.33-.38.61-.56.89s-.24.38-.33.57h0c-.71,1.17-1.37,2.35-2,3.48-.14.23-.23.47-.37.7a84.14,84.14,0,0,0-7.3,20.79c-1.12,5.27-2.11,8.8-3,10.45-2,3.85-2.54,17.92,7.39,30.15a1.14,1.14,0,0,0,.23.28c.05.09.14.14.19.24H53.42C42.88,93.06,44.48,78.62,46.32,75c.75-1.5,1.74-5,2.82-10.06A88.2,88.2,0,0,1,55,47h0c0-.14.14-.24.19-.38.18-.37.37-.8.56-1.17.38-.8.8-1.65,1.22-2.4.66-1.27,1.37-2.5,2.17-3.77h0l.23-.37c.24-.38.47-.71.66-1.08h0a76.08,76.08,0,0,1,8.66-11.1,38.22,38.22,0,0,1,3.19-3.06,9.62,9.62,0,0,1,1-.85,1.14,1.14,0,0,1,.28-.23h0a51,51,0,0,1,4.28-3.11,60.9,60.9,0,0,1,6.78-3.81h0c.42-.19.84-.37,1.22-.56a1.92,1.92,0,0,0,.38-.19h0a74.83,74.83,0,0,1,17-5.36l.47-.1v.19Z"/><path class="cls-1" d="M99.38,66.06c1.17-11.34-6-21.36-16.09-22.39-.43-.05-.85-.05-1.27-.09a18.14,18.14,0,0,0-12.47,5.17,23.22,23.22,0,0,0-7.19,14.44c-1.23,11.71,4.94,21,14.62,22,10.35,1,21.27-8.23,22.4-19.1Z"/><path class="cls-2" d="M101.07,66.25C102.34,54,94.44,43.1,83.48,42a19.6,19.6,0,0,0-15.1,5.5A24.61,24.61,0,0,0,60.66,63c-1.31,12.7,5.51,22.72,16.18,23.85.52.05,1.09.09,1.6.09,10.87.15,21.45-9.31,22.63-20.69ZM77,85.11c-9.68-1-15.85-10.25-14.62-22A23.38,23.38,0,0,1,69.55,48.7,18.28,18.28,0,0,1,82,43.53c.42,0,.84,0,1.27.09,10,1,17.21,11.1,16.09,22.39h0C98.25,76.93,87.33,86.19,77,85.11Z"/><path class="cls-2" d="M87.66,55.52c-5-.51-9.83,4-10.39,9.6S79.57,75.47,84.56,76s10.49-3.81,11-9.4S92.65,56,87.66,55.52Z"/><path class="cls-4" d="M88.84,59.14a4.13,4.13,0,0,0-3.44,4.47c.15,2.21,1.6,3.91,3.58,3.77A4.32,4.32,0,0,0,92.7,63,3.85,3.85,0,0,0,88.84,59.14Z"/><path class="cls-2" d="M72.7,60.18c-.37,4.89,5.27,6.68,9.13,4.94l-2.68-4.38C77.41,63.28,74,63.19,72.7,60.18Z"/><path class="cls-1" d="M153.61,50a18.1,18.1,0,0,0-12.32-5.5,10.7,10.7,0,0,0-1.27.05c-10.07.75-17.55,10.58-16.75,21.92h0c.8,10.91,11.38,20.5,21.83,19.7,9.73-.7,16.13-9.78,15.28-21.54A23.33,23.33,0,0,0,153.61,50Z"/><path class="cls-2" d="M154.79,48.75a19.54,19.54,0,0,0-15-6c-11,.8-19.19,11.43-18.3,23.75h0c.85,11.43,11.1,21.21,22,21.36.52,0,1.09,0,1.6,0C155.87,87,162.92,77.25,162,64.51A24.52,24.52,0,0,0,154.79,48.75ZM145.1,86.14c-10.4.76-21-8.84-21.83-19.7h0C122.42,55.1,130,45.27,140,44.52a10.7,10.7,0,0,1,1.27-.05A18.1,18.1,0,0,1,153.61,50a23.33,23.33,0,0,1,6.77,14.63C161.23,76.36,154.79,85.44,145.1,86.14Z"/><path class="cls-2" d="M135.27,56.23c-5,.37-8.71,5.22-8.33,10.82s5.79,10.11,10.77,9.73,8-5,7.62-10.63S140.3,55.85,135.27,56.23Z"/><path class="cls-4" d="M134,59.8a3.82,3.82,0,0,0-4,3.67A4.27,4.27,0,0,0,133.62,68c2,.19,3.48-1.41,3.67-3.67S136,60,134,59.8Z"/><path class="cls-2" d="M143.59,61.73,140.77,66c3.86,1.84,9.55.24,9.27-4.7C148.72,64.27,145.28,64.27,143.59,61.73Z"/><path class="cls-2" d="M119.08,71.56l-7.33-.09h0l-7.34-.1a1.2,1.2,0,0,0-1.08,1.79c1.6,2.73,4.84,7.43,8.28,7.34h0c3.43.19,6.82-4.42,8.46-7.1A1.16,1.16,0,0,0,119.08,71.56Z"/><path class="cls-6" d="M111.51,72c-3.34,0-6,.33-6.07.84s2.68,1,6,1,6-.33,6.07-.85S114.85,72,111.51,72Z"/><path class="cls-2" d="M116.92,83.56c-3.81-.8-4.42-2.64-4.47-3.2v-.14h-1.79v.14c-.09.56-.75,2.4-4.56,3.06-4.66.84-8.28-3.06-8.28-3.06a8.05,8.05,0,0,0,7.06,4.84,8.82,8.82,0,0,0,1.55-.14c2.82-.51,4.33-1.6,5.13-2.63a7.75,7.75,0,0,0,5,2.77,8.31,8.31,0,0,0,1.55.19,8.13,8.13,0,0,0,7.2-4.65S121.53,84.55,116.92,83.56Z"/><rect class="cls-2" y="104.96" width="224.2" height="1.62"/><path class="cls-1" d="M13.75,105.59s-.33-22.11,18.91-24.13,44,8.61,45.72,26.15-19,16.7-32.32,8.8S26.59,105.26,13.75,105.59Z"/><path class="cls-3" d="M46.11,108.27c11.57,6.92,28.88,8.47,31.94-3,.14.75.28,1.5.38,2.3,1.69,17.55-19.05,16.7-32.32,8.8S26.64,105.26,13.8,105.59A32.4,32.4,0,0,1,15,97.5C27,97.36,33.27,100.6,46.11,108.27Z"/><path class="cls-2" d="M45.59,117.21c-13.64-8.14-19.52-11-31.79-10.68l-1,0v-1c0-.24-.14-23,19.75-25.12C45.45,79.11,60.36,83.34,69.68,91c5.74,4.7,9.12,10.44,9.69,16.56.7,7.43-2.5,11.1-5.32,12.84a17.72,17.72,0,0,1-9.55,2.4A38.11,38.11,0,0,1,45.59,117.21ZM32.75,82.4c-16.09,1.69-17.83,18-18,22.16,12.7-.15,19.38,3.52,31.84,11,9.22,5.51,20.6,6.87,26.44,3.2,3.43-2.16,4.89-5.88,4.42-11-.52-5.6-3.67-10.87-9-15.24C60.6,86,48.65,82.12,37.5,82.12,35.9,82.16,34.3,82.26,32.75,82.4Z"/></g></g></svg>