<svg xmlns="http://www.w3.org/2000/svg" viewBox="0 0 187.49 137"><defs><style>.cls-1{fill:#fff;}.cls-2{fill:#5c5262;}.cls-3{fill:#1d1d1b;}.cls-4{fill:#3e3742;}.cls-5{fill:#c7dbf3;}.cls-6{fill:#353535;}</style></defs><title>Asset 2panda-lie</title><g id="Layer_2" data-name="Layer 2"><g id="Layer_1-2" data-name="Layer 1"><path class="cls-1" d="M119.26,58.64s14.58-4.94,28.66.89l13,17.33s3.51,14,3.51,14.7-4.35,30.52-4.78,30.14-21,12.76-21.51,12.8-21.89,0-21.89,0l5.07-42.26Z"/><path class="cls-2" d="M153.11,61.22s6-7.35,11.12-3.64,1.14,16.15-.13,17.5-4.65-.17-5-.63-6.72-12-6.72-12Z"/><path class="cls-3" d="M164.06,76.14,163,74.91c2.5-2.28,3.81-7.27,3-11.58-.29-1.65-1.18-4.6-3.76-5.62-5.19-2.07-8.91,4.73-9,4.78l-1.48-.76c1.53-2.84,5.75-7.65,11-5.58,2.45,1,4.14,3.42,4.77,6.84C168.5,67.94,167,73.43,164.06,76.14Z"/><path class="cls-2" d="M120.11,58.26s25.57,43.79.55,75.82l-19.57,2.24-9.68-1.52-8.62.21-38.12.38c-.51,0-15.64-2.07-16.19-2.07s-10.86-4.61-10.86-4.61L16,119.2l5.24-12,2.62-3Z"/><path class="cls-2" d="M146,59.32s18.64,17.87,13.57,39.34c-7.82,33.1-26.37,35.42-26.37,35.42l23.41.47s17.29-3,17.54-3.13,8-5.16,8.16-5.45,1.94-7.1,1.94-7.1L180,104.5s6.21-8.84,6.21-8.88,1.06-4.14,1.06-4.39S182,89.16,182,89.16L169,91.1,164.1,75l-5.79-8.62C158.36,66.46,150,58.73,146,59.32Z"/><path class="cls-4" d="M170.48,91.1s10.91,39-4.64,41.67-16.7,1.48-16.7,1.48,24-11.37,19.4-43.15Z"/><path class="cls-3" d="M187.26,90.68c-1.6-3.64-14.75-1.27-18.72-.47l.34,1.61c7.61-1.52,16.19-2.07,16.9-.47.86,1.88-2.95,8.24-6.3,12.67a21.2,21.2,0,0,0-2-2.48,57.23,57.23,0,0,1,4.44,11.92,19.16,19.16,0,0,1-.13,9.76c-3.08,11.2-32.92,10.65-33.22,10.65l0,1.65h1.14c5.75,0,30.64-.68,33.73-11.84,2.11-7.65-.58-14.24-3-18.2C182.41,102.89,188.78,94.06,187.26,90.68Z"/><path class="cls-3" d="M149.23,135.52H108.06v-1.65h40.7c2.33-1.4,25.87-16.65,18.39-47.42-5-20.62-18-26.88-27.94-28.48-16.9-2.71-35.54,6.42-41.71,16.35l-1.4-.89c6.55-10.56,25.53-19.94,43.36-17.11,14.8,2.36,25.23,12.93,29.29,29.71,8.12,33.43-19.1,49.23-19.35,49.36Z"/><path class="cls-5" d="M75.31,115.44l-31-.59S61.32,118.44,75.31,115.44Z"/><path class="cls-2" d="M18.59,1C9.46.83,4.48,7.42,3.08,9.62.42,13.8-.13,21.37.93,26.27c1.43,6.8,6.21,13.56,11,15.55l27-27.72C37.57,12.32,29.79,2.39,21.09,1.16A18.73,18.73,0,0,0,18.59,1Z"/><path class="cls-4" d="M14.53,1.37c.09.13,17.5,3.3,17,20.33l7.4-7.6C37.53,12.32,29.75,2.39,21,1.16A18,18,0,0,0,14.53,1.37Z"/><path class="cls-4" d="M18.47,13.76h0a10.75,10.75,0,0,0-6.17.12,12.46,12.46,0,0,1,1.74,0h.46l1.52.09-1.39.67a7.67,7.67,0,0,0-2.29,1.61,10.49,10.49,0,0,0-3.12,8c0,4.73,3.76,8.7,6,10.65a10.09,10.09,0,0,0,.89.72L27.85,21.41c-.21-.34-.43-.72-.68-1.06A15.66,15.66,0,0,0,18.47,13.76Z"/><path class="cls-3" d="M27.42,20.06a16.06,16.06,0,0,0-9-6.72,11.66,11.66,0,0,0-9.22,1.39,18.1,18.1,0,0,1,5-.59A9.11,9.11,0,0,0,12,15.74,11.14,11.14,0,0,0,8.7,24c0,4.9,3.85,8.92,6.13,10.9.47.42.89.76,1.18,1l.81-1.31c-.3-.25-.72-.55-1.19-1-2.07-1.82-5.36-5.41-5.41-9.55A9.64,9.64,0,0,1,13,16.89a6.92,6.92,0,0,1,5.37-2c2.79.47,5.54,2.66,7.86,6.21a11.44,11.44,0,0,1,.8,1.31l.05,0c.38-.34.76-.68,1.14-1C28,20.9,27.68,20.48,27.42,20.06Z"/><path class="cls-3" d="M2.7,9.36c-2.7,4.27-3.25,12-2.2,17C2,33.37,7,40.34,12,42.24l.55-1.43C8.66,39.33,3.55,33.24,2,26c-1-4.69-.5-11.87,2-15.8C5.45,7.93,10.86.78,20.92,2.22,29.79,3.49,38.08,14.86,38.16,15l1.23-.88c-.34-.51-8.75-12-18.26-13.36C10.14-.82,4.22,7,2.7,9.36Z"/><path class="cls-2" d="M104.64,2.22a23.62,23.62,0,0,0-2.49.13C93.4,3.32,85.32,13,83.93,14.77l26.2,28.53c4.82-1.82,9.81-8.45,11.41-15.21,1.19-4.87.89-12.47-1.64-16.74C118.59,9.11,113.77,2.35,104.64,2.22Z"/><path class="cls-4" d="M110.51,17.56a9.39,9.39,0,0,0-2.24-1.65l-1.35-.72h2a11.29,11.29,0,0,1,1.73.13,10.52,10.52,0,0,0-6.17-.29h0a15.54,15.54,0,0,0-8.88,6.29c-.25.34-.46.68-.67,1l11.37,14.49c.25-.21.54-.42.88-.71,2.28-1.86,6.13-5.71,6.3-10.44A11,11,0,0,0,110.51,17.56Z"/><path class="cls-4" d="M102.65,2.35C93.9,3.32,85.83,13,84.44,14.77l7.18,7.82c0-17,17.46-19.69,17.54-19.82A17.41,17.41,0,0,0,102.65,2.35Z"/><path class="cls-3" d="M111.27,17.27A9,9,0,0,0,109,15.58a16.67,16.67,0,0,1,5,.71,11.51,11.51,0,0,0-9.13-1.69,15.86,15.86,0,0,0-9.13,6.47,12.69,12.69,0,0,0-.84,1.27,13.16,13.16,0,0,1,1.1,1l0,0a9.85,9.85,0,0,1,.84-1.26c2.41-3.47,5.31-5.56,8.13-5.76a6.26,6.26,0,0,1,5.19,1.95,9.5,9.5,0,0,1,2.57,7.23c-.17,4.14-3.55,7.65-5.7,9.47a14.15,14.15,0,0,1-1.19.93c.26.46.51.88.77,1.31l1.22-.93c2.33-1.91,6.26-5.84,6.43-10.74A11.08,11.08,0,0,0,111.27,17.27Z"/><path class="cls-3" d="M102.61,1.92C93.06,3,84.31,14.27,84,14.73l1.23.93c.08-.13,8.7-11.24,17.62-12.21,10.1-1.15,15.3,6.17,16.65,8.45,2.41,4,2.67,11.2,1.52,15.89-1.73,7.18-7,13.14-10.94,14.5l.51,1.43c5-1.73,10.22-8.58,11.91-15.59,1.19-4.95.89-12.68-1.69-17C119.26,8.64,113.6.7,102.61,1.92Z"/><path class="cls-1" d="M114.87,59.7c-2.67-14.46-9.17-28.28-20.08-38.08C87.65,15.11,74.46,10.12,66.73,8.9,68.29,5.22,69,.61,63.31.74c-5.24.42-8,5.28-9.39,8.37-26.07,4.56-41.79,22.57-47.67,49-.68,3.17-1.69,7.36-2.58,9.13-7.1,22.27,19,44,40.62,47.08,2.58.42,17.83,2.79,30.6.51h0c21.51-2.37,48.77-23,42.3-45.9A51.25,51.25,0,0,1,114.87,59.7Z"/><path class="cls-5" d="M78.9,104.88c-16,2.24-35.12-.17-38.37-.64A80.52,80.52,0,0,1,9.17,93.17c8.15,11,22.73,18.22,35.12,21.64,5.41,1.48,29.12,1,29.12,1,12.76-1.44,29.07-10.27,37.61-21.17A81.28,81.28,0,0,1,78.9,104.88Z"/><path class="cls-5" d="M70.79,9.53,67.41,9l-1.57,2,1.9,1.06s.85,4.35-4.73,5.49c-.17,0,9.42-1.14,9.81-4.14A3.68,3.68,0,0,0,70.79,9.53Z"/><path class="cls-3" d="M67.08,10.66c1.6-2.55,2.38-5.6,1.68-7.72C68.34,1.71,67.19-.23,63.69,0c-5.33.34-8.41,5.2-9.85,8.46a18.06,18.06,0,0,0-.68,1.69,7.42,7.42,0,0,0-.38,1.22,12.67,12.67,0,0,1,.64-1.27,12.33,12.33,0,0,1,.88-1.48c1.78-2.79,5.12-6.8,9.51-7,1.9-.13,3.09.5,3.51,1.81.89,2.75-3.68,10.87-3.68,10.87a10.91,10.91,0,0,0,2.55-2.36c.72.42,1.12.83,1.09,1.17,0,1.19-4.82,5-4.82,5,1.06-.34,6.21-2.29,6.34-4.91A2.9,2.9,0,0,0,67.08,10.66Z"/><path class="cls-3" d="M116.05,59.57a79,79,0,0,0-4.78-16.19c-.21-.46-.38-.93-.59-1.39-.34-.72-.67-1.48-1-2.2-.55-1.14-1.14-2.28-1.82-3.42-.25-.47-.51-.89-.76-1.35a71.56,71.56,0,0,0-7.44-10.15,30.61,30.61,0,0,0-2.79-2.79l-1.14-1A50,50,0,0,0,86,14.6c-.46-.25-.93-.5-1.39-.72a68,68,0,0,0-14-5l-3.08-.68L67.36,9.7s2.2.47,3.17.68c4.14,1,15.43,4.18,24.3,11.92a11.65,11.65,0,0,1,1.1,1,23.44,23.44,0,0,1,2.5,2.58A70.21,70.21,0,0,1,105.82,36c.26.46.51.89.76,1.31.59,1.06,1.14,2.11,1.65,3.17a75,75,0,0,1,6.26,19.35c.88,4.74,1.64,7.91,2.36,9.39,1.65,3.5,1.82,16.23-7.56,26.92-4.48,5.11-11.88,10.18-19.06,13.56a98.86,98.86,0,0,1-17.29,6.2c11.2-.85,27.18-7,37.49-18.79s9.34-25.27,7.82-28.57A50.45,50.45,0,0,1,116.05,59.57Z"/><path class="cls-3" d="M47.21,115.37a58.85,58.85,0,0,1-24.86-9.18c-.46-.3-1-.64-1.43-1a52.34,52.34,0,0,1-10.53-9.55C.33,83.49,1.81,70.14,3.42,66.88a47.13,47.13,0,0,0,2.54-9A81,81,0,0,1,11.2,41.86c.21-.46.42-.93.63-1.35.34-.72.72-1.44,1.1-2.16.59-1.09,1.22-2.24,1.9-3.38.25-.42.55-.88.8-1.31a71.43,71.43,0,0,1,7.74-9.93A34.65,34.65,0,0,1,26.24,21c.38-.34.8-.68,1.18-1a53.52,53.52,0,0,1,9.85-6.17l1.44-.67A68.22,68.22,0,0,1,53.84,8.43l.42-.08,0,.21L53.42,10c-.09,0-.17,0-.26,0-3.89.76-15.59,3.64-24.93,11.24-.38.3-.76.64-1.14,1a35.85,35.85,0,0,0-2.58,2.5,69.79,69.79,0,0,0-7.69,9.85L16,36C15.38,37,14.79,38,14.28,39A77,77,0,0,0,7.43,58.22a47.3,47.3,0,0,1-2.66,9.34C3,71,2.49,83.7,11.53,94.69a51.45,51.45,0,0,0,10.06,9,15.76,15.76,0,0,0,1.44,1,67.9,67.9,0,0,0,7.14,4.23A90.42,90.42,0,0,0,47.21,115.37Z"/><path class="cls-2" d="M50.33,58.94C51.39,48.84,44.92,39.88,36,39c-.38-.05-.76-.05-1.14-.09a16.1,16.1,0,0,0-11.11,4.61,20.78,20.78,0,0,0-6.43,12.89C16.18,66.8,21.68,75,30.34,75.93c9.26,1,19-7.31,20-17Z"/><path class="cls-3" d="M51.81,59.06C53,48.12,45.89,38.44,36.13,37.43a17.41,17.41,0,0,0-13.48,4.94,22.14,22.14,0,0,0-6.89,13.82c-1.18,11.33,4.9,20.29,14.41,21.26.47,0,1,.08,1.44.08,9.76.13,19.19-8.28,20.2-18.47ZM30.34,75.93C21.68,75,16.18,66.8,17.28,56.36a20.73,20.73,0,0,1,6.43-12.89,16.35,16.35,0,0,1,11.11-4.61A8.75,8.75,0,0,1,36,39c9,.93,15.39,9.89,14.33,20h0C49.32,68.62,39.6,76.9,30.34,75.93Z"/><path class="cls-3" d="M39.85,49.51c-4.44-.46-8.75,3.59-9.26,8.58s2.08,9.22,6.51,9.68,9.34-3.38,9.89-8.41S44.33,50,39.85,49.51Z"/><path class="cls-1" d="M41,52.77a3.63,3.63,0,0,0-3,4c.12,2,1.43,3.46,3.21,3.34a3.81,3.81,0,0,0,3.29-3.93A3.47,3.47,0,0,0,41,52.77Z"/><path class="cls-3" d="M26.54,53.65c-.34,4.4,4.69,6,8.15,4.44L32.28,54.2C30.72,56.44,27.68,56.36,26.54,53.65Z"/><path class="cls-2" d="M98.72,44.57a16.34,16.34,0,0,0-11-5,8.7,8.7,0,0,0-1.14.05c-9,.67-15.68,9.42-14.92,19.52h0c.72,9.72,10.19,18.26,19.45,17.58,8.66-.63,14.41-8.7,13.65-19.19A21,21,0,0,0,98.72,44.57Z"/><path class="cls-3" d="M99.78,43.51a17.45,17.45,0,0,0-13.31-5.32c-9.81.71-17.12,10.22-16.32,21.17h0c.76,10.19,9.93,18.89,19.65,19.06.47,0,1,0,1.44,0,9.55-.72,15.89-9.47,15.05-20.84A22.37,22.37,0,0,0,99.78,43.51Zm-8.66,33.3c-9.3.68-18.77-7.86-19.45-17.58h0c-.71-10.14,6-18.89,14.92-19.52a10.86,10.86,0,0,1,1.14,0,16.11,16.11,0,0,1,11,4.94,20.9,20.9,0,0,1,6,13.06C105.53,68.11,99.78,76.18,91.12,76.81Z"/><path class="cls-3" d="M82.37,50.15c-4.44.33-7.78,4.65-7.4,9.63s5.16,9,9.64,8.67,7.18-4.48,6.8-9.51S86.85,49.81,82.37,50.15Z"/><path class="cls-1" d="M81.23,53.36a3.44,3.44,0,0,0-3.55,3.29,3.77,3.77,0,0,0,3.17,4c1.77.17,3.08-1.27,3.29-3.25A3.64,3.64,0,0,0,81.23,53.36Z"/><path class="cls-3" d="M89.76,55.05l-2.49,3.8c3.42,1.61,8.49.21,8.28-4.18C94.37,57.33,91.28,57.33,89.76,55.05Z"/><path class="cls-3" d="M67.49,63.8l-6.55-.09h0l-6.55-.08a1.05,1.05,0,0,0-.93,1.6c1.39,2.41,4.31,6.64,7.39,6.56h0c3,.16,6.09-4,7.57-6.34A1.1,1.1,0,0,0,67.49,63.8Z"/><path class="cls-6" d="M61.19,64.22c-3,0-5.36.3-5.41.76s2.41.89,5.37.93,5.37-.3,5.41-.76S64.15,64.26,61.19,64.22Z"/><path class="cls-3" d="M65.55,74.53c-3.43-.72-3.93-2.36-4-2.87v-.13H59.92v.13c-.08.46-.67,2.11-4.09,2.75-4.15.71-7.4-2.71-7.4-2.71A7.19,7.19,0,0,0,54.73,76a8,8,0,0,0,1.39-.13,7,7,0,0,0,4.57-2.36A7.11,7.11,0,0,0,65.17,76a6.79,6.79,0,0,0,7.77-4C73,72,69.69,75.42,65.55,74.53Z"/><path class="cls-4" d="M55.23,120.6s3.6,10.27-10.94,9.89a90.84,90.84,0,0,1-27.81-5.71s3.55,8.54,18.85,10.27,25.48-.12,25.48-.17S64,132.22,64,131.67s-1.64-5.7-1.64-5.7Z"/><path class="cls-4" d="M88.2,119.8S75.77,136.07,64,128.16l-2.15,6.39,32.5.71-5.2-6.17Z"/><path class="cls-3" d="M52.11,136.32c-21.18,0-32.93-2.92-35.84-8.87-4.57-9.39,5.41-22.07,5.83-22.57l1.31,1c-.08.13-9.76,12.38-5.62,20.84,1.94,4,10.65,8.62,40.82,7.86a4.12,4.12,0,0,0,4.19-4c.34-4.36-4.57-9.68-16.27-11.75s-18.39.63-18.39.63c.26-.17,6.34-4.44,18.68-2.24,13.61,2.41,18,8.75,17.63,13.48a5.85,5.85,0,0,1-5.79,5.54C56.37,136.32,54.22,136.32,52.11,136.32Z"/><path class="cls-2" d="M112.8,100.65s2.32-7.1,1.64-7.06S111.36,91,107,93.21,95.17,104,95.17,104l-4.6,7.56s9.34,2,9.55,1.78S112.8,100.65,112.8,100.65Z"/><path class="cls-3" d="M101.17,137a14.34,14.34,0,0,1-3-.3A13.89,13.89,0,0,1,87.27,125c-1.23-8.87,6.3-22.4,13.82-28.95,4.14-3.63,8.07-5.07,11.33-4.18a6.65,6.65,0,0,1,4.1,3.38c4,7.52-1.44,24.34-1.7,25.06,0,0,3.89-17.37.22-24.26A4.9,4.9,0,0,0,112,93.47c-2.66-.72-6.13.63-9.8,3.84-7.19,6.26-14.37,19.36-13.27,27.47a12.19,12.19,0,0,0,9.63,10.31c2.79.6,8.66.77,15.77-5.28,3.12-2.66,11.32-11.28,11.32-11.28C116,134.21,106.63,137,101.17,137Z"/><rect class="cls-3" x="77.6" y="117.44" width="1.65" height="35.21" transform="translate(-57.15 212.53) rotate(-89.6)"/><path class="cls-3" d="M160,45a20.44,20.44,0,0,1,4.59,1.4,10.48,10.48,0,0,0-4.35-2.53,9.34,9.34,0,0,0-2.61-.33,7.93,7.93,0,0,0-2.61.56,9.81,9.81,0,0,0-4,3.24,11.64,11.64,0,0,0-2.06,4.55,23.66,23.66,0,0,1,2.92-3.84,10.14,10.14,0,0,1,3.71-2.63A9.18,9.18,0,0,1,160,45Z"/><path class="cls-3" d="M156.93,39.56a6.09,6.09,0,0,0-3,0A5.66,5.66,0,0,0,151.27,41a5,5,0,0,0-1.47,2.55A10.33,10.33,0,0,1,154.27,41a8.67,8.67,0,0,1,2.5-.24,4.94,4.94,0,0,1,.65,0l.66,0a10.46,10.46,0,0,0,1.43.15c-.37-.29-.78-.56-1.18-.82A6.3,6.3,0,0,0,156.93,39.56Z"/><path class="cls-3" d="M131.19,23.72A6.18,6.18,0,0,0,132,20.8a5.56,5.56,0,0,0-.78-2.92,5,5,0,0,0-2.1-2.07,10.4,10.4,0,0,1,1.4,5,8.79,8.79,0,0,1-.39,2.48,6.46,6.46,0,0,1-.2.63l-.21.62a13.17,13.17,0,0,0-.5,1.35,13.85,13.85,0,0,0,1.09-.94A6.66,6.66,0,0,0,131.19,23.72Z"/></g></g></svg>