<svg xmlns="http://www.w3.org/2000/svg" viewBox="0 0 106.78 24.03"><defs><style>.cls-1{fill:#4c5b66;}</style></defs><title>Asset 21raw-people</title><g id="Layer_2" data-name="Layer 2"><g id="Layer_1-2" data-name="Layer 1"><path class="cls-1" d="M32.8,5.53H28.9a2.78,2.78,0,0,0-2.78,2.78v4a2.77,2.77,0,0,0,1.38,2.4.22.22,0,0,0,.33-.19V8.56A.18.18,0,0,1,28,8.38h0a.18.18,0,0,1,.17.18V22.72A1.29,1.29,0,0,0,29.4,24a1.26,1.26,0,0,0,1.29-1.26V15.59a.18.18,0,0,1,.18-.18h0a.17.17,0,0,1,.17.18v7.13A1.29,1.29,0,0,0,32.26,24a1.26,1.26,0,0,0,1.3-1.26V8.56a.18.18,0,0,1,.17-.18h0a.18.18,0,0,1,.18.18v5.93a.22.22,0,0,0,.33.19,2.77,2.77,0,0,0,1.34-2.38v-4A2.77,2.77,0,0,0,32.8,5.53Z"/><path class="cls-1" d="M33.33,2.46A2.47,2.47,0,1,1,30.87,0,2.47,2.47,0,0,1,33.33,2.46Z"/><path class="cls-1" d="M45.86,5.53H42a2.78,2.78,0,0,0-2.78,2.78v4a2.79,2.79,0,0,0,1.38,2.4.22.22,0,0,0,.33-.19V8.56a.18.18,0,0,1,.18-.18h0a.18.18,0,0,1,.17.18V22.72A1.29,1.29,0,0,0,42.46,24a1.26,1.26,0,0,0,1.3-1.26V15.59a.17.17,0,0,1,.17-.18h0a.17.17,0,0,1,.17.18v7.13A1.29,1.29,0,0,0,45.32,24a1.26,1.26,0,0,0,1.3-1.26V8.56a.18.18,0,0,1,.17-.18h0a.18.18,0,0,1,.18.18v5.93a.22.22,0,0,0,.33.19,2.77,2.77,0,0,0,1.34-2.38v-4A2.77,2.77,0,0,0,45.86,5.53Z"/><path class="cls-1" d="M46.39,2.46A2.47,2.47,0,1,1,43.93,0,2.47,2.47,0,0,1,46.39,2.46Z"/><path class="cls-1" d="M19.74,6.18a2.13,2.13,0,0,1,2.13,2.13v4a2.1,2.1,0,0,1-.38,1.22v-5a.82.82,0,1,0-1.64,0V22.77a.61.61,0,0,1-.63.61h0a.65.65,0,0,1-.59-.66V15.59a.82.82,0,1,0-1.64,0v7.18a.62.62,0,0,1-.63.61h0a.64.64,0,0,1-.59-.66V8.56a.83.83,0,1,0-1.65,0v5a2.16,2.16,0,0,1-.41-1.26v-4a2.13,2.13,0,0,1,2.13-2.13h3.9m0-.65h-3.9a2.78,2.78,0,0,0-2.78,2.78v4a2.77,2.77,0,0,0,1.38,2.4.2.2,0,0,0,.11,0,.22.22,0,0,0,.22-.22V8.56A.18.18,0,0,1,15,8.38a.18.18,0,0,1,.17.18V22.72A1.29,1.29,0,0,0,16.34,24h0a1.25,1.25,0,0,0,1.25-1.26V15.59a.18.18,0,0,1,.18-.18.18.18,0,0,1,.17.18v7.13A1.29,1.29,0,0,0,19.2,24h0a1.26,1.26,0,0,0,1.26-1.26V8.56a.17.17,0,0,1,.17-.18.18.18,0,0,1,.18.18v5.93a.22.22,0,0,0,.22.22l.11,0a2.79,2.79,0,0,0,1.34-2.38v-4a2.77,2.77,0,0,0-2.78-2.78Z"/><path class="cls-1" d="M17.81.65A1.82,1.82,0,1,1,16,2.46,1.81,1.81,0,0,1,17.81.65m0-.65a2.47,2.47,0,1,0,2.46,2.46A2.47,2.47,0,0,0,17.81,0Z"/><path class="cls-1" d="M6.68,6.18A2.13,2.13,0,0,1,8.81,8.31v4a2.1,2.1,0,0,1-.38,1.22v-5a.82.82,0,1,0-1.64,0V22.77a.61.61,0,0,1-.63.61h0a.64.64,0,0,1-.59-.66V15.59a.82.82,0,1,0-1.64,0v7.18a.62.62,0,0,1-.63.61h0a.64.64,0,0,1-.59-.66V8.56a.83.83,0,1,0-1.65,0v5A2.16,2.16,0,0,1,.65,12.3v-4A2.13,2.13,0,0,1,2.78,6.18h3.9m0-.65H2.78A2.77,2.77,0,0,0,0,8.31v4a2.77,2.77,0,0,0,1.38,2.4.2.2,0,0,0,.11,0,.22.22,0,0,0,.22-.22V8.56a.18.18,0,0,1,.18-.18.18.18,0,0,1,.17.18V22.72A1.29,1.29,0,0,0,3.28,24h0a1.25,1.25,0,0,0,1.25-1.26V15.59a.18.18,0,0,1,.18-.18.18.18,0,0,1,.17.18v7.13A1.29,1.29,0,0,0,6.14,24h0a1.26,1.26,0,0,0,1.26-1.26V8.56a.17.17,0,1,1,.34,0v5.93a.22.22,0,0,0,.23.22l.11,0A2.79,2.79,0,0,0,9.46,12.3v-4A2.77,2.77,0,0,0,6.68,5.53Z"/><path class="cls-1" d="M4.75.65A1.82,1.82,0,1,1,2.93,2.46,1.81,1.81,0,0,1,4.75.65m0-.65A2.47,2.47,0,1,0,7.21,2.46,2.46,2.46,0,0,0,4.75,0Z"/><path class="cls-1" d="M101.65,4.93a2.47,2.47,0,1,0-2.46-2.47A2.47,2.47,0,0,0,101.65,4.93Z"/><path class="cls-1" d="M105.58,14.23a2.75,2.75,0,0,0,.79-1.93v-4a2.77,2.77,0,0,0-2.78-2.78h-3.9a2.77,2.77,0,0,0-2.78,2.78v4a2.76,2.76,0,0,0,.8,1.94L96.5,17.86H99v4.86A1.29,1.29,0,0,0,100.19,24a1.26,1.26,0,0,0,1.29-1.26V17.86h.35v4.86A1.29,1.29,0,0,0,103.05,24a1.26,1.26,0,0,0,1.3-1.26V17.86h2.43Zm-1.23-5.67a.17.17,0,0,1,.17-.18h0a.17.17,0,0,1,.17.18v3l-.34-1.06Zm-5.73,0a.18.18,0,0,1,.18-.18.18.18,0,0,1,.17.18v1.9l-.35,1Z"/><path class="cls-1" d="M88.59,4.93a2.47,2.47,0,1,0-2.46-2.47A2.48,2.48,0,0,0,88.59,4.93Z"/><path class="cls-1" d="M92.52,14.23a2.75,2.75,0,0,0,.79-1.93v-4a2.77,2.77,0,0,0-2.78-2.78h-3.9a2.77,2.77,0,0,0-2.78,2.78v4a2.76,2.76,0,0,0,.8,1.94l-1.21,3.62h2.47v4.86A1.29,1.29,0,0,0,87.13,24a1.26,1.26,0,0,0,1.29-1.26V17.86h.35v4.86A1.29,1.29,0,0,0,90,24a1.26,1.26,0,0,0,1.3-1.26V17.86h2.43ZM91.29,8.56a.17.17,0,0,1,.17-.18h0a.17.17,0,0,1,.17.18v3l-.34-1.06Zm-5.73,0a.18.18,0,0,1,.17-.18.18.18,0,0,1,.18.18v1.9l-.35,1Z"/><path class="cls-1" d="M62.47.65a1.82,1.82,0,1,1-1.81,1.81A1.82,1.82,0,0,1,62.47.65m0-.65a2.47,2.47,0,1,0,2.47,2.46A2.46,2.46,0,0,0,62.47,0Z"/><path class="cls-1" d="M64.41,6.18a2.13,2.13,0,0,1,2.13,2.13v4a2.06,2.06,0,0,1-.38,1.2V8.56a.82.82,0,1,0-1.64,0v2l0,.1.35,1.06,1.26,3.85h0l.54,1.65H64.52v5.55a.62.62,0,0,1-.63.61h0a.64.64,0,0,1-.59-.66v-5.5H61.65v5.55a.61.61,0,0,1-.62.61h0a.64.64,0,0,1-.59-.66v-5.5H58.22l.92-2.78.13-.37h0l.78-2.36.35-1.05,0-.1v-2a.83.83,0,1,0-1.65,0v5a2.08,2.08,0,0,1-.41-1.25v-4a2.13,2.13,0,0,1,2.13-2.13h3.9m0-.65h-3.9a2.77,2.77,0,0,0-2.78,2.78v4a2.76,2.76,0,0,0,.8,1.94l-1.21,3.62h2.47v4.86A1.29,1.29,0,0,0,61,24h0a1.25,1.25,0,0,0,1.26-1.26V17.86h.35v4.86A1.29,1.29,0,0,0,63.87,24h0a1.25,1.25,0,0,0,1.25-1.26V17.86H67.6l-1.2-3.63a2.75,2.75,0,0,0,.79-1.93v-4a2.77,2.77,0,0,0-2.78-2.78Zm1.1,6-.35-1.06V8.56a.18.18,0,0,1,.18-.18h0a.18.18,0,0,1,.17.18v3Zm-6.07,0V8.56a.18.18,0,0,1,.17-.18.18.18,0,0,1,.18.18v1.9l-.35,1Z"/><path class="cls-1" d="M75.53.65a1.82,1.82,0,1,1-1.81,1.81A1.82,1.82,0,0,1,75.53.65m0-.65A2.47,2.47,0,1,0,78,2.46,2.46,2.46,0,0,0,75.53,0Z"/><path class="cls-1" d="M77.47,6.18A2.13,2.13,0,0,1,79.6,8.31v4a2.06,2.06,0,0,1-.38,1.2V8.56a.82.82,0,1,0-1.64,0v2l0,.1L78,11.72l1.26,3.85h0l.54,1.65H77.58v5.55a.62.62,0,0,1-.63.61h0a.64.64,0,0,1-.59-.66v-5.5H74.71v5.55a.61.61,0,0,1-.62.61h0a.64.64,0,0,1-.59-.66v-5.5H71.28l.92-2.78.13-.37h0l.78-2.36.35-1.05,0-.1v-2a.83.83,0,1,0-1.65,0v5a2.08,2.08,0,0,1-.41-1.25v-4a2.13,2.13,0,0,1,2.13-2.13h3.9m0-.65h-3.9a2.77,2.77,0,0,0-2.78,2.78v4a2.76,2.76,0,0,0,.8,1.94l-1.21,3.62h2.47v4.86A1.29,1.29,0,0,0,74.07,24h0a1.25,1.25,0,0,0,1.25-1.26V17.86h.35v4.86A1.29,1.29,0,0,0,76.93,24h0a1.25,1.25,0,0,0,1.25-1.26V17.86h2.44l-1.2-3.63a2.75,2.75,0,0,0,.79-1.93v-4a2.77,2.77,0,0,0-2.78-2.78Zm1.1,6-.35-1.06V8.56a.18.18,0,0,1,.18-.18h0a.17.17,0,0,1,.17.18v3Zm-6.07,0V8.56a.18.18,0,0,1,.17-.18.18.18,0,0,1,.18.18v1.9l-.35,1Z"/></g></g></svg>