<svg xmlns="http://www.w3.org/2000/svg" xmlns:xlink="http://www.w3.org/1999/xlink" viewBox="0 0 185.95 152.34"><defs><style>.cls-1{fill:#edb08e;}.cls-2{isolation:isolate;}.cls-11,.cls-16,.cls-17,.cls-3{opacity:0.1;}.cls-3{mix-blend-mode:multiply;}.cls-4{fill:#d89371;}.cls-5{fill:#00a8a8;}.cls-16,.cls-6{fill:#fff;}.cls-7{fill:#b3b3b3;}.cls-8{fill:#d6d6d6;}.cls-9{fill:none;stroke:#39b54a;stroke-linecap:round;stroke-linejoin:round;stroke-width:2px;}.cls-10{clip-path:url(#clip-path);}.cls-12{fill:#7f7f7f;}.cls-13{fill:#666;}.cls-14{fill:#fbb03b;}.cls-15{clip-path:url(#clip-path-2);}</style><clipPath id="clip-path"><path class="cls-1" d="M100.45,80.19s4.64-4,5.58-5.67,5.59-11.46,7.77-11.93,9,4.92,11.83,6.53,10.89-.27,13,2.28,5.77,9,9.18,16,5.49,14.58,7.48,18.08,4.54,7.39,10.42,15.72S186,151.5,186,151.5H152.52s-8.42-25.28-13.06-32-7.77-6.62-11.65-7.85-13.22-4.85-18.21-10.47-6.83-2.22-9.3-7.52c-1.25-2.68,2.28-3.12,1.14-6.93s5.44-4,7.31-2.07c.86.88,2.24,2.17,1.37,5.66,0,0,3.38-.17,4.9,1.44a7.44,7.44,0,0,1,3.61.42s4.83-4,4.73-8.37S122,77.37,115,74.05c0,0-2.52,3.31-4.43,3.5a35.21,35.21,0,0,1-3.8,3.64C105.51,82.05,101.58,83.4,100.45,80.19Z"/></clipPath><clipPath id="clip-path-2"><path class="cls-1" d="M67.87,56.64a17.11,17.11,0,0,0-9.41,5.54c-.08.09-.15.19-.23.29l-.23.32s-3.34.55-4.49,2.45a7.37,7.37,0,0,0-3.43,1.16,17.48,17.48,0,0,1-3.74-2.76,25.78,25.78,0,0,0-2.74,24.6c.53-.27,1.07-.55,1.62-.87,3.53-2,11.89-7.53,15.58-14.08,3-5.35,5.24-4.38,6.67-6.93h0c1.58-1.68,2-3.15,5.46-5.23C74.82,60,72.58,55.58,67.87,56.64Z"/></clipPath></defs><title>Asset 2hand-without-reg</title><g class="cls-2"><g id="Layer_2" data-name="Layer 2"><g id="OBJECTS"><path class="cls-3" d="M70.07,60.68a19,19,0,0,0-3.8,1.25,16.23,16.23,0,0,1-3.89-2.36,9.57,9.57,0,0,0,3.48-2.7,2.83,2.83,0,0,0,2.4-2.51s-5.37-2.8-6.65-4.21-8.64-9-10.86-9c-6.89,0-20.89,10.55-22.39,13.39s-3.74,9.67-5.59,17-2.29,14.89-3.49,18.61-2.88,7.9-6.86,17c-2.2,5-6.67,16.83-10.22,26.36v18.84H29.06c1.51-11.8,6.07-46.14,8.64-52.17s5.23-7.51,8.1-9c.53-.26,1.07-.53,1.62-.84l.33-.19.19-.1.18-.1.29-.17.08,0,.36-.21,0,0,.4-.25h0a61.06,61.06,0,0,0,5.53-3.81h0A32.77,32.77,0,0,0,63,76.76c3-5.16,5.24-4.22,6.67-6.69h0c1.58-1.62,2-3,5.46-5C77,63.93,74.78,59.65,70.07,60.68ZM55.71,69a7.56,7.56,0,0,0-3.43,1.13,17.63,17.63,0,0,1-3.74-2.67c-.14-.13-.31-.27-.5-.42,2.2-1.77,4.31-4,5.5-5,2.35-2,3.83,3,6.75,4.45l-.09.13S56.86,67.15,55.71,69Z"/><path class="cls-4" d="M64.64,58.05c-.86,0-2.6-1.1-4.46-2.56C62.84,54.34,65.36,51,63.89,51c-2,0-8.43-5.69-10.69-8.34s-12,3-14.42,6.54c0,0-3,7.54,0,9.41h0c-.63,2.38-1.17,5.89.75,7.09,3,1.87,9.37-5.43,11.81-7.61s3.93,3.49,7,4.74S66.6,58.05,64.64,58.05Z"/><path class="cls-1" d="M59.41,45.74c-1.29-1.46-8.64-9.27-10.86-9.27-6.89,0-20.89,10.92-22.39,13.86s-3.74,10-5.59,17.58-2.29,15.41-3.49,19.25-2.88,8.18-6.86,17.57C8,109.93,3.55,122.14,0,132V151.5H26.86c1.51-12.21,6.07-47.75,8.64-54s5.23-7.78,8.1-9.28C45.71,80,45.71,76,46.34,63.64c-1.21-1.18-4.35-3-4.68-4.7-.83-4.27-2.88-8,5.74-13,0,0,6.29,4,8.19,3.78a35,35,0,0,0,4.49,2.75c1.43.57,5.55,1.06,6-2.31C66.06,50.11,60.69,47.21,59.41,45.74Z"/><rect class="cls-3" x="53.2" y="2.22" width="80.96" height="114.99" rx="5.08"/><rect class="cls-5" x="53.2" width="80.96" height="114.99" rx="5.08"/><rect class="cls-6" x="57.89" y="4.15" width="71.58" height="106.69"/><rect class="cls-7" x="78.88" y="23.35" width="43.47" height="3.6"/><rect class="cls-8" x="78.88" y="29.89" width="43.47" height="3.6"/><rect class="cls-8" x="64.64" y="36.42" width="57.71" height="3.6"/><path class="cls-8" d="M70.63,28.35v.13h-1v-.13h1m5-5h-11V33.48h11V23.35Z"/><rect class="cls-7" x="78.88" y="46.07" width="43.47" height="3.6"/><rect class="cls-8" x="78.88" y="52.61" width="43.47" height="3.6"/><rect class="cls-8" x="64.64" y="59.15" width="57.71" height="3.6"/><rect class="cls-8" x="64.64" y="87.53" width="25.67" height="3.6"/><rect class="cls-8" x="64.64" y="93.84" width="14.05" height="3.6"/><rect class="cls-8" x="96.78" y="87.53" width="25.67" height="3.6"/><rect class="cls-8" x="96.78" y="93.84" width="14.05" height="3.6"/><path class="cls-8" d="M70.63,51.07v.13h-1v-.13h1m5-5h-11V56.2h11V46.07Z"/><rect class="cls-7" x="64.64" y="68.79" width="57.71" height="3.54"/><path class="cls-8" d="M85.38,79.84V80H69.64v-.13H85.38m5-5H64.64V85H90.38V74.84Z"/><path class="cls-8" d="M117.34,79.84V80H101.6v-.13h15.74m5-5H96.6V85h25.74V74.84Z"/><polyline class="cls-9" points="76.59 23.7 70.11 30.18 66.73 26.8"/><polyline class="cls-9" points="76.59 46.07 70.11 52.55 66.73 49.17"/><path class="cls-3" d="M70.07,60.68a19,19,0,0,0-3.8,1.25,10.2,10.2,0,0,1-2.12-1.11q-.95.82-2,1.59a17.29,17.29,0,0,1-4,2.4,6.89,6.89,0,0,0,2,1.68l-.09.13s-3.34.53-4.49,2.36a8.26,8.26,0,0,0-2.63.67v9.62h.13v7.4c.54-.39,1.09-.79,1.64-1.22h0A32.77,32.77,0,0,0,63,76.76c3-5.16,5.24-4.22,6.67-6.69h0c1.58-1.62,2-3,5.46-5C77,63.93,74.78,59.65,70.07,60.68Z"/><path class="cls-3" d="M112.22,111.82h0l0,0,.49.39.19.15.36.27.23.16.34.25.23.16.37.25.21.14.44.29.15.09.58.37.19.11.41.25.23.13.37.22.25.14c.12.07.24.14.37.2l.23.13.41.22.2.11.59.3.12.06c.16.09.32.16.48.24l.22.11.38.18.23.12.36.17.24.1.37.17.2.09.48.22.09,0,.56.24.18.08.37.15.2.08.34.14.2.08.33.13.19.07.36.14.13,0,.48.18.1,0,.35.13.17.06.27.1.16,0,.26.09.15,0,.26.09.12,0,.35.11c3.88,1.23,7,1.13,11.65,7.82,2.94,4.25,7.41,15.94,10.29,23.91h30.94c-4.72-7.11-11.44-17.17-15-22.21-5.88-8.29-8.43-12.16-10.42-15.65-1.22-2.13-2.47-5.78-4-9.88l.06-.18a1.89,1.89,0,0,0-1-2.35c-.74-1.84-1.55-3.73-2.46-5.59-3.41-7-7.1-13.38-9.18-15.92-1.3-1.58-4.9-1.45-8.12-1.51h-.05l-.86,0h-.1l-.36,0H129l-.38,0h-.07l-.36,0h-.08l-.3,0-.12,0-.3,0-.11,0-.26,0-.12,0-.25-.06-.11,0-.21-.06-.13,0-.16-.07-.14-.05-.29-.14-.27-.16-.13-.08-.17-.1-.16-.1-.15-.1a1.37,1.37,0,0,1-.2-.13l-.14-.08-.21-.15-.14-.08-.25-.17-.11-.07-.29-.19-.09-.06-.37-.26c-3.23-2.16-7.51-5.13-9.15-4.78-2.18.47-6.82,10.18-7.77,11.88-.67,1.2-3.19,3.53-4.61,4.79a.46.46,0,0,0-.16.15l-.62.54L97.57,88a2.3,2.3,0,0,0-.81-.07,1,1,0,0,0-.44.16.73.73,0,0,0-.18.17l0,0-1-.11c-.25-.06-.48,0-.56.26s.1.43.35.5l.92.4c.07.53.53.81,1.12,1l3.22,1.41-.12.41a.47.47,0,0,0,.27.58l1,.25a.43.43,0,0,0,.47-.23l.12,0a2.14,2.14,0,0,0-.44,2.24c1.14,3.79-2.39,4.23-1.14,6.89,2.47,5.28,4.31,1.89,9.3,7.49a22.85,22.85,0,0,0,2.62,2.47ZM107,89.28a7.43,7.43,0,0,0,.67-.55,2.86,2.86,0,0,0,.53.85Zm12.61,1.27a23.12,23.12,0,0,0,2.87-2.63c.09.18.18.37.25.55-1.35,1.61-3,3.23-3,3.23a3.86,3.86,0,0,0,.36.84l-3.87-1A6.73,6.73,0,0,0,119.64,90.55Zm-6.23-.74a2.81,2.81,0,0,0,1.11,1.33l-2.9-.72A7.36,7.36,0,0,0,113.41,89.81Zm-3.29,8.73a6.52,6.52,0,0,0,.09-3.41l10.56,3a18.94,18.94,0,0,1-2,2.15h0l-.06.05h0l0,0h0l-.31-.12-.11,0-.21-.07-.13,0-.2,0-.13,0-.2,0-.12,0-.2,0h-.1l-.23,0h-.07l-.24,0h-.3a8.4,8.4,0,0,0-1,.06C113.5,98.38,110.12,98.54,110.12,98.54Z"/><path class="cls-4" d="M122.17,74.26V71.84h-7.43c-.83,1.35-1.3,2.29-1.54,2.72-1,1.7-5.59,5.67-5.59,5.67,1.14,3.21,5.07,1.85,6.34,1a34.79,34.79,0,0,0,3.81-3.63C117.88,77.57,123.57,73.64,122.17,74.26Z"/><path class="cls-4" d="M127.86,75.32V71.84h-6.75c-1.26,1.92-1.92,3.24-2.22,3.77-.94,1.71-5.58,5.68-5.58,5.68,1.13,3.21,5.06,1.85,6.33,1a33.68,33.68,0,0,0,3.81-3.64C123.57,78.63,129.27,74.7,127.86,75.32Z"/><path class="cls-4" d="M132,77.47V71.84H127.6a47.4,47.4,0,0,0-3.11,5.92c-.79,1.71-4.68,5.68-4.68,5.68,1,3.21,4.25,1.85,5.31,1a31.43,31.43,0,0,0,3.19-3.64C128.41,80.78,133.18,76.85,132,77.47Z"/><path class="cls-1" d="M100.45,80.19s4.64-4,5.58-5.67,5.59-11.46,7.77-11.93,9,4.92,11.83,6.53,10.89-.27,13,2.28,5.77,9,9.18,16,5.49,14.58,7.48,18.08,4.54,7.39,10.42,15.72S186,151.5,186,151.5H152.52s-8.42-25.28-13.06-32-7.77-6.62-11.65-7.85-13.22-4.85-18.21-10.47-6.83-2.22-9.3-7.52c-1.25-2.68,2.28-3.12,1.14-6.93s5.44-4,7.31-2.07c.86.88,2.24,2.17,1.37,5.66,0,0,3.38-.17,4.9,1.44a7.44,7.44,0,0,1,3.61.42s4.83-4,4.73-8.37S122,77.37,115,74.05c0,0-2.52,3.31-4.43,3.5a35.21,35.21,0,0,1-3.8,3.64C105.51,82.05,101.58,83.4,100.45,80.19Z"/><g class="cls-10"><path class="cls-11" d="M148.81,96.72l-2.94-.94s0-.08,0-.12a.49.49,0,0,0,0-.11l-.06-.16a.61.61,0,0,0,0-.12l-.07-.14a1.76,1.76,0,0,0-.14-.23l-.06-.1a1.13,1.13,0,0,1-.1-.13.39.39,0,0,1-.08-.1l-.11-.12-.09-.08-.12-.11-.09-.07-.14-.1-.1-.06-.16-.09-.09,0a1.69,1.69,0,0,0-.27-.1l-21.17-6.73a.52.52,0,0,0-.32-.55l-1.31-.45a.55.55,0,0,0-.62.28L97.18,78.89a.49.49,0,0,0-.29-.51L95.83,78a.49.49,0,0,0-.6.36l-.16.46-3.86-.68a1.72,1.72,0,0,0-1.41,0,.79.79,0,0,0-.24.21l-1.1-.2c-.28-.09-.53-.07-.64.25s.08.48.36.58l1,.52c0,.6.53.94,1.17,1.17l3.49,1.81-.16.45a.52.52,0,0,0,.26.67L95,84a.46.46,0,0,0,.54-.23L118.7,92.1a.53.53,0,0,0,.32.6l1.3.44a.52.52,0,0,0,.6-.24l20.9,7.53a2.82,2.82,0,0,0,2.64-.48l.83.3h0l2.07.74a2.28,2.28,0,0,0,1.45-4.27Z"/></g><path class="cls-12" d="M147.65,96.64l4.48,1.3a2.28,2.28,0,0,0,1.17-4.36l-4.52-1.13Z"/><path class="cls-12" d="M147.65,96.64l4.48,1.3a2.28,2.28,0,0,0,1.17-4.36l-4.52-1.13Z"/><path class="cls-12" d="M147.65,96.64l4.48,1.3a2.28,2.28,0,0,0,1.17-4.36l-4.52-1.13Z"/><path class="cls-13" d="M151.23,95.36a3.85,3.85,0,0,0-.07-2.31l-2.38-.6-1.13,4.19,2.36.69A4,4,0,0,0,151.23,95.36Z"/><path class="cls-12" d="M91.66,79.79l1.31.57.34-1.26-1.43-.16c-.28-.07-.52,0-.61.29S91.38,79.71,91.66,79.79Z"/><path class="cls-12" d="M93.93,81.34l4,1.77,1-3.88-4.37-.49c-.86-.21-1.62-.13-1.9.89S93.08,81.09,93.93,81.34Z"/><path class="cls-13" d="M98.41,81.41,99,79.23l-4.37-.49c-.86-.21-1.62-.13-1.9.89a2,2,0,0,0,0,.24Z"/><path class="cls-12" d="M98.68,83.87l47.88,13.85A3.53,3.53,0,0,0,148.37,91L100,78.93Z"/><path class="cls-13" d="M150.5,94.37a3.11,3.11,0,0,0-2.13-3.4L100,78.93l-.46,1.74Z"/><path class="cls-14" d="M130.69,89.84a.9.9,0,0,0,.62,1.09l15.6,4.51a1.22,1.22,0,0,0,.62-2.32L131.77,89.2a.89.89,0,0,0-1.08.64Z"/><path class="cls-14" d="M125.13,84.72l1.33.35a.57.57,0,0,1,.33.72l-1.5,5.59a.56.56,0,0,1-.65.45l-1.33-.36a.56.56,0,0,1-.34-.72l1.5-5.58A.56.56,0,0,1,125.13,84.72Z"/><path class="cls-14" d="M99.24,78.31l1.07.29a.51.51,0,0,1,.31.64l-1.26,4.67a.52.52,0,0,1-.59.41L97.7,84a.51.51,0,0,1-.3-.65l1.25-4.67A.5.5,0,0,1,99.24,78.31Z"/><path class="cls-1" d="M111,90.32a8,8,0,0,0-.85,0c.87-3.49-.51-4.78-1.37-5.66-1.87-1.91-8.45-1.75-7.31,2.07S99.05,91,100.3,93.65c2.47,5.3,4.31,1.89,9.3,7.52.43.47.88.93,1.37,1.38Z"/><path class="cls-1" d="M111,65.61c-2.08,3.16-4.31,7.79-4.94,8.91-.94,1.7-5.58,5.67-5.58,5.67,1.13,3.21,5.06,1.86,6.34,1a35.21,35.21,0,0,0,3.8-3.64,1.72,1.72,0,0,0,.38-.08Z"/><path class="cls-11" d="M123,67.39h0c.08.06,3,2.63,10,5.52s-.53-3-.53-3h0c-2.62,0-5.34,0-6.76-.79C124.94,68.73,124,68.1,123,67.39Z"/><path class="cls-11" d="M115,74.05a4.27,4.27,0,0,1-1.18-2s-.22,2.08.44,2.87Z"/><path class="cls-11" d="M100.3,93.65s1-2.74,3.5-2.68c0,0-3,1.54-3.25,3.2Z"/><path class="cls-1" d="M67.87,56.64a17.11,17.11,0,0,0-9.41,5.54c-.08.09-.15.19-.23.29l-.23.32s-3.34.55-4.49,2.45a7.37,7.37,0,0,0-3.43,1.16,17.48,17.48,0,0,1-3.74-2.76,25.78,25.78,0,0,0-2.74,24.6c.53-.27,1.07-.55,1.62-.87,3.53-2,11.89-7.53,15.58-14.08,3-5.35,5.24-4.38,6.67-6.93h0c1.58-1.68,2-3.15,5.46-5.23C74.82,60,72.58,55.58,67.87,56.64Z"/><g class="cls-15"><path class="cls-16" d="M70.49,58.52c-2.4.71-4.93,2.68-4.42,3.25s2.88,2.76,3.5,2.11,4-2,3.1-3.54S71.18,58.32,70.49,58.52Z"/><g class="cls-17"><path d="M63.58,65.31a2.79,2.79,0,0,1,1.49-.13,3.39,3.39,0,0,1,1.24.51,3,3,0,0,1,.93,1,2.64,2.64,0,0,1,.45,1.43,4.25,4.25,0,0,1-1.43-.2,4.18,4.18,0,0,1-2-1.32A4,4,0,0,1,63.58,65.31Z"/></g></g></g></g></g></svg>