<svg xmlns="http://www.w3.org/2000/svg" viewBox="0 0 49.6 69.71"><defs><style>.cls-1{fill:#0dc58a;}</style></defs><title>Asset 24rocket_stars</title><g id="Layer_2" data-name="Layer 2"><g id="Layer_1-2" data-name="Layer 1"><path class="cls-1" d="M40,48a12.88,12.88,0,0,0-.42-2.78,8.91,8.91,0,0,0-1.12-2.51,8.37,8.37,0,0,0-.88-1.12,6.78,6.78,0,0,0-.57-.54l-.39-.32-.4.32a8.14,8.14,0,0,0-2.58,4.3,13.35,13.35,0,0,0-.41,2.72v0a10.83,10.83,0,0,1-2.49-1.32A68.37,68.37,0,0,0,33,36.11,38.13,38.13,0,0,0,33.51,29a31.05,31.05,0,0,0-1.09-6.83,19.8,19.8,0,0,0-6.78-10.62l-.38-.29-.38.29c-.37.29-1,.86-1.47,1.3a20.56,20.56,0,0,0-5.26,9,29.59,29.59,0,0,0-1.13,7,41,41,0,0,0,.43,7.13,62.46,62.46,0,0,0,2.33,10.9,11.14,11.14,0,0,1-2.47,1.29h0a13.35,13.35,0,0,0-.41-2.72,8.08,8.08,0,0,0-2.58-4.3l-.4-.32-.39.32c-.14.12-.39.35-.57.54a8.37,8.37,0,0,0-.88,1.12A8.61,8.61,0,0,0,11,45.25,12.3,12.3,0,0,0,10.54,48a17.67,17.67,0,0,0,.16,2.81,24.57,24.57,0,0,0,1.22,5.37,13.66,13.66,0,0,0,.54,1.31c0,.11.11.22.17.33a.41.41,0,0,0,.06.11.93.93,0,0,1,.05.1.73.73,0,0,0,.72.45h.91a.78.78,0,0,0,.74-.43l.15-.32.11-.21c.18-.38.35-.79.55-1.32A20.73,20.73,0,0,0,16.79,53a16.64,16.64,0,0,1,3.07-.3,11.84,11.84,0,0,1,2.36.22c.14.28.28.54.43.8l.15.25c.08.14.16.27.21.38a1,1,0,0,0,1,.55h.37l.81,0H26.5a1.08,1.08,0,0,0,1.06-.55l.41-.8c.09-.19.19-.39.29-.58l0,0a12.11,12.11,0,0,1,2.39-.23,16.64,16.64,0,0,1,3.07.3,20.73,20.73,0,0,0,.87,3.23c.2.52.37.94.56,1.32l.1.21.15.32a.79.79,0,0,0,.74.43h.91a.73.73,0,0,0,.72-.45l.06-.1.06-.11.16-.33c.19-.4.37-.83.55-1.31a24.59,24.59,0,0,0,1.21-5.37A17.67,17.67,0,0,0,40,48Zm-3.38-5.64.06.07a6.14,6.14,0,0,1,.75,1,7.62,7.62,0,0,1,1,2.15c0,.15.07.31.11.46a9.47,9.47,0,0,1-3.75,0l.09-.35A7.16,7.16,0,0,1,36.61,42.39Zm-16.3,1.88a42.85,42.85,0,0,0,5,.29,42.33,42.33,0,0,0,4.92-.29c0,.14-.07.27-.11.41a38,38,0,0,1-9.65,0C20.39,44.54,20.35,44.4,20.31,44.27ZM30.65,20.68c0,.13.1.25.14.38a65.19,65.19,0,0,0-11.09,0l.12-.38A56.79,56.79,0,0,1,30.65,20.68ZM22.1,16.3a19.45,19.45,0,0,1,2.18-2.61c.28-.28.66-.62,1-.89a17.71,17.71,0,0,1,5,6.9,61.19,61.19,0,0,0-10,0A19.36,19.36,0,0,1,22.1,16.3ZM18.25,28.84a28.24,28.24,0,0,1,1.08-6.68.19.19,0,0,0,0-.07,60.8,60.8,0,0,1,11.76,0l.12.38A29.22,29.22,0,0,1,32.28,29a36.74,36.74,0,0,1-.47,6.91c-.33,2.22-.74,4.67-1.35,7.2a39.66,39.66,0,0,1-10.44,0,67,67,0,0,1-1.35-7.37A39.84,39.84,0,0,1,18.25,28.84Zm-6.1,16.73a7.62,7.62,0,0,1,1-2.15,6.14,6.14,0,0,1,.75-1l.06-.07a7.18,7.18,0,0,1,1.79,3.3c0,.12,0,.23.07.35A9.42,9.42,0,0,1,12,46C12.08,45.88,12.11,45.72,12.15,45.57Zm3.76,5.18a26.73,26.73,0,0,1-.84,4.08H12.76a25.19,25.19,0,0,1-.84-4.14,17.9,17.9,0,0,1-.15-2.61c0-.35.05-.69.09-1a10.42,10.42,0,0,0,2.08.22,10.68,10.68,0,0,0,2-.21c0,.36.09.73.11,1.09A15.21,15.21,0,0,1,15.91,50.75Zm1.1,1,.12-.79c.06-.46.12-1,.15-1.49a13.36,13.36,0,0,0,2.9-1.38c.18.52.37,1,.57,1.55.27.7.54,1.35.83,2a13.33,13.33,0,0,0-1.72-.11A18.27,18.27,0,0,0,17,51.71Zm10.16.67-.31.62-.33.66H24c-.06-.12-.13-.23-.19-.33a2.25,2.25,0,0,1-.12-.21c-.15-.26-.29-.53-.43-.8a31.8,31.8,0,0,1-1.41-3.18c-.42-1.08-.8-2.21-1.15-3.38a40,40,0,0,0,4.52.26,42,42,0,0,0,4.5-.25c-.33,1.14-.72,2.29-1.17,3.43A26.77,26.77,0,0,1,27.17,52.38Zm3.5-.91a13.59,13.59,0,0,0-1.74.12c.26-.58.53-1.21.81-1.93.21-.54.41-1.09.59-1.63a12.86,12.86,0,0,0,2.92,1.4c0,.53.09,1,.15,1.49l.12.79A18.27,18.27,0,0,0,30.67,51.47Zm7.94-.78a25.19,25.19,0,0,1-.84,4.14H35.46a26.73,26.73,0,0,1-.84-4.08,16.3,16.3,0,0,1-.17-2.6c0-.36.06-.73.11-1.09a10.68,10.68,0,0,0,2,.21,10.42,10.42,0,0,0,2.08-.22c0,.34.07.68.09,1A17.9,17.9,0,0,1,38.61,50.69Z"/><path class="cls-1" d="M25.26,34.06h0A5.24,5.24,0,1,0,20,28.82,5.25,5.25,0,0,0,25.26,34.06Zm0-9.25a4,4,0,0,1,0,8h0a4,4,0,0,1,0-8Z"/><path class="cls-1" d="M25.26,32.09A3.27,3.27,0,1,0,22,28.82,3.27,3.27,0,0,0,25.26,32.09Z"/><path class="cls-1" d="M25.26,35.8a2.94,2.94,0,1,0,2.93,2.94A2.94,2.94,0,0,0,25.26,35.8Zm0,5.05a2.12,2.12,0,1,1,2.11-2.11A2.12,2.12,0,0,1,25.26,40.85Z"/><path class="cls-1" d="M25.26,37A1.79,1.79,0,1,0,27,38.74,1.79,1.79,0,0,0,25.26,37Z"/><path class="cls-1" d="M2.77,47.81a7.22,7.22,0,0,0,1.38.26,7.67,7.67,0,0,0,.23,1.48c.08.29.17.53.23.7a1.63,1.63,0,0,0,.13.26,2.74,2.74,0,0,0,.12-.26,6.39,6.39,0,0,0,.23-.7,7.63,7.63,0,0,0,.24-1.48,6,6,0,0,0,1.37-.26,4.05,4.05,0,0,0,.65-.25,1.78,1.78,0,0,0,.25-.13,1.78,1.78,0,0,0-.25-.13,5.3,5.3,0,0,0-.65-.25,6.57,6.57,0,0,0-1.37-.25,8.17,8.17,0,0,0-.24-1.48,6.39,6.39,0,0,0-.23-.7c-.07-.17-.12-.27-.12-.27a1.63,1.63,0,0,0-.12.27,6.12,6.12,0,0,0-.24.7,8.23,8.23,0,0,0-.23,1.48,6.55,6.55,0,0,0-1.38.25c-.27.09-.49.18-.65.25l-.24.13a2,2,0,0,0,.24.13A4.05,4.05,0,0,0,2.77,47.81Z"/><path class="cls-1" d="M44.77,13.81a7.22,7.22,0,0,0,1.38.26,7.67,7.67,0,0,0,.23,1.48c.08.29.17.53.23.7a1.63,1.63,0,0,0,.13.26,2.74,2.74,0,0,0,.12-.26,6.39,6.39,0,0,0,.23-.7,7.63,7.63,0,0,0,.24-1.48,6,6,0,0,0,1.37-.26,4.05,4.05,0,0,0,.65-.25,1.78,1.78,0,0,0,.25-.13,1.78,1.78,0,0,0-.25-.13,5.3,5.3,0,0,0-.65-.25,6.57,6.57,0,0,0-1.37-.25,8.17,8.17,0,0,0-.24-1.48,6.39,6.39,0,0,0-.23-.7c-.07-.17-.12-.27-.12-.27a1.63,1.63,0,0,0-.12.27,6.12,6.12,0,0,0-.24.7,8.23,8.23,0,0,0-.23,1.48,6.55,6.55,0,0,0-1.38.25c-.27.09-.49.18-.65.25l-.24.13a2,2,0,0,0,.24.13A4.05,4.05,0,0,0,44.77,13.81Z"/><path class="cls-1" d="M8,4.45A10.21,10.21,0,0,0,5.68,4a12.59,12.59,0,0,0-.39-2.44A8.55,8.55,0,0,0,4.91.44,3.88,3.88,0,0,0,4.71,0a3.88,3.88,0,0,0-.2.44,10.27,10.27,0,0,0-.38,1.15A12.59,12.59,0,0,0,3.74,4a10.94,10.94,0,0,0-2.27.42A9.45,9.45,0,0,0,.4,4.86a3.61,3.61,0,0,0-.4.21,2.69,2.69,0,0,0,.4.22,9.45,9.45,0,0,0,1.07.41,10.81,10.81,0,0,0,2.27.42,13.32,13.32,0,0,0,.38,2.44,10,10,0,0,0,.39,1.15,3.88,3.88,0,0,0,.2.44,3.88,3.88,0,0,0,.2-.44A8.36,8.36,0,0,0,5.3,8.56a13.32,13.32,0,0,0,.38-2.44A10.85,10.85,0,0,0,8,5.71,7.71,7.71,0,0,0,9,5.29a2.69,2.69,0,0,0,.4-.22A3.61,3.61,0,0,0,9,4.86,9.45,9.45,0,0,0,8,4.45Z"/><path class="cls-1" d="M47.92,65.6a8,8,0,0,0-1.63-.3A10.47,10.47,0,0,0,46,63.54c-.1-.34-.2-.62-.28-.82s-.14-.32-.14-.32l-.15.32a7.15,7.15,0,0,0-.27.82,8.77,8.77,0,0,0-.28,1.76,8,8,0,0,0-1.63.3,7,7,0,0,0-.77.3,2.18,2.18,0,0,0-.29.16l.29.15a5.41,5.41,0,0,0,.77.3,8,8,0,0,0,1.63.3,8.55,8.55,0,0,0,.28,1.75,6.78,6.78,0,0,0,.27.83l.15.32s.06-.12.14-.32a8.68,8.68,0,0,0,.28-.83,10.18,10.18,0,0,0,.28-1.75,8,8,0,0,0,1.63-.3,5.94,5.94,0,0,0,.77-.3l.29-.15-.29-.16A5.94,5.94,0,0,0,47.92,65.6Z"/><path class="cls-1" d="M46.92,25.6a8,8,0,0,0-1.63-.3A10.47,10.47,0,0,0,45,23.54c-.1-.34-.2-.62-.28-.82s-.14-.32-.14-.32l-.15.32a7.15,7.15,0,0,0-.27.82,8.77,8.77,0,0,0-.28,1.76,8,8,0,0,0-1.63.3,7,7,0,0,0-.77.3,2.18,2.18,0,0,0-.29.16l.29.15a5.41,5.41,0,0,0,.77.3,8,8,0,0,0,1.63.3,8.55,8.55,0,0,0,.28,1.75,6.78,6.78,0,0,0,.27.83l.15.32s.06-.12.14-.32a8.68,8.68,0,0,0,.28-.83,10.18,10.18,0,0,0,.28-1.75,8,8,0,0,0,1.63-.3,5.94,5.94,0,0,0,.77-.3l.29-.15-.29-.16A5.94,5.94,0,0,0,46.92,25.6Z"/></g></g></svg>