<svg xmlns="http://www.w3.org/2000/svg" viewBox="0 0 50.81 49.95"><defs><style>.cls-1{fill:#0dc58a;}.cls-2{fill:#263238;}.cls-3{opacity:0.1;}.cls-4,.cls-6,.cls-7{fill:#fff;}.cls-5{fill:#407bff;}.cls-6{opacity:0.6;}.cls-7{opacity:0.2;}</style></defs><title>Asset 26sad-roach-new</title><g id="Layer_2" data-name="Layer 2"><g id="Layer_1-2" data-name="Layer 1"><path class="cls-1" d="M11.09,15l-.2-.08a3.8,3.8,0,0,0,.31-1l.2,0A3.77,3.77,0,0,1,11.09,15ZM11,12.58A2.77,2.77,0,0,0,8.84,11l0-.21a3,3,0,0,1,2.31,1.73Z"/><path class="cls-1" d="M9.92,17l-2,.93-.09-.21a2.65,2.65,0,0,1-.27-.9,2.14,2.14,0,0,1,.08-.75,12.9,12.9,0,0,1,.62-1.42,1,1,0,0,0,.14-.85A.71.71,0,0,0,8,13.46a.86.86,0,0,0-.61.08.91.91,0,0,0-.51.54,1.56,1.56,0,0,0,.08,1l-2.2.69a3.09,3.09,0,0,1,0-2.22,3.42,3.42,0,0,1,1.91-1.72,3.57,3.57,0,0,1,2.11-.37,2.21,2.21,0,0,1,1.78,1.31,1.87,1.87,0,0,1,.15,1,4.56,4.56,0,0,1-.56,1.5,3.24,3.24,0,0,0-.37,1A1.6,1.6,0,0,0,9.92,17Zm-1.86,1.5,2.18-1,.88,1.92-2.19,1Z"/><path class="cls-1" d="M4.87,21.65l-1,1.41L3.69,23a1.94,1.94,0,0,1-.52-.51,1.45,1.45,0,0,1-.23-.54,9.17,9.17,0,0,1-.12-1.21.77.77,0,0,0-.23-.63.48.48,0,0,0-.4-.11.61.61,0,0,0-.38.28.73.73,0,0,0-.15.56,1.26,1.26,0,0,0,.44.67L.87,22.77A2.42,2.42,0,0,1,0,21.25a2.69,2.69,0,0,1,.66-1.89A2.86,2.86,0,0,1,2,18.3a1.75,1.75,0,0,1,1.72.22,1.49,1.49,0,0,1,.48.62,3.82,3.82,0,0,1,.19,1.24,2.14,2.14,0,0,0,.13.83A1.2,1.2,0,0,0,4.87,21.65Zm-.7,1.73,1.11-1.51,1.34,1L5.5,24.36Z"/><path class="cls-1" d="M26.94,49.2a.93.93,0,0,1-.83-.5,23.67,23.67,0,0,0-3.76-5.54.94.94,0,0,1-.21-.89c.7-2.43,1.8-5.75,1.81-5.78a.93.93,0,1,1,1.76.58s-.95,2.89-1.64,5.22a26.56,26.56,0,0,1,3.7,5.55,1,1,0,0,1-.4,1.26A1,1,0,0,1,26.94,49.2Z"/><polygon class="cls-2" points="28.49 49.95 21.28 49.95 25.1 47.78 28.3 47.91 28.49 49.95"/><ellipse class="cls-2" cx="26.26" cy="36.29" rx="6.23" ry="5.16" transform="translate(-9.63 9.49) rotate(-17.36)"/><path class="cls-2" d="M9.85,32.9A.94.94,0,0,1,9,32.32a.92.92,0,0,1,.5-1.21,1.07,1.07,0,0,0,.62-.78.92.92,0,0,1,.76-.83,6.9,6.9,0,0,0,.68-.18c1.26-.37,2.82-.82,7.74.55a9.62,9.62,0,0,0,4.9-8,.93.93,0,0,1,.93-.93h0a.93.93,0,0,1,.93.92,11.51,11.51,0,0,1-6.23,9.85.89.89,0,0,1-.68.06c-4.69-1.35-6-1-7.06-.65l-.29.08a2.87,2.87,0,0,1-1.58,1.63A.94.94,0,0,1,9.85,32.9Z"/><path class="cls-1" d="M20.72,26.24C19,19.23,14.25,1.15,29.32,0c13.51-1,17.22,17,18.12,23.22a73.94,73.94,0,0,1,.73,9.5,6.91,6.91,0,0,1-5.55,6.85c-7.36,1.49-14.32,1.71-19-.15a3.07,3.07,0,0,1-1.91-3.15A30.64,30.64,0,0,0,20.72,26.24Z"/><path class="cls-3" d="M47.44,23.26C46.59,17.39,43.25,1.07,31.55.05a3.4,3.4,0,0,0-3.34,1.77,3.35,3.35,0,0,0,.28,3.45c2.58,4,8.73,17.82,7.8,25.35-.42,3.43-2.57,6.16-.7,10a59,59,0,0,0,7-1,6.91,6.91,0,0,0,5.55-6.85A73.94,73.94,0,0,0,47.44,23.26Z"/><path class="cls-2" d="M45.42,32.86a.09.09,0,0,1-.09-.1,72.3,72.3,0,0,0-.73-9.48C42.36,7.8,36.33,0,27.16.65a.11.11,0,0,1-.1-.09.11.11,0,0,1,.09-.1c9.28-.68,15.38,7.2,17.63,22.79a72.76,72.76,0,0,1,.74,9.51.1.1,0,0,1-.1.1Z"/><ellipse class="cls-2" cx="43.74" cy="36.78" rx="6.23" ry="5.16" transform="translate(-8.98 14.72) rotate(-17.36)"/><path class="cls-1" d="M45.85,49.2a.93.93,0,0,1-.83-.5,23.67,23.67,0,0,0-3.76-5.54.94.94,0,0,1-.21-.89c.7-2.43,1.8-5.75,1.81-5.78a.93.93,0,0,1,1.76.58S43.67,40,43,42.29a26.09,26.09,0,0,1,3.69,5.55.94.94,0,0,1-.39,1.26A1,1,0,0,1,45.85,49.2Z"/><path class="cls-2" d="M43.9,20.86a1,1,0,0,1-.83-.5.94.94,0,0,1,.39-1.26h0a11.6,11.6,0,0,0,5.37-7.62c-2.7-1.13-7.56-3.68-8.62-5a1,1,0,0,1-.2-.43,4.79,4.79,0,0,1,.21-2.28l-.49-1A.93.93,0,0,1,41.38,2l.71,1.36a.92.92,0,0,1,0,.92,2.25,2.25,0,0,0-.23,1.22A41.5,41.5,0,0,0,50.2,10a.93.93,0,0,1,.6,1,13.59,13.59,0,0,1-6.47,9.71A1,1,0,0,1,43.9,20.86Z"/><path class="cls-2" d="M40.93,6.39a.43.43,0,0,1-.25-.07.47.47,0,0,1-.14-.65,4,4,0,0,1,2-1.52.47.47,0,0,1,.57.33.46.46,0,0,1-.33.57,3.09,3.09,0,0,0-1.43,1.13A.46.46,0,0,1,40.93,6.39Z"/><polygon class="cls-2" points="47.4 49.95 40.19 49.95 44.01 47.78 47.21 47.91 47.4 49.95"/><ellipse class="cls-4" cx="31.9" cy="17.73" rx="4.96" ry="4.46" transform="translate(-1.44 2.88) rotate(-5.06)"/><ellipse class="cls-2" cx="30.69" cy="18.16" rx="1.36" ry="2.48" transform="translate(-3.8 9.11) rotate(-15.9)"/><path class="cls-2" d="M26.26,18.57c3.13-.41,9.33-2.17,10.35-2.89-.8-2.35-4.55-4.37-7.9-3.23C25.69,13.47,26.26,18.57,26.26,18.57Z"/><path class="cls-2" d="M26.87,20.08c3.88-.74,8.94-2,10.38-2.77-.09,2.53-.82,5.1-4.79,6C29.22,24,26.87,20.08,26.87,20.08Z"/><ellipse class="cls-4" cx="21.53" cy="19.29" rx="3.05" ry="3.86" transform="translate(-7.07 15.09) rotate(-33.49)"/><path class="cls-2" d="M21.6,19.36c.24,1.11,0,2-.45,2.07s-1.08-.84-1.31-2,0-2,.45-2.06S21.37,18.25,21.6,19.36Z"/><path class="cls-2" d="M17.75,18.93c2.1.25,6.27,0,7-.41-.51-2-3-4.28-5.25-4C17.42,14.79,17.75,18.93,17.75,18.93Z"/><path class="cls-2" d="M18.14,20.24c2.61.12,6,.05,7-.31-.09,2-.61,3.89-3.28,3.86C19.67,23.76,18.14,20.24,18.14,20.24Z"/><path class="cls-2" d="M33.16,11.19a11.69,11.69,0,0,1-6.65-2,.93.93,0,0,1-.18-1.3.94.94,0,0,1,1.31-.18,10.12,10.12,0,0,0,7.43,1.47A.93.93,0,0,1,35.41,11,12,12,0,0,1,33.16,11.19Z"/><path class="cls-2" d="M16.53,9.59a1.12,1.12,0,0,1-.31-.05.92.92,0,0,1-.56-1.19A4,4,0,0,1,18.09,5.7a5.62,5.62,0,0,1,4.3.72.91.91,0,0,1,.29,1.28A.93.93,0,0,1,21.4,8a3.73,3.73,0,0,0-2.71-.53A2.2,2.2,0,0,0,17.41,9,.94.94,0,0,1,16.53,9.59Z"/><path class="cls-2" d="M23.86,25.28h-.08a.28.28,0,0,1-.19-.34,1.8,1.8,0,0,1,.95-1c1.06-.55,2.69-.44,4.83.33a.3.3,0,0,1,.17.36.29.29,0,0,1-.36.17c-2.45-.89-3.73-.7-4.36-.38a1.26,1.26,0,0,0-.69.69A.29.29,0,0,1,23.86,25.28Z"/><path class="cls-5" d="M15.08,24.26A24.54,24.54,0,0,0,5.8,27c1.6-.31,7.33,6.78,8.8,12.25A48.53,48.53,0,0,1,23.86,37C21.81,31.37,18.07,25,15.08,24.26Z"/><path class="cls-6" d="M15.08,24.26A24.54,24.54,0,0,0,5.8,27c1.6-.31,7.33,6.78,8.8,12.25A48.53,48.53,0,0,1,23.86,37C21.81,31.37,18.07,25,15.08,24.26Z"/><path class="cls-1" d="M15.08,24.26c-3.54-.4-9.29,2.56-9.29,2.56a1.52,1.52,0,0,0-.19,2.39c.54-.77,6.48-2.76,8.71-3C13.2,25.15,14.23,24.41,15.08,24.26Z"/><path class="cls-7" d="M15.08,24.26c-3.54-.4-9.29,2.56-9.29,2.56a1.52,1.52,0,0,0-.19,2.39c.54-.77,6.48-2.76,8.71-3C13.2,25.15,14.23,24.41,15.08,24.26Z"/><path class="cls-2" d="M9.85,32.9a.93.93,0,0,1-.78-.43,3.93,3.93,0,0,1-.16-2.91.94.94,0,0,1,1.16-.63.93.93,0,0,1,.62,1.16,2.42,2.42,0,0,0-.06,1.37.92.92,0,0,1-.27,1.28A.88.88,0,0,1,9.85,32.9Z"/></g></g></svg>