<svg xmlns="http://www.w3.org/2000/svg" viewBox="0 0 247.63 186.18"><defs><style>.cls-1{isolation:isolate;}.cls-2,.cls-3{fill:#ddecff;}.cls-10,.cls-20,.cls-3{mix-blend-mode:multiply;}.cls-4{fill:#60a8ff;}.cls-5{fill:#223a7a;}.cls-25,.cls-6{fill:#fff;}.cls-7{fill:#1c83ff;}.cls-8{fill:#ff9d8c;}.cls-9{fill:#8593b6;}.cls-11{fill:#8e9bbb;}.cls-12{fill:#dee1eb;}.cls-13{fill:#818fb3;}.cls-14{fill:#6baeff;}.cls-15{fill:#43588e;}.cls-16{fill:#f6f7fa;}.cls-17{fill:#d9dee8;}.cls-18{fill:#596b9b;}.cls-19{fill:#7a89af;}.cls-20{fill:#bdc4d7;}.cls-21{fill:#6f7fa9;}.cls-22{fill:#9ca6c3;}.cls-23{fill:#d2e6ff;}.cls-24{fill:#ff5f42;}.cls-25{font-size:6.77px;font-family:Quicksand-Bold, Quicksand Bold;font-weight:700;}.cls-26{fill:#67acff;}</style></defs><title>Asset 1vector-support</title><g class="cls-1"><g id="Layer_2" data-name="Layer 2"><g id="OBJECTS"><path class="cls-2" d="M42.43,176.37S11.6,154.41,2.72,117s4.67-82.7,30.37-105.6S105,4,125.6,23.12l20.56,19.16a96.09,96.09,0,0,0,45.32,9.81c25.69-.93,48.59,34.11,54.66,61.67s-8.41,64-8.41,64Z"/><path class="cls-3" d="M28.42,182A60,60,0,0,1,1.32,143.2c-5.61-27.1,18.69-51.86,21-65.41S19.54,47.42,41,34.34s59.81-8.41,74.29-11.68S146.62-3,175.59,2.1s57,20.56,58.4,54.2-9.34,34.57,1.41,52.79,14.95,30.84,9.81,49.53-15.89,23.83-15.89,23.83Z"/><path class="cls-3" d="M73.29,175.9c-1.33-1.4-20.94-40.64.9-76.62s76.65-31.77,98.48-17.75,32.53,32.23,34.76,51.39S195,182,195,182Z"/><rect class="cls-4" x="199.03" y="91.61" width="30.84" height="18.22" rx="5"/><polygon class="cls-4" points="214.45 116.96 218.44 107.5 210.46 107.5 214.45 116.96"/><polygon class="cls-5" points="214.35 97.59 221.56 97.59 221.56 98.65 225.1 96.61 221.56 94.57 221.56 95.63 214.35 95.63 214.35 97.59"/><polygon class="cls-6" points="225.1 101.74 217.89 101.74 217.89 100.68 214.35 102.72 217.89 104.76 217.89 103.71 225.1 103.71 225.1 101.74"/><path class="cls-5" d="M209.93,103.59l-.35.13a10.77,10.77,0,0,1-1.62-2.55,9.12,9.12,0,0,1-.58-3l.26-.1-1.53-3.65a2.92,2.92,0,0,0-.74.84c-.86,1.46-.78,3.69.09,5.88s1.8,4.14,3.49,5.36a3.35,3.35,0,0,0,2.52.75Z"/><path class="cls-5" d="M211,103.16l-.47.18,1.56,3.73a2.55,2.55,0,0,0,.47-.2.91.91,0,0,0,.41-1.13l-.81-2.06A.93.93,0,0,0,211,103.16Z"/><path class="cls-5" d="M207.3,93.82a4,4,0,0,0-.61.28l1.56,3.73.52-.22a.9.9,0,0,0,.5-1.16l-.82-2.11A.91.91,0,0,0,207.3,93.82Z"/><path class="cls-7" d="M66,169.6v-42s-.47-11.33,5.49-14.6,31.07-1.52,31.07-1.52V169.6Z"/><path class="cls-8" d="M110.41,72.07s-1.51,12.73-2.1,13.78l-.58,1.05-2.92,2s5.6,7.94,12.5,9.22,6.3-2.8,6.3-2.8l-1-2.22L124,80.94S111.47,75.22,110.41,72.07Z"/><path class="cls-6" d="M101.19,89.94l4.55-2a21.42,21.42,0,0,0,9.7,7.59c6.77,2.81,6.89,1.17,7.24,0a4.43,4.43,0,0,0-.12-2.45l.5-4.09,2.71.9L135.18,166,111,167.14Z"/><path class="cls-5" d="M123.5,89.08s1.63,3.78,3.15,12.65a301.48,301.48,0,0,1,3.27,34.11c.35,10.28.59,33.76.59,33.76H161c.35,0,2.45-11.57,2.45-11.57s-13.31-11.4-14-13.27c-.47-1.25-.24-24.34-2.22-35S142.65,97,137.28,94.38A116.12,116.12,0,0,0,123.5,89.08Z"/><path class="cls-9" d="M139.38,156.21a.28.28,0,0,1-.28-.28c0-.83-.15-12.7-.29-24.17s-.29-23.35-.29-24.19a.28.28,0,0,1,.28-.28.29.29,0,0,1,.28.28c0,.84.15,12.7.29,24.18s.29,23.34.29,24.18A.27.27,0,0,1,139.38,156.21Z"/><path class="cls-5" d="M78.64,153.36l-.23,16.24h35.51s1.52-13.79.93-15.07S78.64,153.36,78.64,153.36Z"/><g class="cls-10"><path class="cls-11" d="M118.16,85.5a19,19,0,0,0,5,2.67l.83-7.23s-9.38-4.3-12.57-7.5A19.58,19.58,0,0,0,118.16,85.5Z"/></g><path class="cls-8" d="M134.94,48.35a25.17,25.17,0,0,1,2.92,9.35c.47,5.14,0,18.34-4.2,23.94s-13,4-16.94.59c-3.64-3.11-7.24-6.54-8.17-13.32s2-19.62,10.27-22.31S134.94,48.35,134.94,48.35Z"/><path class="cls-8" d="M145.48,162.25H144l-2.08,0-.49,0c-.74,0-1.36.07-1.95,0h0c-.12,0-.3,0-.45,0a.59.59,0,0,1-.18,0,2.83,2.83,0,0,1-.78-.3,52.22,52.22,0,0,0-12.11-1.62c-5.22,0-9.9.38-10.66-.26s-1.23-7.2,3.22-7.63l5.48,2.08s12.5-1.49,17.09,1.89S145.48,162.25,145.48,162.25Z"/><path class="cls-5" d="M139.42,162.2c-.12,0-.3,0-.45,0a5.34,5.34,0,0,0-.48-.64c-1.41-1.44-4.82-2.37-6.06-2.67a.21.21,0,0,1-.15-.25.21.21,0,0,1,.26-.16c1.8.43,5.62,1.55,6.7,3.37A2,2,0,0,1,139.42,162.2Z"/><path class="cls-5" d="M141.89,162.17h-.5c-1.54-2.81-4.06-3.62-7.18-4.62l-.18-.06a.23.23,0,0,1-.14-.27.22.22,0,0,1,.27-.14l.18.06C137.63,158.19,140.29,159,141.89,162.17Z"/><path class="cls-5" d="M144.44,162.24H144a12.33,12.33,0,0,0-8.12-6,.21.21,0,0,1-.17-.25.21.21,0,0,1,.24-.17A12.62,12.62,0,0,1,144.44,162.24Z"/><path class="cls-5" d="M111.35,63.13a11,11,0,0,0,4.38-4.67,13.33,13.33,0,0,0,1.58-6.54,20.1,20.1,0,0,1,8.17.93c4.91,1.46,10.75,3.45,15.65.64s4.91-7.3,2.52-9.17c-2.69-2.09-8-.81-8-.81s2.05-2,.94-3.16-5.14.35-5.14.35-4.91-3.91-14.19-3.44-13.73,7-14.25,14.19a40,40,0,0,0,2.1,14.48Z"/><g class="cls-10"><path class="cls-11" d="M130.19,64.89a15,15,0,0,0-.65,4.18c-.1,1.07-.3,2.32.68,3,.47.34,2.69,1.28,1.55,2a3,3,0,0,1-1.66.19c-.34,0-.68,0-1-.06s-.73-.14-1.1-.14a.22.22,0,0,0-.1.4A4.62,4.62,0,0,0,130,75a3.26,3.26,0,0,0,1.77-.32,1.26,1.26,0,0,0,.81-.9,1.46,1.46,0,0,0-.7-1.26c-.44-.32-1-.48-1.42-.79-.62-.45-.57-1.19-.53-1.88.11-1.66.49-3.3.64-5,0-.25-.33-.25-.41,0Z"/></g><path class="cls-5" d="M135,68.77c-.17,1-.89,1.68-1.6,1.55s-1.14-1-1-2,.89-1.68,1.6-1.55S135.14,67.78,135,68.77Z"/><path class="cls-5" d="M126,68c-.16,1.06-.91,1.83-1.68,1.72s-1.25-1.07-1.1-2.13.91-1.83,1.68-1.72S126.18,66.93,126,68Z"/><path class="cls-5" d="M132.88,64.71c.55.09,1.1,0,1.65,0l.39,0c.1,0-.17,0,0,0l.08,0,.21,0,.35.1a1.19,1.19,0,0,0,.33,0l.18,0-.11,0,.22,0a.6.6,0,0,0,.42-.73.68.68,0,0,0-.12-.24l-.07-.09.07.07-.08-.09a.3.3,0,0,0-.12-.13l-.13-.1a1.6,1.6,0,0,0-.51-.2,3.81,3.81,0,0,0-1-.13,6.63,6.63,0,0,0-1,.08,2,2,0,0,0-.85.31.57.57,0,0,0-.26.55.53.53,0,0,0,.39.46Z"/><path class="cls-5" d="M126.65,63.15a1.67,1.67,0,0,0-.23-.12c-.06,0-.24-.12-.11-.05l-.15-.08a3.43,3.43,0,0,0-.7-.25,4.79,4.79,0,0,0-1.64-.12,4,4,0,0,0-1.62.51,1,1,0,0,0-.21.15l-.12.15,0-.05a.57.57,0,0,0-.25.47.48.48,0,0,0,.26.43.73.73,0,0,0,.56,0h-.29a1.09,1.09,0,0,0,.44,0l.06,0,.18,0s.21,0,0,0H123l.26,0c.39,0,.77,0,1.16-.06s.72,0,1.08,0l.46,0c.09,0,.05,0,0,0l.1,0,.18.06a.54.54,0,0,0,.42-1Z"/><path class="cls-5" d="M129.43,79.39A5.28,5.28,0,0,1,132.06,77c-1-.1-5.6-.53-6.76.13-1.31.75.24,3.72,2.94,3.87a3.37,3.37,0,0,0,.79,0A3.81,3.81,0,0,1,129.43,79.39Z"/><path class="cls-12" d="M108.08,73.12s.47,1.81,3.15,3.91a31.35,31.35,0,0,0,6.58,3.64l.31-1.36s-4-1.75-5.89-3.68a7.74,7.74,0,0,1-2.11-3Z"/><path class="cls-5" d="M118.59,78.3A3.38,3.38,0,0,1,122.11,81c.15,1.11-.89,2.35-3.32,1.26C115.77,80.92,116.43,78.4,118.59,78.3Z"/><path class="cls-12" d="M109.77,59.74s.94-6.71,5.43-11.27c8.59-8.7,15.89-8.18,15.89-8.18s-.06-1.22-2.8-2.16c-2.58-.87-3.74-.41-3.74-.41a21.67,21.67,0,0,0-13,7.19,28,28,0,0,0-6.59,15Z"/><path class="cls-6" d="M109.13,58.92c-5.62-1-8.76,3.45-9,7.89s3,7.81,7.3,7.47C117.13,73.53,116,60.09,109.13,58.92Z"/><path class="cls-13" d="M106.33,70a3.83,3.83,0,0,1-3.46-2.06A4.26,4.26,0,0,1,103,63.5a.21.21,0,0,1,.29-.06.22.22,0,0,1,.06.3,3.85,3.85,0,0,0-.15,4,3.42,3.42,0,0,0,3.2,1.84,3.72,3.72,0,0,0,3.06-1.66,4.68,4.68,0,0,0,.47-4.15,3.17,3.17,0,0,0-3.15-2.07.2.2,0,0,1-.24-.18.21.21,0,0,1,.18-.24,3.55,3.55,0,0,1,3.6,2.34,5.13,5.13,0,0,1-.5,4.54A4.15,4.15,0,0,1,106.45,70Z"/><path class="cls-5" d="M102.24,88.3s-17,4.21-23,11-8.76,40.18-8.88,46.37,4.21,8.76,6.78,10.51,13.9,4.91,23,5.38,17.75,0,17.75,0a12.15,12.15,0,0,1,1.37-4.91c1.3-2.71,2.95-3.27,2.95-3.27l-7.82-2.8S113,126,110.88,114.12A105.59,105.59,0,0,0,102.24,88.3Z"/><path class="cls-9" d="M130.51,146.64l-.12,0a.27.27,0,0,1-.14-.37c1.6-3.61,3.25-10.68,4.18-15.65l.08-.4c.28-1.46.63-3.28-.07-4.53-.35-.64-1.16-2-1.94-3.36l-1.78-3.09c-.41-.76.89-2.8,2.76-5.59.51-.75,1-1.41,1.2-1.85.67-1.15.23-2.21-.29-3.44l-.17-.42c-.47-1.15-1-2.3-1.52-3.41-.2-.45-.41-.91-.62-1.36-.28-.61-.55-1.22-.83-1.84a108.06,108.06,0,0,0-5.54-11.16.28.28,0,0,1,.1-.39.28.28,0,0,1,.38.1,108.32,108.32,0,0,1,5.58,11.22c.27.62.55,1.23.82,1.84l.63,1.36c.51,1.11,1.05,2.27,1.52,3.42l.17.42c.53,1.25,1.07,2.55.26,3.94-.26.46-.71,1.12-1.22,1.88-1,1.46-3,4.49-2.73,5,.21.38,1,1.68,1.77,3.06s1.59,2.73,1.95,3.37c.8,1.44.42,3.37.12,4.92l-.07.39c-.34,1.81-2.14,11.07-4.23,15.78A.28.28,0,0,1,130.51,146.64Z"/><path class="cls-9" d="M113.86,147.63a.32.32,0,0,1-.2-.08c-1.33-1.34-7.73-12.43-8.2-14.51-.27-1.14.39-4,1-6.83a22.84,22.84,0,0,0,.86-5c-.22-.91-1.86-2.25-3.44-3.54-1.91-1.56-3.89-3.18-4.27-4.63-.44-1.65-.06-12,.18-18.86.09-2.46.16-4.41.16-5.1a.28.28,0,0,1,.28-.28h0a.28.28,0,0,1,.29.28c0,.7-.07,2.65-.16,5.12-.23,6.41-.62,17.12-.2,18.7.33,1.27,2.32,2.9,4.08,4.33s3.37,2.76,3.63,3.85c.17.73-.31,2.84-.86,5.27-.59,2.61-1.26,5.57-1,6.58.46,2.05,6.75,12.92,8,14.24a.28.28,0,0,1,0,.4A.32.32,0,0,1,113.86,147.63Z"/><path class="cls-9" d="M90.91,142.78h0a.28.28,0,0,1-.24-.32c.21-1.47,3.45-30.71,3.6-32.95a.28.28,0,0,1,.3-.27.29.29,0,0,1,.26.3c-.15,2.25-3.39,31.53-3.6,33A.28.28,0,0,1,90.91,142.78Z"/><path class="cls-9" d="M114.15,150.72a.18.18,0,0,1-.1,0c-.72-.29-3.89-1.36-7.91-2.71-8.11-2.74-19.21-6.48-21.32-7.58a.28.28,0,1,1,.26-.5c2.07,1.08,13.61,5,21.24,7.54,4,1.36,7.21,2.43,7.94,2.73a.28.28,0,0,1,.15.37A.27.27,0,0,1,114.15,150.72Z"/><path class="cls-9" d="M110.25,162.37c-7.13,0-21-1.29-31.47-5a.3.3,0,0,1-.17-.36.29.29,0,0,1,.36-.18c13.27,4.7,31.84,5.5,35.3,4.72a.29.29,0,0,1,.12.56A23.34,23.34,0,0,1,110.25,162.37Z"/><path class="cls-14" d="M28.6,92.24c2.22,2,5,3.2,7,5.45.77.89,1.46,1.83,2.17,2.76.51.67,1.89,1.8,2.12,2.65.09.37.07-.14,0-.51,0,0,0,0,0,0-.2-1.72-.34-3.45-.4-5.18s.05-3.46-.06-5.18a8.24,8.24,0,0,0-2.9-6.32c-1-.74-2.22-1.19-3.11-2s-.51-1.68,0-2.56a8.52,8.52,0,0,0,1.21-2.57,4.49,4.49,0,0,0-.74-3.09c-1.15-1.94-3.72-4.1-6.15-3.81-2,.24-2.25,2.58-2.22,4.21s.18,3.16.2,4.74-.27,3.22-.29,4.84A8.42,8.42,0,0,0,28.6,92.24Z"/><path class="cls-14" d="M49.18,117.52a26.4,26.4,0,0,1,2.19-4.18,31.7,31.7,0,0,0,3.32-5.68c.82-2.1.7-4.34.78-6.55a41.9,41.9,0,0,0,.41-4.87c-.06-.78-.51-2-1.52-1.91-.79.1-1.25,1.07-1.56,1.69a32.1,32.1,0,0,0-1.28,3.38c-.15.45-.3.9-.49,1.33-.11.25-.47.86-.81.78-.57-.14,0-2.49,0-2.9a38.14,38.14,0,0,0,1.17-6.17c.13-3.11-.11-6.81-3.16-8.51a2.16,2.16,0,0,0-2.55,0,4.21,4.21,0,0,0-1.07,2.72,18.7,18.7,0,0,0,1.26,8.3,24.08,24.08,0,0,1,1.73,6.92c.06,2.29-1.13,4.33-1.69,6.5a20.62,20.62,0,0,0-.72,6.41c0,1.4.05,2.79.15,4.19s.21,2.57.36,3.85c0,.26.06.53.1.8-.5-1.19-.67-2.55-1.08-3.75-.72-2.12-1.57-4.2-2.27-6.34a51.92,51.92,0,0,0-1.88-5.24,12.55,12.55,0,0,0-2.91-4.44,4.25,4.25,0,0,0-2.85-1.11,8.34,8.34,0,0,0-2,.42,2.22,2.22,0,0,1-2.11-.37c-2.18-1.68-2.84-4.68-4.46-6.8-1.2-1.58-4.06-4.28-6.16-2.56a5.09,5.09,0,0,0-1.36,4,9.91,9.91,0,0,0,1.7,4.68c.95,1.52,2.16,2.87,3,4.43a4.68,4.68,0,0,1,.51,2.83,6.72,6.72,0,0,0,.17,2.86c1,2.83,4.12,2.44,6.54,2.51a18.32,18.32,0,0,1,5.14.85,5.73,5.73,0,0,1,3.74,3.68,13,13,0,0,0,1.65,4,4.06,4.06,0,0,0,1.61,1.2c1,.42,3.83.6,3.85.34a13.09,13.09,0,0,1,.75-2.65C48,120.57,48.54,119,49.18,117.52Z"/><path class="cls-14" d="M62.58,117c-.25-1.62-.21-3.4-1-4.88a.22.22,0,0,0-.3-.08c-.55.3-.57,1.19-.62,1.73-.07.9,0,1.81-.13,2.7a20.51,20.51,0,0,1-1.12,4.7,5.06,5.06,0,0,1-3.52,3.16,8.83,8.83,0,0,0-3.07,1.36A6.56,6.56,0,0,0,51,128.16a37.86,37.86,0,0,0-2.2,8.11c-.35,1.83-.64,3.67-1.08,5.48a53.61,53.61,0,0,0-1.18,5.46c0,.1-.09.19-.13.28-.11.28.32.43.47.2a18.12,18.12,0,0,1,6.8-6.61c1.32-.67,3.07-.81,4.17-1.87a3.65,3.65,0,0,0,.82-3.12,9.9,9.9,0,0,0-1.56-3.84,3.19,3.19,0,0,1-.7-2.2,2.84,2.84,0,0,1,1.42-1.73c1.21-.76,2.63-1.09,3.62-2.18A5.9,5.9,0,0,0,63,122.52,25.71,25.71,0,0,0,62.58,117Z"/><path class="cls-14" d="M38.66,126.31a23.53,23.53,0,0,0-5.52-5.11c-1.12-.74-3.77-2.21-4.3,0-.31,1.28.95,2.55,1.77,3.36a35,35,0,0,1,3.75,3.65c-1.31.42-2.67.5-3.8,1.4-1.34,1.07-1.94,3.13-.61,4.43a8.31,8.31,0,0,0,2.31,1.42c1.05.51,2.11,1,3.19,1.42a26.62,26.62,0,0,1,6.64,3.53c2,1.62,3.91,4.35,4.07,7,0,.25-.08,0,.07-.09.09.07.36-.06.36-.21a27.76,27.76,0,0,0-2.34-11.22A47.37,47.37,0,0,0,38.66,126.31Z"/><path class="cls-15" d="M33.31,89.87c.86,1.77,1.75,3.5,2.7,5.23a41.38,41.38,0,0,1,2.5,5.09c.84,2.19,1.72,4.34,2.61,6.5a63.19,63.19,0,0,1,2.41,6.89,80.5,80.5,0,0,1,2.73,14,58.28,58.28,0,0,1,.29,7.24c0,1.89-.27,3.76-.44,5.63a33.25,33.25,0,0,0-.16,5.9c.14,1.64.4,3.58,1.67,4.75a.29.29,0,0,0,.46-.35c-1.51-3.1-1.43-6.48-1.14-9.84.16-1.86.38-3.7.44-5.57a56.1,56.1,0,0,0-.23-7.1,84.31,84.31,0,0,0-2.57-13.73,60,60,0,0,0-2.25-6.79c-.88-2.23-1.9-4.39-2.75-6.63-1.54-4-3.89-7.64-6-11.41-.11-.19-.39,0-.3.18Z"/><path class="cls-15" d="M46.33,123a33.88,33.88,0,0,1,1.5-8.59c.46-1.31,1-2.59,1.47-3.9a7.48,7.48,0,0,0,.64-3.74.13.13,0,0,0-.25,0c-.2.66-.17,1.39-.31,2.06a16.48,16.48,0,0,1-.52,2c-.43,1.36-1,2.67-1.5,4A19.81,19.81,0,0,0,46.13,123a.1.1,0,0,0,.2,0Z"/><path class="cls-15" d="M29.26,106c1.17,2.83,4.68,3,7.24,3.62a6.77,6.77,0,0,1,4.15,3.26A24.78,24.78,0,0,1,43,118.6a0,0,0,0,0,0,0c-.72-3.39-1.75-7.47-5.24-9-2.8-1.26-6.48-.63-8.27-3.65-.09-.15-.36-.05-.29.12Z"/><path class="cls-15" d="M44.48,122.51c.14.18.27.38.41.56a1.48,1.48,0,0,0,.24.26.58.58,0,0,0,.32.16s.09-.06.06-.1-.16-.16-.24-.23l-.25-.22-.47-.48a0,0,0,0,0-.07.05Z"/><path class="cls-15" d="M37.17,131.47a28.7,28.7,0,0,1,5.36,5.76,36.1,36.1,0,0,1,1.95,3.21,38.07,38.07,0,0,1,1.58,3.72c0,.1.21.1.19,0-.28-2.65-2-4.93-3.31-7.14a16.94,16.94,0,0,0-2.5-3,22.87,22.87,0,0,0-3.09-2.73c-.14-.09-.31.13-.18.24Z"/><path class="cls-15" d="M53.23,128.34c-1,.55-1,2.09-1,3.07,0,1.88.43,3.65-.39,5.44a42.12,42.12,0,0,1-2.88,4.48,9.72,9.72,0,0,0-1.72,4.91c0,.09.15.15.19,0a20.37,20.37,0,0,0,.74-2.45,10.27,10.27,0,0,1,1.19-2.53,42.17,42.17,0,0,0,2.74-4.17,9.73,9.73,0,0,0,.61-4.87c0-1.1-.14-2.86.74-3.67.14-.13,0-.35-.2-.26Z"/><path class="cls-6" d="M46.74,146.41c-3.92,0-11.37-.1-11.37-.1L37.21,160a6.22,6.22,0,0,0,6.16,5.38h6.74A6.2,6.2,0,0,0,56.26,160l1.85-13.7S50.65,146.36,46.74,146.41Z"/><polygon class="cls-16" points="235.92 121.24 213.59 165.47 148.49 165.94 168.58 120.62 235.92 121.24"/><path class="cls-17" d="M105.29,165.66v-3.54h42.14l19.39-42.51h67.4l1.69,1.63H170.08l-20.15,44.39S105.29,165.55,105.29,165.66Z"/><path class="cls-17" d="M202.12,145.65c-.74,2.2-4.73,3.91-8.92,3.8s-7-2-6.25-4.18,4.73-3.91,8.92-3.81S202.85,143.44,202.12,145.65Z"/><path class="cls-6" d="M149.93,165.91a.23.23,0,0,1-.11,0,.27.27,0,0,1-.14-.37L169.9,121h66a.28.28,0,0,1,0,.56H170.26l-20.07,44.22A.28.28,0,0,1,149.93,165.91Z"/><rect class="cls-18" x="24.91" y="169.01" width="77.44" height="17.17"/><rect class="cls-19" x="101.91" y="169.01" width="139.33" height="17.17"/><polygon class="cls-20" points="102.36 169.01 101.91 169.01 24.91 169.01 24.91 172.17 101.91 172.17 102.36 172.17 241.25 172.17 241.25 169.01 102.36 169.01"/><rect class="cls-21" x="21.18" y="165.63" width="84.57" height="4.2"/><rect class="cls-22" x="105.3" y="165.63" width="139.33" height="4.2"/><rect class="cls-6" x="52.4" y="55.77" width="33.46" height="19.77" rx="5.43"/><polygon class="cls-6" points="93.66 65.65 83.39 61.32 83.39 69.98 93.66 65.65"/><circle class="cls-5" cx="62.65" cy="65.65" r="1.89"/><circle class="cls-5" cx="69.13" cy="65.65" r="1.89"/><circle class="cls-5" cx="75.62" cy="65.65" r="1.89"/><path class="cls-4" d="M222,13.78H158.87a7.34,7.34,0,0,0-7.34,7.34V51.06a7.34,7.34,0,0,0,7.34,7.34h5.66A25.87,25.87,0,0,1,162,70.31,31.66,31.66,0,0,0,175.71,58.4H222a7.34,7.34,0,0,0,7.34-7.34V21.12A7.34,7.34,0,0,0,222,13.78Z"/><path class="cls-6" d="M195.06,28.05h-31.3a1.56,1.56,0,0,1-1.56-1.56h0a1.56,1.56,0,0,1,1.56-1.56h31.3a1.56,1.56,0,0,1,1.56,1.56h0A1.56,1.56,0,0,1,195.06,28.05Z"/><path class="cls-23" d="M217.51,37.12H163.15a1,1,0,0,1-1-.95h0a1,1,0,0,1,1-1h54.36a1,1,0,0,1,1,1h0A1,1,0,0,1,217.51,37.12Z"/><path class="cls-23" d="M217.51,42.42H163.15a1,1,0,0,1-1-1h0a1,1,0,0,1,1-1h54.36a1,1,0,0,1,1,1h0A1,1,0,0,1,217.51,42.42Z"/><path class="cls-23" d="M205.65,48.06h-42.5a1,1,0,0,1-1-1h0a1,1,0,0,1,1-1h42.5a1,1,0,0,1,.95,1h0A.94.94,0,0,1,205.65,48.06Z"/><path class="cls-6" d="M217.08,28.05H202.15a1.56,1.56,0,0,1-1.56-1.56h0a1.56,1.56,0,0,1,1.56-1.56h14.93a1.56,1.56,0,0,1,1.56,1.56h0A1.56,1.56,0,0,1,217.08,28.05Z"/><rect class="cls-6" x="161.36" y="83.06" width="19.21" height="13.84" rx="2"/><path class="cls-21" d="M171.08,92.05a.46.46,0,0,1-.27-.09l-9.23-7.63a.42.42,0,0,1,.54-.65l8.95,7.4,8.73-7.6a.42.42,0,0,1,.59,0,.41.41,0,0,1,0,.59l-9,7.83A.42.42,0,0,1,171.08,92.05Z"/><path class="cls-21" d="M161.85,96.59a.43.43,0,0,1-.3-.72L168,89.09a.42.42,0,1,1,.61.58l-6.45,6.79A.42.42,0,0,1,161.85,96.59Z"/><path class="cls-21" d="M180.07,96.34a.46.46,0,0,1-.3-.12l-6.42-6.45a.42.42,0,0,1,0-.6.43.43,0,0,1,.6,0l6.42,6.45a.42.42,0,0,1,0,.6A.42.42,0,0,1,180.07,96.34Z"/><circle class="cls-24" cx="181.45" cy="82.64" r="5.67"/><text class="cls-25" transform="translate(177.47 85.03)">85</text><rect class="cls-5" x="203" y="70.86" width="37.61" height="9.69" rx="4"/><path class="cls-6" d="M207.64,78.25a.46.46,0,0,1-.35-.16.55.55,0,0,1-.12-.4l.14-1.25s0-.06,0-.07,0,0-.08,0l-1,.74a.51.51,0,0,1-.4.11.53.53,0,0,1-.33-.25.48.48,0,0,1,0-.44.46.46,0,0,1,.29-.27l1.16-.53s.05,0,.05,0,0,0-.05,0l-1.16-.53a.48.48,0,0,1-.29-.3.54.54,0,0,1,0-.41.53.53,0,0,1,.33-.25.49.49,0,0,1,.4.09l1,.76s.06,0,.08,0,0,0,0-.07l-.14-1.25a.55.55,0,0,1,.12-.4.5.5,0,0,1,.39-.16.45.45,0,0,1,.36.16.47.47,0,0,1,.11.4L208,75s0,.06,0,.07,0,0,.07,0l1-.75a.49.49,0,0,1,.4-.1.46.46,0,0,1,.33.25.48.48,0,0,1,0,.44.46.46,0,0,1-.29.27l-1.16.53s-.05,0-.05,0,0,0,.05,0l1.16.53a.46.46,0,0,1,.29.3.53.53,0,0,1-.38.66.57.57,0,0,1-.4-.09l-1-.76s0,0-.07,0,0,0,0,.07l.14,1.25a.47.47,0,0,1-.12.4A.53.53,0,0,1,207.64,78.25Z"/><path class="cls-6" d="M214.49,78.25a.47.47,0,0,1-.36-.16.55.55,0,0,1-.12-.4l.15-1.25s0-.06,0-.07a.09.09,0,0,0-.08,0l-1,.74a.51.51,0,0,1-.4.11.48.48,0,0,1-.33-.25.46.46,0,0,1-.06-.44.51.51,0,0,1,.29-.27l1.16-.53s.05,0,.05,0,0,0-.05,0l-1.16-.53a.46.46,0,0,1-.28-.3.5.5,0,0,1,.05-.41.48.48,0,0,1,.33-.25.49.49,0,0,1,.4.09l1,.76a.09.09,0,0,0,.08,0s0,0,0-.07L214,73.72a.51.51,0,0,1,.13-.4.46.46,0,0,1,.38-.16.47.47,0,0,1,.37.16.5.5,0,0,1,.11.4L214.85,75s0,.06,0,.07a.09.09,0,0,0,.08,0l1-.75a.51.51,0,0,1,.41-.1.45.45,0,0,1,.32.25.45.45,0,0,1,.06.44.5.5,0,0,1-.3.27l-1.15.53s0,0,0,0,0,0,0,0l1.15.53a.5.5,0,0,1,.3.3.44.44,0,0,1-.06.41.45.45,0,0,1-.32.25.6.6,0,0,1-.41-.09l-1-.76a.09.09,0,0,0-.08,0s0,0,0,.07l.15,1.25a.47.47,0,0,1-.12.4A.53.53,0,0,1,214.49,78.25Z"/><path class="cls-6" d="M221.33,78.25a.46.46,0,0,1-.35-.16.55.55,0,0,1-.12-.4l.14-1.25s0-.06,0-.07,0,0-.08,0l-1,.74a.51.51,0,0,1-.4.11.53.53,0,0,1-.33-.25.48.48,0,0,1,0-.44.46.46,0,0,1,.29-.27l1.16-.53s.05,0,.05,0,0,0-.05,0l-1.16-.53a.48.48,0,0,1-.29-.3.54.54,0,0,1,0-.41.53.53,0,0,1,.33-.25.49.49,0,0,1,.4.09l1,.76s.06,0,.08,0,0,0,0-.07l-.14-1.25a.55.55,0,0,1,.12-.4.5.5,0,0,1,.39-.16.45.45,0,0,1,.36.16.47.47,0,0,1,.11.4L221.7,75s0,.06,0,.07,0,0,.07,0l1-.75a.49.49,0,0,1,.4-.1.46.46,0,0,1,.33.25.48.48,0,0,1,.05.44.46.46,0,0,1-.29.27l-1.16.53s0,0,0,0,0,0,0,0l1.16.53a.46.46,0,0,1,.29.3.53.53,0,0,1-.38.66.57.57,0,0,1-.4-.09l-1-.76s0,0-.07,0,0,0,0,.07l.14,1.25a.47.47,0,0,1-.12.4A.53.53,0,0,1,221.33,78.25Z"/><path class="cls-6" d="M228.18,78.25a.47.47,0,0,1-.36-.16.55.55,0,0,1-.12-.4l.15-1.25s0-.06,0-.07a.09.09,0,0,0-.08,0l-1,.74a.51.51,0,0,1-.4.11A.48.48,0,0,1,226,77a.46.46,0,0,1-.06-.44.51.51,0,0,1,.29-.27l1.16-.53s.05,0,.05,0,0,0-.05,0l-1.16-.53a.46.46,0,0,1-.28-.3.5.5,0,0,1,.05-.41.48.48,0,0,1,.33-.25.49.49,0,0,1,.4.09l1,.76a.09.09,0,0,0,.08,0s0,0,0-.07l-.15-1.25a.51.51,0,0,1,.13-.4.46.46,0,0,1,.38-.16.47.47,0,0,1,.37.16.5.5,0,0,1,.11.4L228.54,75s0,.06,0,.07a.09.09,0,0,0,.08,0l1-.75a.51.51,0,0,1,.41-.1.45.45,0,0,1,.32.25.45.45,0,0,1,.06.44.5.5,0,0,1-.3.27l-1.15.53s0,0,0,0,0,0,0,0l1.15.53a.5.5,0,0,1,.3.3.44.44,0,0,1-.06.41.45.45,0,0,1-.32.25.6.6,0,0,1-.41-.09l-1-.76a.09.09,0,0,0-.08,0s0,0,0,.07l.15,1.25a.47.47,0,0,1-.12.4A.53.53,0,0,1,228.18,78.25Z"/><path class="cls-26" d="M235,78.25a.46.46,0,0,1-.35-.16.55.55,0,0,1-.12-.4l.14-1.25s0-.06,0-.07,0,0-.08,0l-1,.74a.51.51,0,0,1-.4.11.53.53,0,0,1-.33-.25.48.48,0,0,1-.05-.44.46.46,0,0,1,.29-.27l1.16-.53s.05,0,.05,0,0,0-.05,0l-1.16-.53a.48.48,0,0,1-.29-.3.54.54,0,0,1,.05-.41.53.53,0,0,1,.33-.25.49.49,0,0,1,.4.09l1,.76s.06,0,.08,0,0,0,0-.07l-.14-1.25a.55.55,0,0,1,.12-.4.5.5,0,0,1,.39-.16.45.45,0,0,1,.36.16.47.47,0,0,1,.11.4L235.39,75s0,.06,0,.07,0,0,.07,0l1-.75a.49.49,0,0,1,.4-.1.46.46,0,0,1,.33.25.48.48,0,0,1,.05.44.46.46,0,0,1-.29.27l-1.16.53s0,0,0,0,0,0,0,0l1.16.53a.46.46,0,0,1,.29.3.53.53,0,0,1-.38.66.57.57,0,0,1-.4-.09l-1-.76s0,0-.07,0,0,0,0,.07l.14,1.25a.47.47,0,0,1-.12.4A.53.53,0,0,1,235,78.25Z"/></g></g></g></svg>